<svg width="100" height="50" xmlns="http://www.w3.org/2000/svg">
    <g fill="none" fill-rule="evenodd">
        <path d="M31.886 27.796h1.201l-.6-1.696-.601 1.696zm1.233-3.794 2.427 6.253H33.96l-.456-1.28H31.46l-.448 1.28h-1.586l2.427-6.253h1.265zM38.012 30.255H36.53v-4.83h-1.714v-1.297h4.91v1.296h-1.714v4.83M44.018 27.97v-3.842h1.481V28c0 1.36-.568 2.38-2.65 2.38-2.083 0-2.651-1.02-2.651-2.38v-3.872h1.481v3.841c0 .613.12 1.123 1.17 1.123 1.049 0 1.169-.51 1.169-1.123M49.927 28.377c-.008-.416-.28-.58-1.217-.628-1.273-.055-2.475-.243-2.507-1.696-.032-1.422 1.137-2.05 2.45-2.05 1.835 0 2.716.77 2.732 2.05l-1.506.18c-.016-.699-.44-.95-1.225-.935-.433.008-.977.165-.97.723.009.354.217.417 1.09.471 1.706.095 2.595.346 2.619 1.854.024 1.47-1.29 2.034-2.619 2.034-2.018 0-2.715-.77-2.73-2.05l1.505-.18c.016.699.44.958 1.225.935.577-.016 1.161-.158 1.153-.708M56.566 24.128v1.296h-3.052v1.053h2.62v1.296h-2.62v1.186h3.212v1.296h-4.693v-6.127h4.533M60.257 26.838c.312 0 .737-.055.737-.707 0-.644-.425-.707-.737-.707h-1.393v1.414h1.393zm-1.393 3.417h-1.482v-6.127h2.763c1.13 0 2.354.314 2.354 2.003 0 1.076-.48 1.595-1.12 1.83l1.425 2.294h-1.778l-1.217-2.113h-.945v2.113zM65.077 30.38l-2.426-6.252h1.585l1.474 4.155 1.474-4.155h1.585l-2.426 6.252h-1.266M69.153 30.255h1.482v-6.127h-1.482zM74.294 24.002c1.714 0 2.595.77 2.611 2.05l-1.505.181c-.017-.699-.369-.935-1.106-.935-1.153 0-1.329.904-1.329 1.893 0 .99.176 1.894 1.33 1.894.736 0 1.088-.236 1.105-.935l1.505.18c-.016 1.28-.897 2.05-2.61 2.05-2.059 0-2.828-1.28-2.828-3.189 0-1.908.77-3.189 2.827-3.189M77.593 30.255h1.482v-6.127h-1.482zM81.413 27.191c0 .99.264 1.894 1.45 1.894 1.185 0 1.45-.904 1.45-1.894 0-.99-.265-1.893-1.45-1.893-1.186 0-1.45.904-1.45 1.893zm-1.498 0c0-1.908.841-3.189 2.948-3.189 2.098 0 2.947 1.28 2.947 3.19 0 1.908-.841 3.188-2.947 3.188-2.099 0-2.948-1.28-2.948-3.189zM86.659 30.255h.897v-.872h-.897zM88.645 28.04v-3.912h.816v3.92c0 .88.289 1.586 1.698 1.586 1.41 0 1.698-.707 1.698-1.586v-3.92h.817v3.912c0 1.311-.6 2.309-2.515 2.309-1.914 0-2.514-.998-2.514-2.31M97.173 27.034l.713-1.107 1.193-1.799H100l-2.427 3.582v2.545h-.8V27.71l-2.427-3.582h.92l1.194 1.799.713 1.107M3.651 26.659H0V37h6.916L3.651 26.659M18.13 17.8c.342 1.658 1.838 2.91 3.627 2.91.61 0 1.186-.149 1.695-.406V37H8.528l1.48-19.2zm-4.258 12.368c-.712 0-1.289.396-1.289.885v1.966c0 .488.577.884 1.29.884.712 0 1.288-.396 1.288-.884v-1.966c0-.489-.576-.885-1.289-.885zm5.874 0c-.711 0-1.289.396-1.289.885v1.966c0 .488.578.884 1.29.884.711 0 1.289-.396 1.289-.884v-1.966c0-.489-.578-.885-1.29-.885zm-5.874-7.276c-.712 0-1.289.397-1.289.886v1.966c0 .489.577.885 1.29.885.712 0 1.288-.396 1.288-.885v-1.966c0-.49-.576-.886-1.289-.886zm5.874 0c-.711 0-1.289.397-1.289.886v1.966c0 .489.578.885 1.29.885.711 0 1.289-.396 1.289-.885v-1.966c0-.49-.578-.886-1.29-.886z" fill="#FFFFFE"/>
        <path d="M21.666 19.158a.71.71 0 0 1-.716-.701v-.755h-.842a.71.71 0 0 1-.716-.702.71.71 0 0 1 .716-.702h.842V15.4a.71.71 0 0 1 .716-.703.71.71 0 0 1 .716.703v.897h.843a.71.71 0 0 1 .716.702.71.71 0 0 1-.716.702h-.843v.755a.71.71 0 0 1-.716.701zM3.026 14C1.355 14 0 15.508 0 17.366v7.825h4.204c.327 0 .617.21.714.517l2.009 6.364h.004c.046.097.149.2.245.2.129 0 .233-.088.233-.197l-.002-.01 1.16-15.054a.742.742 0 0 1 .746-.678h8.822A3.642 3.642 0 0 1 19.807 14H3.027" fill="#FFF"/>
    </g>
</svg>
