<svg width="80" height="50" xmlns="http://www.w3.org/2000/svg">
    <defs>
        <filter color-interpolation-filters="auto" id="a">
            <feColorMatrix in="SourceGraphic" values="0 0 0 0 1.000000 0 0 0 0 1.000000 0 0 0 0 1.000000 0 0 0 1.000000 0"/>
        </filter>
    </defs>
    <g filter="url(#a)" fill="none" fill-rule="evenodd">
        <path d="m28.802 26.915-1.062-3.043h-.02l-1.071 3.043h2.153zm-1.508-4.235c.02-.059.05-.098.119-.098h.645c.07 0 .11.04.129.098l2.312 6.5c.02.06-.01.099-.07.099h-.694c-.07 0-.109-.03-.129-.099l-.516-1.457h-2.73l-.515 1.457c-.03.07-.07.099-.13.099h-.694c-.06 0-.09-.04-.07-.099l2.343-6.5zM32.871 29.279c-.06 0-.099-.04-.099-.099v-5.249c0-.04-.02-.059-.06-.059h-1.707c-.06 0-.099-.04-.099-.098V22.68c0-.059.04-.098.1-.098h4.991c.06 0 .1.04.1.098v1.094c0 .059-.04.098-.1.098H34.29c-.04 0-.06.02-.06.06v5.248c0 .06-.039.099-.099.099h-1.26M36.88 26.817V22.68c0-.059.04-.098.1-.098h1.26c.06 0 .1.04.1.098v4.176c0 .798.446 1.25 1.13 1.25.675 0 1.122-.452 1.122-1.25V22.68c0-.059.04-.098.1-.098h1.26c.06 0 .099.04.099.098v4.137c0 1.664-1.072 2.57-2.58 2.57-1.519 0-2.59-.906-2.59-2.57M43.5 22.68c0-.059.04-.098.099-.098h.635c.08 0 .13.02.169.098l3.056 5.023h.04V22.68c0-.059.04-.098.1-.098h.625c.06 0 .099.04.099.098v6.5c0 .06-.04.099-.1.099h-.635c-.07 0-.129-.02-.168-.099l-3.067-5.003h-.03v5.003c0 .06-.04.099-.099.099H43.6c-.06 0-.1-.04-.1-.099v-6.5M53.662 27.575c.08-.246.149-.68.149-1.645s-.07-1.398-.15-1.644c-.208-.64-.684-.995-1.438-.995-.745 0-1.221.355-1.43.995-.079.246-.148.68-.148 1.644 0 .966.07 1.399.149 1.645.208.64.684.995 1.429.995.754 0 1.23-.355 1.439-.995zm-3.732.246c-.129-.384-.178-.788-.178-1.89 0-1.104.05-1.507.178-1.892.348-1.034 1.161-1.565 2.293-1.565 1.141 0 1.955.531 2.302 1.565.13.385.179.788.179 1.891s-.05 1.507-.179 1.891c-.347 1.034-1.16 1.566-2.302 1.566-1.132 0-1.945-.532-2.293-1.566zM56.133 22.68c0-.059.04-.098.099-.098h.645c.08 0 .129.03.159.098l2.014 4.51h.03l1.975-4.51c.03-.069.08-.098.159-.098h.645c.06 0 .1.04.1.098v6.5c0 .06-.04.099-.1.099h-.625c-.06 0-.1-.04-.1-.099v-4.658h-.03l-1.677 3.683c-.04.089-.089.119-.178.119h-.397c-.1 0-.149-.03-.189-.119l-1.677-3.683h-.03v4.658c0 .06-.04.099-.099.099h-.625c-.06 0-.1-.04-.1-.099v-6.5M64.568 28.481h1.578c.804 0 1.24-.433 1.24-1.103 0-.66-.436-1.103-1.24-1.103h-1.578c-.04 0-.06.02-.06.06v2.087c0 .04.02.059.06.059zm1.529-3.004c.744 0 1.18-.423 1.18-1.044 0-.64-.436-1.053-1.18-1.053h-1.529c-.04 0-.06.02-.06.059v1.98c0 .039.02.058.06.058h1.529zm-2.472-2.797c0-.059.04-.098.1-.098h2.391c1.36 0 2.035.69 2.035 1.763 0 .778-.377 1.25-.903 1.457v.02c.456.128 1.022.65 1.022 1.546 0 1.251-.794 1.91-2.203 1.91h-2.343c-.059 0-.099-.038-.099-.098v-6.5zM73.39 24.512c0-.699-.466-1.113-1.25-1.113h-1.578c-.04 0-.06.02-.06.06v2.107c0 .04.02.06.06.06h1.578c.784 0 1.25-.415 1.25-1.114zm.14 4.767c-.07 0-.1-.03-.13-.099l-1.35-2.738h-1.488c-.04 0-.06.02-.06.06v2.678c0 .06-.04.099-.099.099h-.684c-.06 0-.1-.04-.1-.099v-6.5c0-.059.04-.098.1-.098h2.441c1.26 0 2.114.768 2.114 1.93 0 .906-.516 1.566-1.33 1.822l1.439 2.827c.04.059.01.118-.06.118h-.793zM75.743 22.68c0-.059.04-.098.099-.098H79.9c.06 0 .099.04.099.098v.62c0 .06-.04.1-.1.1h-3.215c-.04 0-.06.019-.06.059v1.969c0 .04.02.06.06.06h2.73c.059 0 .099.039.099.098v.62c0 .06-.04.099-.1.099h-2.729c-.04 0-.06.02-.06.059v2.038c0 .04.02.06.06.06h3.216c.06 0 .099.039.099.098v.62c0 .06-.04.099-.1.099h-4.058c-.06 0-.1-.04-.1-.099v-6.5" fill="#0A0A0C"/>
        <path d="M10.989 21.763c-1.136-.391-2.263-.8-3.384-1.226a78.77 78.77 0 0 1-3.603 4.076c1.784.834 3.565 1.677 5.358 2.494.745.341 1.505.664 2.266.991.56-1.852 1.094-3.712 1.615-5.577-.752-.25-1.503-.5-2.252-.758" fill="#E8BD32"/>
        <path d="M11.92 21.764c.467.157.935.31 1.403.464.445-1.594.882-3.191 1.319-4.787a9.567 9.567 0 0 0-3.561-1.322 125.759 125.759 0 0 1-3.274 4.172c1.36.517 2.732 1.006 4.113 1.473M.372 28.125a9.44 9.44 0 0 0 2.793 4.437 9.578 9.578 0 0 0 6.205 2.436 146.51 146.51 0 0 0 2.167-6.601c-.852-.366-1.703-.729-2.533-1.12-1.735-.818-3.47-1.638-5.212-2.446a58.097 58.097 0 0 1-3.42 3.294M19.082 24.41c-.255-.076-.511-.15-.765-.233l-2.545-.826c-.748-.243-1.496-.488-2.243-.734a277.123 277.123 0 0 1-1.624 5.602c1.886.813 3.762 1.67 5.405 2.88a9.423 9.423 0 0 0 1.772-6.689" fill="#D87241"/>
        <path d="M7.508 20.176a123.743 123.743 0 0 0 3.23-4.106 9.614 9.614 0 0 0-7.53 2.334 92.284 92.284 0 0 0 4.3 1.772M2.965 18.626a9.443 9.443 0 0 0-2.612 4.308c1.124.504 2.242 1.023 3.359 1.544a78.484 78.484 0 0 0 3.593-4.054 91.547 91.547 0 0 1-4.34-1.798M3.501 24.697c-1.072-.497-2.147-.99-3.227-1.47a9.475 9.475 0 0 0 .011 4.571 58.08 58.08 0 0 0 3.216-3.101M11.816 28.517A147.3 147.3 0 0 1 9.69 35a9.579 9.579 0 0 0 7.434-3.662c-1.615-1.189-3.456-2.023-5.308-2.821" fill="#CB4430"/>
        <path d="M17.245 23.512c.57.185 1.183.339 1.786.521a9.44 9.44 0 0 0-3.052-5.595 9.834 9.834 0 0 0-1.07-.826c-.43 1.571-.86 3.143-1.299 4.712 1.21.4 2.422.795 3.635 1.188" fill="#D1503B"/>
    </g>
</svg>
