<svg width="65" height="50" xmlns="http://www.w3.org/2000/svg">
    <g fill="#FFF" fill-rule="evenodd">
        <path d="M4.665 22.353c.726 0 1.122-.287 1.386-.719.231-.36.314-.7.314-2.876 0-2.156-.083-2.516-.314-2.875-.264-.432-.66-.72-1.386-.72H3.394v7.19h1.27zm-2.401 2.804c-.43 0-.966 0-1.37-.44-.405-.44-.405-1.025-.405-1.492v-8.933c0-.467 0-1.052.405-1.492.404-.44.94-.44 1.37-.44h2.599c1.766 0 3.003.737 3.812 2.157.578 1.024.578 2.03.578 4.241s0 3.218-.578 4.242c-.809 1.42-2.046 2.157-3.812 2.157h-2.6zM16.779 10.472c-.182.315-.355.612-.554.764a.884.884 0 0 1-.569.198c-.214 0-.429-.072-.627-.207-.396-.27-.578-.665-.545-1.06.025-.306.108-.486.397-.989l.618-1.078c.182-.315.355-.611.553-.764a.886.886 0 0 1 .57-.198c.214 0 .429.072.627.207.396.27.577.665.544 1.06-.024.306-.107.486-.396.989l-.618 1.078zm.148 8.286c0-2.336-.165-2.768-.43-3.145-.214-.306-.626-.557-1.154-.557-.529 0-.94.251-1.156.557-.264.377-.429.809-.429 3.145 0 2.337.165 2.75.43 3.128.214.305.626.575 1.155.575.528 0 .94-.27 1.155-.575.264-.377.429-.79.429-3.128zm-1.584 6.507c-1.436 0-2.435-.485-3.276-1.402-1.197-1.303-1.213-2.948-1.213-5.105 0-2.156.016-3.801 1.213-5.104.841-.917 1.84-1.402 3.276-1.402 1.436 0 2.434.485 3.276 1.402 1.196 1.303 1.213 2.948 1.213 5.104 0 2.157-.017 3.802-1.213 5.105-.842.917-1.84 1.402-3.276 1.402zM30.625 24.744a1.399 1.399 0 0 1-1.089.485c-.66 0-1.065-.45-1.708-1.492l-3.127-5.015v4.386c0 .719-.009.97-.182 1.348-.206.45-.693.773-1.27.773-.578 0-1.065-.324-1.272-.773-.173-.377-.181-.629-.181-1.348v-8.88c0-.61.05-1.096.38-1.455a1.398 1.398 0 0 1 1.089-.485c.66 0 1.064.45 1.708 1.492l3.127 5.014V14.41c0-.72.008-.97.182-1.348.206-.45.693-.773 1.27-.773.578 0 1.065.323 1.271.773.174.377.182.629.182 1.348v8.879c0 .611-.05 1.096-.38 1.456M37.524 22.353c.726 0 1.122-.287 1.386-.719.231-.36.314-.7.314-2.876 0-2.156-.083-2.516-.314-2.875-.264-.432-.66-.72-1.386-.72h-1.27v7.19h1.27zm-2.401 2.804c-.43 0-.966 0-1.37-.44-.404-.44-.404-1.025-.404-1.492v-8.933c0-.467 0-1.052.404-1.492.404-.44.94-.44 1.37-.44h2.6c1.765 0 3.003.737 3.811 2.157.578 1.024.578 2.03.578 4.241s0 3.218-.578 4.242c-.808 1.42-2.046 2.157-3.812 2.157h-2.6zM45.867 25.157c-.43 0-.966 0-1.37-.44-.405-.44-.405-1.025-.405-1.492v-8.933c0-.468 0-1.052.405-1.492.404-.44.94-.44 1.37-.44h4.58c.593 0 .816.018 1.105.17.363.19.627.674.627 1.232 0 .557-.264 1.042-.627 1.23-.289.154-.512.172-1.106.172h-3.449v2.138h2.707c.594 0 .817.019 1.105.171.363.189.628.674.628 1.232 0 .557-.265 1.042-.628 1.23-.288.153-.511.171-1.105.171h-2.707v2.247h3.45c.593 0 .816.018 1.105.17.363.19.627.675.627 1.232 0 .558-.264 1.043-.627 1.232-.289.152-.512.17-1.106.17h-4.58zM5.028 35.367c.792 0 1.254-.63 1.254-1.294 0-.675-.462-1.313-1.254-1.313H3.394v2.607h1.634zm-.652 2.624h-.982v2.714c0 .719-.008.97-.182 1.348-.206.45-.693.773-1.27.773-.578 0-1.065-.324-1.271-.773-.173-.377-.182-.63-.182-1.348v-8.816c0-.468 0-1.052.405-1.492.404-.44.94-.44 1.37-.44H5.16c2.607 0 4.01 2.013 4.01 4.116 0 1.357-.66 2.624-1.873 3.325l1.386 2.65c.33.63.43.909.43 1.304 0 .54-.248.962-.71 1.25a1.38 1.38 0 0 1-.726.224c-.743 0-1.098-.63-1.428-1.258L4.376 37.99zM13.024 42.754c-.43 0-.965 0-1.37-.44-.404-.44-.404-1.025-.404-1.492v-8.933c0-.468 0-1.052.404-1.492.405-.44.94-.44 1.37-.44h4.58c.594 0 .817.018 1.105.17.363.189.627.674.627 1.231 0 .558-.264 1.043-.627 1.232-.288.152-.511.17-1.105.17h-3.45v2.14h2.707c.594 0 .817.017 1.106.17.363.189.627.674.627 1.231 0 .558-.264 1.043-.627 1.232-.289.152-.512.17-1.106.17h-2.707v2.247h3.45c.594 0 .817.018 1.105.17.363.19.627.675.627 1.232 0 .557-.264 1.043-.627 1.231-.288.153-.511.17-1.105.17h-4.58zM22.085 31.25c.841-.916 1.84-1.401 3.243-1.401 1.435 0 2.236.26 2.962.97.891.872 1.114 1.816 1.114 2.373 0 .557-.14.908-.404 1.195a1.34 1.34 0 0 1-.999.44c-.322 0-.578-.09-.776-.242-.313-.234-.52-.575-.767-1.052-.33-.638-.677-.88-1.197-.88-.495 0-.825.251-1.04.557-.337.485-.445 1.042-.445 3.145 0 2.103.108 2.66.446 3.146.214.305.544.557 1.04.557.52 0 .866-.243 1.196-.88.247-.477.454-.819.767-1.052.198-.153.454-.243.776-.243.38 0 .735.153.999.44.264.288.404.639.404 1.196 0 .557-.223 1.5-1.114 2.372-.726.71-1.527.97-2.962.97-1.403 0-2.402-.485-3.243-1.401-1.197-1.303-1.213-2.948-1.213-5.105 0-2.157.016-3.801 1.213-5.104M31.228 32.006c0-.72.008-.971.181-1.349.207-.449.693-.772 1.271-.772s1.065.323 1.27.772c.174.378.182.63.182 1.349v8.699c0 .719-.008.97-.181 1.348-.206.45-.693.773-1.27.773-.579 0-1.065-.324-1.272-.773-.173-.377-.181-.63-.181-1.348v-8.7zM37.31 31.25c.84-.916 1.84-1.401 3.242-1.401 1.436 0 2.236.26 2.963.97.89.872 1.114 1.816 1.114 2.373 0 .557-.14.908-.405 1.195a1.34 1.34 0 0 1-.998.44c-.322 0-.578-.09-.776-.242-.313-.234-.52-.575-.767-1.052-.33-.638-.677-.88-1.197-.88-.495 0-.825.251-1.04.557-.338.485-.445 1.042-.445 3.145 0 2.103.107 2.66.445 3.146.215.305.545.557 1.04.557.52 0 .867-.243 1.197-.88.247-.477.454-.819.767-1.052.198-.153.454-.243.776-.243.38 0 .734.153.998.44.264.288.405.639.405 1.196 0 .557-.223 1.5-1.114 2.372-.727.71-1.527.97-2.963.97-1.403 0-2.401-.485-3.243-1.401-1.196-1.303-1.213-2.948-1.213-5.105 0-2.157.017-3.801 1.213-5.104M48.227 42.754c-.43 0-.966 0-1.37-.44-.405-.44-.405-1.025-.405-1.492v-8.816c0-.72.009-.971.182-1.349.206-.449.693-.772 1.27-.772.578 0 1.065.323 1.272.772.173.378.18.63.18 1.349v7.944h3.269c.594 0 .817.018 1.105.17.364.19.628.675.628 1.232 0 .557-.264 1.043-.628 1.231-.288.153-.511.17-1.089.17h-4.414zM61.62 36.355c0-2.336-.166-2.768-.43-3.145-.214-.306-.627-.557-1.155-.557s-.94.251-1.155.557c-.264.377-.43.809-.43 3.145 0 2.337.166 2.75.43 3.128.214.305.627.575 1.155.575s.94-.27 1.155-.575c.264-.378.43-.791.43-3.128m-1.585 6.507c-1.436 0-2.434-.486-3.276-1.402-1.196-1.303-1.213-2.948-1.213-5.105 0-2.157.017-3.801 1.213-5.104.842-.917 1.84-1.402 3.276-1.402 1.436 0 2.434.485 3.276 1.402 1.196 1.303 1.213 2.947 1.213 5.104s-.017 3.802-1.213 5.105c-.842.916-1.84 1.402-3.276 1.402"/>
    </g>
</svg>
