<svg width="65" height="50" xmlns="http://www.w3.org/2000/svg">
    <defs>
        <filter color-interpolation-filters="auto" id="a">
            <feColorMatrix in="SourceGraphic" values="0 0 0 0 1.000000 0 0 0 0 1.000000 0 0 0 0 1.000000 0 0 0 1.000000 0"/>
        </filter>
    </defs>
    <g filter="url(#a)" fill="none" fill-rule="evenodd">
        <path d="M9.76 17.338a3.001 3.001 0 0 0-.56.03c-2.93.428-4.55 3.387-4.633 6.09-.005.143-.005.329.007.545 2.672-.182 5.952-.867 7.37-2.797.516-.702.538-1.628.059-2.477-.384-.679-1.155-1.345-2.243-1.391m.236 14.654a9.786 9.786 0 0 1-1.639-.21c-2.866-.616-4.956-2.503-5.85-5.102a19.898 19.898 0 0 1-1.349-.064c-.698-.063-1.214-.701-1.153-1.425.06-.723.675-1.267 1.373-1.196.19.017.41.031.653.042a9.994 9.994 0 0 1 0-.663c.118-3.803 2.497-7.982 6.815-8.612 2.165-.317 4.264.72 5.346 2.638 1.002 1.776.914 3.845-.23 5.401-1.948 2.65-5.76 3.526-8.722 3.785.584 1.126 1.661 2.196 3.63 2.618 6.937 1.49 11.827-7.682 11.875-7.775a1.246 1.246 0 0 1 1.72-.528c.616.347.844 1.145.51 1.784-.058.11-1.448 2.74-3.88 5.175-2.851 2.856-5.967 4.263-9.1 4.132" fill="#00A3DA"/>
        <path d="m32.625 5.038.35.245c.556.392.7 1.169.325 1.747l-.17.262-2.35-1.655.17-.262c.375-.58 1.12-.73 1.675-.337zm.065 2.935-.829 1.275-2.351-1.655.827-1.276 2.353 1.656zm-5.94 9.152a1.343 1.343 0 0 0-.362-.393c-.3-.209-.619-.238-.864-.24-.045 0-.04.006-.081.007-.015-.04-.008-.037-.026-.081-.092-.237-.237-.536-.534-.746a1.279 1.279 0 0 0-.485-.202l4.67-7.197 2.351 1.655-4.67 7.197zm-.562.661c.005.01.005.016.01.023l-1.998 1.3-.62-.436.414-2.416c.01.002.014-.001.023 0 .165 0 .344.042.424.099.08.054.183.215.246.374.061.158.085.283.085.283l.075.403.388-.077s.12-.025.284-.023c.164 0 .346.041.424.098.08.056.184.214.245.372zm4.107-12.872-.17.26-1.712 2.64-5.129 7.904-.953 5.576 4.611-3 .05-.071 5.08-7.832h.001l1.713-2.638.168-.26c.615-.95.374-2.25-.538-2.892l-.347-.245c-.91-.642-2.159-.39-2.774.558z" fill="#194586"/>
        <path d="M34.011 25.875c0-.755-.619-1.375-1.538-1.375-1.032 0-1.67.581-1.745 1.375h3.283zm2.402 4.9c-.75.446-2.026.813-3.283.813-1.633 0-2.908-.426-3.828-1.278-.92-.871-1.388-2.014-1.388-3.447 0-1.414.413-2.556 1.257-3.428.844-.872 1.932-1.317 3.246-1.317 2.57 0 4.784 1.763 4.165 5.5h-5.854c.131.988 1.126 1.453 2.42 1.453 1.107 0 2.27-.233 2.87-.523l.395 2.227zM39.479 31.176h2.79V18h-2.79zM44.794 31.176h2.908v-9.143h-2.908v9.143zm-.131-11.95c0-.956.622-1.638 1.585-1.638.925 0 1.605.682 1.605 1.638 0 .955-.68 1.638-1.605 1.638-.963 0-1.585-.683-1.585-1.638zM50.625 19.61c0-.94.665-1.61 1.595-1.61.969 0 1.614.67 1.614 1.61 0 .94-.645 1.61-1.614 1.61-.93 0-1.595-.67-1.595-1.61zM48.5 32.572c.436.134.816.191 1.1.191.78 0 1.178-.44 1.178-1.304v-9.068h2.924v9.298c0 2.455-1.709 3.605-3.456 3.605-.854 0-1.519-.134-1.993-.402l.247-2.32zM60.414 24.771a1.68 1.68 0 0 0-1.31.581c-.328.388-.492.891-.492 1.51 0 .601.164 1.105.492 1.512.345.387.782.58 1.31.58s.964-.193 1.31-.58c.346-.407.51-.91.51-1.511 0-.62-.164-1.123-.51-1.51a1.681 1.681 0 0 0-1.31-.582m0-2.653c1.328 0 2.42.446 3.276 1.356.873.91 1.31 2.033 1.31 3.389 0 1.356-.437 2.479-1.31 3.389-.856.891-1.948 1.336-3.276 1.336-1.31 0-2.402-.445-3.276-1.336-.873-.91-1.31-2.033-1.31-3.39 0-1.355.437-2.478 1.31-3.388.874-.91 1.966-1.356 3.276-1.356" fill="#00A3DA"/>
        <path d="M7.211 41.296c-.085-1.857-1.242-3.2-3.078-3.2-.902 0-1.667.3-2.296.919-.613.601-.952 1.362-1.003 2.281H7.21zm.254 3.926A5.613 5.613 0 0 1 4.558 46c-1.344 0-2.449-.407-3.3-1.203C.427 44.001 0 42.96 0 41.686c0-1.257.392-2.282 1.157-3.095.765-.831 1.751-1.238 2.942-1.238 2.772 0 4.166 2.228 3.826 4.58H.817c.084 2.281 1.955 3.324 3.724 3.324 1.071 0 2.006-.265 2.772-.813l.152.778zM14.463 41.402c1.563.3 2.285 1.026 2.285 2.229 0 1.467-1.126 2.369-3.057 2.369-1.059 0-2.016-.212-2.857-.637l.118-.76c.79.424 1.68.637 2.67.637 1.53 0 2.337-.513 2.337-1.556 0-.902-.538-1.344-2.134-1.627l-.907-.177c-1.412-.265-2.151-1.043-2.151-2.122 0-1.503 1.16-2.405 3.109-2.405.89 0 1.663.142 2.335.424l-.101.743c-.655-.265-1.378-.406-2.201-.406-1.53 0-2.352.53-2.352 1.573 0 .831.436 1.22 1.78 1.486l1.126.23zM23.232 38.218h-2.87V43.3c0 1.359.661 1.994 1.652 1.994.557 0 1.027-.088 1.41-.247l.104.689c-.47.176-.992.264-1.583.264-1.461 0-2.383-.83-2.383-2.436v-5.346h-1.617v-.671h1.6v-2.665h.817v2.665h2.87v.67zM31.152 37.353h.75v5.055c0 1.065-.324 1.931-.972 2.6-.63.667-1.518.992-2.626.992-1.108 0-1.977-.325-2.625-.993-.631-.668-.955-1.516-.955-2.545v-5.11h.75v4.875c0 1.968 1.074 3.033 2.83 3.033 1.774 0 2.848-1.065 2.848-3.033v-4.874zM35.618 39.088c-.63.691-.938 1.542-.938 2.57 0 1.046.307 1.914.938 2.605.631.69 1.433 1.028 2.388 1.028 1.007 0 1.859-.355 2.524-1.045.683-.692 1.023-1.56 1.023-2.588 0-1.01-.34-1.861-1.023-2.552-.665-.691-1.517-1.046-2.524-1.046-.955 0-1.757.337-2.388 1.028zm6.652-5.44v12.175h-.768v-1.844C40.82 45.203 39.438 46 37.938 46c-1.143 0-2.115-.408-2.882-1.24-.768-.833-1.16-1.88-1.16-3.102 0-1.223.392-2.233 1.16-3.066.767-.833 1.739-1.259 2.882-1.259 1.5 0 2.865.78 3.547 1.985v-5.67h.785zM45.288 45.588h.761v-8.154h-.76v8.154zm.381-11.527c.795 0 .795 1.287 0 1.287-.81.07-.81-1.357 0-1.287zM50.373 39.104c-.631.69-.938 1.538-.938 2.564 0 1.043.307 1.91.938 2.6.63.688 1.433 1.024 2.388 1.024 1.006 0 1.859-.354 2.524-1.042.683-.69 1.024-1.557 1.024-2.582 0-1.008-.341-1.857-1.024-2.547-.665-.69-1.518-1.043-2.524-1.043-.955 0-1.757.336-2.388 1.026zm6.652-1.574v8.293h-.768v-1.84C55.575 45.205 54.193 46 52.693 46c-1.144 0-2.115-.407-2.883-1.238-.768-.83-1.16-1.874-1.16-3.094 0-1.22.392-2.229 1.16-3.06.768-.83 1.74-1.255 2.883-1.255 1.5 0 2.865.778 3.547 1.98V37.53h.785zM60.617 37.122v1.39c.19-.487.522-.867.992-1.137a2.922 2.922 0 0 1 1.497-.434c.47 0 .835.055 1.096.18l-.07.74a3.037 3.037 0 0 0-1.044-.162c-1.48 0-2.471 1.12-2.471 3.087v4.802h-.801v-8.466h.8z" fill="#194586"/>
    </g>
</svg>
