<svg width="70" height="50" xmlns="http://www.w3.org/2000/svg">
    <path d="m58.726 28.75-.59 4.938c-.01.08-.017.154-.023.221a2.617 2.617 0 0 0-.007.192c0 .264.046.45.14.555.093.105.233.157.42.157.155 0 .32-.046.494-.138.174-.093.341-.223.503-.39.16-.168.31-.372.45-.612a3.9 3.9 0 0 0 .343-.803l.506-4.12h3.31c.166 0 .291.04.374.12.083.08.14.176.17.286l.68 3.354c.03.145.058.289.083.431.026.143.046.287.061.432.06-.145.126-.292.196-.44.07-.147.139-.293.204-.438l1.451-3.34a.787.787 0 0 1 .265-.288.633.633 0 0 1 .355-.116H70l-5.078 9.806a.813.813 0 0 1-.299.338.822.822 0 0 1-.427.105h-1.753l1.791-3.166-1.242-4.532-.64 5.23H61.16c-.554 0-.832-.256-.832-.766v-.495c-.377.47-.783.818-1.216 1.043a2.895 2.895 0 0 1-1.353.337 2.02 2.02 0 0 1-.804-.157 1.768 1.768 0 0 1-.635-.462 2.122 2.122 0 0 1-.416-.75 3.266 3.266 0 0 1-.147-1.024c0-.09.003-.183.01-.278.009-.095.017-.192.028-.292l.589-4.937h2.343zM34.866 12v4.337c.302-.252.63-.455.982-.61.354-.155.775-.232 1.266-.232.458 0 .864.077 1.217.232.353.155.651.37.894.645.242.276.426.604.55.984.124.38.186.794.186 1.24L39.96 23h1.322l3.938 10.101a.831.831 0 0 1 .27-.044c.188 0 .376.059.566.177.19.117.406.247.646.39.24.142.516.272.827.39.312.117.68.176 1.104.176.574 0 1.02-.125 1.337-.376.318-.25.477-.648.477-1.193 0-.316-.087-.573-.261-.77a2.02 2.02 0 0 0-.688-.493 6.36 6.36 0 0 0-.968-.344c-.361-.099-.733-.209-1.113-.33-.38-.12-.751-.269-1.113-.445a3.515 3.515 0 0 1-.968-.697 3.255 3.255 0 0 1-.687-1.077c-.175-.43-.262-.96-.262-1.592a3.836 3.836 0 0 1 1.216-2.777c.141-.134.294-.258.458-.373a4.978 4.978 0 0 1-1.394.185 4.96 4.96 0 0 1-1.75-.295 3.924 3.924 0 0 1-1.359-.842 3.72 3.72 0 0 1-.882-1.33c-.207-.522-.311-1.11-.311-1.76 0-.645.104-1.226.311-1.743a3.69 3.69 0 0 1 .882-1.318c.38-.363.833-.64 1.359-.835a5.022 5.022 0 0 1 1.75-.291c.636 0 1.216.097 1.739.291.523.194.972.472 1.346.835.375.361.666.8.874 1.318.207.517.311 1.098.311 1.743 0 .65-.104 1.238-.311 1.76a3.657 3.657 0 0 1-1.241 1.644 5.649 5.649 0 0 1 1.678-.233c.418 0 .825.032 1.22.097.397.065.772.16 1.128.288.355.127.687.279.996.455.308.176.584.376.827.599l-.785 1.458c-.094.149-.192.26-.295.334a.662.662 0 0 1-.397.112.978.978 0 0 1-.463-.135 72.79 72.79 0 0 0-.561-.302 4.673 4.673 0 0 0-.716-.302 2.876 2.876 0 0 0-.916-.134c-.593 0-1.034.125-1.324.376-.29.25-.435.59-.435 1.017 0 .272.088.498.262.678.175.179.404.334.688.464.283.13.608.249.972.358.365.108.738.228 1.118.362.38.133.753.289 1.118.469.364.179.688.408.972.687.284.278.513.617.688 1.017.174.399.262.88.262 1.444 0 .625-.11 1.21-.328 1.755a4.11 4.11 0 0 1-.95 1.425 4.413 4.413 0 0 1-1.533.957c-.608.232-1.298.348-2.071.348a6.7 6.7 0 0 1-1.296-.13 7.842 7.842 0 0 1-.755-.188l.068.17h-2.45c-.275 0-.5-.064-.679-.19a.984.984 0 0 1-.369-.488l-.804-2.36h-5.182l-.804 2.36c-.062.173-.184.33-.365.469-.18.139-.402.209-.664.209h-2.469l.002-.005c-.463-.03-.8-.227-1.012-.59l-2.263-3.928a.948.948 0 0 0-.35-.371c-.135-.075-.324-.112-.567-.112h-.804v5.006h-3.161v-1.654l.024-.028a7.825 7.825 0 0 1-5.978 2.76 7.826 7.826 0 0 1-6.766-3.87v2.792h-3.18v-5.72H3.18v5.72H0v-13.53h3.18v5.655h5.537V23h3.18l-.001 2.95a7.831 7.831 0 0 1 3.09-2.96l.14-.072a5.468 5.468 0 0 1-2.12-2.56 6.016 6.016 0 0 1-.44-2.314c0-.829.146-1.6.44-2.314a5.497 5.497 0 0 1 1.246-1.858 5.78 5.78 0 0 1 1.937-1.236c.754-.298 1.59-.448 2.506-.448.917 0 1.751.15 2.503.452a5.789 5.789 0 0 1 1.929 1.24 5.528 5.528 0 0 1 1.241 1.858c.294.713.441 1.482.441 2.306 0 .83-.147 1.6-.44 2.314a5.571 5.571 0 0 1-1.242 1.862c-.27.268-.57.506-.897.715a7.846 7.846 0 0 1 2.397 1.89l-.01-.012-.001-1.813 1.506.002a3.715 3.715 0 0 1-.212-.2 3.933 3.933 0 0 1-.841-1.326c-.208-.525-.311-1.123-.311-1.795 0-.588.09-1.137.27-1.649.181-.511.448-.955.801-1.33.353-.375.79-.67 1.31-.885.52-.215 1.123-.323 1.808-.323.657 0 1.234.102 1.73.307a4.16 4.16 0 0 1 1.343.897l-.664.858c-.075.09-.148.16-.218.213a.493.493 0 0 1-.299.078.657.657 0 0 1-.336-.086l-.335-.193a2.576 2.576 0 0 0-.437-.193 1.923 1.923 0 0 0-.623-.087c-.307 0-.573.056-.796.166-.224.11-.409.267-.554.472a2.13 2.13 0 0 0-.323.752c-.07.296-.106.63-.106 1.003 0 .782.155 1.383.465 1.803.31.42.737.63 1.282.63.291 0 .522-.036.692-.107.17-.07.313-.15.432-.236s.228-.166.327-.24c.1-.074.226-.11.377-.11.199 0 .35.07.452.212l.728.874c-.259.289-.53.524-.817.705l-.013.008a6.14 6.14 0 0 1 1.107.37L32.359 12h2.507zM18.644 35.732h-.525v1.043h.525v-1.043zm35.615-1.662c.187 0 .36.034.522.102.161.067.302.159.423.274a1.242 1.242 0 0 1 .386.907 1.268 1.268 0 0 1-.386.916 1.33 1.33 0 0 1-.423.27 1.38 1.38 0 0 1-.522.098c-.191 0-.367-.033-.529-.098a1.257 1.257 0 0 1-.8-1.186 1.266 1.266 0 0 1 .381-.908 1.34 1.34 0 0 1 .948-.375zm-31.528.433-.454.262.52.903.455-.263-.52-.902zm-7.434 0-.521.902.454.263.521-.903-.454-.262zm21.04-17.174c-.274 0-.533.058-.775.173-.243.116-.475.27-.696.465v5.816H32.74c.194.11.371.23.532.36.44.36.759.784.958 1.273.2.489.3 1.021.3 1.597 0 .44-.06.854-.178 1.244-.119.39-.295.751-.529 1.082-.233.331-.52.627-.86.887-.34.26-.731.474-1.174.64.212.106.41.236.594.39.184.156.345.344.482.567l1.066 1.733 3.81-9.773h-.287v-5.187c0-.399-.095-.71-.283-.933-.189-.223-.467-.334-.833-.334zm-11.78 14.709-.262.454.902.522.263-.455-.903-.521zm-11.087 0-.902.52.262.456.903-.522-.263-.454zm26.194-6.25c-.1.377-.203.727-.309 1.048-.106.322-.205.601-.299.836l-1.253 3.687h3.722l-1.253-3.705-.285-.832c-.11-.318-.217-.664-.323-1.035zm-21.02-.275h-.525v3.696a.696.696 0 0 0-.416.573l-1.564.003v.524l1.738-.001a.7.7 0 0 0 1.049-.002l.08-.001v-.108a.696.696 0 0 0-.36-1.003l-.002-3.68zm7.296 3.485h-1.042v.525h1.042v-.525zm-12.81 0h-1.043v.525h1.043v-.525zm15.919-3.647h-1.272v4.011h1.272c.43 0 .796-.054 1.099-.162.302-.108.55-.259.743-.45.194-.192.334-.417.421-.674.088-.257.131-.534.131-.83 0-.595-.195-1.06-.584-1.394-.39-.334-.993-.501-1.81-.501zm-15.586.327-.262.454.902.521.263-.454-.903-.521zm11.102 0-.903.52.263.455.902-.52-.262-.455zm-2.863-2.191-.521.902.455.263.52-.903-.454-.262zm-5.376 0-.455.262.521.903.455-.263-.521-.902zm2.318-.475h-.525v1.042h.525v-1.042zm26.023-5.707c-.593 0-1.027.197-1.302.59-.274.394-.412.995-.412 1.803 0 .808.138 1.41.412 1.807.275.396.71.594 1.302.594.577 0 1.002-.198 1.274-.594.272-.397.408-.999.408-1.807 0-.808-.136-1.409-.408-1.802-.272-.394-.697-.59-1.274-.59zm-25.972-2.92c-.528 0-.998.084-1.41.252a2.8 2.8 0 0 0-1.044.724c-.283.315-.5.7-.651 1.153-.151.454-.226.965-.226 1.531 0 .572.075 1.085.226 1.539.151.454.368.838.65 1.153.284.315.632.555 1.044.72.413.166.883.248 1.411.248.523 0 .99-.082 1.4-.248.409-.165.756-.405 1.038-.72.284-.315.5-.7.651-1.153.152-.454.227-.967.227-1.539a4.83 4.83 0 0 0-.227-1.53 3.214 3.214 0 0 0-.65-1.154 2.803 2.803 0 0 0-1.04-.724 3.658 3.658 0 0 0-1.399-.252z" fill="#FFF" fill-rule="nonzero"/>
</svg>
