<svg width="100" height="50" xmlns="http://www.w3.org/2000/svg">
    <defs>
        <filter color-interpolation-filters="auto" id="a">
            <feColorMatrix in="SourceGraphic" values="0 0 0 0 1.000000 0 0 0 0 1.000000 0 0 0 0 1.000000 0 0 0 1.000000 0"/>
        </filter>
    </defs>
    <g filter="url(#a)" fill="none" fill-rule="evenodd">
        <g fill="#0D5B9B">
            <path d="m9.11 31.276-.03-.002-.07.002c-.77.02-1.394.606-1.408 1.337-.013.731.59 1.337 1.36 1.383.022 0 .044.004.066.004.05.001.101-.001.15-.005.733-.058 1.315-.628 1.329-1.334.014-.744-.61-1.357-1.397-1.385M9.055 23.8c.998 0 1.81.761 1.81 1.698 0 .922-.786 1.675-1.763 1.7-.015-.002-.031-.003-.047-.003l-.048.002c-.78.024-1.405.623-1.405 1.36 0 .708.575 1.29 1.309 1.357a1.482 1.482 0 0 0 .287 0c2.534-.07 4.565-2.02 4.565-4.416 0-2.44-2.108-4.418-4.708-4.418-2.522 0-4.58 1.86-4.703 4.199-.005.05-.01.1-.01.152 0 .022.003.044.005.067.037.721.67 1.295 1.448 1.295.778 0 1.411-.574 1.449-1.296l.003-.066v-.021c.048-.896.841-1.61 1.808-1.61"/>
            <path d="M9.054 17C4.054 17 0 20.805 0 25.498c0 2.971 1.625 5.586 4.086 7.105l.088.054c.22.127.479.201.756.201.802 0 1.453-.61 1.453-1.363a1.342 1.342 0 0 0-.662-1.142c-1.697-1.03-2.823-2.821-2.823-4.855 0-3.187 2.762-5.778 6.157-5.778s6.157 2.591 6.157 5.778c0 2.025-1.117 3.808-2.801 4.84l-.066.04a1.337 1.337 0 0 0-.62 1.117c0 .457.24.86.608 1.108.029.018.058.037.088.054a1.527 1.527 0 0 0 1.536-.013c.013-.008.027-.015.04-.024 2.476-1.516 4.113-4.139 4.113-7.12 0-4.695-4.054-8.5-9.056-8.5M24.98 24.942c0-.368.045-.966.1-1.334 0-.006.098-.63.47-1.068.378-.447.88-.664 1.533-.664.67 0 1.21.224 1.6.665.391.44.494 1.063.495 1.069.057.364.103.962.103 1.333v.218c0 .37-.045.968-.101 1.333 0 .006-.102.645-.49 1.086-.387.44-.925.664-1.6.664-.657 0-1.162-.218-1.54-.666-.372-.443-.47-1.077-.471-1.084a10.972 10.972 0 0 1-.099-1.334v-.218zm5.39 3.989a.637.637 0 0 1-.057-.882c.007-.01.187-.221.384-.688.197-.465.233-.827.234-.842.035-.377.064-.986.064-1.357v-.207c0-.378-.056-.987-.124-1.357-.01-.053-.246-1.299-.966-2.007-.724-.712-1.673-1.073-2.822-1.073-1.124 0-2.052.361-2.758 1.074-.7.708-.93 1.953-.939 2.006a9.248 9.248 0 0 0-.12 1.356v.207c0 .377.053.985.12 1.357.01.053.24 1.302.94 2.009.706.71 1.635 1.07 2.763 1.07.28 0 .549-.021.801-.063l.267-.045c.22-.07.645.07.899.297l.656.589a.926.926 0 0 0 .611.227.858.858 0 0 0 .548-.189.654.654 0 0 0 .24-.49.709.709 0 0 0-.242-.536l-.5-.456zM37.5 22.867h-.1c-.446 0-.81.341-.81.76v3.3c0 .343-.142.808-.312 1.03l-.233.116c-.238.117-.539.178-.893.178-.368 0-.634-.1-.81-.309a.945.945 0 0 1-.205-.464 16.12 16.12 0 0 1-.068-1.342v-2.509c0-.419-.364-.76-.81-.76h-.093c-.447 0-.811.341-.811.76v2.496c0 .375.039.983.087 1.357.004.04.13.973.557 1.428.43.457 1.032.689 1.791.689.446 0 .845-.097 1.188-.288.319-.179.391-.252.407-.27.126-.156.229-.212.278-.212.04 0 .055.063.06.102.04.3.41.543.825.543.42 0 .762-.341.762-.76v-5.085c0-.419-.364-.76-.81-.76M41.459 24.864c0-.002.042-.134.266-.393.229-.266.513-.395.868-.395.418 0 .732.12.934.356.185.214.214.288.214.288.048.318.083.577.095.683-.086.018-.3.04-.626.04h-1.279c-.298 0-.508-.003-.618-.007.025-.11.078-.315.146-.572zm3.328-1.3c-.509-.543-1.247-.817-2.21-.817-.878 0-1.62.319-2.204.948-.582.628-.76 1.66-.768 1.704-.055.332-.112.722-.112.8 0 .081.059.478.113.8.008.044.186 1.067.775 1.675.59.613 1.395.923 2.39.923.569 0 1.078-.076 1.515-.226.439-.15.447-.156.458-.163.359-.239.526-.674.371-.97-.098-.19-.3-.303-.539-.303a.768.768 0 0 0-.38.1l-.293.096a3.42 3.42 0 0 1-1.036.138c-.497 0-.874-.15-1.152-.457-.273-.3-.326-.545-.326-.547a29.69 29.69 0 0 1-.112-.587c.113-.004.331-.008.624-.008h2.837c.454 0 .81-.223.81-.51a9.18 9.18 0 0 0-.105-1.106c-.006-.039-.152-.951-.656-1.49zM51.692 24.584a57.687 57.687 0 0 0-1.365-.442c-.006-.001-.604-.187-.918-.396-.304-.202-.453-.447-.453-.75 0-.34.138-.61.42-.824.285-.216.703-.326 1.24-.326.57 0 1.012.132 1.315.392.28.241.32.368.32.368.081.404.504.733.943.733h.036c.784 0 .787-.006.813-.075.007-.024.013-.04-.13-.724-.006-.028-.15-.704-.781-1.23-.628-.525-1.471-.792-2.504-.792-.988 0-1.807.234-2.436.695-.634.467-.956 1.07-.956 1.793 0 .702.292 1.277.867 1.71.562.423 1.679.787 1.726.802.376.121.99.318 1.366.436.005.002.53.17.798.384a.998.998 0 0 1 .397.82c0 .34-.143.604-.438.804-.3.204-.73.307-1.278.307-.6 0-1.092-.127-1.463-.375-.35-.234-.407-.464-.407-.465-.085-.404-.51-.732-.948-.732h-.043c-.783 0-.786.007-.812.076-.008.024-.013.04.139.723.008.036.2.868.947 1.363.738.49 1.608.738 2.587.738 1.017 0 1.85-.22 2.477-.655.636-.441.959-1.044.959-1.79 0-.704-.27-1.292-.804-1.747-.521-.446-1.57-.807-1.614-.821M59.262 26.978c0 .238-.128.626-.281.857l-.295.172c-.294.173-.63.261-1.001.261-.292 0-.518-.066-.672-.195a.645.645 0 0 1-.227-.523c0-.258.114-.477.349-.671.215-.176.295-.2.292-.2.395-.05.985-.092 1.314-.093.288 0 .521.176.521.392zm1.739 1.446c-.01-.283-.019-.818-.019-1.193v-1.51c0-.377-.058-.986-.13-1.356-.005-.026-.13-.631-.637-1.027-.506-.392-1.175-.59-1.992-.59-.84 0-1.533.204-2.063.607-.532.408-.607.723-.61.737-.15.677-.147.693-.145.708.013.086.014.091.813.091h.043c.43 0 .817-.213.904-.49l.184-.141c.19-.145.452-.219.78-.219.367 0 .65.088.843.262l.191.171c.055.323.1.696.1.842 0 .081-.199.198-.51.198-.333 0-.927.033-1.324.074-.041.004-1.002.107-1.54.462-.546.363-.823.876-.823 1.524 0 .622.201 1.122.6 1.482.399.359.973.54 1.708.54.441 0 .847-.106 1.205-.318.163-.096.363-.219.395-.255.192-.217.314-.265.334-.273l.078.341c.076.24.521.382.908.382h.118c.26 0 .477-.084.594-.23a.363.363 0 0 0 .07-.34L61 28.423zM66.825 27.047c0 .004-.047.387-.273.715-.225.329-.58.489-1.083.489-.33 0-.609-.067-.826-.198l-.216-.131c-.157-.241-.288-.726-.288-1.072V25.5c0-.346.134-.828.293-1.067l.215-.133c.214-.133.487-.2.809-.2.502 0 .858.188 1.088.575.232.392.288.913.288.918.042.411.068.698.068.728 0 .031-.03.338-.075.726zm1.077-3.324c-.482-.647-1.175-.975-2.06-.975-.406 0-.767.077-1.074.23l-.297.146-.025.019c-.075.079-.151.126-.201.126-.063 0-.106-.105-.106-.262v-2.223c0-.42-.363-.76-.81-.76h-.1c-.446 0-.81.34-.81.76v7.927c0 .42.33.76.735.76.406 0 .763-.214.812-.485.013-.075.043-.075.056-.075.058 0 .174.058.314.222.01.011.033.04.363.21.327.169.716.254 1.156.254.876 0 1.564-.3 2.045-.893.476-.583.62-1.597.626-1.639.045-.322.093-.698.093-.744 0-.045-.043-.413-.085-.744-.006-.05-.157-1.217-.632-1.854zM73.866 25.403c-.085.018-.3.04-.625.04h-1.279c-.297 0-.508-.003-.618-.007.027-.109.078-.311.146-.573 0-.001.04-.133.265-.392.229-.266.513-.395.869-.395.417 0 .732.12.934.356.185.214.213.288.214.288.047.313.082.576.094.683zm.953-1.84c-.509-.542-1.247-.816-2.21-.816-.878 0-1.62.319-2.204.948-.582.628-.76 1.66-.768 1.704-.054.329-.113.72-.113.8 0 .081.058.47.115.8.007.044.186 1.067.773 1.675.592.613 1.395.923 2.39.923.57 0 1.08-.076 1.515-.226.437-.15.446-.156.459-.163.36-.24.526-.675.37-.97-.098-.19-.3-.303-.538-.303a.766.766 0 0 0-.38.1l-.293.096a3.422 3.422 0 0 1-1.036.138c-.497 0-.873-.15-1.153-.457-.272-.3-.326-.545-.326-.547a35.242 35.242 0 0 1-.112-.587c.113-.004.331-.008.624-.008h2.838c.447 0 .81-.228.81-.51 0-.233-.047-.73-.104-1.106-.006-.039-.153-.951-.657-1.49zM81.532 26.254c-.425-.31-1.222-.526-1.256-.534-.37-.1-.995-.257-1.394-.351-.003-.001-.222-.054-.387-.175a.546.546 0 0 1-.24-.471.63.63 0 0 1 .26-.51c.176-.143.442-.214.79-.214.351 0 .63.088.826.262l.196.173c.085.297.485.534.91.534h.035c.781 0 .785-.008.813-.075.01-.024.014-.037-.126-.725-.004-.017-.091-.42-.603-.821-.505-.398-1.195-.6-2.05-.6-.814 0-1.48.2-1.978.591-.507.396-.763.882-.763 1.445 0 .54.225.975.668 1.29.428.306 1.165.51 1.196.518.381.104 1.005.27 1.389.369.002 0 .223.059.408.192.182.132.27.291.27.487a.577.577 0 0 1-.286.509c-.198.132-.49.199-.866.199-.369 0-.685-.082-.94-.242l-.241-.153c-.114-.376-.534-.677-.956-.677-.78 0-.782.007-.807.076-.01.025-.014.037.129.724.003.017.093.416.625.858.53.44 1.26.664 2.17.664.849 0 1.545-.187 2.067-.558.531-.377.8-.874.8-1.478a1.54 1.54 0 0 0-.66-1.307M84.455 27.918h-.094c-.447 0-.81.341-.81.76v.034c0 .419.363.76.81.76h.094c.446 0 .81-.341.81-.76v-.033c0-.42-.364-.761-.81-.761M92.13 22.867h-.098c-.447 0-.81.341-.81.76v3.3c0 .343-.143.809-.314 1.03l-.232.116c-.238.117-.538.178-.893.178-.368 0-.633-.1-.81-.309-.175-.202-.204-.462-.205-.464a16.174 16.174 0 0 1-.068-1.342v-2.509c0-.419-.364-.76-.81-.76h-.092c-.447 0-.811.341-.811.76v2.496c0 .376.039.984.086 1.357.005.04.129.973.556 1.428.43.457 1.032.689 1.792.689.446 0 .846-.097 1.188-.288.318-.179.392-.252.407-.27.126-.156.229-.212.279-.212.04 0 .054.063.059.102.04.3.41.543.825.543.42 0 .762-.341.762-.76v-5.085c0-.419-.364-.76-.81-.76M99.904 23.09c-.107-.144-.289-.223-.511-.223h-.245c-.434 0-.892.316-1.022.704l-1.072 3.207c-.053.161-.1.297-.138.4-.004-.022-.01-.044-.016-.069a13.979 13.979 0 0 0-.296-.972l-.87-2.566c-.132-.389-.591-.704-1.025-.704h-.238c-.222 0-.404.08-.51.223-.107.144-.122.33-.046.526l1.994 5.09c.139.355.176.74.122.865-.065.15-.225.47-.36.716l-.16.17c-.15.16-.345.24-.6.24-.05 0-.123-.005-.22-.013l-.112-.009c-.196 0-.284.476-.306.622-.047.308.028.663.264.715l.145.023c.144.024.287.037.425.037.627 0 1.12-.169 1.464-.501.335-.323.459-.554.464-.563.177-.337.431-.898.567-1.252l2.351-6.14c.077-.195.059-.381-.049-.526"/>
        </g>
    </g>
</svg>
