<svg width="100" height="50" xmlns="http://www.w3.org/2000/svg">
    <defs>
        <filter color-interpolation-filters="auto" id="a">
            <feColorMatrix in="SourceGraphic" values="0 0 0 0 1.000000 0 0 0 0 1.000000 0 0 0 0 1.000000 0 0 0 1.000000 0"/>
        </filter>
    </defs>
    <g filter="url(#a)" fill="none" fill-rule="evenodd">
        <path d="M23.771 30.043c2.698 0 3.486-1.243 3.486-3.49V20H25.76v6.42c0 1.51-.414 2.22-1.977 2.22-1.575 0-1.963-.736-1.963-2.22V20h-1.549v6.553c0 2.247.828 3.49 3.5 3.49zm6.477-.133v-3.718c0-1.27.107-2.38 1.896-2.407v-1.418c-1.228 0-1.776.361-2.083.843l-.133-.79-1.176.108v7.382h1.496zm5.489.107c2.337 0 2.818-.923 2.818-2.97v-4.613h-1.47v4.52c0 1.164-.12 1.725-1.321 1.725-1.228 0-1.334-.548-1.336-1.672v-4.573H32.92v4.614c0 2.046.534 2.969 2.818 2.969zm6.81 2.126c2.138 0 3.126-.629 3.126-2.26 0-1.418-.655-1.9-3.032-1.9-.841 0-1.081-.106-1.081-.467 0-.107.013-.227.053-.334.28.053.588.066.921.066 1.67 0 2.752-.601 2.752-2.433 0-.896-.294-1.458-.748-1.766h1.068v-1.177l-2.55.442c-.188-.014-.361-.027-.522-.027-1.749 0-2.75.709-2.75 2.528 0 .949.28 1.578.787 1.952-.187.267-.28.562-.28.87 0 .4.133.761.427.962-.895.227-1.295.843-1.295 1.739 0 1.404.935 1.805 3.125 1.805zm-.013-6.085c-.868 0-1.282-.374-1.282-1.23s.414-1.23 1.282-1.23c.882 0 1.283.374 1.283 1.23s-.401 1.23-1.283 1.23zm0 4.948c-1.268 0-1.629-.214-1.629-.923 0-.641.374-.962 1.63-.962 1.362 0 1.629.227 1.629.842 0 .749-.28 1.043-1.63 1.043zm7.025-.99c2.337 0 2.818-.922 2.818-2.968v-4.614h-1.47v4.52c0 1.164-.12 1.725-1.321 1.725-1.242 0-1.336-.561-1.336-1.711v-4.534h-1.509v4.614c0 2.046.534 2.969 2.818 2.969zm6.143-.026c1.015 0 1.67-.187 2.097-.736.16.549.56.669 1.362.669.134 0 .28 0 .428-.013v-1.311c-.511 0-.56-.129-.561-.65v-3.054c0-1.832-.508-2.608-2.511-2.608-1.162 0-2.03.227-2.631.548l.614 1.217c.428-.214 1.055-.4 1.857-.4.961 0 1.188.414 1.215 1.27h-.294c-2.604 0-3.833.601-3.833 2.74 0 1.418.494 2.328 2.257 2.328zm.32-1.244c-.774 0-1.148-.294-1.148-1.244 0-1.19.681-1.377 2.417-1.377h.28v.91c0 1.363-.68 1.711-1.548 1.711zm5.583 3.277c1.082 0 1.656-.228 1.99-1.338l2.51-8.25h-1.468l-1.51 5.348-1.522-5.349h-1.522l2.283 7.489-.133.455c-.094.307-.227.428-.615.428h-.734v1.217h.721zm11.312-2.113v-1.873H69.07V20h-2.096v9.91h5.943zm3.699.093c1.269 0 2.137-.24 2.858-.628l-.761-1.538c-.481.227-.989.441-1.99.441-1.002 0-1.296-.361-1.376-1.257h4.18c.04-2.808.134-4.828-2.858-4.828-2.564 0-3.272 1.485-3.272 3.905 0 2.46.548 3.905 3.219 3.905zm1.135-4.547h-2.417c.053-1.016.294-1.497 1.282-1.497 1.041 0 1.108.494 1.135 1.497zm4.874 4.547c1.082 0 1.683-.214 2.084-.695.227.535.587.628 1.549.628.187 0 .387 0 .6-.026v-1.752c-.47 0-.518-.116-.52-.56v-2.85c0-1.873-.64-2.581-2.724-2.581-1.362 0-2.297.254-2.965.601l.815 1.632c.44-.214 1.068-.401 1.923-.401.748 0 .961.267 1.001.896h-.267c-2.71 0-3.886.602-3.886 2.728 0 1.364.414 2.38 2.39 2.38zm.468-1.658c-.695 0-.935-.28-.935-.95 0-.869.48-1.07 1.977-1.07h.253v.696c0 1.043-.507 1.324-1.295 1.324zm6.73 1.565v-1.832l.628-.937 1.536 2.769h2.15l-2.364-4.413 2.23-3.17H91.88l-2.056 3.05v-5.751h-1.977V29.91h1.977zm7.453.093c1.75 0 2.724-.682 2.724-2.246 0-1.485-.668-1.926-2.19-2.42-1.069-.349-1.309-.496-1.309-.857 0-.36.174-.535.828-.535a4.4 4.4 0 0 1 1.656.321l.775-1.671c-.681-.281-1.27-.402-2.35-.402-1.67 0-2.832.602-2.832 2.327 0 1.391.694 1.832 2.07 2.3 1.215.402 1.469.522 1.469.963 0 .415-.267.589-.841.589a5.307 5.307 0 0 1-2.204-.495l-.774 1.565c.787.414 1.87.561 2.978.561z" fill="#FFF" fill-rule="nonzero"/>
        <g fill="#3DA9E9">
            <path d="m8.054 19.716 1.448 1.456h-.001l1.856 1.87.148.155a4.705 4.705 0 0 1 1.223 3.172c0 2.599-2.093 4.705-4.674 4.705-2.58 0-4.673-2.106-4.673-4.705 0-1.222.463-2.335 1.222-3.172l.142-.15 1.862-1.876 1.447-1.455zm0 2.92-1.848 1.87.006.008a2.636 2.636 0 0 0 0 3.71 2.594 2.594 0 0 0 3.685 0 2.636 2.636 0 0 0 0-3.71h-.001l.006-.007-1.848-1.871z"/>
            <path d="m8.054 15 5.695 5.72a8.08 8.08 0 0 1 2.36 5.72c0 4.466-3.607 8.088-8.055 8.088C3.606 34.528 0 30.906 0 26.439a8.08 8.08 0 0 1 2.359-5.72l4.233-4.25L8.054 15zm0 2.937-4.233 4.251a6.03 6.03 0 0 0 0 8.502 5.968 5.968 0 0 0 8.466 0 6.03 6.03 0 0 0 0-8.502l-4.233-4.251z"/>
        </g>
    </g>
</svg>
