<svg width="20" height="20" xmlns="http://www.w3.org/2000/svg">
    <path d="M9.982 0c2.797 0 5.179.977 7.143 2.929a9.617 9.617 0 0 1 2.142 3.223C19.755 7.36 20 8.642 20 10c0 1.37-.242 2.652-.723 3.848a9.18 9.18 0 0 1-2.134 3.17 10.277 10.277 0 0 1-3.322 2.214A9.955 9.955 0 0 1 9.982 20a9.719 9.719 0 0 1-3.794-.76 10.059 10.059 0 0 1-3.25-2.195A9.96 9.96 0 0 1 .75 13.804 9.807 9.807 0 0 1 0 10C0 8.68.253 7.408.759 6.188A10.042 10.042 0 0 1 2.964 2.91C4.87.97 7.208 0 9.982 0zm.036 1.804c-2.286 0-4.209.798-5.768 2.393a8.598 8.598 0 0 0-1.813 2.687A7.876 7.876 0 0 0 1.803 10c0 1.072.211 2.105.634 3.098A8.284 8.284 0 0 0 4.25 15.76a8.241 8.241 0 0 0 2.66 1.786c.989.41 2.025.616 3.108.616 1.071 0 2.11-.208 3.117-.625a8.637 8.637 0 0 0 2.722-1.804c1.56-1.523 2.34-3.434 2.34-5.732a8.211 8.211 0 0 0-.608-3.143 7.996 7.996 0 0 0-1.767-2.643c-1.608-1.607-3.542-2.411-5.804-2.411zM9.893 8.34l-1.34.696c-.143-.297-.318-.506-.527-.625a1.186 1.186 0 0 0-.58-.178c-.893 0-1.34.589-1.34 1.768 0 .535.113.964.34 1.285.226.322.56.483 1 .483.583 0 .994-.286 1.232-.858l1.232.625a2.938 2.938 0 0 1-2.625 1.572c-.893 0-1.613-.273-2.16-.822-.548-.547-.822-1.309-.822-2.285 0-.952.277-1.708.83-2.268.554-.56 1.253-.84 2.099-.84 1.238 0 2.125.482 2.66 1.447zm5.768 0-1.322.696c-.143-.297-.319-.506-.527-.625a1.214 1.214 0 0 0-.598-.178c-.893 0-1.34.589-1.34 1.768 0 .535.114.964.34 1.285.226.322.559.483 1 .483.583 0 .994-.286 1.232-.858l1.25.625a3.07 3.07 0 0 1-1.107 1.152c-.464.28-.97.42-1.518.42-.905 0-1.628-.273-2.169-.822-.542-.547-.813-1.309-.813-2.285 0-.952.276-1.708.83-2.268.554-.56 1.253-.84 2.098-.84 1.239 0 2.12.482 2.644 1.447z" fill="#FFF" fill-rule="nonzero"/>
</svg>
