<svg width="81" height="25" xmlns="http://www.w3.org/2000/svg" xmlns:xlink="http://www.w3.org/1999/xlink">
    <defs>
        <filter color-interpolation-filters="auto" id="a">
            <feColorMatrix in="SourceGraphic" values="0 0 0 0 1.000000 0 0 0 0 1.000000 0 0 0 0 1.000000 0 0 0 1.000000 0"/>
        </filter>
        <path id="b" d="M2.505.73 1.463 0 0 .913v1.2l2.505 2.632 2.506-2.632v-1.2L3.548 0z"/>
    </defs>
    <g transform="translate(-1)" filter="url(#a)" fill="none" fill-rule="evenodd">
        <path d="M21.551 13.797c1.194 0 1.74-.68 1.74-1.64 0-.96-.546-1.639-1.74-1.639h-.49v3.279h.49zm-1.597-4.208h1.652c1.653 0 2.83 1.05 2.83 2.568 0 1.519-1.17 2.569-2.83 2.569h-1.652V9.589zM25.471 9.589h3.345v.93h-2.304v1.63h2.029v.907h-2.03v.74h2.409v.93H25.47zM31.344 12.528c.862 0 1.24-.272 1.24-.997 0-.726-.393-1.013-1.24-1.013h-.332v2.01h.332zm2.403 2.198h-1.224l-.846-1.3a2.048 2.048 0 0 1-.302.023h-.363v1.277h-1.058V9.589h1.42c1.436 0 2.298.687 2.298 1.942 0 .8-.356 1.306-.99 1.594l1.065 1.601zM34.782 9.589h3.344v.93h-2.304v1.63h2.029v.907h-2.03v.74h2.409v.93h-3.448zM38.92 12.154c0-1.482 1.18-2.565 2.665-2.565.936 0 1.606.324 2.07 1.025l-.814.56c-.244-.384-.662-.656-1.256-.656-.937 0-1.569.7-1.569 1.636 0 .936.632 1.65 1.569 1.65.67 0 1.043-.309 1.332-.736l.83.552c-.45.679-1.165 1.106-2.162 1.106-1.485 0-2.665-1.09-2.665-2.572M44.437 9.589h1.099v2.629h2.284V9.589h1.1v5.137h-1.1v-1.564h-2.284v1.564h-1.1zM54.343 12.157c0-.934-.659-1.648-1.63-1.648-.972 0-1.63.714-1.63 1.648 0 .935.658 1.649 1.63 1.649.971 0 1.63-.714 1.63-1.649m-4.389 0c0-1.479 1.223-2.568 2.759-2.568 1.536 0 2.758 1.09 2.758 2.568 0 1.48-1.222 2.569-2.758 2.569s-2.759-1.09-2.759-2.569M55.471 13.672l.888-.486c.234.36.538.626 1.075.626.452 0 .74-.214.74-.508 0-.354-.296-.48-.794-.686l-.273-.11c-.787-.317-1.309-.715-1.309-1.556 0-.773.624-1.363 1.597-1.363.693 0 1.192.228 1.55.825l-.849.516c-.187-.316-.39-.442-.7-.442-.32 0-.523.192-.523.442 0 .31.203.435.67.627l.273.11c.926.376 1.448.76 1.448 1.622 0 .929-.77 1.437-1.807 1.437-1.012 0-1.666-.457-1.986-1.054M21.551 20.989c1.194 0 1.74-.68 1.74-1.64 0-.96-.546-1.639-1.74-1.639h-.49v3.279h.49zm-1.597-4.208h1.652c1.653 0 2.83 1.05 2.83 2.568 0 1.519-1.17 2.569-2.83 2.569h-1.652V16.78zM25.471 16.78h3.345v.93h-2.304v1.632h2.029v.906h-2.03v.74h2.409v.93H25.47zM32.713 16.78h3.344v.93h-2.304v1.632h2.029v.906h-2.029v.74h2.408v.93h-3.448zM36.506 20.864l.888-.487c.233.361.537.627 1.074.627.452 0 .74-.214.74-.509 0-.353-.296-.479-.794-.685l-.273-.11c-.786-.318-1.308-.715-1.308-1.556 0-.773.623-1.363 1.597-1.363.693 0 1.191.228 1.55.825l-.85.516c-.186-.317-.389-.442-.7-.442-.32 0-.522.192-.522.442 0 .31.202.435.67.627l.272.11c.927.376 1.449.76 1.449 1.622 0 .928-.771 1.437-1.807 1.437-1.013 0-1.667-.457-1.986-1.054M77.54 20.864l.888-.487c.234.361.538.627 1.075.627.452 0 .74-.214.74-.509 0-.353-.296-.479-.794-.685l-.273-.11c-.787-.318-1.309-.715-1.309-1.556 0-.773.624-1.363 1.597-1.363.693 0 1.192.228 1.55.825l-.849.516c-.187-.317-.39-.442-.701-.442-.32 0-.522.192-.522.442 0 .31.203.435.67.627l.273.11c.927.376 1.448.76 1.448 1.622 0 .928-.77 1.437-1.807 1.437-1.012 0-1.666-.457-1.986-1.054M42.164 17.71h-1.52v-.93h4.138v.93h-1.52v4.208h-1.098zM45.471 20.017V16.78h1.141v3.176c0 .738.35 1.021 1.109 1.021.75 0 1.092-.283 1.092-1.021V16.78h1.141v3.236c0 1.282-.97 1.9-2.233 1.9-1.28 0-2.25-.618-2.25-1.9M52.24 20.989c1.194 0 1.74-.68 1.74-1.64 0-.96-.546-1.639-1.74-1.639h-.49v3.279h.49zm-1.596-4.208h1.652c1.652 0 2.83 1.05 2.83 2.568 0 1.519-1.17 2.569-2.83 2.569h-1.652V16.78zM56.16 21.918h1.035V16.78h-1.034zM60.935 20.465l-.38-.883c-.155-.36-.318-.914-.318-.914s-.156.554-.31.914l-.381.883h1.39zm-.73-3.684h.094l2.414 5.137h-1.141l-.249-.577h-2.142l-.248.577h-1.048l2.32-5.137zM65.022 19.527a7.688 7.688 0 0 1-.65-.69s.08.557.08.92v2.116h-1.05v-5.092h.113l2.75 2.39c.265.23.642.69.642.69s-.073-.571-.073-.92v-2.116h1.051v5.093h-.112l-2.75-2.39zM69.75 17.71h-1.52v-.93h4.138v.93h-1.52v4.208H69.75zM73.402 16.78h3.345v.93h-2.304v1.632h2.028v.906h-2.028v.74h2.408v.93h-3.449zM6.893 2.711A2.47 2.47 0 0 1 9.264.971a2.47 2.47 0 0 1 2.372 1.74c.375.101.735.226 1.077.371C12.55 1.356 11.066 0 9.264 0 7.463 0 5.978 1.356 5.816 3.082c.342-.145.701-.27 1.077-.37" fill="#383A48"/>
        <path d="M4.485 13.499v-.662H13.7v6.254H4.485V13.5zm9.699-1.624H4a.484.484 0 0 0-.485.481v7.217c0 .264.219.48.485.48h10.184a.484.484 0 0 0 .484-.48v-7.217a.484.484 0 0 0-.484-.48zm1.697 8.6a.484.484 0 0 1-.485.48H2.788a.484.484 0 0 1-.485-.48V7.655c0-2.747 3.045-4.981 6.789-4.981 3.744 0 6.789 2.234 6.789 4.981v12.818zM10.428 1.803a9.736 9.736 0 0 0-2.672 0l-1.06.2c-3.11.774-5.363 3.013-5.363 5.652v12.818a1.45 1.45 0 0 0 1.455 1.444h12.608a1.45 1.45 0 0 0 1.455-1.444V7.656c0-.017 0-.034-.003-.048-.024-2.617-2.272-4.835-5.36-5.605l-1.06-.2z" fill="#383A48"/>
        <path d="M5.377 14.82a.155.155 0 1 1 0 0" fill="#FEFEFE"/>
        <path d="M5.105 14.995c.006-.123.122-.223.265-.223.143 0 .259.1.264.223h.001l.01.073h8.792v-.342h-10v.342h.657l.01-.073z" fill="#56DABC"/>
        <path fill="#383A48" d="M4.092 14.384h10.345v1H4.092z"/>
        <path fill="#FEFEFE" d="M5.299 14.83v.134zM5.405 14.844l-.211-.026.21.026-.017.133h.001z"/>
        <path d="M5.586 16.275a.271.271 0 0 1-.035.124.267.267 0 0 1-.505 0 .278.278 0 0 1-.034-.123l.194-1.55h-.233l-.191 1.531c0 .282.23.524.517.524a.525.525 0 0 0 .517-.524l-.191-1.531H5.39l.195 1.55z" fill="#383A48"/>
        <path d="m5.244 15.068-.118 1.27c0 .036.009.069.02.1a.276.276 0 0 1-.01-.067c0-.12.073-.218.163-.218.09 0 .162.098.162.218a.276.276 0 0 1-.01.067.285.285 0 0 0 .02-.1l-.117-1.27h-.11z" fill="#383A48"/>
        <path d="M4.922 16.493a.516.516 0 0 1 0 0M5.75 14.885l-.212.025.212-.026zM5.3 16.73c-.077 0-.141-.12-.174-.292.025.198.092.343.173.343.081 0 .148-.144.172-.341-.032.17-.096.29-.172.29" fill="#FEFEFE"/>
        <path d="M5.3 16.758c-.077 0-.141-.123-.174-.296.033.174.097.296.173.296.076 0 .14-.121.172-.293v-.001c-.032.172-.096.294-.172.294" fill="#FEFEFE"/>
        <path d="M15.4 6.64a.156.156 0 1 1 0 0M15.324 6.616l-.05.125zM15.047 6.67l-.186-.101.186.1-.065.118z" fill="#39AAE1"/>
        <path d="M15.014 7.887a.23.23 0 0 1-.059.085.187.187 0 0 1-.224.065.22.22 0 0 1-.124-.217.257.257 0 0 1 .011-.105l.565-1.138-.16-.07-.558 1.124c-.079.218.013.474.21.56.197.086.424-.031.502-.249l.294-1.24-.16-.07-.297 1.255z" fill="#383A48"/>
        <path d="m15.144 6.348-.604 1.165a.146.146 0 0 0 .003.096.14.14 0 0 1 .003-.064c.039-.111.194-.192.348-.18.154.011.247.111.209.223a.214.214 0 0 1-.039.062.235.235 0 0 0 .067-.092l.203-1.196-.19-.014z" fill="#383A48"/>
        <path d="M14.28 7.928a.525.525 0 0 1 0 0M14.535 8.145a.53.53 0 0 0 .001 0z" fill="#FEFEFE"/>
        <path d="m15.402 6.705-.206-.054.206.054z" fill="#39AAE1"/>
        <path d="M14.567 8.193c-.077-.054-.123-.18-.13-.316.007.137.054.263.13.316.075.054.157.02.214-.07-.057.09-.139.124-.214.07" fill="#FEFEFE"/>
        <path d="M2.713 20.726V7.928c0-2.672 2.938-4.846 6.551-4.846s6.552 2.174 6.552 4.846V20.89" stroke="#383A48" stroke-width=".513" stroke-linecap="round" stroke-linejoin="round" stroke-dasharray="1.024137940900079,1.024137940900079"/>
        <path fill="#39AAE1" d="m9.092 9.932 2.586-2.47V6.336l-1.51-.857-1.076.685-1.076-.685-1.51.857v1.126z"/>
        <path fill="#FEFEFE" d="M9.092 6.164 8.016 5.48l-1.51.857v1.126l2.586 2.47 2.586-2.47V6.336l-1.51-.857z"/>
        <g transform="translate(6.631 5.139)">
            <mask id="c" fill="#fff">
                <use xlink:href="#b"/>
            </mask>
            <path fill="#383A48" mask="url(#c)" d="M-26.9 68.08h99.302V-36.24H-26.9z"/>
            <path fill="#383A48" mask="url(#c)" d="M-.133 4.919h2.638v-5.55H-.133z"/>
        </g>
        <path fill="#383A48" d="M2.023 21.575 4.623 25l.159-3.326z"/>
    </g>
</svg>
