<svg xmlns="http://www.w3.org/2000/svg" width="802" height="357" viewBox="0 0 802 357">
    <defs>
        <filter id="qw2jurn3aa" color-interpolation-filters="auto">
            <feColorMatrix in="SourceGraphic" values="0 0 0 0 1.000000 0 0 0 0 1.000000 0 0 0 0 1.000000 0 0 0 1.000000 0"/>
        </filter>
        <filter id="3rzb4a1oub" color-interpolation-filters="auto">
            <feColorMatrix in="SourceGraphic" values="0 0 0 0 1.000000 0 0 0 0 1.000000 0 0 0 0 1.000000 0 0 0 1.000000 0"/>
        </filter>
        <filter id="sw8a7rftoc" color-interpolation-filters="auto">
            <feColorMatrix in="SourceGraphic" values="0 0 0 0 1.000000 0 0 0 0 1.000000 0 0 0 0 1.000000 0 0 0 1.000000 0"/>
        </filter>
        <filter id="s4kex7wbhd" color-interpolation-filters="auto">
            <feColorMatrix in="SourceGraphic" values="0 0 0 0 1.000000 0 0 0 0 1.000000 0 0 0 0 1.000000 0 0 0 1.000000 0"/>
        </filter>
        <filter id="0ey11v4oae" color-interpolation-filters="auto">
            <feColorMatrix in="SourceGraphic" values="0 0 0 0 1.000000 0 0 0 0 1.000000 0 0 0 0 1.000000 0 0 0 1.000000 0"/>
        </filter>
        <filter id="1s0aimkwsf" color-interpolation-filters="auto">
            <feColorMatrix in="SourceGraphic" values="0 0 0 0 1.000000 0 0 0 0 1.000000 0 0 0 0 1.000000 0 0 0 1.000000 0"/>
        </filter>
    </defs>
    <g fill="none" fill-rule="evenodd">
        <g>
            <path fill="#005598" d="M671 113H802V357H671zM0 113H131V357H0z"/>
            <path fill="#005598" d="M671.033 354H131V149.1h157.473v-13.676h-6.088v-6.835h4.077c1.543-1.822 3.267-3.495 5.14-4.986l1.433-1.083v-10.65h12.183c2.678 1.556 5.783 2.44 9.105 2.44 2.845 0 5.535-.65 7.93-1.815l1.172-.625h16.75v-4.563h-11.408v-2.281h-28.892v2.281h-11.402v-8.36h4.57c.528-18.92 20.639-34.22 45.71-34.922L340.55 64h119.763l2.934.025c24.478.685 44.225 15.28 45.642 33.577l.07 1.346h4.576v8.359h-11.411v-2.281h-28.888v2.281H461.83v4.563h16.75c2.674 1.556 5.787 2.44 9.106 2.44 2.84 0 5.533-.65 7.929-1.815l1.172-.625h12.188v10.65c1.942 1.397 3.746 2.985 5.38 4.73l1.192 1.339h4.072v6.835h-6.083v13.675h157.497V354z"/>
            <path fill="#FFF" d="M377.502 285.92c-.23 0-.42-.185-.42-.42 0-.23.19-.42.42-.42.23 0 .416.19.416.42 0 .235-.185.42-.416.42zM379.505 286.08c.23 0 .415.185.415.42 0 .225-.185.42-.415.42-.23 0-.425-.195-.425-.42 0-.235.195-.42.425-.42zM381.082 284.502c0-.23.185-.42.425-.42.226 0 .41.19.41.42 0 .23-.184.416-.41.416-.24 0-.425-.185-.425-.416zM401 255c-6.278 0-11.43 4.877-11.956 11.092L389 267.14v61.706c2.642.205 10.642.205 24 0V267.14c0-6.706-5.369-12.14-12-12.14zM362 255c-6.282 0-11.431 4.887-11.956 11.115l-.044 1.05V329h24v-61.835c0-6.72-5.373-12.165-12-12.165zM440 255c-6.278 0-11.43 4.887-11.956 11.115l-.044 1.05V329h24v-61.835c0-6.72-5.369-12.165-12-12.165zM384.917 288.981L378.083 288.981 378.083 292.019 384.917 292.019zM423.919 288.981L417.081 288.981 417.081 292.019 423.919 292.019zM345.779 278.981L341.221 278.981 341.221 282.019 345.779 282.019zM345.779 306.981L341.221 306.981 341.221 310.019 345.779 310.019zM345.779 324.981L341.221 324.981 341.221 328.019 345.779 328.019zM345.779 288.981L341.221 288.981 341.221 292.019 345.779 292.019zM384.917 278.981L378.083 278.981 378.083 282.019 384.917 282.019zM384.917 306.981L378.083 306.981 378.083 310.019 384.917 310.019zM384.917 324.981L378.083 324.981 378.083 328.019 384.917 328.019zM423.919 278.981L417.081 278.981 417.081 282.019 423.919 282.019zM423.919 306.981L417.081 306.981 417.081 310.019 423.919 310.019zM423.919 324.981L417.081 324.981 417.081 328.019 423.919 328.019zM459.781 278.981L455.219 278.981 455.219 282.019 459.781 282.019zM459.781 306.981L455.219 306.981 455.219 310.019 459.781 310.019zM459.781 324.981L455.219 324.981 455.219 328.019 459.781 328.019zM459.781 288.981L455.219 288.981 455.219 292.019 459.781 292.019zM345.779 269.981L341.221 269.981 341.221 273.019 345.779 273.019zM345.779 297.981L341.221 297.981 341.221 301.019 345.779 301.019zM345.779 315.981L341.221 315.981 341.221 319.019 345.779 319.019zM384.917 269.981L378.083 269.981 378.083 273.019 384.917 273.019zM384.917 297.981L378.083 297.981 378.083 301.019 384.917 301.019zM384.917 315.981L378.083 315.981 378.083 319.019 384.917 319.019zM423.919 269.981L417.081 269.981 417.081 273.019 423.919 273.019zM423.919 297.981L417.081 297.981 417.081 301.019 423.919 301.019zM423.919 315.981L417.081 315.981 417.081 319.019 423.919 319.019zM459.779 269.981L455.221 269.981 455.221 273.019 459.779 273.019zM459.779 297.981L455.221 297.981 455.221 301.019 459.779 301.019zM459.779 315.981L455.221 315.981 455.221 319.019 459.779 319.019zM339 267.21L326 267.21 326 271.79 339 271.79zM476 267.21L463 267.21 463 271.79 476 271.79zM514 267.21L500 267.21 500 271.79 514 271.79zM303 267.21L288 267.21 288 271.79 303 271.79zM339 297.21L326 297.21 326 301.79 339 301.79zM476 297.21L463 297.21 463 301.79 476 301.79zM514 297.21L500 297.21 500 301.79 514 301.79zM302 297.21L288 297.21 288 301.79 302 301.79zM339 310.21L288 310.21 288 314.79 339 314.79zM514 310.21L463 310.21 463 314.79 514 314.79zM671 313.21L514 313.21 514 317.79 671 317.79zM802 310.21L671 310.21 671 314.79 802 314.79zM131 310.21L0 310.21 0 314.79 131 314.79zM288 313.21L131 313.21 131 317.79 288 317.79z"/>
            <path fill="#FFF" d="M435.667 247c-7.085 1.534-12.818 6.617-15.167 13.252-2.202-6.22-7.379-11.076-13.855-12.923l-1.312-.329-1.333 5.92c6.205 1.342 10.941 6.552 11.448 12.94l.045 1.14h10.014c0-6.519 4.387-12.016 10.413-13.804l1.08-.276-1.333-5.92zM357.712 247c-8.594 1.93-15.123 9.506-15.674 18.732L342 267h5.93c0-6.519 4.225-12.016 10.03-13.804l1.04-.276-1.288-5.92zM444.287 247L443 252.92c5.979 1.342 10.537 6.552 11.025 12.94l.043 1.14H460c0-9.368-6.156-17.266-14.554-19.702l-1.159-.298zM396.662 247c-7.083 1.534-12.81 6.617-15.16 13.252-2.206-6.22-7.386-11.076-13.858-12.923l-1.31-.329-1.334 5.92c6.204 1.342 10.94 6.552 11.447 12.94l.045 1.14h10.012c0-6.519 4.387-12.016 10.416-13.804l1.08-.276-1.338-5.92zM404 245L397 245 398.746 253.1 400.496 254 402.25 253.1zM366 245L359 245 360.746 253.1 362.5 254 364.246 253.1zM443 245L436 245 437.75 253.1 439.5 254 441.254 253.1z"/>
            <path fill="#FFF" d="M338.651 231L288.472 231 288.472 235.649 131 235.649 131 250.351 288.472 250.753 288.472 255 338.651 255 338.651 250.351 288.472 250.351 288.472 237.965 341.693 237.965 341.693 240.289 460.307 240.289 460.307 237.965 513.528 237.965 513.528 250.351 463.294 250.351 463.294 255 513.528 255 513.528 250.753 671.033 250.753 671.033 235.649 513.528 235.649 513.528 231 463.344 231 463.344 234.096 338.651 234.096zM296 333H509V336H296zM284 339H521V342H284zM272 345H533V348H272zM260 351H545V354H260z"/>
            <path fill="#005598" d="M254 354H551V357H254z"/>
            <path fill="#FFF" d="M288 322H339V329H288zM463 322H514V329H463zM514 325H671V332H514zM671 322H802V329H671zM0 322H131V329H0zM671 232H802V247H671zM0 232H131V247H0zM131 325H288V332H131zM452 226.221L428 226.221 428 230.779 452 230.779zM413 226.221L389 226.221 389 230.779 413 230.779zM374 226.221L350 226.221 350 230.779 374 230.779z"/>
            <path fill="#005598" stroke="#FFF" d="M279.5 187.5v37h-15v-37h15zM568.5 187.5v37h-15v-37h15zM181.5 187.5v37h-15v-37h15zM600.5 187.5v37h-15v-37h15zM213.5 187.5v37h-15v-37h15zM536.5 187.5v37h-15v-37h15zM149.5 187.5v37h-15v-37h15z"/>
            <path fill="#FFF" d="M289 163L131 163 131 173 286.715 172.914 286.715 178.253 131 178.253 131 180.538 286.715 180.538 286.715 224 289 224zM447 184L432 184 432 223 447 223zM408 184L393 184 393 223 408 223zM370 184L355 184 355 223 370 223zM671.033 163L513 163 513 224 515.276 224 515.276 180.538 671.033 180.538 671.033 178.253 515.276 178.253 515.276 172.914 671.033 172.914z"/>
            <path fill="#FFF" d="M802.033 148L671 148 671.033 165.538 802.033 165.538 802.033 163.253 671.033 163.253 671.033 157.914 802.033 157.914zM131.033 148L0 148 .033 165.538 131.033 165.538 131.033 163.253.033 163.253.033 157.914 131.033 157.914z"/>
            <g filter="url(#qw2jurn3aa)">
                <g>
                    <path fill="#005598" d="M10 52.738L0 52.738 0 54.262 10 54.262zM43 52.738L33 52.738 33 54.262 43 54.262zM43 42.738L33 42.738 33 44.262 43 44.262zM10 42.738L0 42.738 0 44.262 10 44.262zM43 32.738L33 32.738 33 34.262 43 34.262zM10 32.738L0 32.738 0 34.262 10 34.262zM43 22.736L33 22.736 33 24.264 43 24.264zM10 22.736L0 22.736 0 24.264 10 24.264zM43 12.743L33 12.743 33 14.257 43 14.257zM10 12.743L0 12.743 0 14.257 10 14.257zM43 2.743L33 2.743 33 4.257 43 4.257zM10 2.743L0 2.743 0 4.257 10 4.257z" transform="translate(293.000000, 169.000000)"/>
                </g>
            </g>
            <g filter="url(#3rzb4a1oub)">
                <g>
                    <path fill="#005598" d="M43 52.738L33 52.738 33 54.262 43 54.262zM10 52.738L0 52.738 0 54.262 10 54.262zM10 42.738L0 42.738 0 44.262 10 44.262zM43 42.738L33 42.738 33 44.262 43 44.262zM10 32.738L0 32.738 0 34.262 10 34.262zM43 32.738L33 32.738 33 34.262 43 34.262zM43 22.736L33 22.736 33 24.264 43 24.264zM10 22.736L0 22.736 0 24.264 10 24.264zM43 12.743L33 12.743 33 14.257 43 14.257zM10 12.743L0 12.743 0 14.257 10 14.257zM10 2.743L0 2.743 0 4.257 10 4.257zM43 2.743L33 2.743 33 4.257 43 4.257z" transform="translate(466.000000, 169.000000)"/>
                </g>
            </g>
            <g filter="url(#sw8a7rftoc)">
                <g>
                    <path fill="#005598" d="M23 52.738L13 52.738 13 54.262 23 54.262zM10 52.738L0 52.738 0 54.262 10 54.262zM10 42.738L0 42.738 0 44.262 10 44.262zM23 42.738L13 42.738 13 44.262 23 44.262zM10 32.738L0 32.738 0 34.262 10 34.262zM23 32.738L13 32.738 13 34.262 23 34.262zM23 22.736L13 22.736 13 24.264 23 24.264zM10 22.736L0 22.736 0 24.264 10 24.264zM23 12.743L13 12.743 13 14.257 23 14.257zM10 12.743L0 12.743 0 14.257 10 14.257zM10 2.743L0 2.743 0 4.257 10 4.257zM23 2.743L13 2.743 13 4.257 23 4.257z" transform="translate(676.000000, 169.000000)"/>
                </g>
            </g>
            <g filter="url(#s4kex7wbhd)">
                <g>
                    <path fill="#005598" d="M23 52.738L13 52.738 13 54.262 23 54.262zM10 52.738L0 52.738 0 54.262 10 54.262zM10 42.738L0 42.738 0 44.262 10 44.262zM23 42.738L13 42.738 13 44.262 23 44.262zM10 32.738L0 32.738 0 34.262 10 34.262zM23 32.738L13 32.738 13 34.262 23 34.262zM23 22.736L13 22.736 13 24.264 23 24.264zM10 22.736L0 22.736 0 24.264 10 24.264zM23 12.743L13 12.743 13 14.257 23 14.257zM10 12.743L0 12.743 0 14.257 10 14.257zM10 2.743L0 2.743 0 4.257 10 4.257zM23 2.743L13 2.743 13 4.257 23 4.257z" transform="translate(5.000000, 169.000000)"/>
                </g>
            </g>
            <g filter="url(#0ey11v4oae)">
                <g>
                    <path fill="#005598" d="M23 52.738L13 52.738 13 54.262 23 54.262zM10 52.738L0 52.738 0 54.262 10 54.262zM10 42.738L0 42.738 0 44.262 10 44.262zM23 42.738L13 42.738 13 44.262 23 44.262zM10 32.738L0 32.738 0 34.262 10 34.262zM23 32.738L13 32.738 13 34.262 23 34.262zM23 22.736L13 22.736 13 24.264 23 24.264zM10 22.736L0 22.736 0 24.264 10 24.264zM23 12.743L13 12.743 13 14.257 23 14.257zM10 12.743L0 12.743 0 14.257 10 14.257zM10 2.743L0 2.743 0 4.257 10 4.257zM23 2.743L13 2.743 13 4.257 23 4.257z" transform="translate(774.000000, 169.000000)"/>
                </g>
            </g>
            <g filter="url(#1s0aimkwsf)">
                <g>
                    <path fill="#005598" d="M23 52.738L13 52.738 13 54.262 23 54.262zM10 52.738L0 52.738 0 54.262 10 54.262zM10 42.738L0 42.738 0 44.262 10 44.262zM23 42.738L13 42.738 13 44.262 23 44.262zM10 32.738L0 32.738 0 34.262 10 34.262zM23 32.738L13 32.738 13 34.262 23 34.262zM23 22.736L13 22.736 13 24.264 23 24.264zM10 22.736L0 22.736 0 24.264 10 24.264zM23 12.743L13 12.743 13 14.257 23 14.257zM10 12.743L0 12.743 0 14.257 10 14.257zM10 2.743L0 2.743 0 4.257 10 4.257zM23 2.743L13 2.743 13 4.257 23 4.257z" transform="translate(103.000000, 169.000000)"/>
                </g>
            </g>
            <path fill="#FFF" d="M495 182L480 182 480 223 495 223zM322 182L307 182 307 223 322 223zM314.5 261c-4.142 0-7.5 3.358-7.5 7.5V302h15v-33.5c0-4.142-3.358-7.5-7.5-7.5zM487.5 261c-4.142 0-7.5 3.358-7.5 7.5V302h15v-33.5c0-4.142-3.358-7.5-7.5-7.5z"/>
            <path fill="#005598" stroke="#FFF" d="M529.5 262.5c2.21 0 4.21.895 5.657 2.343 1.448 1.448 2.343 3.448 2.343 5.657h0v34h-16v-34c0-2.21.895-4.21 2.343-5.657 1.448-1.448 3.448-2.343 5.657-2.343zM142.5 262.5c2.21 0 4.21.895 5.657 2.343 1.448 1.448 2.343 3.448 2.343 5.657h0v34h-16v-34c0-2.21.895-4.21 2.343-5.657 1.448-1.448 3.448-2.343 5.657-2.343zM562.5 262.5c2.21 0 4.21.895 5.657 2.343 1.448 1.448 2.343 3.448 2.343 5.657h0v34h-16v-34c0-2.21.895-4.21 2.343-5.657 1.448-1.448 3.448-2.343 5.657-2.343zM175.5 262.5c2.21 0 4.21.895 5.657 2.343 1.448 1.448 2.343 3.448 2.343 5.657h0v34h-16v-34c0-2.21.895-4.21 2.343-5.657 1.448-1.448 3.448-2.343 5.657-2.343zM594.5 262.5c2.21 0 4.21.895 5.657 2.343 1.448 1.448 2.343 3.448 2.343 5.657h0v34h-16v-34c0-2.21.895-4.21 2.343-5.657 1.448-1.448 3.448-2.343 5.657-2.343z"/>
            <path fill="#005598" stroke="#FFF" stroke-width=".8" d="M704 267.6c1.767 0 3.367.716 4.525 1.875 1.159 1.158 1.875 2.758 1.875 4.525h0v27.4h-12.8V274c0-1.767.716-3.367 1.875-4.525 1.158-1.159 2.758-1.875 4.525-1.875zM33 267.6c1.767 0 3.367.716 4.525 1.875 1.159 1.158 1.875 2.758 1.875 4.525h0v27.4H26.6V274c0-1.767.716-3.367 1.875-4.525 1.158-1.159 2.758-1.875 4.525-1.875h0zM768 267.6c1.767 0 3.367.716 4.525 1.875 1.159 1.158 1.875 2.758 1.875 4.525h0v27.4h-12.8V274c0-1.767.716-3.367 1.875-4.525 1.158-1.159 2.758-1.875 4.525-1.875zM97 267.6c1.767 0 3.367.716 4.525 1.875 1.159 1.158 1.875 2.758 1.875 4.525h0v27.4H90.6V274c0-1.767.716-3.367 1.875-4.525 1.158-1.159 2.758-1.875 4.525-1.875z"/>
            <path fill="#005598" stroke="#FFF" d="M207.5 262.5c2.21 0 4.21.895 5.657 2.343 1.448 1.448 2.343 3.448 2.343 5.657h0v34h-16v-34c0-2.21.895-4.21 2.343-5.657 1.448-1.448 3.448-2.343 5.657-2.343zM632.5 187.5v37h-15v-37h15zM245.5 187.5v37h-15v-37h15zM626.5 262.5c2.21 0 4.21.895 5.657 2.343 1.448 1.448 2.343 3.448 2.343 5.657h0v34h-16v-34c0-2.21.895-4.21 2.343-5.657 1.448-1.448 3.448-2.343 5.657-2.343zM736.5 259.5c2.21 0 4.21.895 5.657 2.343 1.448 1.448 2.343 3.448 2.343 5.657h0v34h-16v-34c0-2.21.895-4.21 2.343-5.657 1.448-1.448 3.448-2.343 5.657-2.343zM65.5 259.5c2.21 0 4.21.895 5.657 2.343 1.448 1.448 2.343 3.448 2.343 5.657h0v34h-16v-34c0-2.21.895-4.21 2.343-5.657 1.448-1.448 3.448-2.343 5.657-2.343zM239.5 262.5c2.21 0 4.21.895 5.657 2.343 1.448 1.448 2.343 3.448 2.343 5.657h0v34h-16v-34c0-2.21.895-4.21 2.343-5.657 1.448-1.448 3.448-2.343 5.657-2.343zM664.5 187.5v37h-15v-37h15zM743.5 187.5v37h-15v-37h15zM72.5 187.5v37h-15v-37h15zM658.5 262.5c2.21 0 4.21.895 5.657 2.343 1.448 1.448 2.343 3.448 2.343 5.657h0v34h-16v-34c0-2.21.895-4.21 2.343-5.657 1.448-1.448 3.448-2.343 5.657-2.343zM271.5 262.5c2.21 0 4.21.895 5.657 2.343 1.448 1.448 2.343 3.448 2.343 5.657h0v34h-16v-34c0-2.21.895-4.21 2.343-5.657 1.448-1.448 3.448-2.343 5.657-2.343z"/>
            <path fill="#FFF" d="M452 177.602L428 177.602 428 181.398 452 181.398zM393.066 177.602H389v3.796h24v-3.796h-4.061c-2.118 1.896-4.894 3.043-7.939 3.043-2.66 0-5.118-.878-7.11-2.368l-.824-.675zM374 177.602L350 177.602 350 181.398 374 181.398zM401 156h-59v6.924h15.024c-.295.309-.566.636-.809.988l-.342.545h-5.55v8.467h6.047c1.381 1.864 3.576 3.076 6.055 3.076 2.166 0 4.117-.928 5.496-2.409l.556-.667h6.05v-8.467h-5.554c-.213-.376-.457-.726-.726-1.055l-.42-.478h22.29c1.817-3.78 5.478-6.481 9.792-6.875L401 156zM400.498 161c2.072 0 3.948.837 5.309 2.198 1.356 1.356 2.193 3.227 2.193 5.3 0 4.145-3.357 7.502-7.502 7.502-4.136 0-7.498-3.357-7.498-7.502 0-4.14 3.362-7.498 7.498-7.498zm5.31 2.2l-5.34 4.154-3.268-2.162 2.453 3.706.08.143.103.13c.322.318.82.354 1.182.125l.177-.16 4.613-5.936zM460 156h-59c4.418 0 8.282 2.41 10.391 6.002l.49.922h22.297c-.295.309-.566.636-.81.988l-.342.545h-5.553v8.467h6.05c1.382 1.864 3.576 3.076 6.05 3.076 2.165 0 4.12-.928 5.5-2.409l.555-.667h6.046v-8.467h-5.554c-.21-.376-.453-.726-.723-1.055l-.424-.478H460V156z"/>
            <path fill="#FFF" d="M439.502 163c3.036 0 5.498 2.463 5.498 5.5 0 3.047-2.462 5.5-5.498 5.5-3.04 0-5.502-2.453-5.502-5.5 0-3.037 2.462-5.5 5.502-5.5zM362.498 163c3.04 0 5.502 2.463 5.502 5.5 0 3.042-2.462 5.5-5.502 5.5-3.036 0-5.498-2.458-5.498-5.5 0-3.037 2.462-5.5 5.498-5.5zM389.18 165h-3.641v8h3.922c-.567-1.35-.889-2.82-.889-4.364 0-.845.097-1.668.277-2.464l.331-1.172zM416.463 165h-3.645c.39 1.15.603 2.369.603 3.636 0 1.158-.179 2.275-.507 3.33l-.377 1.034h3.926v-8zM509 152h-43v6.179h12.284v6.954h1.733c1.673 2.344 4.4 3.867 7.485 3.867 2.734 0 5.193-1.203 6.884-3.117l.597-.75h1.733v-6.954H509V152zM336 152h-43v6.179h12.281v6.954h1.733c1.673 2.344 4.4 3.867 7.486 3.867 2.738 0 5.198-1.203 6.882-3.117l.595-.75h1.737v-6.954H336V152zM288 154.979L131 154.979 131 158.021 288 158.021zM671 154.979L513 154.979 513 158.021 671 158.021zM802 139.979L644 139.979 644 143.021 802 143.021zM131 139.979L-27 139.979-27 143.021 131 143.021zM335.59 135L293 135 293 143.841 341.674 143.841 341.674 149 460.326 149 460.326 143.841 509 143.841 509 135 466.406 135 466.406 138.681 335.59 138.681zM314.5 118c-9.84 0-18.698 4.129-24.918 10.737l-1.135 1.267H288V133h53v-2.996h-.452C334.297 122.661 324.945 118 314.5 118zM487.505 118c-9.836 0-18.702 4.129-24.919 10.737l-1.134 1.267H461V133h53v-2.996h-.452C507.302 122.661 497.95 118 487.505 118zM452 129.981L350 129.981 350 133.019 452 133.019zM787 131.981L685 131.981 685 135.019 787 135.019zM116 131.981L14 131.981 14 135.019 116 135.019zM460 117L342 117 342 121 350.322 121 350.322 125 451.673 125 451.673 121 460 121zM786.673 119L685.322 119 685.322 127 786.673 127zM115.673 119L14.322 119 14.322 127 115.673 127zM460 107.255L342 107.255 342 111.745 460 111.745zM361.5 80c-4.695 0-8.5 3.803-8.5 8.502 0 4.7 3.805 8.498 8.5 8.498 4.69 0 8.5-3.799 8.5-8.498S366.19 80 361.5 80zM401.498 80c-4.692 0-8.498 3.803-8.498 8.502 0 4.7 3.806 8.498 8.498 8.498 4.696 0 8.502-3.799 8.502-8.498S406.194 80 401.498 80zM440.498 80C435.8 80 432 83.803 432 88.502c0 4.7 3.801 8.498 8.498 8.498 4.696 0 8.502-3.799 8.502-8.498S445.194 80 440.498 80z"/>
            <path fill="#005598" d="M347.297 39L347.297 45.223 454.703 45.223 454.703 39 456.216 39 456.216 51.446 460 55.333 460 60 342 60 342 55.333 345.784 51.446 345.784 39z"/>
            <path fill="#005598" d="M700.591 57L773.409 57 774.435 63.223 777 67.11 777 71.777 697 71.777 697 67.11 699.565 63.223z" transform="translate(737.000000, 64.388545) rotate(-180.000000) translate(-737.000000, -64.388545)"/>
            <path fill="#FFF" d="M447.871 46.329L442.529 46.329 442.529 51.671 447.871 51.671zM352.671 46.329L347.329 46.329 347.329 51.671 352.671 51.671zM359.471 46.329L354.129 46.329 354.129 51.671 359.471 51.671zM366.271 46.329L360.929 46.329 360.929 51.671 366.271 51.671zM373.071 46.329L367.729 46.329 367.729 51.671 373.071 51.671zM379.871 46.329L374.529 46.329 374.529 51.671 379.871 51.671zM386.671 46.329L381.329 46.329 381.329 51.671 386.671 51.671zM393.471 46.329L388.129 46.329 388.129 51.671 393.471 51.671zM400.273 46.329L394.927 46.329 394.927 51.671 400.273 51.671zM407.071 46.329L401.729 46.329 401.729 51.671 407.071 51.671zM413.871 46.329L408.529 46.329 408.529 51.671 413.871 51.671zM420.673 46.329L415.327 46.329 415.327 51.671 420.673 51.671zM427.471 46.329L422.129 46.329 422.129 51.671 427.471 51.671zM434.273 46.329L428.927 46.329 428.927 51.671 434.273 51.671zM441.071 46.329L435.729 46.329 435.729 51.671 441.071 51.671zM454.673 46.329L449.327 46.329 449.327 51.671 454.673 51.671z"/>
            <path fill="#005598" d="M671 110.307v-8.36h2.66c.308-18.92 12.013-34.22 26.606-34.922l1.047-.025h69.709l1.707.025c14.248.685 25.742 15.28 26.567 33.577l.04 1.346H802v8.359H671zM0 110.307v-8.36h2.66c.308-18.92 12.013-34.22 26.606-34.922L30.313 67h69.709l1.707.025c14.248.685 25.742 15.28 26.567 33.577l.04 1.346H131v8.359H0zM735.699 41.503L735.699 0 737.211 0 737.211 41.503 739.097 57.177 734 57.177z"/>
            <path fill="#005598" d="M29.591 57L102.409 57 103.435 63.223 106 67.11 106 71.777 26 71.777 26 67.11 28.565 63.223z" transform="translate(66.000000, 64.388545) rotate(-180.000000) translate(-66.000000, -64.388545)"/>
            <path fill="#005598" d="M64.699 41.503L64.699 0 66.211 0 66.211 41.503 68.097 57.177 63 57.177z"/>
        </g>
    </g>
</svg>
