<?xml version="1.0" encoding="UTF-8"?>
<svg width="802px" height="357px" viewBox="0 0 802 357" version="1.1" xmlns="http://www.w3.org/2000/svg" xmlns:xlink="http://www.w3.org/1999/xlink">
    <title>ilustracion_fac_der_ancha</title>
    <g id="ilustracion_fac_der_ancha" stroke="none" stroke-width="1" fill="none" fill-rule="evenodd">
        <g id="fac_derecho" transform="translate(0.000000, 0.000000)" fill="#005598">
            <path d="M802,329 L802,357 L671,357 L671,354 L671.033303,354 L671.033,329 L802,329 Z M341.692532,237.96476 L341.692532,240.289428 L460.307468,240.289428 L460.307468,237.96476 L513.528045,237.96476 L513.528045,250.350664 L463.294175,250.350664 L463.294175,255 L513.528045,255 L513.528045,250.752744 L671,250.752 L671,247 L802,247 L802,310.210121 L671.033,310.21 L671.033,314.789 L671,314.789879 L671,313.210121 L514,313.210121 L514,310.210121 L463,310.210121 L463,314.789879 L514,314.789879 L514,317.789879 L671,317.789879 L671,322 L671.033,322 L671.033,314.789 L802,314.789879 L802,322 L671.033,322 L671.033,329 L671,329 L671,325 L514,325 L514,322 L463,322 L463,329 L514,329 L514,332 L671,332 L671,354 L551,354 L551,357 L254,357 L254,354 L131,354 L131,357 L0,357 L0,329 L131,329 L131,332 L288,332 L288,329 L339,329 L339,322 L288,322 L288,325 L131,325 L131,322 L0,322 L0,314.789879 L131,314.789879 L131,317.789879 L288,317.789879 L288,314.789879 L339,314.789879 L339,310.210121 L288,310.210121 L288,313.210121 L131,313.210121 L131,310.210121 L0,310.210121 L0,247 L131,247 L131,250.350664 L288.471955,250.752744 L288.471955,255 L338.651356,255 L338.651356,250.350664 L288.471955,250.350664 L288.471955,237.96476 L341.692532,237.96476 Z M545,351 L260,351 L260,354 L545,354 L545,351 Z M533,345 L272,345 L272,348 L533,348 L533,345 Z M521,339 L284,339 L284,342 L521,342 L521,339 Z M509,333 L296,333 L296,336 L509,336 L509,333 Z M440,255 C433.721917,255 428.569066,259.886878 428.044052,266.115076 L428,267.164921 L428,329 L452,329 L452,267.164921 C452,260.444948 446.631343,255 440,255 Z M362,255 C355.717675,255 350.56862,259.886878 350.044016,266.115076 L350,267.164921 L350,329 L374,329 L374,267.164921 C374,260.444948 368.626866,255 362,255 Z M401,255 C394.721917,255 389.569066,259.876711 389.044052,266.091952 L389,267.139612 L389,328.846047 L389.319806,328.868274 L389.319806,328.868274 L389.884285,328.898367 L389.884285,328.898367 L390.795157,328.932429 L390.795157,328.932429 L392.188053,328.965264 L392.188053,328.965264 L393.86351,328.987275 L393.86351,328.987275 L396.247041,328.999399 L396.247041,328.999399 L399.712811,328.993048 L399.712811,328.993048 L403.588053,328.965264 L403.588053,328.965264 L409.384285,328.898367 L409.384285,328.898367 L413,328.846047 L413,328.846047 L413,267.139612 C413,260.43362 407.631343,255 401,255 Z M345.778543,324.980972 L341.221457,324.980972 L341.221457,328.019028 L345.778543,328.019028 L345.778543,324.980972 Z M384.91668,324.980972 L378.08332,324.980972 L378.08332,328.019028 L384.91668,328.019028 L384.91668,324.980972 Z M459.78081,324.980972 L455.21919,324.980972 L455.21919,328.019028 L459.78081,328.019028 L459.78081,324.980972 Z M423.918947,324.980972 L417.081053,324.980972 L417.081053,328.019028 L423.918947,328.019028 L423.918947,324.980972 Z M423.918947,315.980972 L417.081053,315.980972 L417.081053,319.019028 L423.918947,319.019028 L423.918947,315.980972 Z M459.778543,315.980972 L455.221457,315.980972 L455.221457,319.019028 L459.778543,319.019028 L459.778543,315.980972 Z M384.91668,315.980972 L378.08332,315.980972 L378.08332,319.019028 L384.91668,319.019028 L384.91668,315.980972 Z M345.778543,315.980972 L341.221457,315.980972 L341.221457,319.019028 L345.778543,319.019028 L345.778543,315.980972 Z M671.033303,250.752744 L671,250.752 L671,310.210121 L671.033,310.210121 L671.033303,250.752744 Z M345.778543,306.980972 L341.221457,306.980972 L341.221457,310.019028 L345.778543,310.019028 L345.778543,306.980972 Z M384.91668,306.980972 L378.08332,306.980972 L378.08332,310.019028 L384.91668,310.019028 L384.91668,306.980972 Z M459.78081,306.980972 L455.21919,306.980972 L455.21919,310.019028 L459.78081,310.019028 L459.78081,306.980972 Z M423.918947,306.980972 L417.081053,306.980972 L417.081053,310.019028 L423.918947,310.019028 L423.918947,306.980972 Z M271.5,263 C267.357864,263 264,266.357864 264,270.5 L264,304 L279,304 L279,270.5 C279,266.357864 275.642136,263 271.5,263 Z M207.5,263 C203.357864,263 200,266.357864 200,270.5 L200,304 L215,304 L215,270.5 C215,266.357864 211.642136,263 207.5,263 Z M658.5,263 C654.357864,263 651,266.357864 651,270.5 L651,304 L666,304 L666,270.5 C666,266.357864 662.642136,263 658.5,263 Z M594.5,263 C590.357864,263 587,266.357864 587,270.5 L587,304 L602,304 L602,270.5 C602,266.357864 598.642136,263 594.5,263 Z M175.5,263 C171.357864,263 168,266.357864 168,270.5 L168,304 L183,304 L183,270.5 C183,266.357864 179.642136,263 175.5,263 Z M562.5,263 C558.357864,263 555,266.357864 555,270.5 L555,304 L570,304 L570,270.5 C570,266.357864 566.642136,263 562.5,263 Z M239.5,263 C235.357864,263 232,266.357864 232,270.5 L232,304 L247,304 L247,270.5 C247,266.357864 243.642136,263 239.5,263 Z M626.5,263 C622.357864,263 619,266.357864 619,270.5 L619,304 L634,304 L634,270.5 C634,266.357864 630.642136,263 626.5,263 Z M142.5,263 C138.357864,263 135,266.357864 135,270.5 L135,304 L150,304 L150,270.5 C150,266.357864 146.642136,263 142.5,263 Z M529.5,263 C525.357864,263 522,266.357864 522,270.5 L522,304 L537,304 L537,270.5 C537,266.357864 533.642136,263 529.5,263 Z M487.5,261 C483.357864,261 480,264.357864 480,268.5 L480,302 L495,302 L495,268.5 C495,264.357864 491.642136,261 487.5,261 Z M314.5,261 C310.357864,261 307,264.357864 307,268.5 L307,302 L322,302 L322,268.5 C322,264.357864 318.642136,261 314.5,261 Z M514,297.210121 L500,297.210121 L500,301.789879 L514,301.789879 L514,297.210121 Z M476,297.210121 L463,297.210121 L463,301.789879 L476,301.789879 L476,297.210121 Z M339,297.210121 L326,297.210121 L326,301.789879 L339,301.789879 L339,297.210121 Z M302,297.210121 L288,297.210121 L288,301.789879 L302,301.789879 L302,297.210121 Z M459.778543,297.980972 L455.221457,297.980972 L455.221457,301.019028 L459.778543,301.019028 L459.778543,297.980972 Z M345.778543,297.980972 L341.221457,297.980972 L341.221457,301.019028 L345.778543,301.019028 L345.778543,297.980972 Z M384.91668,297.980972 L378.08332,297.980972 L378.08332,301.019028 L384.91668,301.019028 L384.91668,297.980972 Z M423.918947,297.980972 L417.081053,297.980972 L417.081053,301.019028 L423.918947,301.019028 L423.918947,297.980972 Z M97,268 C93.6862915,268 91,270.686292 91,274 L91,301 L103,301 L103,274 C103,270.686292 100.313708,268 97,268 Z M736.5,260 C732.357864,260 729,263.357864 729,267.5 L729,301 L744,301 L744,267.5 C744,263.357864 740.642136,260 736.5,260 Z M768,268 C764.686292,268 762,270.686292 762,274 L762,301 L774,301 L774,274 C774,270.686292 771.313708,268 768,268 Z M33,268 C29.6862915,268 27,270.686292 27,274 L27,301 L39,301 L39,274 C39,270.686292 36.3137085,268 33,268 Z M704,268 C700.686292,268 698,270.686292 698,274 L698,301 L710,301 L710,274 C710,270.686292 707.313708,268 704,268 Z M65.5,260 C61.3578644,260 58,263.357864 58,267.5 L58,301 L73,301 L73,267.5 C73,263.357864 69.6421356,260 65.5,260 Z M345.778543,288.980972 L341.221457,288.980972 L341.221457,292.019028 L345.778543,292.019028 L345.778543,288.980972 Z M384.91668,288.980972 L378.08332,288.980972 L378.08332,292.019028 L384.91668,292.019028 L384.91668,288.980972 Z M423.918947,288.980972 L417.081053,288.980972 L417.081053,292.019028 L423.918947,292.019028 L423.918947,288.980972 Z M459.78081,288.980972 L455.21919,288.980972 L455.21919,292.019028 L459.78081,292.019028 L459.78081,288.980972 Z M379.505,286.08 C379.275,286.08 379.08,286.265 379.08,286.5 C379.08,286.725 379.275,286.92 379.505,286.92 C379.735,286.92 379.92,286.725 379.92,286.5 C379.92,286.265 379.735,286.08 379.505,286.08 Z M377.5025,285.08 C377.2725,285.08 377.0825,285.27 377.0825,285.5 C377.0825,285.735 377.2725,285.92 377.5025,285.92 C377.7325,285.92 377.9175,285.735 377.9175,285.5 C377.9175,285.27 377.7325,285.08 377.5025,285.08 Z M381.5075,284.0825 C381.2675,284.0825 381.0825,284.2725 381.0825,284.5025 C381.0825,284.7325 381.2675,284.9175 381.5075,284.9175 C381.7325,284.9175 381.9175,284.7325 381.9175,284.5025 C381.9175,284.2725 381.7325,284.0825 381.5075,284.0825 Z M423.918947,278.980972 L417.081053,278.980972 L417.081053,282.019028 L423.918947,282.019028 L423.918947,278.980972 Z M459.78081,278.980972 L455.21919,278.980972 L455.21919,282.019028 L459.78081,282.019028 L459.78081,278.980972 Z M345.778543,278.980972 L341.221457,278.980972 L341.221457,282.019028 L345.778543,282.019028 L345.778543,278.980972 Z M384.91668,278.980972 L378.08332,278.980972 L378.08332,282.019028 L384.91668,282.019028 L384.91668,278.980972 Z M384.91668,269.980972 L378.08332,269.980972 L378.08332,273.019028 L384.91668,273.019028 L384.91668,269.980972 Z M459.778543,269.980972 L455.221457,269.980972 L455.221457,273.019028 L459.778543,273.019028 L459.778543,269.980972 Z M423.918947,269.980972 L417.081053,269.980972 L417.081053,273.019028 L423.918947,273.019028 L423.918947,269.980972 Z M345.778543,269.980972 L341.221457,269.980972 L341.221457,273.019028 L345.778543,273.019028 L345.778543,269.980972 Z M476,267.210121 L463,267.210121 L463,271.789879 L476,271.789879 L476,267.210121 Z M514,267.210121 L500,267.210121 L500,271.789879 L514,271.789879 L514,267.210121 Z M303,267.210121 L288,267.210121 L288,271.789879 L303,271.789879 L303,267.210121 Z M339,267.210121 L326,267.210121 L326,271.789879 L339,271.789879 L339,267.210121 Z M435.66676,247 C428.582196,248.534284 422.849262,253.616882 420.5,260.251867 C418.297567,254.031568 413.121204,249.175673 406.645261,247.328773 L405.33324,247 L404,252.919891 C410.204676,254.262075 414.941284,259.471706 415.448424,265.860814 L415.493452,267 L425.506548,267 C425.506548,260.481431 429.894351,254.984224 435.920175,253.196347 L437,252.919891 L435.66676,247 Z M357.712054,247 C349.118051,248.930793 342.58926,256.505645 342.037784,265.731999 L342,267 L347.930747,267 C347.930747,260.481431 352.154916,254.984224 357.959748,253.196347 L359,252.919891 L357.712054,247 Z M396.662349,247 C389.578771,248.534284 383.851233,253.616882 381.502298,260.251867 C379.295863,254.031568 374.115911,249.175673 367.644136,247.328773 L366.333055,247 L365,252.919891 C371.203812,254.262075 375.93976,259.471706 376.446829,265.860814 L376.491851,267 L386.503552,267 C386.503552,260.481431 390.890744,254.984224 396.919601,253.196347 L398,252.919891 L396.662349,247 Z M444.287276,247 L443,252.919891 C448.978532,254.262075 453.536589,259.471706 454.024587,265.860814 L454.067916,267 L460,267 C460,257.631758 453.844017,249.733539 445.44599,247.297899 L444.287276,247 Z M404,245 L397,245 L398.745647,253.100448 L400.495647,254 L402.25,253.100448 L404,245 Z M366,245 L359,245 L360.745647,253.100448 L362.5,254 L364.245647,253.100448 L366,245 Z M443,245 L436,245 L437.75,253.100448 L439.5,254 L441.254353,253.100448 L443,245 Z M460.314063,64 L463.248172,64.0251233 C487.72595,64.7098027 507.472889,79.3058868 508.890153,97.6024727 L508.960946,98.9477032 L513.536485,98.9477032 L513.536485,107.307031 L502.124872,107.307031 L502.124872,105.025565 L473.237239,105.025565 L473.237239,107.307031 L461.830164,107.307031 L461.830164,111.869962 L478.579908,111.869962 C481.253511,113.425713 484.36742,114.310178 487.685594,114.310178 C490.525853,114.310178 493.219374,113.660367 495.614656,112.494992 L496.786742,111.869962 L508.974563,111.869962 L508.974563,122.519827 C510.917352,123.916828 512.720695,125.505418 514.354381,127.250762 L515.547362,128.588617 L519.619048,128.588617 L519.619048,135.423943 L513.536485,135.423943 L513.536485,149.099131 L671,149.099 L671,154.978704 L513,154.978704 L513,158.021296 L671,158.021296 L671,163 L513,163 L513,224 L515.276071,224 L515.276071,180.538467 L671,180.538 L671,178.253 L515.276071,178.253414 L515.276071,172.914036 L671,172.914 L671,163 L671.028,163 L671.002,149.099 L671,149.099 L671,113 L802,113 L802,139.978704 L671.009897,139.978704 L671.009897,143.021296 L802,143.021296 L802,148 L671,148 L671.002,149.099 L671.033303,149.099131 L671.033303,157.914036 L802,157.914 L802,148 L802.033303,148 L802.033303,157.914036 L802,157.914 L802,163.253 L802.033303,163.253414 L802.033303,165.538467 L802,165.538 L802,232 L671.033,232 L671.033303,235.649336 L513.528045,235.649336 L513.528045,231 L463.344105,231 L463.344105,234.096476 L338.651356,234.096476 L338.651356,231 L288.471955,231 L288.471955,235.649336 L131,235.649336 L131,232 L0,232 L0,143.021296 L131,143.021296 L131,148 L0,148 L0.0333032991,165.538467 L131,165.538 L131,163.253 L0.0333032991,163.253414 L0.0333032991,157.914036 L131,157.914 L131,154.978704 L131.033,154.978 L131.033,149.099 L288.472593,149.099131 L288.472593,135.423943 L282.385492,135.423943 L282.385492,128.588617 L286.461716,128.588617 C288.005053,126.767073 289.728506,125.093575 291.601863,123.602956 L293.034515,122.519827 L293.034515,111.869962 L305.217797,111.869962 C307.89594,113.425713 311.000771,114.310178 314.323484,114.310178 C317.167633,114.310178 319.858375,113.660367 322.252784,112.494992 L323.424632,111.869962 L340.174375,111.869962 L340.174375,107.307031 L328.7673,107.307031 L328.7673,105.025565 L299.875128,105.025565 L299.875128,107.307031 L288.472593,107.307031 L288.472593,98.9477032 L293.043594,98.9477032 C293.5712,80.0261666 313.68157,64.7265022 338.752137,64.0251233 L340.551131,64 L460.314063,64 Z M671.033303,180.538 L671,180.538 L671,232 L671.033,232 L671.033303,180.538 Z M413,226.221457 L389,226.221457 L389,230.778543 L413,230.778543 L413,226.221457 Z M452,226.221457 L428,226.221457 L428,230.778543 L452,230.778543 L452,226.221457 Z M374,226.221457 L350,226.221457 L350,230.778543 L374,230.778543 L374,226.221457 Z M245,188 L231,188 L231,224 L245,224 L245,188 Z M213,188 L199,188 L199,224 L213,224 L213,188 Z M600,188 L586,188 L586,224 L600,224 L600,188 Z M72,188 L58,188 L58,224 L72,224 L72,188 Z M181,188 L167,188 L167,224 L181,224 L181,188 Z M664,188 L650,188 L650,224 L664,224 L664,188 Z M632,188 L618,188 L618,224 L632,224 L632,188 Z M289,163 L131,163 L131,163.253 L131.033303,163.253414 L131.033303,165.538467 L131,165.538 L131,173 L286.715322,172.914036 L286.715322,178.253414 L131,178.253414 L131,180.538467 L286.715322,180.538467 L286.715322,224 L289,224 L289,163 Z M279,188 L265,188 L265,224 L279,224 L279,188 Z M568,188 L554,188 L554,224 L568,224 L568,188 Z M743,188 L729,188 L729,224 L743,224 L743,188 Z M536,188 L522,188 L522,224 L536,224 L536,188 Z M149,188 L135,188 L135,224 L149,224 L149,188 Z M509,221.738219 L499,221.738219 L499,223.261781 L509,223.261781 L509,221.738219 Z M303,221.738219 L293,221.738219 L293,223.261781 L303,223.261781 L303,221.738219 Z M784,221.738219 L774,221.738219 L774,223.261781 L784,223.261781 L784,221.738219 Z M476,221.738219 L466,221.738219 L466,223.261781 L476,223.261781 L476,221.738219 Z M126,221.738219 L116,221.738219 L116,223.261781 L126,223.261781 L126,221.738219 Z M336,221.738219 L326,221.738219 L326,223.261781 L336,223.261781 L336,221.738219 Z M686,221.738219 L676,221.738219 L676,223.261781 L686,223.261781 L686,221.738219 Z M15,221.738219 L5,221.738219 L5,223.261781 L15,223.261781 L15,221.738219 Z M797,221.738219 L787,221.738219 L787,223.261781 L797,223.261781 L797,221.738219 Z M699,221.738219 L689,221.738219 L689,223.261781 L699,223.261781 L699,221.738219 Z M113,221.738219 L103,221.738219 L103,223.261781 L113,223.261781 L113,221.738219 Z M28,221.738219 L18,221.738219 L18,223.261781 L28,223.261781 L28,221.738219 Z M408,184 L393,184 L393,223 L408,223 L408,184 Z M322,182 L307,182 L307,223 L322,223 L322,182 Z M495,182 L480,182 L480,223 L495,223 L495,182 Z M370,184 L355,184 L355,223 L370,223 L370,184 Z M447,184 L432,184 L432,223 L447,223 L447,184 Z M113,211.738219 L103,211.738219 L103,213.261781 L113,213.261781 L113,211.738219 Z M126,211.738219 L116,211.738219 L116,213.261781 L126,213.261781 L126,211.738219 Z M15,211.738219 L5,211.738219 L5,213.261781 L15,213.261781 L15,211.738219 Z M797,211.738219 L787,211.738219 L787,213.261781 L797,213.261781 L797,211.738219 Z M784,211.738219 L774,211.738219 L774,213.261781 L784,213.261781 L784,211.738219 Z M509,211.738219 L499,211.738219 L499,213.261781 L509,213.261781 L509,211.738219 Z M699,211.738219 L689,211.738219 L689,213.261781 L699,213.261781 L699,211.738219 Z M686,211.738219 L676,211.738219 L676,213.261781 L686,213.261781 L686,211.738219 Z M303,211.738219 L293,211.738219 L293,213.261781 L303,213.261781 L303,211.738219 Z M336,211.738219 L326,211.738219 L326,213.261781 L336,213.261781 L336,211.738219 Z M476,211.738219 L466,211.738219 L466,213.261781 L476,213.261781 L476,211.738219 Z M28,211.738219 L18,211.738219 L18,213.261781 L28,213.261781 L28,211.738219 Z M15,201.738219 L5,201.738219 L5,203.261781 L15,203.261781 L15,201.738219 Z M784,201.738219 L774,201.738219 L774,203.261781 L784,203.261781 L784,201.738219 Z M476,201.738219 L466,201.738219 L466,203.261781 L476,203.261781 L476,201.738219 Z M509,201.738219 L499,201.738219 L499,203.261781 L509,203.261781 L509,201.738219 Z M686,201.738219 L676,201.738219 L676,203.261781 L686,203.261781 L686,201.738219 Z M113,201.738219 L103,201.738219 L103,203.261781 L113,203.261781 L113,201.738219 Z M126,201.738219 L116,201.738219 L116,203.261781 L126,203.261781 L126,201.738219 Z M336,201.738219 L326,201.738219 L326,203.261781 L336,203.261781 L336,201.738219 Z M303,201.738219 L293,201.738219 L293,203.261781 L303,203.261781 L303,201.738219 Z M699,201.738219 L689,201.738219 L689,203.261781 L699,203.261781 L699,201.738219 Z M797,201.738219 L787,201.738219 L787,203.261781 L797,203.261781 L797,201.738219 Z M28,201.738219 L18,201.738219 L18,203.261781 L28,203.261781 L28,201.738219 Z M509,191.735951 L499,191.735951 L499,193.264049 L509,193.264049 L509,191.735951 Z M113,191.735951 L103,191.735951 L103,193.264049 L113,193.264049 L113,191.735951 Z M686,191.735951 L676,191.735951 L676,193.264049 L686,193.264049 L686,191.735951 Z M336,191.735951 L326,191.735951 L326,193.264049 L336,193.264049 L336,191.735951 Z M784,191.735951 L774,191.735951 L774,193.264049 L784,193.264049 L784,191.735951 Z M699,191.735951 L689,191.735951 L689,193.264049 L699,193.264049 L699,191.735951 Z M126,191.735951 L116,191.735951 L116,193.264049 L126,193.264049 L126,191.735951 Z M476,191.735951 L466,191.735951 L466,193.264049 L476,193.264049 L476,191.735951 Z M15,191.735951 L5,191.735951 L5,193.264049 L15,193.264049 L15,191.735951 Z M797,191.735951 L787,191.735951 L787,193.264049 L797,193.264049 L797,191.735951 Z M303,191.735951 L293,191.735951 L293,193.264049 L303,193.264049 L303,191.735951 Z M28,191.735951 L18,191.735951 L18,193.264049 L28,193.264049 L28,191.735951 Z M303,181.742753 L293,181.742753 L293,183.257247 L303,183.257247 L303,181.742753 Z M15,181.742753 L5,181.742753 L5,183.257247 L15,183.257247 L15,181.742753 Z M28,181.742753 L18,181.742753 L18,183.257247 L28,183.257247 L28,181.742753 Z M784,181.742753 L774,181.742753 L774,183.257247 L784,183.257247 L784,181.742753 Z M113,181.742753 L103,181.742753 L103,183.257247 L113,183.257247 L113,181.742753 Z M699,181.742753 L689,181.742753 L689,183.257247 L699,183.257247 L699,181.742753 Z M336,181.742753 L326,181.742753 L326,183.257247 L336,183.257247 L336,181.742753 Z M797,181.742753 L787,181.742753 L787,183.257247 L797,183.257247 L797,181.742753 Z M686,181.742753 L676,181.742753 L676,183.257247 L686,183.257247 L686,181.742753 Z M509,181.742753 L499,181.742753 L499,183.257247 L509,183.257247 L509,181.742753 Z M126,181.742753 L116,181.742753 L116,183.257247 L126,183.257247 L126,181.742753 Z M476,181.742753 L466,181.742753 L466,183.257247 L476,183.257247 L476,181.742753 Z M452,177.602348 L428,177.602348 L428,181.397652 L452,181.397652 L452,177.602348 Z M374,177.602348 L350,177.602348 L350,181.397652 L374,181.397652 L374,177.602348 Z M393.065672,177.602348 L389,177.602348 L389,181.397652 L413,181.397652 L413,177.602348 L408.938806,177.602348 C406.820896,179.497733 404.044776,180.644939 401,180.644939 C398.339739,180.644939 395.88174,179.766609 393.889972,178.277267 L393.065672,177.602348 Z M671.033303,172.914 L671,172.914 L671,178.253 L671.033303,178.253414 L671.033303,172.914 Z M401,156 L342,156 L342,162.923783 L357.02434,162.923783 C356.729302,163.232935 356.458349,163.560453 356.215495,163.911778 L355.87279,164.4573 L350.322771,164.4573 L350.322771,172.923783 L356.369537,172.923783 C357.751397,174.787879 359.946116,176 362.425335,176 C364.5907,176 366.541703,175.07197 367.921357,173.591164 L368.476617,172.923783 L374.527899,172.923783 L374.527899,164.4573 L368.973364,164.4573 C368.759612,164.080808 368.515755,163.730844 368.247143,163.401966 L367.82633,162.923783 L390.116724,162.923783 C391.934193,159.143321 395.594783,156.442619 399.90862,156.049496 L401,156 Z M400.497762,161 C396.361683,161 393,164.357207 393,168.497762 C393,172.642793 396.361683,176 400.497762,176 C404.642793,176 408,172.642793 408,168.497762 C408,166.425246 407.162936,164.554163 405.806625,163.197851 C404.445837,161.837064 402.570278,161 400.497762,161 Z M460,156 L401,156 C405.417941,156 409.281875,158.409898 411.391458,162.001873 L411.88161,162.923783 L434.177623,162.923783 C433.882631,163.232935 433.611719,163.560453 433.368902,163.911778 L433.026249,164.4573 L427.472564,164.4573 L427.472564,172.923783 L433.52292,172.923783 C434.904569,174.787879 437.098952,176 439.573276,176 C441.73831,176 443.692471,175.07197 445.072779,173.591164 L445.628147,172.923783 L451.673988,172.923783 L451.673988,164.4573 L446.120303,164.4573 C445.909594,164.080808 445.666777,163.730844 445.397204,163.401966 L444.973445,162.923783 L460,162.923783 L460,156 Z M439.502262,163 C442.538462,163 445,165.462551 445,168.5 C445,171.546502 442.538462,174 439.502262,174 C436.461538,174 434,171.546502 434,168.5 C434,165.462551 436.461538,163 439.502262,163 Z M362.497738,163 C365.538462,163 368,165.462551 368,168.5 C368,171.541975 365.538462,174 362.497738,174 C359.461538,174 357,171.541975 357,168.5 C357,165.462551 359.461538,163 362.497738,163 Z M509,171.742753 L499,171.742753 L499,173.257247 L509,173.257247 L509,171.742753 Z M336,171.742753 L326,171.742753 L326,173.257247 L336,173.257247 L336,171.742753 Z M126,171.742753 L116,171.742753 L116,173.257247 L126,173.257247 L126,171.742753 Z M797,171.742753 L787,171.742753 L787,173.257247 L797,173.257247 L797,171.742753 Z M784,171.742753 L774,171.742753 L774,173.257247 L784,173.257247 L784,171.742753 Z M686,171.742753 L676,171.742753 L676,173.257247 L686,173.257247 L686,171.742753 Z M28,171.742753 L18,171.742753 L18,173.257247 L28,173.257247 L28,171.742753 Z M699,171.742753 L689,171.742753 L689,173.257247 L699,173.257247 L699,171.742753 Z M303,171.742753 L293,171.742753 L293,173.257247 L303,173.257247 L303,171.742753 Z M113,171.742753 L103,171.742753 L103,173.257247 L113,173.257247 L113,171.742753 Z M476,171.742753 L466,171.742753 L466,173.257247 L476,173.257247 L476,171.742753 Z M15,171.742753 L5,171.742753 L5,173.257247 L15,173.257247 L15,171.742753 Z M416.463401,165 L412.817733,165 C413.207692,166.149675 413.42081,167.368764 413.42081,168.635575 C413.42081,169.793926 413.242267,170.910792 412.913877,171.966039 L412.536599,173 L416.463401,173 L416.463401,165 Z M389.18,165 L385.538866,165 L385.538866,173 L389.461134,173 C388.894332,171.650759 388.572389,170.180043 388.572389,168.635575 C388.572389,167.791034 388.669123,166.967703 388.849156,166.172009 L389.18,165 Z M405.80752,163.199642 L401.194718,169.136862 L401.017905,169.296329 L400.905412,169.356876 C400.596334,169.497108 400.221079,169.467171 399.937784,169.257896 L399.836168,169.170994 L399.732654,169.041182 L399.652641,168.897941 L397.199642,165.191585 L400.467323,167.353626 L405.80752,163.199642 Z M509,152 L466,152 L466,158.178882 L478.284405,158.178882 L478.284405,165.133008 L480.017056,165.133008 C481.690118,167.477199 484.41744,169 487.502292,169 C490.236234,169 492.694926,167.796799 494.385814,165.883021 L494.982944,165.133008 L496.715595,165.133008 L496.715595,158.178882 L509,158.178882 L509,152 Z M336,152 L293,152 L293,158.178882 L305.28113,158.178882 L305.28113,165.133008 L307.013966,165.133008 C308.687207,167.477199 311.414819,169 314.5,169 C317.238308,169 319.697715,167.796799 321.382395,165.883021 L321.976866,165.133008 L323.714286,165.133008 L323.714286,158.178882 L336,158.178882 L336,152 Z M671.033303,163 L671.028,163 L671.033303,165.538467 L802,165.538 L802,163.253 L671.033303,163.253414 L671.033303,163 Z M288,154.978704 L131.033,154.978 L131.033303,157.914036 L131,157.914 L131,158.021296 L288,158.021296 L288,154.978704 Z M335.589759,135 L293,135 L293,143.840716 L341.67401,143.840716 L341.67401,149 L460.32599,149 L460.32599,143.840716 L509,143.840716 L509,135 L466.405701,135 L466.405701,138.681433 L335.589759,138.681433 L335.589759,135 Z M131,113 L131,139.978704 L0,139.978704 L0,113 L131,113 Z M787,131.980972 L685,131.980972 L685,135.019028 L787,135.019028 L787,131.980972 Z M116,131.980972 L14,131.980972 L14,135.019028 L116,135.019028 L116,131.980972 Z M452,129.980972 L350,129.980972 L350,133.019028 L452,133.019028 L452,129.980972 Z M314.5,118 C304.660508,118 295.801937,122.128947 289.582316,128.736849 L288.447467,130.004478 L288,130.004478 L288,133 L341,133 L341,130.004478 L340.548013,130.004478 C334.297032,122.661194 324.94542,118 314.5,118 Z M487.50452,118 C477.669282,118 468.802954,122.128947 462.586174,128.736849 L461.451987,130.004478 L461,130.004478 L461,133 L514,133 L514,130.004478 L513.548013,130.004478 C507.301552,122.661194 497.94994,118 487.50452,118 Z M115.673351,119 L14.3221338,119 L14.3221338,127 L115.673351,127 L115.673351,119 Z M786.673351,119 L685.322134,119 L685.322134,127 L786.673351,127 L786.673351,119 Z M460,117 L342,117 L342,121 L350.322134,121 L350.322134,125 L451.673351,125 L451.673351,121 L460,121 L460,117 Z M460,107.255466 L342,107.255466 L342,111.744534 L460,111.744534 L460,107.255466 Z M66.2114412,0 L66.2114412,41.5029154 L68.076,57 L63.019,57 L63,57.1765725 L68.0971153,57.1765725 L68.076,57 L106,57 L106,61.6671827 L103.434563,65.5541796 L103.172918,67.1428271 C116.746152,68.7067538 127.498693,82.9280575 128.29557,100.602473 L128.336775,101.947703 L131,101.947703 L131,110.307031 L0,110.307031 L0,101.947703 L2.66058247,101.947703 C2.96449518,83.2223416 14.4315667,68.0441398 28.812621,67.051634 L28.565437,65.5541796 L26,61.6671827 L26,57 L63.019,57 L64.6987365,41.5029154 L64.6987365,0 L66.2114412,0 Z M737.211441,0 L737.211441,41.5029154 L739.076,57 L734.019,57 L734,57.1765725 L739.097115,57.1765725 L739.076,57 L777,57 L777,61.6671827 L774.434563,65.5541796 L774.172918,67.1428271 C787.746152,68.7067538 798.498693,82.9280575 799.29557,100.602473 L799.336775,101.947703 L802,101.947703 L802,110.307031 L671,110.307031 L671,101.947703 L673.660582,101.947703 C673.964495,83.2223416 685.431567,68.0441398 699.812621,67.051634 L699.565437,65.5541796 L697,61.6671827 L697,57 L734.019,57 L735.698736,41.5029154 L735.698736,0 L737.211441,0 Z M361.5,80 C356.804938,80 353,83.8034211 353,88.5023079 C353,93.2011947 356.804938,97 361.5,97 C366.19045,97 370,93.2011947 370,88.5023079 C370,83.8034211 366.19045,80 361.5,80 Z M401.497693,80 C396.80597,80 393,83.8034211 393,88.5023079 C393,93.2011947 396.80597,97 401.497693,97 C406.19403,97 410,93.2011947 410,88.5023079 C410,83.8034211 406.19403,80 401.497693,80 Z M440.497693,80 C435.801357,80 432,83.8034211 432,88.5023079 C432,93.2011947 435.801357,97 440.497693,97 C445.19403,97 449,93.2011947 449,88.5023079 C449,83.8034211 445.19403,80 440.497693,80 Z M771.02152,67 L701.312674,67 L700.265558,67.0251233 L699.812621,67.051634 L699.812621,67.051634 L700.591,71.7770898 L773.409,71.7770898 L774.172918,67.1428271 C773.854384,67.1061251 773.534296,67.076394 773.212747,67.0537528 L772.729338,67.0251233 L771.02152,67 Z M100.02152,67 L30.312674,67 L29.2655575,67.0251233 L28.812621,67.051634 L28.812621,67.051634 L29.5909995,71.7770898 L102.409,71.7770898 L103.172918,67.1428271 C102.854384,67.1061251 102.534296,67.076394 102.212747,67.0537528 L101.729338,67.0251233 L100.02152,67 Z M347.296724,39 L347.296724,45.2229102 L454.703276,45.2229102 L454.703276,39 L456.21598,39 L456.21598,51.4458204 L460,55.3328173 L460,60 L342,60 L342,55.3328173 L345.78402,51.4458204 L345.78402,39 L347.296724,39 Z M447.870769,46.3292308 L442.529231,46.3292308 L442.529231,51.6707692 L447.870769,51.6707692 L447.870769,46.3292308 Z M352.670769,46.3292308 L347.329231,46.3292308 L347.329231,51.6707692 L352.670769,51.6707692 L352.670769,46.3292308 Z M359.470769,46.3292308 L354.129231,46.3292308 L354.129231,51.6707692 L359.470769,51.6707692 L359.470769,46.3292308 Z M366.270769,46.3292308 L360.929231,46.3292308 L360.929231,51.6707692 L366.270769,51.6707692 L366.270769,46.3292308 Z M373.070769,46.3292308 L367.729231,46.3292308 L367.729231,51.6707692 L373.070769,51.6707692 L373.070769,46.3292308 Z M379.870769,46.3292308 L374.529231,46.3292308 L374.529231,51.6707692 L379.870769,51.6707692 L379.870769,46.3292308 Z M386.670769,46.3292308 L381.329231,46.3292308 L381.329231,51.6707692 L386.670769,51.6707692 L386.670769,46.3292308 Z M393.470769,46.3292308 L388.129231,46.3292308 L388.129231,51.6707692 L393.470769,51.6707692 L393.470769,46.3292308 Z M400.273036,46.3292308 L394.926964,46.3292308 L394.926964,51.6707692 L400.273036,51.6707692 L400.273036,46.3292308 Z M407.070769,46.3292308 L401.729231,46.3292308 L401.729231,51.6707692 L407.070769,51.6707692 L407.070769,46.3292308 Z M413.870769,46.3292308 L408.529231,46.3292308 L408.529231,51.6707692 L413.870769,51.6707692 L413.870769,46.3292308 Z M420.673036,46.3292308 L415.326964,46.3292308 L415.326964,51.6707692 L420.673036,51.6707692 L420.673036,46.3292308 Z M427.470769,46.3292308 L422.129231,46.3292308 L422.129231,51.6707692 L427.470769,51.6707692 L427.470769,46.3292308 Z M434.273036,46.3292308 L428.926964,46.3292308 L428.926964,51.6707692 L434.273036,51.6707692 L434.273036,46.3292308 Z M441.070769,46.3292308 L435.729231,46.3292308 L435.729231,51.6707692 L441.070769,51.6707692 L441.070769,46.3292308 Z M454.673036,46.3292308 L449.326964,46.3292308 L449.326964,51.6707692 L454.673036,51.6707692 L454.673036,46.3292308 Z"></path>
        </g>
        <g id="10" transform="translate(482.000000, 272.000000)" >
            <path opacity="0" d="M6.43988931,14.5 C7.90981903,14.5 9.10143251,13.3082759 9.10143251,11.8382098 C9.10143251,10.3681437 7.90981903,9.17641965 6.43988931,9.17641965 C4.96995958,9.17641965 3.7783461,10.3681437 3.7783461,11.8382098 C3.7783461,13.3082759 4.96995958,14.5 6.43988931,14.5 Z M3.57074573,4 C3.69361047,4 3.80580987,4.06331386 3.87005627,4.16420264 L3.90255145,4.22903898 L5.57400058,8.58372771 C4.09900775,8.97702843 3.07165083,10.3115521 3.06860125,11.8382098 C3.06908562,12.1907182 3.1251915,12.5404929 3.23445122,12.8747156 L3.30636577,13.0732805 L0.353827175,13.0732805 C0.237025825,13.0729358 0.127873372,13.0151325 0.0619426575,12.9187088 C0.0091980863,12.8415698 -0.010480622,12.7476169 0.00528685644,12.6573234 L0.0237958179,12.5906092 L3.23894001,4.22903898 C3.29122845,4.09117196 3.42330805,4 3.57074573,4 Z M10.6451276,6.71337648 C10.8166194,6.71337648 10.9596997,6.83503164 10.9927903,6.99675603 L11,7.06828184 L11,11.3271461 C11,11.4986538 10.8783561,11.6417475 10.7166467,11.6748411 L10.6451276,11.6820515 L9.80407992,11.6820515 C9.76892944,10.742253 9.340022,9.86061275 8.62233692,9.25292083 C7.95591506,8.68863548 7.09760765,8.40891922 6.23166949,8.46818447 L6.03178602,8.48790326 L6.03178602,7.06828184 C6.03178602,6.89677412 6.15342989,6.75368049 6.31513927,6.72058689 L6.38665844,6.71337648 L10.6451276,6.71337648 Z" id="10_otro" fill="#979797" fill-rule="nonzero"></path>
            <path opacity="0" d="M7,5 C8.1,5 9,5.9 9,7 L9,12.5 L7.5,12.5 L7.5,20 L3.5,20 L3.5,12.5 L2,12.5 L2,7 C2,5.9 2.9,5 4,5 L7,5 Z M5.5,0 C6.61,0 7.5,0.89 7.5,2 C7.5,3.11 6.61,4 5.5,4 C4.39,4 3.5,3.11 3.5,2 C3.5,0.89 4.39,0 5.5,0 Z" id="10_hombre" fill="#979797"></path>
            <path opacity="0" d="M5.56,4.99999917 C6.3676391,5.00216552 7.08979232,5.4866145 7.4029233,6.22006006 L7.46,6.37 L10,13.9999992 L7,13.9999992 L7,19.9999992 L4,19.9999992 L4,13.9999992 L1,13.9999992 L3.54,6.37 C3.79470152,5.60258589 4.48371864,5.06928323 5.27951422,5.00626284 L5.44,4.99999917 L5.56,4.99999917 Z M5.5,0 C6.61,0 7.5,0.89 7.5,2 C7.5,3.11 6.61,4 5.5,4 C4.39,4 3.5,3.11 3.5,2 C3.5,0.89 4.39,0 5.5,0 Z" id="10_mujer" fill="#3B3F4B"></path>
        </g>
        <g id="9" transform="translate(434.000000, 272.000000)" >
            <path opacity="0" d="M6.43988931,14.5 C7.90981903,14.5 9.10143251,13.3082759 9.10143251,11.8382098 C9.10143251,10.3681437 7.90981903,9.17641965 6.43988931,9.17641965 C4.96995958,9.17641965 3.7783461,10.3681437 3.7783461,11.8382098 C3.7783461,13.3082759 4.96995958,14.5 6.43988931,14.5 Z M3.57074573,4 C3.69361047,4 3.80580987,4.06331386 3.87005627,4.16420264 L3.90255145,4.22903898 L5.57400058,8.58372771 C4.09900775,8.97702843 3.07165083,10.3115521 3.06860125,11.8382098 C3.06908562,12.1907182 3.1251915,12.5404929 3.23445122,12.8747156 L3.30636577,13.0732805 L0.353827175,13.0732805 C0.237025825,13.0729358 0.127873372,13.0151325 0.0619426575,12.9187088 C0.0091980863,12.8415698 -0.010480622,12.7476169 0.00528685644,12.6573234 L0.0237958179,12.5906092 L3.23894001,4.22903898 C3.29122845,4.09117196 3.42330805,4 3.57074573,4 Z M10.6451276,6.71337648 C10.8166194,6.71337648 10.9596997,6.83503164 10.9927903,6.99675603 L11,7.06828184 L11,11.3271461 C11,11.4986538 10.8783561,11.6417475 10.7166467,11.6748411 L10.6451276,11.6820515 L9.80407992,11.6820515 C9.76892944,10.742253 9.340022,9.86061275 8.62233692,9.25292083 C7.95591506,8.68863548 7.09760765,8.40891922 6.23166949,8.46818447 L6.03178602,8.48790326 L6.03178602,7.06828184 C6.03178602,6.89677412 6.15342989,6.75368049 6.31513927,6.72058689 L6.38665844,6.71337648 L10.6451276,6.71337648 Z" id="9_otro" fill="#979797" fill-rule="nonzero"></path>
            <path opacity="0" d="M7,5 C8.1,5 9,5.9 9,7 L9,12.5 L7.5,12.5 L7.5,20 L3.5,20 L3.5,12.5 L2,12.5 L2,7 C2,5.9 2.9,5 4,5 L7,5 Z M5.5,0 C6.61,0 7.5,0.89 7.5,2 C7.5,3.11 6.61,4 5.5,4 C4.39,4 3.5,3.11 3.5,2 C3.5,0.89 4.39,0 5.5,0 Z" id="9_hombre" fill="#979797"></path>
            <path opacity="0" d="M5.56,4.99999917 C6.3676391,5.00216552 7.08979232,5.4866145 7.4029233,6.22006006 L7.46,6.37 L10,13.9999992 L7,13.9999992 L7,19.9999992 L4,19.9999992 L4,13.9999992 L1,13.9999992 L3.54,6.37 C3.79470152,5.60258589 4.48371864,5.06928323 5.27951422,5.00626284 L5.44,4.99999917 L5.56,4.99999917 Z M5.5,0 C6.61,0 7.5,0.89 7.5,2 C7.5,3.11 6.61,4 5.5,4 C4.39,4 3.5,3.11 3.5,2 C3.5,0.89 4.39,0 5.5,0 Z" id="9_mujer" fill="#3B3F4B"></path>
        </g>
        <g id="8" transform="translate(395.000000, 272.000000)" >
            <path opacity="0" d="M6.43988931,14.5 C7.90981903,14.5 9.10143251,13.3082759 9.10143251,11.8382098 C9.10143251,10.3681437 7.90981903,9.17641965 6.43988931,9.17641965 C4.96995958,9.17641965 3.7783461,10.3681437 3.7783461,11.8382098 C3.7783461,13.3082759 4.96995958,14.5 6.43988931,14.5 Z M3.57074573,4 C3.69361047,4 3.80580987,4.06331386 3.87005627,4.16420264 L3.90255145,4.22903898 L5.57400058,8.58372771 C4.09900775,8.97702843 3.07165083,10.3115521 3.06860125,11.8382098 C3.06908562,12.1907182 3.1251915,12.5404929 3.23445122,12.8747156 L3.30636577,13.0732805 L0.353827175,13.0732805 C0.237025825,13.0729358 0.127873372,13.0151325 0.0619426575,12.9187088 C0.0091980863,12.8415698 -0.010480622,12.7476169 0.00528685644,12.6573234 L0.0237958179,12.5906092 L3.23894001,4.22903898 C3.29122845,4.09117196 3.42330805,4 3.57074573,4 Z M10.6451276,6.71337648 C10.8166194,6.71337648 10.9596997,6.83503164 10.9927903,6.99675603 L11,7.06828184 L11,11.3271461 C11,11.4986538 10.8783561,11.6417475 10.7166467,11.6748411 L10.6451276,11.6820515 L9.80407992,11.6820515 C9.76892944,10.742253 9.340022,9.86061275 8.62233692,9.25292083 C7.95591506,8.68863548 7.09760765,8.40891922 6.23166949,8.46818447 L6.03178602,8.48790326 L6.03178602,7.06828184 C6.03178602,6.89677412 6.15342989,6.75368049 6.31513927,6.72058689 L6.38665844,6.71337648 L10.6451276,6.71337648 Z" id="8_otro" fill="#979797" fill-rule="nonzero"></path>
            <path opacity="0" d="M7,5 C8.1,5 9,5.9 9,7 L9,12.5 L7.5,12.5 L7.5,20 L3.5,20 L3.5,12.5 L2,12.5 L2,7 C2,5.9 2.9,5 4,5 L7,5 Z M5.5,0 C6.61,0 7.5,0.89 7.5,2 C7.5,3.11 6.61,4 5.5,4 C4.39,4 3.5,3.11 3.5,2 C3.5,0.89 4.39,0 5.5,0 Z" id="8_hombre" fill="#979797"></path>
            <path opacity="0" d="M5.56,4.99999917 C6.3676391,5.00216552 7.08979232,5.4866145 7.4029233,6.22006006 L7.46,6.37 L10,13.9999992 L7,13.9999992 L7,19.9999992 L4,19.9999992 L4,13.9999992 L1,13.9999992 L3.54,6.37 C3.79470152,5.60258589 4.48371864,5.06928323 5.27951422,5.00626284 L5.44,4.99999917 L5.56,4.99999917 Z M5.5,0 C6.61,0 7.5,0.89 7.5,2 C7.5,3.11 6.61,4 5.5,4 C4.39,4 3.5,3.11 3.5,2 C3.5,0.89 4.39,0 5.5,0 Z" id="8_mujer" fill="#3B3F4B"></path>
        </g>
        <g id="7" transform="translate(357.000000, 272.000000)" >
            <path opacity="0" d="M6.43988931,14.5 C7.90981903,14.5 9.10143251,13.3082759 9.10143251,11.8382098 C9.10143251,10.3681437 7.90981903,9.17641965 6.43988931,9.17641965 C4.96995958,9.17641965 3.7783461,10.3681437 3.7783461,11.8382098 C3.7783461,13.3082759 4.96995958,14.5 6.43988931,14.5 Z M3.57074573,4 C3.69361047,4 3.80580987,4.06331386 3.87005627,4.16420264 L3.90255145,4.22903898 L5.57400058,8.58372771 C4.09900775,8.97702843 3.07165083,10.3115521 3.06860125,11.8382098 C3.06908562,12.1907182 3.1251915,12.5404929 3.23445122,12.8747156 L3.30636577,13.0732805 L0.353827175,13.0732805 C0.237025825,13.0729358 0.127873372,13.0151325 0.0619426575,12.9187088 C0.0091980863,12.8415698 -0.010480622,12.7476169 0.00528685644,12.6573234 L0.0237958179,12.5906092 L3.23894001,4.22903898 C3.29122845,4.09117196 3.42330805,4 3.57074573,4 Z M10.6451276,6.71337648 C10.8166194,6.71337648 10.9596997,6.83503164 10.9927903,6.99675603 L11,7.06828184 L11,11.3271461 C11,11.4986538 10.8783561,11.6417475 10.7166467,11.6748411 L10.6451276,11.6820515 L9.80407992,11.6820515 C9.76892944,10.742253 9.340022,9.86061275 8.62233692,9.25292083 C7.95591506,8.68863548 7.09760765,8.40891922 6.23166949,8.46818447 L6.03178602,8.48790326 L6.03178602,7.06828184 C6.03178602,6.89677412 6.15342989,6.75368049 6.31513927,6.72058689 L6.38665844,6.71337648 L10.6451276,6.71337648 Z" id="7_otro" fill="#979797" fill-rule="nonzero"></path>
            <path opacity="0" d="M7,5 C8.1,5 9,5.9 9,7 L9,12.5 L7.5,12.5 L7.5,20 L3.5,20 L3.5,12.5 L2,12.5 L2,7 C2,5.9 2.9,5 4,5 L7,5 Z M5.5,0 C6.61,0 7.5,0.89 7.5,2 C7.5,3.11 6.61,4 5.5,4 C4.39,4 3.5,3.11 3.5,2 C3.5,0.89 4.39,0 5.5,0 Z" id="7_hombre" fill="#979797"></path>
            <path opacity="0" d="M5.56,4.99999917 C6.3676391,5.00216552 7.08979232,5.4866145 7.4029233,6.22006006 L7.46,6.37 L10,13.9999992 L7,13.9999992 L7,19.9999992 L4,19.9999992 L4,13.9999992 L1,13.9999992 L3.54,6.37 C3.79470152,5.60258589 4.48371864,5.06928323 5.27951422,5.00626284 L5.44,4.99999917 L5.56,4.99999917 Z M5.5,0 C6.61,0 7.5,0.89 7.5,2 C7.5,3.11 6.61,4 5.5,4 C4.39,4 3.5,3.11 3.5,2 C3.5,0.89 4.39,0 5.5,0 Z" id="7_mujer" fill="#3B3F4B"></path>
        </g>
        <g id="6" transform="translate(309.000000, 272.000000)" >
            <path opacity="0" d="M6.43988931,14.5 C7.90981903,14.5 9.10143251,13.3082759 9.10143251,11.8382098 C9.10143251,10.3681437 7.90981903,9.17641965 6.43988931,9.17641965 C4.96995958,9.17641965 3.7783461,10.3681437 3.7783461,11.8382098 C3.7783461,13.3082759 4.96995958,14.5 6.43988931,14.5 Z M3.57074573,4 C3.69361047,4 3.80580987,4.06331386 3.87005627,4.16420264 L3.90255145,4.22903898 L5.57400058,8.58372771 C4.09900775,8.97702843 3.07165083,10.3115521 3.06860125,11.8382098 C3.06908562,12.1907182 3.1251915,12.5404929 3.23445122,12.8747156 L3.30636577,13.0732805 L0.353827175,13.0732805 C0.237025825,13.0729358 0.127873372,13.0151325 0.0619426575,12.9187088 C0.0091980863,12.8415698 -0.010480622,12.7476169 0.00528685644,12.6573234 L0.0237958179,12.5906092 L3.23894001,4.22903898 C3.29122845,4.09117196 3.42330805,4 3.57074573,4 Z M10.6451276,6.71337648 C10.8166194,6.71337648 10.9596997,6.83503164 10.9927903,6.99675603 L11,7.06828184 L11,11.3271461 C11,11.4986538 10.8783561,11.6417475 10.7166467,11.6748411 L10.6451276,11.6820515 L9.80407992,11.6820515 C9.76892944,10.742253 9.340022,9.86061275 8.62233692,9.25292083 C7.95591506,8.68863548 7.09760765,8.40891922 6.23166949,8.46818447 L6.03178602,8.48790326 L6.03178602,7.06828184 C6.03178602,6.89677412 6.15342989,6.75368049 6.31513927,6.72058689 L6.38665844,6.71337648 L10.6451276,6.71337648 Z" id="6_otro" fill="#979797" fill-rule="nonzero"></path>
            <path opacity="0" d="M7,5 C8.1,5 9,5.9 9,7 L9,12.5 L7.5,12.5 L7.5,20 L3.5,20 L3.5,12.5 L2,12.5 L2,7 C2,5.9 2.9,5 4,5 L7,5 Z M5.5,0 C6.61,0 7.5,0.89 7.5,2 C7.5,3.11 6.61,4 5.5,4 C4.39,4 3.5,3.11 3.5,2 C3.5,0.89 4.39,0 5.5,0 Z" id="6_hombre" fill="#979797"></path>
            <path opacity="0" d="M5.56,4.99999917 C6.3676391,5.00216552 7.08979232,5.4866145 7.4029233,6.22006006 L7.46,6.37 L10,13.9999992 L7,13.9999992 L7,19.9999992 L4,19.9999992 L4,13.9999992 L1,13.9999992 L3.54,6.37 C3.79470152,5.60258589 4.48371864,5.06928323 5.27951422,5.00626284 L5.44,4.99999917 L5.56,4.99999917 Z M5.5,0 C6.61,0 7.5,0.89 7.5,2 C7.5,3.11 6.61,4 5.5,4 C4.39,4 3.5,3.11 3.5,2 C3.5,0.89 4.39,0 5.5,0 Z" id="6_mujer" fill="#3B3F4B"></path>
        </g>
        <g id="5" transform="translate(482.000000, 193.000000)" >
            <path opacity="0" d="M6.43988931,14.5 C7.90981903,14.5 9.10143251,13.3082759 9.10143251,11.8382098 C9.10143251,10.3681437 7.90981903,9.17641965 6.43988931,9.17641965 C4.96995958,9.17641965 3.7783461,10.3681437 3.7783461,11.8382098 C3.7783461,13.3082759 4.96995958,14.5 6.43988931,14.5 Z M3.57074573,4 C3.69361047,4 3.80580987,4.06331386 3.87005627,4.16420264 L3.90255145,4.22903898 L5.57400058,8.58372771 C4.09900775,8.97702843 3.07165083,10.3115521 3.06860125,11.8382098 C3.06908562,12.1907182 3.1251915,12.5404929 3.23445122,12.8747156 L3.30636577,13.0732805 L0.353827175,13.0732805 C0.237025825,13.0729358 0.127873372,13.0151325 0.0619426575,12.9187088 C0.0091980863,12.8415698 -0.010480622,12.7476169 0.00528685644,12.6573234 L0.0237958179,12.5906092 L3.23894001,4.22903898 C3.29122845,4.09117196 3.42330805,4 3.57074573,4 Z M10.6451276,6.71337648 C10.8166194,6.71337648 10.9596997,6.83503164 10.9927903,6.99675603 L11,7.06828184 L11,11.3271461 C11,11.4986538 10.8783561,11.6417475 10.7166467,11.6748411 L10.6451276,11.6820515 L9.80407992,11.6820515 C9.76892944,10.742253 9.340022,9.86061275 8.62233692,9.25292083 C7.95591506,8.68863548 7.09760765,8.40891922 6.23166949,8.46818447 L6.03178602,8.48790326 L6.03178602,7.06828184 C6.03178602,6.89677412 6.15342989,6.75368049 6.31513927,6.72058689 L6.38665844,6.71337648 L10.6451276,6.71337648 Z" id="5_otro" fill="#979797" fill-rule="nonzero"></path>
            <path opacity="0" d="M7,5 C8.1,5 9,5.9 9,7 L9,12.5 L7.5,12.5 L7.5,20 L3.5,20 L3.5,12.5 L2,12.5 L2,7 C2,5.9 2.9,5 4,5 L7,5 Z M5.5,0 C6.61,0 7.5,0.89 7.5,2 C7.5,3.11 6.61,4 5.5,4 C4.39,4 3.5,3.11 3.5,2 C3.5,0.89 4.39,0 5.5,0 Z" id="5_hombre" fill="#979797"></path>
            <path opacity="0" d="M5.56,4.99999917 C6.3676391,5.00216552 7.08979232,5.4866145 7.4029233,6.22006006 L7.46,6.37 L10,13.9999992 L7,13.9999992 L7,19.9999992 L4,19.9999992 L4,13.9999992 L1,13.9999992 L3.54,6.37 C3.79470152,5.60258589 4.48371864,5.06928323 5.27951422,5.00626284 L5.44,4.99999917 L5.56,4.99999917 Z M5.5,0 C6.61,0 7.5,0.89 7.5,2 C7.5,3.11 6.61,4 5.5,4 C4.39,4 3.5,3.11 3.5,2 C3.5,0.89 4.39,0 5.5,0 Z" id="5_mujer" fill="#3B3F4B"></path>
        </g>
        <g id="4" transform="translate(434.000000, 193.000000)" >
            <path opacity="0" d="M6.43988931,14.5 C7.90981903,14.5 9.10143251,13.3082759 9.10143251,11.8382098 C9.10143251,10.3681437 7.90981903,9.17641965 6.43988931,9.17641965 C4.96995958,9.17641965 3.7783461,10.3681437 3.7783461,11.8382098 C3.7783461,13.3082759 4.96995958,14.5 6.43988931,14.5 Z M3.57074573,4 C3.69361047,4 3.80580987,4.06331386 3.87005627,4.16420264 L3.90255145,4.22903898 L5.57400058,8.58372771 C4.09900775,8.97702843 3.07165083,10.3115521 3.06860125,11.8382098 C3.06908562,12.1907182 3.1251915,12.5404929 3.23445122,12.8747156 L3.30636577,13.0732805 L0.353827175,13.0732805 C0.237025825,13.0729358 0.127873372,13.0151325 0.0619426575,12.9187088 C0.0091980863,12.8415698 -0.010480622,12.7476169 0.00528685644,12.6573234 L0.0237958179,12.5906092 L3.23894001,4.22903898 C3.29122845,4.09117196 3.42330805,4 3.57074573,4 Z M10.6451276,6.71337648 C10.8166194,6.71337648 10.9596997,6.83503164 10.9927903,6.99675603 L11,7.06828184 L11,11.3271461 C11,11.4986538 10.8783561,11.6417475 10.7166467,11.6748411 L10.6451276,11.6820515 L9.80407992,11.6820515 C9.76892944,10.742253 9.340022,9.86061275 8.62233692,9.25292083 C7.95591506,8.68863548 7.09760765,8.40891922 6.23166949,8.46818447 L6.03178602,8.48790326 L6.03178602,7.06828184 C6.03178602,6.89677412 6.15342989,6.75368049 6.31513927,6.72058689 L6.38665844,6.71337648 L10.6451276,6.71337648 Z" id="4_otro" fill="#979797" fill-rule="nonzero"></path>
            <path opacity="0" d="M7,5 C8.1,5 9,5.9 9,7 L9,12.5 L7.5,12.5 L7.5,20 L3.5,20 L3.5,12.5 L2,12.5 L2,7 C2,5.9 2.9,5 4,5 L7,5 Z M5.5,0 C6.61,0 7.5,0.89 7.5,2 C7.5,3.11 6.61,4 5.5,4 C4.39,4 3.5,3.11 3.5,2 C3.5,0.89 4.39,0 5.5,0 Z" id="4_hombre" fill="#979797"></path>
            <path opacity="0" d="M5.56,4.99999917 C6.3676391,5.00216552 7.08979232,5.4866145 7.4029233,6.22006006 L7.46,6.37 L10,13.9999992 L7,13.9999992 L7,19.9999992 L4,19.9999992 L4,13.9999992 L1,13.9999992 L3.54,6.37 C3.79470152,5.60258589 4.48371864,5.06928323 5.27951422,5.00626284 L5.44,4.99999917 L5.56,4.99999917 Z M5.5,0 C6.61,0 7.5,0.89 7.5,2 C7.5,3.11 6.61,4 5.5,4 C4.39,4 3.5,3.11 3.5,2 C3.5,0.89 4.39,0 5.5,0 Z" id="4_mujer" fill="#3B3F4B"></path>
        </g>
        <g id="3" transform="translate(395.000000, 193.000000)" >
            <path opacity="0" d="M6.43988931,14.5 C7.90981903,14.5 9.10143251,13.3082759 9.10143251,11.8382098 C9.10143251,10.3681437 7.90981903,9.17641965 6.43988931,9.17641965 C4.96995958,9.17641965 3.7783461,10.3681437 3.7783461,11.8382098 C3.7783461,13.3082759 4.96995958,14.5 6.43988931,14.5 Z M3.57074573,4 C3.69361047,4 3.80580987,4.06331386 3.87005627,4.16420264 L3.90255145,4.22903898 L5.57400058,8.58372771 C4.09900775,8.97702843 3.07165083,10.3115521 3.06860125,11.8382098 C3.06908562,12.1907182 3.1251915,12.5404929 3.23445122,12.8747156 L3.30636577,13.0732805 L0.353827175,13.0732805 C0.237025825,13.0729358 0.127873372,13.0151325 0.0619426575,12.9187088 C0.0091980863,12.8415698 -0.010480622,12.7476169 0.00528685644,12.6573234 L0.0237958179,12.5906092 L3.23894001,4.22903898 C3.29122845,4.09117196 3.42330805,4 3.57074573,4 Z M10.6451276,6.71337648 C10.8166194,6.71337648 10.9596997,6.83503164 10.9927903,6.99675603 L11,7.06828184 L11,11.3271461 C11,11.4986538 10.8783561,11.6417475 10.7166467,11.6748411 L10.6451276,11.6820515 L9.80407992,11.6820515 C9.76892944,10.742253 9.340022,9.86061275 8.62233692,9.25292083 C7.95591506,8.68863548 7.09760765,8.40891922 6.23166949,8.46818447 L6.03178602,8.48790326 L6.03178602,7.06828184 C6.03178602,6.89677412 6.15342989,6.75368049 6.31513927,6.72058689 L6.38665844,6.71337648 L10.6451276,6.71337648 Z" id="3_otro" fill="#979797" fill-rule="nonzero"></path>
            <path opacity="0" d="M7,5 C8.1,5 9,5.9 9,7 L9,12.5 L7.5,12.5 L7.5,20 L3.5,20 L3.5,12.5 L2,12.5 L2,7 C2,5.9 2.9,5 4,5 L7,5 Z M5.5,0 C6.61,0 7.5,0.89 7.5,2 C7.5,3.11 6.61,4 5.5,4 C4.39,4 3.5,3.11 3.5,2 C3.5,0.89 4.39,0 5.5,0 Z" id="3_hombre" fill="#979797"></path>
            <path opacity="0" d="M5.56,4.99999917 C6.3676391,5.00216552 7.08979232,5.4866145 7.4029233,6.22006006 L7.46,6.37 L10,13.9999992 L7,13.9999992 L7,19.9999992 L4,19.9999992 L4,13.9999992 L1,13.9999992 L3.54,6.37 C3.79470152,5.60258589 4.48371864,5.06928323 5.27951422,5.00626284 L5.44,4.99999917 L5.56,4.99999917 Z M5.5,0 C6.61,0 7.5,0.89 7.5,2 C7.5,3.11 6.61,4 5.5,4 C4.39,4 3.5,3.11 3.5,2 C3.5,0.89 4.39,0 5.5,0 Z" id="3_mujer" fill="#3B3F4B"></path>
        </g>
        <g id="2" transform="translate(357.000000, 193.000000)">
            <path opacity="0" d="M6.43988931,14.5 C7.90981903,14.5 9.10143251,13.3082759 9.10143251,11.8382098 C9.10143251,10.3681437 7.90981903,9.17641965 6.43988931,9.17641965 C4.96995958,9.17641965 3.7783461,10.3681437 3.7783461,11.8382098 C3.7783461,13.3082759 4.96995958,14.5 6.43988931,14.5 Z M3.57074573,4 C3.69361047,4 3.80580987,4.06331386 3.87005627,4.16420264 L3.90255145,4.22903898 L5.57400058,8.58372771 C4.09900775,8.97702843 3.07165083,10.3115521 3.06860125,11.8382098 C3.06908562,12.1907182 3.1251915,12.5404929 3.23445122,12.8747156 L3.30636577,13.0732805 L0.353827175,13.0732805 C0.237025825,13.0729358 0.127873372,13.0151325 0.0619426575,12.9187088 C0.0091980863,12.8415698 -0.010480622,12.7476169 0.00528685644,12.6573234 L0.0237958179,12.5906092 L3.23894001,4.22903898 C3.29122845,4.09117196 3.42330805,4 3.57074573,4 Z M10.6451276,6.71337648 C10.8166194,6.71337648 10.9596997,6.83503164 10.9927903,6.99675603 L11,7.06828184 L11,11.3271461 C11,11.4986538 10.8783561,11.6417475 10.7166467,11.6748411 L10.6451276,11.6820515 L9.80407992,11.6820515 C9.76892944,10.742253 9.340022,9.86061275 8.62233692,9.25292083 C7.95591506,8.68863548 7.09760765,8.40891922 6.23166949,8.46818447 L6.03178602,8.48790326 L6.03178602,7.06828184 C6.03178602,6.89677412 6.15342989,6.75368049 6.31513927,6.72058689 L6.38665844,6.71337648 L10.6451276,6.71337648 Z" id="2_otro" fill="#979797" fill-rule="nonzero"></path>
            <path opacity="0" d="M7,5 C8.1,5 9,5.9 9,7 L9,12.5 L7.5,12.5 L7.5,20 L3.5,20 L3.5,12.5 L2,12.5 L2,7 C2,5.9 2.9,5 4,5 L7,5 Z M5.5,0 C6.61,0 7.5,0.89 7.5,2 C7.5,3.11 6.61,4 5.5,4 C4.39,4 3.5,3.11 3.5,2 C3.5,0.89 4.39,0 5.5,0 Z" id="2_hombre" fill="#979797"></path>
            <path opacity="0" d="M5.56,4.99999917 C6.3676391,5.00216552 7.08979232,5.4866145 7.4029233,6.22006006 L7.46,6.37 L10,13.9999992 L7,13.9999992 L7,19.9999992 L4,19.9999992 L4,13.9999992 L1,13.9999992 L3.54,6.37 C3.79470152,5.60258589 4.48371864,5.06928323 5.27951422,5.00626284 L5.44,4.99999917 L5.56,4.99999917 Z M5.5,0 C6.61,0 7.5,0.89 7.5,2 C7.5,3.11 6.61,4 5.5,4 C4.39,4 3.5,3.11 3.5,2 C3.5,0.89 4.39,0 5.5,0 Z" id="2_mujer" fill="#3B3F4B"></path>
        </g>
        <g id="1" transform="translate(309.000000, 193.000000)" >
            <path opacity="0" d="M6.43988931,14.5 C7.90981903,14.5 9.10143251,13.3082759 9.10143251,11.8382098 C9.10143251,10.3681437 7.90981903,9.17641965 6.43988931,9.17641965 C4.96995958,9.17641965 3.7783461,10.3681437 3.7783461,11.8382098 C3.7783461,13.3082759 4.96995958,14.5 6.43988931,14.5 Z M3.57074573,4 C3.69361047,4 3.80580987,4.06331386 3.87005627,4.16420264 L3.90255145,4.22903898 L5.57400058,8.58372771 C4.09900775,8.97702843 3.07165083,10.3115521 3.06860125,11.8382098 C3.06908562,12.1907182 3.1251915,12.5404929 3.23445122,12.8747156 L3.30636577,13.0732805 L0.353827175,13.0732805 C0.237025825,13.0729358 0.127873372,13.0151325 0.0619426575,12.9187088 C0.0091980863,12.8415698 -0.010480622,12.7476169 0.00528685644,12.6573234 L0.0237958179,12.5906092 L3.23894001,4.22903898 C3.29122845,4.09117196 3.42330805,4 3.57074573,4 Z M10.6451276,6.71337648 C10.8166194,6.71337648 10.9596997,6.83503164 10.9927903,6.99675603 L11,7.06828184 L11,11.3271461 C11,11.4986538 10.8783561,11.6417475 10.7166467,11.6748411 L10.6451276,11.6820515 L9.80407992,11.6820515 C9.76892944,10.742253 9.340022,9.86061275 8.62233692,9.25292083 C7.95591506,8.68863548 7.09760765,8.40891922 6.23166949,8.46818447 L6.03178602,8.48790326 L6.03178602,7.06828184 C6.03178602,6.89677412 6.15342989,6.75368049 6.31513927,6.72058689 L6.38665844,6.71337648 L10.6451276,6.71337648 Z" id="1_otro" fill="#979797" fill-rule="nonzero"></path>
            <path opacity="0" d="M7,5 C8.1,5 9,5.9 9,7 L9,12.5 L7.5,12.5 L7.5,20 L3.5,20 L3.5,12.5 L2,12.5 L2,7 C2,5.9 2.9,5 4,5 L7,5 Z M5.5,0 C6.61,0 7.5,0.89 7.5,2 C7.5,3.11 6.61,4 5.5,4 C4.39,4 3.5,3.11 3.5,2 C3.5,0.89 4.39,0 5.5,0 Z" id="1_hombre" fill="#979797"></path>
            <path opacity="0" d="M5.56,4.99999917 C6.3676391,5.00216552 7.08979232,5.4866145 7.4029233,6.22006006 L7.46,6.37 L10,13.9999992 L7,13.9999992 L7,19.9999992 L4,19.9999992 L4,13.9999992 L1,13.9999992 L3.54,6.37 C3.79470152,5.60258589 4.48371864,5.06928323 5.27951422,5.00626284 L5.44,4.99999917 L5.56,4.99999917 Z M5.5,0 C6.61,0 7.5,0.89 7.5,2 C7.5,3.11 6.61,4 5.5,4 C4.39,4 3.5,3.11 3.5,2 C3.5,0.89 4.39,0 5.5,0 Z" id="1_mujer" fill="#3B3F4B"></path>
        </g>
    </g>
</svg>
