<?xml version="1.0" encoding="UTF-8"?>
<svg width="321px" height="318px" viewBox="0 0 321 318" version="1.1" xmlns="http://www.w3.org/2000/svg" xmlns:xlink="http://www.w3.org/1999/xlink">
    <title>3113EBA6-4C5E-4795-830E-F0D388615B10</title>
    <g id="Symbols" stroke="none" stroke-width="1" fill="none" fill-rule="evenodd">
        <g id="ilustracion_fac_der">
            <path d="M321,315 L8.18545232e-12,315 L8.18545232e-12,110.099131 L49.4725934,110.099131 L49.4725934,96.4239432 L43.3854916,96.4239432 L43.3854916,89.588617 L47.4617163,89.588617 C49.0050531,87.7670728 50.7285063,86.0935745 52.601863,84.6029563 L54.0345152,83.519827 L54.0345152,72.8699623 L66.2177972,72.8699623 C68.8959404,74.4257134 72.0007708,75.3101783 75.3234841,75.3101783 C78.1676332,75.3101783 80.8583751,74.6603674 83.2527836,73.4949921 L84.4246317,72.8699623 L101.174375,72.8699623 L101.174375,68.3070305 L89.7673004,68.3070305 L89.7673004,66.0255647 L60.8751285,66.0255647 L60.8751285,68.3070305 L49.4725934,68.3070305 L49.4725934,59.9477032 L54.0435937,59.9477032 C54.5711995,41.0261666 74.6815703,25.7265022 99.7521374,25.0251233 L101.551131,25 L221.314063,25 L224.248172,25.0251233 C248.72595,25.7098027 268.472889,40.3058868 269.890153,58.6024727 L269.960946,59.9477032 L274.536485,59.9477032 L274.536485,68.3070305 L263.124872,68.3070305 L263.124872,66.0255647 L234.237239,66.0255647 L234.237239,68.3070305 L222.830164,68.3070305 L222.830164,72.8699623 L239.579908,72.8699623 C242.253511,74.4257134 245.36742,75.3101783 248.685594,75.3101783 C251.525853,75.3101783 254.219374,74.6603674 256.614656,73.4949921 L257.786742,72.8699623 L269.974563,72.8699623 L269.974563,83.519827 C271.917352,84.916828 273.720695,86.5054177 275.354381,88.2507618 L276.547362,89.588617 L280.619048,89.588617 L280.619048,96.4239432 L274.536485,96.4239432 L274.536485,110.099131 L321,110.099131 L321,315 Z" id="Path" fill="#005598"></path>
            <path d="M138.5025,246.92 C138.2725,246.92 138.0825,246.735 138.0825,246.5 C138.0825,246.27 138.2725,246.08 138.5025,246.08 C138.7325,246.08 138.9175,246.27 138.9175,246.5 C138.9175,246.735 138.7325,246.92 138.5025,246.92 L138.5025,246.92 Z" id="Path" fill="#FFFFFF"></path>
            <path d="M140.505,247.08 C140.735,247.08 140.92,247.265 140.92,247.5 C140.92,247.725 140.735,247.92 140.505,247.92 C140.275,247.92 140.08,247.725 140.08,247.5 C140.08,247.265 140.275,247.08 140.505,247.08 Z" id="Path" fill="#FFFFFF"></path>
            <path d="M142.0825,245.5025 C142.0825,245.2725 142.2675,245.0825 142.5075,245.0825 C142.7325,245.0825 142.9175,245.2725 142.9175,245.5025 C142.9175,245.7325 142.7325,245.9175 142.5075,245.9175 C142.2675,245.9175 142.0825,245.7325 142.0825,245.5025 L142.0825,245.5025 Z" id="Path" fill="#FFFFFF"></path>
            <path d="M162,216 C155.721917,216 150.569066,220.876711 150.044052,227.091952 L150,228.139612 L150,289.846047 C152.641791,290.051318 160.641791,290.051318 174,289.846047 L174,228.139612 C174,221.43362 168.631343,216 162,216 Z" id="Path" fill="#FFFFFF"></path>
            <path d="M123,216 C116.717675,216 111.56862,220.886878 111.044016,227.115076 L111,228.164921 L111,290 L135,290 L135,228.164921 C135,221.444948 129.626866,216 123,216 Z" id="Path" fill="#FFFFFF"></path>
            <path d="M201,216 C194.721917,216 189.569066,220.886878 189.044052,227.115076 L189,228.164921 L189,290 L213,290 L213,228.164921 C213,221.444948 207.631343,216 201,216 Z" id="Path" fill="#FFFFFF"></path>
            <polygon id="Path" fill="#FFFFFF" points="145.91668 249.980972 139.08332 249.980972 139.08332 253.019028 145.91668 253.019028"></polygon>
            <polygon id="Path" fill="#FFFFFF" points="184.918947 249.980972 178.081053 249.980972 178.081053 253.019028 184.918947 253.019028"></polygon>
            <polygon id="Path" fill="#FFFFFF" points="106.778543 239.980972 102.221457 239.980972 102.221457 243.019028 106.778543 243.019028"></polygon>
            <polygon id="Path-Copy-5" fill="#FFFFFF" points="106.778543 267.980972 102.221457 267.980972 102.221457 271.019028 106.778543 271.019028"></polygon>
            <polygon id="Path-Copy-13" fill="#FFFFFF" points="106.778543 285.980972 102.221457 285.980972 102.221457 289.019028 106.778543 289.019028"></polygon>
            <polygon id="Path-Copy-3" fill="#FFFFFF" points="106.778543 249.980972 102.221457 249.980972 102.221457 253.019028 106.778543 253.019028"></polygon>
            <polygon id="Path" fill="#FFFFFF" points="145.91668 239.980972 139.08332 239.980972 139.08332 243.019028 145.91668 243.019028"></polygon>
            <polygon id="Path-Copy-6" fill="#FFFFFF" points="145.91668 267.980972 139.08332 267.980972 139.08332 271.019028 145.91668 271.019028"></polygon>
            <polygon id="Path-Copy-14" fill="#FFFFFF" points="145.91668 285.980972 139.08332 285.980972 139.08332 289.019028 145.91668 289.019028"></polygon>
            <polygon id="Path" fill="#FFFFFF" points="184.918947 239.980972 178.081053 239.980972 178.081053 243.019028 184.918947 243.019028"></polygon>
            <polygon id="Path-Copy-7" fill="#FFFFFF" points="184.918947 267.980972 178.081053 267.980972 178.081053 271.019028 184.918947 271.019028"></polygon>
            <polygon id="Path-Copy-15" fill="#FFFFFF" points="184.918947 285.980972 178.081053 285.980972 178.081053 289.019028 184.918947 289.019028"></polygon>
            <polygon id="Path" fill="#FFFFFF" points="220.78081 239.980972 216.21919 239.980972 216.21919 243.019028 220.78081 243.019028"></polygon>
            <polygon id="Path-Copy-8" fill="#FFFFFF" points="220.78081 267.980972 216.21919 267.980972 216.21919 271.019028 220.78081 271.019028"></polygon>
            <polygon id="Path-Copy-16" fill="#FFFFFF" points="220.78081 285.980972 216.21919 285.980972 216.21919 289.019028 220.78081 289.019028"></polygon>
            <polygon id="Path-Copy-4" fill="#FFFFFF" points="220.78081 249.980972 216.21919 249.980972 216.21919 253.019028 220.78081 253.019028"></polygon>
            <polygon id="Path" fill="#FFFFFF" points="106.778543 230.980972 102.221457 230.980972 102.221457 234.019028 106.778543 234.019028"></polygon>
            <polygon id="Path-Copy-9" fill="#FFFFFF" points="106.778543 258.980972 102.221457 258.980972 102.221457 262.019028 106.778543 262.019028"></polygon>
            <polygon id="Path-Copy-17" fill="#FFFFFF" points="106.778543 276.980972 102.221457 276.980972 102.221457 280.019028 106.778543 280.019028"></polygon>
            <polygon id="Path" fill="#FFFFFF" points="145.91668 230.980972 139.08332 230.980972 139.08332 234.019028 145.91668 234.019028"></polygon>
            <polygon id="Path-Copy-10" fill="#FFFFFF" points="145.91668 258.980972 139.08332 258.980972 139.08332 262.019028 145.91668 262.019028"></polygon>
            <polygon id="Path-Copy-18" fill="#FFFFFF" points="145.91668 276.980972 139.08332 276.980972 139.08332 280.019028 145.91668 280.019028"></polygon>
            <polygon id="Path" fill="#FFFFFF" points="184.918947 230.980972 178.081053 230.980972 178.081053 234.019028 184.918947 234.019028"></polygon>
            <polygon id="Path-Copy-11" fill="#FFFFFF" points="184.918947 258.980972 178.081053 258.980972 178.081053 262.019028 184.918947 262.019028"></polygon>
            <polygon id="Path-Copy-19" fill="#FFFFFF" points="184.918947 276.980972 178.081053 276.980972 178.081053 280.019028 184.918947 280.019028"></polygon>
            <polygon id="Path" fill="#FFFFFF" points="220.778543 230.980972 216.221457 230.980972 216.221457 234.019028 220.778543 234.019028"></polygon>
            <polygon id="Path-Copy-12" fill="#FFFFFF" points="220.778543 258.980972 216.221457 258.980972 216.221457 262.019028 220.778543 262.019028"></polygon>
            <polygon id="Path-Copy-20" fill="#FFFFFF" points="220.778543 276.980972 216.221457 276.980972 216.221457 280.019028 220.778543 280.019028"></polygon>
            <polygon id="Path" fill="#FFFFFF" points="100 228.210121 87 228.210121 87 232.789879 100 232.789879"></polygon>
            <polygon id="Path-Copy-25" fill="#FFFFFF" points="237 228.210121 224 228.210121 224 232.789879 237 232.789879"></polygon>
            <polygon id="Path-Copy-26" fill="#FFFFFF" points="275 228.210121 261 228.210121 261 232.789879 275 232.789879"></polygon>
            <polygon id="Path-Copy-28" fill="#FFFFFF" points="64 228.210121 49 228.210121 49 232.789879 64 232.789879"></polygon>
            <polygon id="Path-Copy" fill="#FFFFFF" points="100 258.210121 87 258.210121 87 262.789879 100 262.789879"></polygon>
            <polygon id="Path-Copy-21" fill="#FFFFFF" points="237 258.210121 224 258.210121 224 262.789879 237 262.789879"></polygon>
            <polygon id="Path-Copy-27" fill="#FFFFFF" points="275 258.210121 261 258.210121 261 262.789879 275 262.789879"></polygon>
            <polygon id="Path-Copy-29" fill="#FFFFFF" points="63 258.210121 49 258.210121 49 262.789879 63 262.789879"></polygon>
            <polygon id="Path-Copy-2" fill="#FFFFFF" points="100 271.210121 49 271.210121 49 275.789879 100 275.789879"></polygon>
            <polygon id="Path-Copy-22" fill="#FFFFFF" points="275 271.210121 224 271.210121 224 275.789879 275 275.789879"></polygon>
            <path d="M196.66676,208 C189.582196,209.534284 183.849262,214.616882 181.5,221.251867 C179.297567,215.031568 174.121204,210.175673 167.645261,208.328773 L166.33324,208 L165,213.919891 C171.204676,215.262075 175.941284,220.471706 176.448424,226.860814 L176.493452,228 L186.506548,228 C186.506548,221.481431 190.894351,215.984224 196.920175,214.196347 L198,213.919891 L196.66676,208 Z" id="Path" fill="#FFFFFF"></path>
            <path d="M118.712054,208 C110.118051,209.930793 103.58926,217.505645 103.037784,226.731999 L103,228 L108.930747,228 C108.930747,221.481431 113.154916,215.984224 118.959748,214.196347 L120,213.919891 L118.712054,208 Z" id="Path" fill="#FFFFFF"></path>
            <path d="M205.287276,208 L204,213.919891 C209.978532,215.262075 214.536589,220.471706 215.024587,226.860814 L215.067916,228 L221,228 C221,218.631758 214.844017,210.733539 206.44599,208.297899 L205.287276,208 Z" id="Path" fill="#FFFFFF"></path>
            <path d="M157.662349,208 C150.578771,209.534284 144.851233,214.616882 142.502298,221.251867 C140.295863,215.031568 135.115911,210.175673 128.644136,208.328773 L127.333055,208 L126,213.919891 C132.203812,215.262075 136.93976,220.471706 137.446829,226.860814 L137.491851,228 L147.503552,228 C147.503552,221.481431 151.890744,215.984224 157.919601,214.196347 L159,213.919891 L157.662349,208 Z" id="Path" fill="#FFFFFF"></path>
            <polygon id="Path" fill="#FFFFFF" points="165 206 158 206 159.745647 214.100448 161.495647 215 163.25 214.100448"></polygon>
            <polygon id="Path" fill="#FFFFFF" points="127 206 120 206 121.745647 214.100448 123.5 215 125.245647 214.100448"></polygon>
            <polygon id="Path" fill="#FFFFFF" points="204 206 197 206 198.75 214.100448 200.5 215 202.254353 214.100448"></polygon>
            <polygon id="Path" fill="#FFFFFF" points="99.6513563 192 49.471955 192 49.471955 196.649336 1.2490009e-16 196.649336 3.00259817e-13 211.350664 49.471955 211.752744 49.471955 216 99.6513563 216 99.6513563 211.350664 49.471955 211.350664 49.471955 198.96476 102.692532 198.96476 102.692532 201.289428 221.307468 201.289428 221.307468 198.96476 274.528045 198.96476 274.528045 211.350664 224.294175 211.350664 224.294175 216 274.528045 216 274.528045 211.752744 321 211.752744 321 196.649336 274.528045 196.649336 274.528045 192 224.344105 192 224.344105 195.096476 99.6513563 195.096476"></polygon>
            <rect id="Rectangle-Copy-21" fill="#FFFFFF" x="57" y="294" width="213" height="3"></rect>
            <rect id="Rectangle-Copy-23" fill="#FFFFFF" x="45" y="300" width="237" height="3"></rect>
            <rect id="Rectangle-Copy-25" fill="#FFFFFF" x="33" y="306" width="261" height="3"></rect>
            <rect id="Rectangle-Copy-27" fill="#FFFFFF" x="21" y="312" width="285" height="3"></rect>
            <rect id="Rectangle-Copy-28" fill="#005598" x="15" y="315" width="297" height="3"></rect>
            <rect id="Rectangle" fill="#FFFFFF" x="49" y="283" width="51" height="7"></rect>
            <rect id="Rectangle-Copy-20" fill="#FFFFFF" x="224" y="283" width="51" height="7"></rect>
            <polygon id="Path" fill="#FFFFFF" points="213 187.221457 189 187.221457 189 191.778543 213 191.778543"></polygon>
            <polygon id="Path" fill="#FFFFFF" points="174 187.221457 150 187.221457 150 191.778543 174 191.778543"></polygon>
            <polygon id="Path" fill="#FFFFFF" points="135 187.221457 111 187.221457 111 191.778543 135 191.778543"></polygon>
            <path d="M40.5,148.5 L40.5,185.5 L25.5,185.5 L25.5,148.5 L40.5,148.5 Z" id="Path" stroke="#FFFFFF" fill="#005598"></path>
            <path d="M317.5,148.5 L317.5,185.5 L302.5,185.5 L302.5,148.5 L317.5,148.5 Z" id="Path-Copy-35" stroke="#FFFFFF" fill="#005598"></path>
            <path d="M20.5,148.5 L20.5,185.5 L5.5,185.5 L5.5,148.5 L20.5,148.5 Z" id="Path-Copy-34" stroke="#FFFFFF" fill="#005598"></path>
            <path d="M297.5,148.5 L297.5,185.5 L282.5,185.5 L282.5,148.5 L297.5,148.5 Z" id="Path-Copy-36" stroke="#FFFFFF" fill="#005598"></path>
            <polygon id="Path" fill="#FFFFFF" points="50 124 7.02006508e-12 124 7.02006508e-12 134 47.7153218 133.914036 47.7153218 139.253414 7.02006508e-12 139.253414 7.02006508e-12 141.538467 47.7153218 141.538467 47.7153218 185 50 185"></polygon>
            <polygon id="Path" fill="#FFFFFF" points="208 145 193 145 193 184 208 184"></polygon>
            <polygon id="Path" fill="#FFFFFF" points="169 145 154 145 154 184 169 184"></polygon>
            <polygon id="Path" fill="#FFFFFF" points="131 145 116 145 116 184 131 184"></polygon>
            <polygon id="Path" fill="#FFFFFF" points="321 124 274 124 274 185 276.276071 185 276.276071 141.538467 321 141.538467 321 139.253414 276.276071 139.253414 276.276071 133.914036 321 133.914036"></polygon>
            <g id="Group-2" transform="translate(54.000000, 130.000000)" fill="#005598">
                <polygon id="Path" points="10 52.7382186 0 52.7382186 0 54.2617814 10 54.2617814"></polygon>
                <polygon id="Path" points="43 52.7382186 33 52.7382186 33 54.2617814 43 54.2617814"></polygon>
                <polygon id="Path" points="43 42.7382186 33 42.7382186 33 44.2617814 43 44.2617814"></polygon>
                <polygon id="Path" points="10 42.7382186 0 42.7382186 0 44.2617814 10 44.2617814"></polygon>
                <polygon id="Path" points="43 32.7382186 33 32.7382186 33 34.2617814 43 34.2617814"></polygon>
                <polygon id="Path" points="10 32.7382186 0 32.7382186 0 34.2617814 10 34.2617814"></polygon>
                <polygon id="Path" points="43 22.7359514 33 22.7359514 33 24.2640486 43 24.2640486"></polygon>
                <polygon id="Path" points="10 22.7359514 0 22.7359514 0 24.2640486 10 24.2640486"></polygon>
                <polygon id="Path" points="43 12.742753 33 12.742753 33 14.257247 43 14.257247"></polygon>
                <polygon id="Path" points="10 12.742753 0 12.742753 0 14.257247 10 14.257247"></polygon>
                <polygon id="Path" points="43 2.74275304 33 2.74275304 33 4.25724696 43 4.25724696"></polygon>
                <polygon id="Path" points="10 2.74275304 0 2.74275304 0 4.25724696 10 4.25724696"></polygon>
            </g>
            <g id="Group-5" transform="translate(227.000000, 130.000000)" fill="#005598">
                <polygon id="Path" points="43 52.7382186 33 52.7382186 33 54.2617814 43 54.2617814"></polygon>
                <polygon id="Path" points="10 52.7382186 0 52.7382186 0 54.2617814 10 54.2617814"></polygon>
                <polygon id="Path" points="10 42.7382186 0 42.7382186 0 44.2617814 10 44.2617814"></polygon>
                <polygon id="Path" points="43 42.7382186 33 42.7382186 33 44.2617814 43 44.2617814"></polygon>
                <polygon id="Path" points="10 32.7382186 0 32.7382186 0 34.2617814 10 34.2617814"></polygon>
                <polygon id="Path" points="43 32.7382186 33 32.7382186 33 34.2617814 43 34.2617814"></polygon>
                <polygon id="Path" points="43 22.7359514 33 22.7359514 33 24.2640486 43 24.2640486"></polygon>
                <polygon id="Path" points="10 22.7359514 0 22.7359514 0 24.2640486 10 24.2640486"></polygon>
                <polygon id="Path" points="43 12.742753 33 12.742753 33 14.257247 43 14.257247"></polygon>
                <polygon id="Path" points="10 12.742753 0 12.742753 0 14.257247 10 14.257247"></polygon>
                <polygon id="Path" points="10 2.74275304 0 2.74275304 0 4.25724696 10 4.25724696"></polygon>
                <polygon id="Path" points="43 2.74275304 33 2.74275304 33 4.25724696 43 4.25724696"></polygon>
            </g>
            <polygon id="Path" fill="#FFFFFF" points="256 143 241 143 241 184 256 184"></polygon>
            <polygon id="Path" fill="#FFFFFF" points="83 143 68 143 68 184 83 184"></polygon>
            <path d="M75.5,222 C71.3578644,222 68,225.357864 68,229.5 L68,263 L68,263 L83,263 L83,229.5 C83,225.357864 79.6421356,222 75.5,222 Z" id="Path-Copy-23" fill="#FFFFFF"></path>
            <path d="M248.5,222 C244.357864,222 241,225.357864 241,229.5 L241,263 L241,263 L256,263 L256,229.5 C256,225.357864 252.642136,222 248.5,222 Z" id="Path-Copy-24" fill="#FFFFFF"></path>
            <path d="M290.5,223.5 C292.709139,223.5 294.709139,224.395431 296.156854,225.843146 C297.604569,227.290861 298.5,229.290861 298.5,231.5 L298.5,231.5 L298.5,265.5 L282.5,265.5 L282.5,231.5 C282.5,229.290861 283.395431,227.290861 284.843146,225.843146 C286.290861,224.395431 288.290861,223.5 290.5,223.5 Z" id="Path-Copy-30" stroke="#FFFFFF" fill="#005598"></path>
            <path d="M12.5,223.5 C14.709139,223.5 16.709139,224.395431 18.1568542,225.843146 C19.6045695,227.290861 20.5,229.290861 20.5,231.5 L20.5,231.5 L20.5,265.5 L4.5,265.5 L4.5,231.5 C4.5,229.290861 5.3954305,227.290861 6.84314575,225.843146 C8.290861,224.395431 10.290861,223.5 12.5,223.5 Z" id="Path-Copy-32" stroke="#FFFFFF" fill="#005598"></path>
            <path d="M311.5,223.5 C313.709139,223.5 315.709139,224.395431 317.156854,225.843146 C318.604569,227.290861 319.5,229.290861 319.5,231.5 L319.5,231.5 L319.5,265.5 L303.5,265.5 L303.5,231.5 C303.5,229.290861 304.395431,227.290861 305.843146,225.843146 C307.290861,224.395431 309.290861,223.5 311.5,223.5 L311.5,223.5 Z" id="Path-Copy-31" stroke="#FFFFFF" fill="#005598"></path>
            <path d="M32.5,223.5 C34.709139,223.5 36.709139,224.395431 38.1568542,225.843146 C39.6045695,227.290861 40.5,229.290861 40.5,231.5 L40.5,231.5 L40.5,265.5 L24.5,265.5 L24.5,231.5 C24.5,229.290861 25.3954305,227.290861 26.8431458,225.843146 C28.290861,224.395431 30.290861,223.5 32.5,223.5 Z" id="Path-Copy-33" stroke="#FFFFFF" fill="#005598"></path>
            <polygon id="Path" fill="#FFFFFF" points="213 138.602348 189 138.602348 189 142.397652 213 142.397652"></polygon>
            <path d="M154.065672,138.602348 L150,138.602348 L150,142.397652 L174,142.397652 L174,138.602348 L169.938806,138.602348 C167.820896,140.497733 165.044776,141.644939 162,141.644939 C159.339739,141.644939 156.88174,140.766609 154.889972,139.277267 L154.065672,138.602348 Z" id="Path" fill="#FFFFFF"></path>
            <polygon id="Path" fill="#FFFFFF" points="135 138.602348 111 138.602348 111 142.397652 135 142.397652"></polygon>
            <path d="M162,117 L103,117 L103,123.923783 L118.02434,123.923783 C117.729302,124.232935 117.458349,124.560453 117.215495,124.911778 L116.87279,125.4573 L111.322771,125.4573 L111.322771,133.923783 L117.369537,133.923783 C118.751397,135.787879 120.946116,137 123.425335,137 C125.5907,137 127.541703,136.07197 128.921357,134.591164 L129.476617,133.923783 L135.527899,133.923783 L135.527899,125.4573 L129.973364,125.4573 C129.759612,125.080808 129.515755,124.730844 129.247143,124.401966 L128.82633,123.923783 L151.116724,123.923783 C152.934193,120.143321 156.594783,117.442619 160.90862,117.049496 L162,117 Z" id="Path" fill="#FFFFFF"></path>
            <path d="M161.497762,122 C163.570278,122 165.445837,122.837064 166.806625,124.197851 C168.162936,125.554163 169,127.425246 169,129.497762 C169,133.642793 165.642793,137 161.497762,137 C157.361683,137 154,133.642793 154,129.497762 C154,125.357207 157.361683,122 161.497762,122 Z M166.80752,124.199642 L161.467323,128.353626 L158.199642,126.191585 L160.652641,129.897941 L160.732654,130.041182 L160.836168,130.170994 C161.15846,130.488809 161.655327,130.52462 162.017905,130.296329 L162.017905,130.296329 L162.194718,130.136862 L166.80752,124.199642 Z" id="Combined-Shape" fill="#FFFFFF"></path>
            <path d="M221,117 L162,117 C166.417941,117 170.281875,119.409898 172.391458,123.001873 L172.88161,123.923783 L195.177623,123.923783 C194.882631,124.232935 194.611719,124.560453 194.368902,124.911778 L194.026249,125.4573 L188.472564,125.4573 L188.472564,133.923783 L194.52292,133.923783 C195.904569,135.787879 198.098952,137 200.573276,137 C202.73831,137 204.692471,136.07197 206.072779,134.591164 L206.628147,133.923783 L212.673988,133.923783 L212.673988,125.4573 L207.120303,125.4573 C206.909594,125.080808 206.666777,124.730844 206.397204,124.401966 L205.973445,123.923783 L221,123.923783 L221,117 Z" id="Path" fill="#FFFFFF"></path>
            <path d="M200.502262,124 C203.538462,124 206,126.462551 206,129.5 C206,132.546502 203.538462,135 200.502262,135 C197.461538,135 195,132.546502 195,129.5 C195,126.462551 197.461538,124 200.502262,124 Z" id="Path" fill="#FFFFFF"></path>
            <path d="M123.497738,124 C126.538462,124 129,126.462551 129,129.5 C129,132.541975 126.538462,135 123.497738,135 C120.461538,135 118,132.541975 118,129.5 C118,126.462551 120.461538,124 123.497738,124 Z" id="Path" fill="#FFFFFF"></path>
            <path d="M150.18,126 L146.538866,126 L146.538866,134 L150.461134,134 C149.894332,132.650759 149.572389,131.180043 149.572389,129.635575 C149.572389,128.791034 149.669123,127.967703 149.849156,127.172009 L150.18,126 Z" id="Path" fill="#FFFFFF"></path>
            <path d="M177.463401,126 L173.817733,126 C174.207692,127.149675 174.42081,128.368764 174.42081,129.635575 C174.42081,130.793926 174.242267,131.910792 173.913877,132.966039 L173.536599,134 L177.463401,134 L177.463401,126 Z" id="Path" fill="#FFFFFF"></path>
            <path d="M270,113 L227,113 L227,119.178882 L239.284405,119.178882 L239.284405,126.133008 L241.017056,126.133008 C242.690118,128.477199 245.41744,130 248.502292,130 C251.236234,130 253.694926,128.796799 255.385814,126.883021 L255.982944,126.133008 L257.715595,126.133008 L257.715595,119.178882 L270,119.178882 L270,113 Z" id="Path" fill="#FFFFFF"></path>
            <path d="M97,113 L54,113 L54,119.178882 L66.2811301,119.178882 L66.2811301,126.133008 L68.0139659,126.133008 C69.6872068,128.477199 72.4148188,130 75.5,130 C78.2383085,130 80.6977151,128.796799 82.3823946,126.883021 L82.9768657,126.133008 L84.7142857,126.133008 L84.7142857,119.178882 L97,119.178882 L97,113 Z" id="Path" fill="#FFFFFF"></path>
            <polygon id="Path" fill="#FFFFFF" points="49 115.978704 8.41274619e-12 115.978704 8.41274619e-12 119.021296 49 119.021296"></polygon>
            <polygon id="Path" fill="#FFFFFF" points="321 115.978704 274 115.978704 274 119.021296 321 119.021296"></polygon>
            <polygon id="Path" fill="#FFFFFF" points="96.5897587 96 54 96 54 104.840716 102.67401 104.840716 102.67401 110 221.32599 110 221.32599 104.840716 270 104.840716 270 96 227.405701 96 227.405701 99.6814326 96.5897587 99.6814326"></polygon>
            <path d="M75.5,79 C65.6605081,79 56.8019375,83.128947 50.5823162,89.7368486 L49.4474672,91.0044776 L49,91.0044776 L49,94 L102,94 L102,91.0044776 L101.548013,91.0044776 C95.2970322,83.661194 85.9454204,79 75.5,79 Z" id="Path" fill="#FFFFFF"></path>
            <path d="M248.50452,79 C238.669282,79 229.802954,83.128947 223.586174,89.7368486 L222.451987,91.0044776 L222,91.0044776 L222,94 L275,94 L275,91.0044776 L274.548013,91.0044776 C268.301552,83.661194 258.94994,79 248.50452,79 Z" id="Path" fill="#FFFFFF"></path>
            <polygon id="Path" fill="#FFFFFF" points="213 90.9809717 111 90.9809717 111 94.0190283 213 94.0190283"></polygon>
            <polygon id="Path" fill="#FFFFFF" points="221 78 103 78 103 82 111.322134 82 111.322134 86 212.673351 86 212.673351 82 221 82"></polygon>
            <polygon id="Path" fill="#FFFFFF" points="221 68.2554656 103 68.2554656 103 72.7445344 221 72.7445344"></polygon>
            <path d="M122.5,41 C117.804938,41 114,44.8034211 114,49.5023079 C114,54.2011947 117.804938,58 122.5,58 C127.19045,58 131,54.2011947 131,49.5023079 C131,44.8034211 127.19045,41 122.5,41 Z" id="Path" fill="#FFFFFF"></path>
            <path d="M162.497693,41 C157.80597,41 154,44.8034211 154,49.5023079 C154,54.2011947 157.80597,58 162.497693,58 C167.19403,58 171,54.2011947 171,49.5023079 C171,44.8034211 167.19403,41 162.497693,41 Z" id="Path" fill="#FFFFFF"></path>
            <path d="M201.497693,41 C196.801357,41 193,44.8034211 193,49.5023079 C193,54.2011947 196.801357,58 201.497693,58 C206.19403,58 210,54.2011947 210,49.5023079 C210,44.8034211 206.19403,41 201.497693,41 Z" id="Path" fill="#FFFFFF"></path>
            <polygon id="Path" fill="#005598" points="108.296724 0 108.296724 6.22291022 215.703276 6.22291022 215.703276 0 217.21598 0 217.21598 12.4458204 221 16.3328173 221 21 103 21 103 16.3328173 106.78402 12.4458204 106.78402 0"></polygon>
            <polygon id="Path" fill="#FFFFFF" points="208.870769 7.32923077 203.529231 7.32923077 203.529231 12.6707692 208.870769 12.6707692"></polygon>
            <polygon id="Path" fill="#FFFFFF" points="113.670769 7.32923077 108.329231 7.32923077 108.329231 12.6707692 113.670769 12.6707692"></polygon>
            <polygon id="Path" fill="#FFFFFF" points="120.470769 7.32923077 115.129231 7.32923077 115.129231 12.6707692 120.470769 12.6707692"></polygon>
            <polygon id="Path" fill="#FFFFFF" points="127.270769 7.32923077 121.929231 7.32923077 121.929231 12.6707692 127.270769 12.6707692"></polygon>
            <polygon id="Path" fill="#FFFFFF" points="134.070769 7.32923077 128.729231 7.32923077 128.729231 12.6707692 134.070769 12.6707692"></polygon>
            <polygon id="Path" fill="#FFFFFF" points="140.870769 7.32923077 135.529231 7.32923077 135.529231 12.6707692 140.870769 12.6707692"></polygon>
            <polygon id="Path" fill="#FFFFFF" points="147.670769 7.32923077 142.329231 7.32923077 142.329231 12.6707692 147.670769 12.6707692"></polygon>
            <polygon id="Path" fill="#FFFFFF" points="154.470769 7.32923077 149.129231 7.32923077 149.129231 12.6707692 154.470769 12.6707692"></polygon>
            <polygon id="Path" fill="#FFFFFF" points="161.273036 7.32923077 155.926964 7.32923077 155.926964 12.6707692 161.273036 12.6707692"></polygon>
            <polygon id="Path" fill="#FFFFFF" points="168.070769 7.32923077 162.729231 7.32923077 162.729231 12.6707692 168.070769 12.6707692"></polygon>
            <polygon id="Path" fill="#FFFFFF" points="174.870769 7.32923077 169.529231 7.32923077 169.529231 12.6707692 174.870769 12.6707692"></polygon>
            <polygon id="Path" fill="#FFFFFF" points="181.673036 7.32923077 176.326964 7.32923077 176.326964 12.6707692 181.673036 12.6707692"></polygon>
            <polygon id="Path" fill="#FFFFFF" points="188.470769 7.32923077 183.129231 7.32923077 183.129231 12.6707692 188.470769 12.6707692"></polygon>
            <polygon id="Path" fill="#FFFFFF" points="195.273036 7.32923077 189.926964 7.32923077 189.926964 12.6707692 195.273036 12.6707692"></polygon>
            <polygon id="Path" fill="#FFFFFF" points="202.070769 7.32923077 196.729231 7.32923077 196.729231 12.6707692 202.070769 12.6707692"></polygon>
            <polygon id="Path" fill="#FFFFFF" points="215.673036 7.32923077 210.326964 7.32923077 210.326964 12.6707692 215.673036 12.6707692"></polygon>
        </g>
    </g>
</svg>