<svg width="20" height="20" xmlns="http://www.w3.org/2000/svg">
    <path d="M10 2.5a.833.833 0 1 1 0 1.667H5A.834.834 0 0 0 4.167 5v10c0 .46.373.833.833.833h10c.46 0 .833-.374.833-.833v-5a.833.833 0 1 1 1.667 0v5c0 1.378-1.122 2.5-2.5 2.5H5A2.503 2.503 0 0 1 2.5 15V5c0-1.378 1.122-2.5 2.5-2.5zm3.338 0 3.33.017c.459.002.83.374.83.832l.002 3.317a.833.833 0 1 1-1.667.002V5.346l-5.244 5.243a.831.831 0 0 1-1.178 0 .832.832 0 0 1 0-1.178l5.237-5.238-1.319-.006a.833.833 0 0 1 .004-1.667h.005z" fill="#FFF" fill-rule="evenodd"/>
</svg>
