<svg width="15" height="15" xmlns="http://www.w3.org/2000/svg">
    <path d="M7.5.625C3.703.625.625 3.638.625 7.355c0 2.971 1.97 5.494 4.702 6.383.344.062.469-.146.469-.324 0-.16-.006-.583-.009-1.144-1.912.406-2.315-.902-2.315-.902-.314-.778-.764-.985-.764-.985-.625-.417.047-.409.047-.409.69.048 1.053.694 1.053.694.613 1.028 1.609.73 2.001.559.063-.434.24-.731.436-.9-1.527-.17-3.132-.747-3.132-3.325 0-.734.269-1.335.709-1.806-.072-.17-.307-.854.066-1.78 0 0 .578-.181 1.892.689a6.733 6.733 0 0 1 1.72-.226 6.748 6.748 0 0 1 1.722.226c1.312-.87 1.888-.69 1.888-.69.375.927.14 1.611.068 1.781.441.47.707 1.072.707 1.806 0 2.585-1.607 3.154-3.138 3.32.246.208.466.619.466 1.246 0 .9-.008 1.625-.008 1.846 0 .18.123.39.472.324 2.73-.892 4.698-3.412 4.698-6.384 0-3.716-3.078-6.729-6.875-6.729" fill="#FFF" fill-rule="evenodd"/>
</svg>
