<svg width="24" height="24" xmlns="http://www.w3.org/2000/svg" xmlns:xlink="http://www.w3.org/1999/xlink">
    <defs>
        <path d="m21.808 5.635.076.017c.895.213 1.193.98 1.193 1.875v9.798a1.71 1.71 0 0 1-1.704 1.705h-7.03c-.34 0-.639.298-.639.639l-.007.091a.658.658 0 0 1-.632.548h-2.13a.655.655 0 0 1-.64-.64l-.006-.091a.658.658 0 0 0-.632-.547h-7.03a1.71 1.71 0 0 1-1.704-1.705V7.527c0-.81.469-1.491 1.108-1.79.255-.128.596.085.596.384v10.565c0 .341.298.64.64.64h17.467c.34 0 .639-.299.639-.64V6.078c0-.298.255-.511.511-.426zM9.785 3.692c.596 0 1.363.554 1.363 1.278v10.012c0 .341-.298.64-.64.64H4.97a.655.655 0 0 1-.639-.64V4.332c0-.341.299-.64.64-.64zm9.245 0c.34 0 .639.299.639.64v10.65c0 .341-.299.64-.64.64h-5.538a.655.655 0 0 1-.639-.64V4.97c0-.724.724-1.278 1.363-1.278z" id="a"/>
    </defs>
    <use fill="#FFF" xlink:href="#a" fill-rule="evenodd"/>
</svg>
