<svg width="24" height="24" xmlns="http://www.w3.org/2000/svg">
    <path d="M19.462 16.654v1.884c0 1.462-3.347 2.654-7.462 2.654S4.538 20 4.538 18.538v-1.884c0 1.154 3.347 2.077 7.462 2.077s7.462-.923 7.462-2.077zm0-4.077v1.885c0 1.461-3.347 2.653-7.462 2.653S4.538 15.962 4.538 14.5v-1.923c0 1.154 3.347 2.077 7.462 2.077s7.462-.923 7.462-2.077zm0-4.039v1.885c0 1.427-3.19 2.597-7.17 2.652l-.292.002c-4.115 0-7.462-1.192-7.462-2.654V8.538c0 1.154 3.347 2.077 7.462 2.077s7.462-.923 7.462-2.077zM12 2.808c4.115 0 7.462 1.192 7.462 2.654v.923c0 1.461-3.347 2.653-7.462 2.653S4.538 7.846 4.538 6.385v-.923C4.538 4 7.885 2.808 12 2.808z" fill="#FFF" fill-rule="evenodd"/>
</svg>
