<?xml version="1.0" encoding="UTF-8"?>
<svg width="90px" height="50px" viewBox="0 0 90 50" version="1.1" xmlns="http://www.w3.org/2000/svg" xmlns:xlink="http://www.w3.org/1999/xlink">
    <title>3076A7C6-48DE-4A3C-B7AD-6585C121B6A1</title>
    <defs>
        <filter color-interpolation-filters="auto" id="filter-1">
            <feColorMatrix in="SourceGraphic" type="matrix" values="0 0 0 0 1.000000 0 0 0 0 1.000000 0 0 0 0 1.000000 0 0 0 1.000000 0"/>
        </filter>
    </defs>
    <g id="Symbols" stroke="none" stroke-width="1" fill="none" fill-rule="evenodd">
        <g id="Group-6" filter="url(#filter-1)">
            <g transform="translate(0.000000, 10.000000)">
                <polygon id="Fill-1" fill="#252135" points="16.9405672 0 10.5194805 0 10.5194805 29.2207792 30.974026 29.2207792 30.974026 23.3763055 16.9405672 23.3763055"/>
                <polygon id="Fill-2" fill="#252135" points="0 29.2207792 6.42857143 29.2207792 6.42857143 0 0 0"/>
                <polygon id="Fill-3" fill="#252135" points="21.6233766 15.7792208 28.6363636 15.7792208 28.6363636 11.1038961 21.6233766 11.1038961"/>
                <path d="M60.1948052,14.526941 C60.1948052,6.97206277 54.8475947,1.03847124 46.8685704,0.122921085 L46.8685704,6.02896134 C50.8969646,6.89470726 53.4843416,10.1881446 53.4843416,14.6101247 L53.4843416,14.6938382 C53.4843416,19.8697696 49.9415766,23.4185861 44.6895874,23.4185861 L39.7301396,23.4185861 L39.7301396,0 L33.3116883,0 L33.3116883,29.2207792 L44.6895874,29.2207792 C53.8594081,29.2207792 60.1948052,22.8341811 60.1948052,14.6101247 L60.1948052,14.526941 Z" id="Fill-4" fill="#252135"/>
                <path d="M70.5475212,17.07658 L74.4295398,7.66791628 L78.3115584,17.07658 L70.5475212,17.07658 Z M77.4776158,0 L71.5494179,0 L59.025974,29.2207792 L65.5798938,29.2207792 L68.2517949,22.7133612 L80.6078145,22.7133612 L83.2791858,29.2207792 L90,29.2207792 L77.4776158,0 Z" id="Fill-5" fill="#252135"/>
            </g>
        </g>
    </g>
</svg>