<svg width="16" height="16" xmlns="http://www.w3.org/2000/svg">
    <path d="M8 .5C5.963.5 5.708.51 4.908.545c-.799.037-1.342.163-1.82.349a3.673 3.673 0 0 0-1.33.865 3.66 3.66 0 0 0-.864 1.329c-.186.478-.312 1.021-.349 1.82C.507 5.708.5 5.962.5 8c0 2.037.01 2.292.045 3.092.037.798.163 1.342.349 1.82.191.493.448.912.865 1.33.417.415.835.674 1.329.864.478.185 1.022.312 1.82.349.8.037 1.054.045 3.092.045 2.037 0 2.292-.01 3.092-.045.798-.037 1.342-.164 1.82-.349a3.686 3.686 0 0 0 1.33-.865c.415-.417.674-.834.864-1.329.185-.478.312-1.022.349-1.82.037-.8.045-1.055.045-3.092s-.01-2.292-.045-3.092c-.037-.798-.164-1.343-.349-1.82a3.681 3.681 0 0 0-.865-1.33 3.654 3.654 0 0 0-1.329-.864c-.478-.186-1.022-.312-1.82-.349C10.292.507 10.037.5 8 .5zm0 1.35c2.002 0 2.24.01 3.031.044.731.035 1.128.156 1.392.26.351.135.6.298.864.56.262.262.424.512.56.863.102.264.225.66.258 1.392.036.791.044 1.028.044 3.031 0 2.002-.01 2.24-.046 3.031-.039.731-.16 1.128-.264 1.392-.14.351-.299.6-.562.864a2.34 2.34 0 0 1-.862.56c-.262.102-.666.225-1.397.258-.796.036-1.03.044-3.037.044-2.007 0-2.241-.01-3.037-.046-.731-.039-1.135-.16-1.397-.264-.356-.14-.6-.299-.862-.562a2.277 2.277 0 0 1-.563-.862c-.103-.262-.224-.666-.262-1.397-.028-.787-.038-1.03-.038-3.027 0-1.998.01-2.242.038-3.038.038-.732.16-1.134.262-1.397.132-.356.3-.6.563-.863.262-.262.506-.43.862-.561.262-.104.657-.226 1.388-.263.797-.028 1.031-.038 3.037-.038L8 1.85zm0 2.299a3.851 3.851 0 1 0 0 7.702 3.851 3.851 0 0 0 0-7.702zM8 10.5a2.5 2.5 0 1 1-.001-4.999A2.5 2.5 0 0 1 8 10.5zm4.904-6.503a.9.9 0 1 1-1.802-.001.9.9 0 0 1 1.802 0z" fill="#FFF" fill-rule="evenodd"/>
</svg>
