<svg width="16" height="16" xmlns="http://www.w3.org/2000/svg">
    <path d="M13.28 13.283h-2.222V9.802c0-.83-.017-1.898-1.157-1.898-1.159 0-1.335.903-1.335 1.837v3.542H6.344V6.125h2.134v.976h.029c.298-.563 1.023-1.157 2.106-1.157 2.25 0 2.667 1.482 2.667 3.41v3.929zM3.835 5.146c-.715 0-1.29-.58-1.29-1.291a1.288 1.288 0 1 1 2.58 0c0 .712-.579 1.29-1.29 1.29zm1.113 8.137H2.722V6.125h2.227v7.158zM14.391.5H1.607C.995.5.5.984.5 1.58v12.84c0 .597.495 1.08 1.107 1.08h12.782c.611 0 1.111-.483 1.111-1.08V1.58C15.5.985 15 .5 14.389.5h.002z" fill="#FFF" fill-rule="evenodd"/>
</svg>
