<?xml version="1.0" encoding="UTF-8"?>
<svg width="92px" height="50px" viewBox="0 0 92 50" version="1.1" xmlns="http://www.w3.org/2000/svg" xmlns:xlink="http://www.w3.org/1999/xlink">
    <title>logo_caeg</title>
    <g id="logo_caeg" stroke="none" stroke-width="1" fill="none" fill-rule="evenodd">
        <path d="M3.82,17.37 C4.68,17.37 5.41,17.15 6.04,16.7 L6.04,15.39 C5.34,15.99 4.58,16.29 3.73,16.29 C2.3,16.29 1.21,15.2 1.21,13.63 C1.21,12.04 2.28,10.93 3.85,10.93 C4.66,10.93 5.39,11.21 6.05,11.77 L6.11,10.6 C5.41,10.11 4.66,9.86 3.8,9.86 C2.73,9.86 1.8,10.23 1.09,10.93 C0.38,11.63 0,12.57 0,13.62 C0,14.66 0.38,15.62 1.08,16.31 C1.78,17 2.72,17.37 3.82,17.37 Z M11,17.37 C12.02,17.37 12.97,16.98 13.7,16.27 C14.43,15.56 14.82,14.64 14.82,13.62 C14.82,12.61 14.43,11.68 13.7,10.96 C12.97,10.25 12.03,9.87 11,9.87 C9.97,9.87 9.02,10.25 8.29,10.96 C7.56,11.68 7.18,12.6 7.18,13.62 C7.18,14.64 7.56,15.56 8.29,16.27 C9.01,16.98 9.98,17.37 11,17.37 Z M11,16.29 C10.3,16.29 9.65,16.02 9.15,15.51 C8.65,15 8.39,14.34 8.39,13.62 C8.39,12.9 8.65,12.23 9.15,11.72 C9.65,11.21 10.31,10.94 11,10.94 C11.69,10.94 12.35,11.21 12.84,11.72 C13.34,12.23 13.61,12.9 13.61,13.62 C13.61,14.34 13.34,15 12.84,15.51 C12.34,16.02 11.7,16.29 11,16.29 Z M19.65,17.47 L21.52,13.66 C21.68,13.33 21.79,13.01 21.85,12.67 C21.92,13.2 21.95,13.52 21.98,13.65 L22.77,17.18 L23.85,17.18 L22.12,9.75 L20.06,14.24 C19.95,14.49 19.79,14.81 19.65,15.21 C19.45,14.69 19.32,14.37 19.26,14.24 L17.15,9.75 L15.46,17.18 L16.53,17.18 L17.3,13.66 C17.37,13.34 17.42,13.01 17.43,12.67 C17.52,12.99 17.64,13.29 17.78,13.58 L19.65,17.47 Z M25.96,17.18 L25.96,10.03 L24.8,10.03 L24.8,17.18 L25.96,17.18 Z M29.48,17.37 C30.96,17.37 31.85,16.49 31.85,15.16 C31.85,14.13 31.26,13.62 30,13.04 C29.2,12.67 28.64,12.46 28.64,11.77 C28.64,11.23 29.03,10.87 29.66,10.87 C30.11,10.87 30.44,11.08 30.72,11.52 L31.63,11.05 C31.36,10.3 30.63,9.87 29.57,9.87 C28.27,9.87 27.42,10.68 27.42,11.83 C27.42,12.91 28.12,13.39 29.39,14.01 C30.13,14.37 30.66,14.54 30.66,15.24 C30.66,15.88 30.23,16.3 29.53,16.3 C28.8,16.3 28.32,15.96 28.15,15.32 L27.22,15.75 C27.46,16.79 28.26,17.37 29.48,17.37 Z M34.3,17.18 L34.3,10.03 L33.14,10.03 L33.14,17.18 L34.3,17.18 Z M39.39,9.33 L40.82,8 L39.72,8 L38.79,9.33 L39.39,9.33 Z M39.48,17.37 C40.5,17.37 41.45,16.98 42.18,16.27 C42.91,15.56 43.3,14.64 43.3,13.62 C43.3,12.61 42.91,11.68 42.18,10.96 C41.45,10.25 40.51,9.87 39.48,9.87 C38.45,9.87 37.5,10.25 36.77,10.96 C36.04,11.68 35.66,12.6 35.66,13.62 C35.66,14.64 36.04,15.56 36.77,16.27 C37.49,16.98 38.46,17.37 39.48,17.37 Z M39.48,16.29 C38.78,16.29 38.13,16.02 37.63,15.51 C37.13,15 36.87,14.34 36.87,13.62 C36.87,12.9 37.13,12.23 37.63,11.72 C38.13,11.21 38.79,10.94 39.48,10.94 C40.17,10.94 40.83,11.21 41.32,11.72 C41.82,12.23 42.09,12.9 42.09,13.62 C42.09,14.34 41.82,15 41.32,15.51 C40.82,16.02 40.18,16.29 39.48,16.29 Z M51.02,17.46 L51.02,10.03 L49.95,10.03 L49.95,14.99 C49.71,14.69 49.46,14.4 49.17,14.12 L44.63,9.75 L44.63,17.18 L45.7,17.18 L45.7,12.21 C45.9,12.49 46.13,12.76 46.39,13.01 L51.02,17.46 Z M55.93,17.18 L56.76,15.34 L59.59,15.34 L60.4,17.18 L61.63,17.18 L58.17,9.75 L54.71,17.18 L55.93,17.18 Z M59.18,14.37 L57.19,14.37 L57.92,12.74 C58,12.55 58.09,12.29 58.18,11.93 C58.28,12.29 58.37,12.55 58.45,12.74 L59.18,14.37 Z M66.3,16.64 C66.66,16.28 66.88,15.74 66.88,15.15 C66.88,14.19 66.37,13.52 65.54,13.39 C66.21,13.19 66.57,12.66 66.57,11.9 C66.57,11.26 66.31,10.71 65.87,10.39 C65.43,10.06 64.86,10.03 64.1,10.03 L62.3,10.03 L62.3,17.18 L64.11,17.18 C65.11,17.18 65.79,17.15 66.3,16.64 Z M63.88,13.05 L63.44,13.05 L63.44,11 L63.88,11 C64.91,11 65.4,11.17 65.4,12.06 C65.4,12.81 64.93,13.05 63.88,13.05 Z M63.84,16.21 L63.44,16.21 L63.44,13.93 L64.19,13.93 C64.54,13.93 64.86,13.95 65.13,14.09 C65.49,14.28 65.68,14.63 65.68,15.08 C65.68,15.47 65.51,15.8 65.23,15.99 C64.95,16.18 64.49,16.21 63.84,16.21 Z M69.24,17.18 L69.24,10.03 L68.08,10.03 L68.08,17.18 L69.24,17.18 Z M74.9,17.18 L74.9,16.14 L72.07,16.14 L72.07,13.83 L74.9,13.83 L74.9,12.81 L72.07,12.81 L72.07,11.02 L74.9,11.02 L74.9,10.03 L70.91,10.03 L70.91,17.18 L74.9,17.18 Z M77.32,17.18 L77.32,13.98 L77.45,13.98 L79.83,17.18 L81.14,17.18 L78.68,13.93 C79.76,13.8 80.32,13.15 80.32,12 C80.32,11.33 80.06,10.77 79.63,10.43 C79.19,10.09 78.62,10.03 77.85,10.03 L76.23,10.03 L76.23,17.18 L77.32,17.18 Z M77.6,13.08 L77.39,13.08 L77.39,11.03 L77.6,11.03 C78.64,11.03 79.13,11.22 79.13,12.1 C79.13,12.96 78.62,13.08 77.6,13.08 Z M84.14,17.18 L84.14,11.02 L86.03,11.02 L86.03,10.03 L81.08,10.03 L81.08,11.02 L82.98,11.02 L82.98,17.18 L84.14,17.18 Z M86.43,17.18 L87.26,15.34 L90.09,15.34 L90.9,17.18 L92.13,17.18 L88.67,9.75 L85.21,17.18 L86.43,17.18 Z M89.68,14.37 L87.69,14.37 L88.42,12.74 C88.5,12.55 88.59,12.29 88.68,11.93 C88.78,12.29 88.87,12.55 88.95,12.74 L89.68,14.37 Z M5.12,28.51 C5.94,27.88 6.38,26.89 6.38,25.61 C6.38,24.33 5.94,23.33 5.12,22.7 C4.25,22.03 3.22,22.03 1.88,22.03 L0.31,22.03 L0.31,29.18 L2.19,29.18 C3.35,29.18 4.29,29.15 5.12,28.51 Z M2.45,28.13 L1.47,28.13 L1.47,23.07 L2.31,23.07 C3.17,23.07 3.83,23.1 4.36,23.54 C4.9,24 5.17,24.69 5.17,25.6 C5.17,26.51 4.9,27.2 4.36,27.66 C3.85,28.09 3.24,28.13 2.45,28.13 Z M11.7,29.18 L11.7,28.14 L8.87,28.14 L8.87,25.83 L11.7,25.83 L11.7,24.81 L8.87,24.81 L8.87,23.02 L11.7,23.02 L11.7,22.03 L7.71,22.03 L7.71,29.18 L11.7,29.18 Z M20.04,29.18 L20.04,28.14 L17.21,28.14 L17.21,25.83 L20.04,25.83 L20.04,24.81 L17.21,24.81 L17.21,23.02 L20.04,23.02 L20.04,22.03 L16.05,22.03 L16.05,29.18 L20.04,29.18 Z M29.14,29.85 L27.62,28.21 C28.32,27.51 28.7,26.6 28.7,25.61 C28.7,24.6 28.31,23.67 27.58,22.96 C26.86,22.25 25.91,21.87 24.88,21.87 C23.85,21.87 22.89,22.25 22.17,22.96 C21.44,23.67 21.06,24.6 21.06,25.61 C21.06,26.62 21.44,27.55 22.17,28.26 C22.88,28.96 23.86,29.35 24.82,29.35 C25.52,29.35 26.17,29.19 26.82,28.84 L27.75,29.85 L29.14,29.85 Z M24.91,28.27 C23.39,28.27 22.27,27.09 22.27,25.61 C22.27,24.89 22.53,24.23 23.03,23.72 C23.53,23.21 24.19,22.93 24.88,22.93 C25.57,22.93 26.23,23.21 26.73,23.72 C27.23,24.23 27.49,24.89 27.49,25.61 C27.49,26.28 27.29,26.83 26.86,27.36 L26.17,26.62 L24.76,26.62 L26.04,28 C25.68,28.18 25.32,28.27 24.91,28.27 Z M32.93,29.37 C34.9,29.37 35.87,28.41 35.87,26.48 L35.87,22.03 L34.71,22.03 L34.71,26.37 C34.71,27.66 34.11,28.31 32.93,28.31 C31.75,28.31 31.15,27.66 31.15,26.37 L31.15,22.03 L30,22.03 L30,26.48 C30,28.41 30.96,29.37 32.93,29.37 Z M38.65,29.18 L38.65,22.03 L37.49,22.03 L37.49,29.18 L38.65,29.18 Z M45.13,28.51 C45.95,27.88 46.39,26.89 46.39,25.61 C46.39,24.33 45.95,23.33 45.13,22.7 C44.26,22.03 43.23,22.03 41.89,22.03 L40.32,22.03 L40.32,29.18 L42.2,29.18 C43.36,29.18 44.3,29.15 45.13,28.51 Z M42.46,28.13 L41.48,28.13 L41.48,23.07 L42.32,23.07 C43.18,23.07 43.84,23.1 44.37,23.54 C44.91,24 45.18,24.69 45.18,25.6 C45.18,26.51 44.91,27.2 44.37,27.66 C43.86,28.09 43.25,28.13 42.46,28.13 Z M47.78,29.18 L48.61,27.34 L51.44,27.34 L52.25,29.18 L53.48,29.18 L50.02,21.75 L46.56,29.18 L47.78,29.18 Z M51.03,26.37 L49.04,26.37 L49.77,24.74 C49.85,24.55 49.94,24.29 50.03,23.93 C50.13,24.29 50.22,24.55 50.3,24.74 L51.03,26.37 Z M58.96,28.51 C59.78,27.88 60.22,26.89 60.22,25.61 C60.22,24.33 59.78,23.33 58.96,22.7 C58.09,22.03 57.06,22.03 55.72,22.03 L54.15,22.03 L54.15,29.18 L56.03,29.18 C57.19,29.18 58.13,29.15 58.96,28.51 Z M56.29,28.13 L55.31,28.13 L55.31,23.07 L56.15,23.07 C57.01,23.07 57.67,23.1 58.2,23.54 C58.74,24 59.01,24.69 59.01,25.6 C59.01,26.51 58.74,27.2 58.2,27.66 C57.69,28.09 57.08,28.13 56.29,28.13 Z M5.12,40.51 C5.94,39.88 6.38,38.89 6.38,37.61 C6.38,36.33 5.94,35.33 5.12,34.7 C4.25,34.03 3.22,34.03 1.88,34.03 L0.31,34.03 L0.31,41.18 L2.19,41.18 C3.35,41.18 4.29,41.15 5.12,40.51 Z M2.45,40.13 L1.47,40.13 L1.47,35.07 L2.31,35.07 C3.17,35.07 3.83,35.1 4.36,35.54 C4.9,36 5.17,36.69 5.17,37.6 C5.17,38.51 4.9,39.2 4.36,39.66 C3.85,40.09 3.24,40.13 2.45,40.13 Z M11.7,41.18 L11.7,40.14 L8.87,40.14 L8.87,37.83 L11.7,37.83 L11.7,36.81 L8.87,36.81 L8.87,35.02 L11.7,35.02 L11.7,34.03 L7.71,34.03 L7.71,41.18 L11.7,41.18 Z M19.56,41.37 C21.64,41.37 22.86,40.22 22.86,38.19 C22.86,38.03 22.85,37.81 22.84,37.52 L20.01,37.52 L20.01,38.5 L21.73,38.5 L21.73,38.6 C21.73,39.66 20.93,40.33 19.59,40.33 C18.04,40.33 16.95,39.24 16.95,37.61 C16.95,36 18.05,34.93 19.58,34.93 C20.33,34.93 20.93,35.2 21.41,35.76 L22.26,35.12 C21.57,34.28 20.69,33.87 19.56,33.87 C18.49,33.87 17.53,34.24 16.83,34.92 C16.11,35.62 15.74,36.54 15.74,37.62 C15.74,38.68 16.11,39.64 16.79,40.33 C17.48,41.03 18.39,41.37 19.56,41.37 Z M26,33.33 L27.43,32 L26.33,32 L25.4,33.33 L26,33.33 Z M28.07,41.18 L28.07,40.14 L25.24,40.14 L25.24,37.83 L28.07,37.83 L28.07,36.81 L25.24,36.81 L25.24,35.02 L28.07,35.02 L28.07,34.03 L24.08,34.03 L24.08,41.18 L28.07,41.18 Z M35.79,41.46 L35.79,34.03 L34.72,34.03 L34.72,38.99 C34.48,38.69 34.23,38.4 33.94,38.12 L29.4,33.75 L29.4,41.18 L30.47,41.18 L30.47,36.21 C30.67,36.49 30.9,36.76 31.16,37.01 L35.79,41.46 Z M41.42,41.18 L41.42,40.14 L38.59,40.14 L38.59,37.83 L41.42,37.83 L41.42,36.81 L38.59,36.81 L38.59,35.02 L41.42,35.02 L41.42,34.03 L37.43,34.03 L37.43,41.18 L41.42,41.18 Z M43.84,41.18 L43.84,37.98 L43.97,37.98 L46.35,41.18 L47.66,41.18 L45.2,37.93 C46.28,37.8 46.84,37.15 46.84,36 C46.84,35.33 46.58,34.77 46.15,34.43 C45.71,34.09 45.14,34.03 44.37,34.03 L42.75,34.03 L42.75,41.18 L43.84,41.18 Z M44.12,37.08 L43.91,37.08 L43.91,35.03 L44.12,35.03 C45.16,35.03 45.65,35.22 45.65,36.1 C45.65,36.96 45.14,37.08 44.12,37.08 Z M51.86,41.37 C52.88,41.37 53.83,40.98 54.56,40.27 C55.29,39.56 55.68,38.64 55.68,37.62 C55.68,36.61 55.29,35.68 54.56,34.96 C53.83,34.25 52.89,33.87 51.86,33.87 C50.83,33.87 49.88,34.25 49.15,34.96 C48.42,35.68 48.04,36.6 48.04,37.62 C48.04,38.64 48.42,39.56 49.15,40.27 C49.87,40.98 50.84,41.37 51.86,41.37 Z M51.86,40.29 C51.16,40.29 50.51,40.02 50.01,39.51 C49.51,39 49.25,38.34 49.25,37.62 C49.25,36.9 49.51,36.23 50.01,35.72 C50.51,35.21 51.17,34.94 51.86,34.94 C52.55,34.94 53.21,35.21 53.7,35.72 C54.2,36.23 54.47,36.9 54.47,37.62 C54.47,38.34 54.2,39 53.7,39.51 C53.2,40.02 52.56,40.29 51.86,40.29 Z" id="COMISIÓNABIERTADEEQUIDADDEGÉNERO" fill="#FFFFFF" fill-rule="nonzero"></path>
    </g>
</svg>