<svg xmlns="http://www.w3.org/2000/svg" width="75.273" height="24" viewBox="0 0 75.273 24">
    <g fill="none" fill-rule="evenodd">
        <g>
            <path fill="#FFF" d="M.557 7.999H.9c.373 0 .67-.01.915-.184.225-.164.369-.47.369-.824 0-.353-.144-.654-.369-.818-.245-.179-.542-.19-.915-.19H0V9.64h.557V8zm.036-.486V6.495h.154c.552 0 .823.092.823.532 0 .425-.276.486-.823.486H.593zM3.278 8.004h.066L4.561 9.64h.67L3.973 7.978c.553-.066.839-.399.839-.987 0-.342-.133-.629-.353-.803-.225-.173-.516-.204-.91-.204H2.72V9.64h.557V8.004zm.036-.46V6.495h.107c.532 0 .783.097.783.547 0 .44-.261.502-.783.502h-.107zM9.333 7.82c0-.517-.2-.992-.573-1.36-.373-.364-.854-.558-1.38-.558-.528 0-1.013.194-1.387.557-.373.369-.567.84-.567 1.36 0 .522.194.993.567 1.356.369.363.865.562 1.386.562.522 0 1.008-.199 1.38-.562.374-.363.574-.834.574-1.355zm-.62 0c0 .368-.137.705-.393.966s-.583.4-.94.4c-.359 0-.691-.139-.947-.4-.256-.26-.389-.598-.389-.966s.133-.711.39-.972c.255-.26.592-.399.945-.399s.69.138.941.4c.256.26.394.603.394.97zM10.57 8.004h.067l1.217 1.636h.67l-1.258-1.662c.552-.066.838-.399.838-.987 0-.342-.133-.629-.353-.803-.225-.173-.516-.204-.91-.204h-.828V9.64h.557V8.004zm.036-.46V6.495h.107c.532 0 .783.097.783.547 0 .44-.261.502-.783.502h-.107zM13.434 8.004h.066l1.217 1.636h.67L14.13 7.978c.553-.066.839-.399.839-.987 0-.342-.133-.629-.353-.803-.225-.173-.516-.204-.91-.204h-.829V9.64h.558V8.004zm.036-.46V6.495h.107c.532 0 .782.097.782.547 0 .44-.26.502-.782.502h-.107zM15.74 9.64L17.781 9.64 17.781 9.108 16.333 9.108 16.333 7.927 17.781 7.927 17.781 7.406 16.333 7.406 16.333 6.49 17.781 6.49 17.781 5.984 15.74 5.984zM21.396 6.874l.03-.599c-.357-.25-.74-.378-1.18-.378-.548 0-1.023.19-1.386.547-.364.358-.558.839-.558 1.376 0 .532.194 1.023.552 1.375.358.353.84.542 1.402.542.44 0 .813-.112 1.135-.342v-.67c-.358.307-.747.46-1.181.46-.732 0-1.29-.557-1.29-1.36 0-.813.548-1.38 1.351-1.38.414 0 .787.142 1.125.429zM23.314 6.49L24.28 6.49 24.28 5.984 21.749 5.984 21.749 6.49 22.72 6.49 22.72 9.64 23.314 9.64zM28.31 7.82c0-.517-.2-.992-.572-1.36-.374-.364-.854-.558-1.381-.558s-1.013.194-1.386.557c-.373.369-.568.84-.568 1.36 0 .522.195.993.568 1.356.368.363.864.562 1.386.562.521 0 1.007-.199 1.38-.562.374-.363.573-.834.573-1.355zm-.618 0c0 .368-.138.705-.394.966s-.583.4-.941.4-.69-.139-.946-.4c-.256-.26-.389-.598-.389-.966s.133-.711.389-.972c.256-.26.593-.399.946-.399s.69.138.94.4c.257.26.395.603.395.97zM29.548 8.004h.066l1.217 1.636h.67l-1.258-1.662c.553-.066.839-.399.839-.987 0-.342-.133-.629-.353-.803-.225-.173-.516-.204-.91-.204h-.829V9.64h.558V8.004zm.036-.46V6.495h.107c.532 0 .782.097.782.547 0 .44-.26.502-.782.502h-.107z"/>
            <path fill="#FFF" d="M34.268 9.64h.629l-1.77-3.8-1.769 3.8h.624l.424-.94h1.448l.414.94zm-1.642-1.437L33 7.37c.04-.097.087-.23.133-.414.05.184.097.317.138.414l.373.833h-1.018zM35.24 9.64h.96c.594 0 1.075-.015 1.5-.342.419-.323.644-.829.644-1.483 0-.655-.225-1.166-.645-1.488-.445-.343-.971-.343-1.657-.343h-.803V9.64zm.593-.537V6.516h.43c.439 0 .777.015 1.048.24.276.235.414.588.414 1.054 0 .465-.138.818-.414 1.053-.261.22-.573.24-.977.24h-.501zM42.772 7.82c0-.517-.2-.992-.573-1.36-.373-.364-.854-.558-1.38-.558-.527 0-1.013.194-1.386.557-.374.369-.568.84-.568 1.36 0 .522.194.993.568 1.356.368.363.864.562 1.385.562.522 0 1.008-.199 1.381-.562.374-.363.573-.834.573-1.355zm-.619 0c0 .368-.138.705-.394.966-.255.261-.582.4-.94.4s-.69-.139-.947-.4c-.255-.26-.388-.598-.388-.966s.133-.711.388-.972c.256-.26.594-.399.946-.399.353 0 .691.138.941.4.256.26.394.603.394.97zM5.32 16.653h1.223c.754 0 1.365-.02 1.905-.435.534-.41.82-1.054.82-1.887 0-.832-.286-1.482-.82-1.892-.566-.436-1.235-.436-2.107-.436H5.32v4.65zm.754-.683v-3.29h.547c.559 0 .988.019 1.333.305.351.3.527.748.527 1.34 0 .592-.176 1.04-.527 1.34-.332.28-.728.305-1.242.305h-.638zM10.133 16.653L12.728 16.653 12.728 15.977 10.887 15.977 10.887 14.475 12.728 14.475 12.728 13.811 10.887 13.811 10.887 12.647 12.728 12.647 12.728 12.003 10.133 12.003zM18.133 14.273v.637h1.118v.065c0 .69-.52 1.126-1.392 1.126-1.008 0-1.717-.71-1.717-1.77 0-1.047.716-1.743 1.711-1.743.488 0 .878.176 1.19.54l.553-.416c-.449-.546-1.021-.813-1.756-.813-.696 0-1.32.24-1.776.683-.468.455-.709 1.054-.709 1.756 0 .69.241 1.314.683 1.763.45.455 1.041.676 1.802.676 1.353 0 2.146-.748 2.146-2.068 0-.104-.006-.247-.013-.436h-1.84zM20.78 16.653L23.375 16.653 23.375 15.977 21.534 15.977 21.534 14.475 23.375 14.475 23.375 13.811 21.534 13.811 21.534 12.647 23.375 12.647 23.375 12.003 20.78 12.003zM23.973 15.723c.156.677.677 1.054 1.47 1.054.963 0 1.541-.572 1.541-1.437 0-.67-.383-1.002-1.203-1.38-.52-.24-.884-.376-.884-.825 0-.351.253-.586.663-.586.293 0 .507.137.69.423l.591-.306c-.175-.487-.65-.767-1.34-.767-.845 0-1.398.527-1.398 1.275 0 .702.456 1.014 1.282 1.418.48.234.826.344.826.8 0 .416-.28.689-.735.689-.475 0-.787-.221-.898-.637l-.605.28zM29.313 12.647L30.542 12.647 30.542 12.003 27.323 12.003 27.323 12.647 28.558 12.647 28.558 16.653 29.313 16.653zM31.134 16.653L31.888 16.653 31.888 12.003 31.134 12.003zM37.742 14.338c0-.657-.254-1.262-.729-1.73-.474-.462-1.086-.709-1.756-.709-.67 0-1.287.247-1.762.709-.475.468-.722 1.067-.722 1.73s.247 1.262.722 1.724c.468.461 1.099.715 1.762.715.664 0 1.282-.254 1.756-.715.475-.462.729-1.06.729-1.724zm-.787 0c0 .468-.176.898-.5 1.23-.326.33-.742.506-1.198.506-.455 0-.878-.175-1.203-.507-.325-.331-.494-.76-.494-1.229 0-.468.169-.904.494-1.236.325-.331.755-.507 1.203-.507.45 0 .878.176 1.197.507.325.332.501.768.501 1.236zm-2.146-2.79h.39l.93-.865h-.715l-.605.865zM38.607 16.653h.696v-3.232c.13.182.28.358.448.52l3.012 2.894v-4.832h-.696v3.226c-.156-.195-.319-.384-.507-.566l-2.953-2.842v4.832z"/>
            <g>
                <path fill="#C8DFF1" d="M12.41 15.732l-2.025 1.205c.492.302 1.04.521 1.627.638.318.063.645.096.981.096.766 0 1.596-.172 2.243-.478l.405-.259.022-.014c.468-.302.908-.718 1.247-1.152.08-.104.157-.21.229-.32.382-.579.644-1.243.745-1.957.033-.226.05-.459.05-.694v-.32l-5.524 3.255z" transform="translate(47.737962, 0.000000)"/>
                <path fill="#87CBD8" d="M9.605 17.401L5.47 19.818 6.93 14.547z" transform="translate(47.737962, 0.000000)"/>
                <path fill="#EE7474" d="M20.888 19.446c.467-.54.879-1.127 1.226-1.754.083-.15.02-.038.02-.039.791-1.445 1.24-3.099 1.24-4.856v-.8l-5.925 3.783 3.44 3.666z" transform="translate(47.737962, 0.000000)"/>
                <path fill="#F08470" d="M21.842 4.168L23.374 5.802 23.374 11.997 17.449 15.78z" transform="translate(47.737962, 0.000000)"/>
                <path fill="#F2BF70" d="M17.934 0L19.94 2.14 17.934 3.39z" transform="translate(47.737962, 0.000000)"/>
                <path fill="#62B9C1" d="M2.656 5.422L2.653 0 5.047 3.86z" transform="translate(47.737962, 0.000000)"/>
                <path fill="#A7D0BF" d="M2.653 0L5.047 3.86 5.804 3.365z" transform="translate(47.737962, 0.000000)"/>
                <path fill="#AAD29D" d="M5.047 3.86L8.053 8.708 8.053 5.759 5.804 3.366z" transform="translate(47.737962, 0.000000)"/>
                <path fill="#F7AE7B" d="M19.94 2.14L23.374 0 21.842 4.168z" transform="translate(47.737962, 0.000000)"/>
                <path fill="#85B3D7" d="M5.47 19.818L11.593 19.519 9.605 17.401z" transform="translate(47.737962, 0.000000)"/>
                <path fill="#C7DEA6" d="M5.804 3.366L8.053 5.759 8.053 1.896z" transform="translate(47.737962, 0.000000)"/>
                <path fill="#FDD08A" d="M19.94 2.14L17.934 0 23.374 0z" transform="translate(47.737962, 0.000000)"/>
                <path fill="#63BFB8" d="M2.657 7.414l.001 2.048.002 2.808v.921c.095 2.562 1.145 4.882 2.81 6.627l.002-.004 1.458-5.267 1.123-4.056V8.708L5.047 3.86 2.656 5.422l.001 1.992z" transform="translate(47.737962, 0.000000)"/>
                <path fill="#F39471" d="M21.842 4.168L19.94 2.14l-2.006 1.25v9.407c0 .235-.017.468-.05.694-.101.714-.363 1.378-.745 1.958l.31.33 4.393-11.611z" transform="translate(47.737962, 0.000000)"/>
                <path fill="#F5A47F" d="M21.754 4.08l1.62 1.722V0l-1.532 4.168-.086-.092-.002.004zM23.3 0h-.045.045z" transform="translate(47.737962, 0.000000)"/>
                <path fill="#91CFC9" d="M2.659 9.992l-.006 2.82v.001c0 2.724 1.08 5.199 2.843 7.031l-.026-.026.002-.004 1.458-5.267L2.66 9.992z" transform="translate(47.737962, 0.000000)"/>
                <path fill="#FDF6B8" d="M5.804 3.365L2.653 0 8.053 0 8.053 1.896z" transform="translate(47.737962, 0.000000)"/>
                <path fill="#C08193" d="M14.961 22.854l-.18.032 2.668-7.106 3.44 3.666c-1.5 1.73-3.572 2.962-5.928 3.408" transform="translate(47.737962, 0.000000)"/>
                <path fill="#8698BD" d="M15.64 16.934c.476-.303.925-.725 1.27-1.166.08-.104.157-.21.229-.32l.31.332-1.808 1.154z" transform="translate(47.737962, 0.000000)"/>
                <path fill="#6EA6D2" d="M12.012 17.575c.318.063.645.096.981.096.766 0 1.596-.172 2.243-.478l-3.643 2.326L9.605 17.4l.78-.464c.492.302 1.04.521 1.627.638zm-.419 1.944l.42-1.944-.42 1.944z" transform="translate(47.737962, 0.000000)"/>
                <path fill="#D7E8C9" d="M8.053 5.759L9.058 6.831 8.053 10.491z" transform="translate(47.737962, 0.000000)"/>
                <path fill="#FFFAD8" d="M8.053 0L10.956 0 8.053 1.896z" transform="translate(47.737962, 0.000000)"/>
                <path fill="#EDF0C3" d="M8.053 1.896L10.956 0 9.058 6.831 8.053 5.759z" transform="translate(47.737962, 0.000000)"/>
                <path fill="#ACD9D5" d="M2.656 5.422L2.659 9.992 0 7.157z" transform="translate(47.737962, 0.000000)"/>
                <path fill="#CAE6E5" d="M0 7.157l2.659 2.835-.006 2.82v.001c0 1.149.192 2.253.546 3.284L0 7.157z" transform="translate(47.737962, 0.000000)"/>
                <path fill="#817EB0" d="M17.441 15.801l.008-.021-9.404 6.004c1.48.799 3.181 1.25 4.986 1.25.6 0 1.166-.05 1.75-.148l2.66-7.085zm-2.65 7.083l.155-.027-.155.027z" transform="translate(47.737962, 0.000000)"/>
                <path fill="#8698BD" d="M11.593 19.519l-6.123.299c.58.607 1.233 1.143 1.946 1.596.205.13.415.254.63.37l3.547-2.265z" transform="translate(47.737962, 0.000000)"/>
                <path fill="#BDD9DE" d="M8.053 8.708L8.394 9.253 8.053 10.491z" transform="translate(47.737962, 0.000000)"/>
                <path fill="#68C5D4" d="M9.605 17.401L6.93 14.547l1.123-4.056V12.797c0 1.743.938 3.278 2.332 4.14l-.78.464z" transform="translate(47.737962, 0.000000)"/>
                <path fill="#FAD4CC" d="M23.374 5.802L27.008 9.677 23.374 11.997z" transform="translate(47.737962, 0.000000)"/>
                <path fill="#FDE8E3" d="M23.374 0L27.008 9.677 23.374 5.802z" transform="translate(47.737962, 0.000000)"/>
                <path fill="#F8C3C2" d="M27.008 9.677l-4.894 8.015c.083-.15.02-.038.02-.039.791-1.445 1.24-3.099 1.24-4.856v-.8l3.634-2.32z" transform="translate(47.737962, 0.000000)"/>
                <path fill="#FBD1BF" d="M17.934 3.39L15.309 5.026 17.934 12.476z" transform="translate(47.737962, 0.000000)"/>
                <path fill="#FDEAE1" d="M15.309 5.026L16.741 13.18 17.934 12.476z" transform="translate(47.737962, 0.000000)"/>
                <path fill="#FACAB6" d="M17.139 15.449c.382-.58.644-1.244.745-1.958.033-.226.05-.459.05-.694v-.32l-1.193.703.111.636.287 1.633z" transform="translate(47.737962, 0.000000)"/>
                <path fill="#C8DFF1" d="M12.41 15.732l-2.025 1.205c.492.302 1.04.521 1.627.638.318.063.645.096.981.096.766 0 1.596-.172 2.243-.478l.405-.259.022-.014c.468-.302.908-.718 1.247-1.152.08-.104.157-.21.229-.32.382-.579.644-1.243.745-1.957.033-.226.05-.459.05-.694v-.32l-5.524 3.255z" transform="translate(47.737962, 0.000000)"/>
                <path fill="#87CBD8" d="M9.605 17.401L5.47 19.818 6.93 14.547z" transform="translate(47.737962, 0.000000)"/>
                <path fill="#EE7474" d="M20.888 19.446c.467-.54.879-1.127 1.226-1.754.083-.15.02-.038.02-.039.791-1.445 1.24-3.099 1.24-4.856v-.8l-5.925 3.783 3.44 3.666z" transform="translate(47.737962, 0.000000)"/>
                <path fill="#F08470" d="M21.842 4.168L23.374 5.802 23.374 11.997 17.449 15.78z" transform="translate(47.737962, 0.000000)"/>
                <path fill="#F2BF70" d="M17.934 0L19.94 2.14 17.934 3.39z" transform="translate(47.737962, 0.000000)"/>
                <path fill="#62B9C1" d="M2.656 5.422L2.653 0 5.047 3.86z" transform="translate(47.737962, 0.000000)"/>
                <path fill="#A7D0BF" d="M2.653 0L5.047 3.86 5.804 3.365z" transform="translate(47.737962, 0.000000)"/>
                <path fill="#AAD29D" d="M5.047 3.86L8.053 8.708 8.053 5.759 5.804 3.366z" transform="translate(47.737962, 0.000000)"/>
                <path fill="#F7AE7B" d="M19.94 2.14L23.374 0 21.842 4.168z" transform="translate(47.737962, 0.000000)"/>
                <path fill="#85B3D7" d="M5.47 19.818L11.593 19.519 9.605 17.401z" transform="translate(47.737962, 0.000000)"/>
                <path fill="#C7DEA6" d="M5.804 3.366L8.053 5.759 8.053 1.896z" transform="translate(47.737962, 0.000000)"/>
                <path fill="#FDD08A" d="M19.94 2.14L17.934 0 23.374 0z" transform="translate(47.737962, 0.000000)"/>
                <path fill="#63BFB8" d="M2.657 7.414l.001 2.048.002 2.808v.921c.095 2.562 1.145 4.882 2.81 6.627l.002-.004 1.458-5.267 1.123-4.056V8.708L5.047 3.86 2.656 5.422l.001 1.992z" transform="translate(47.737962, 0.000000)"/>
                <path fill="#F39471" d="M21.842 4.168L19.94 2.14l-2.006 1.25v9.407c0 .235-.017.468-.05.694-.101.714-.363 1.378-.745 1.958l.31.33 4.393-11.611z" transform="translate(47.737962, 0.000000)"/>
                <path fill="#F5A47F" d="M21.754 4.08l1.62 1.722V0l-1.532 4.168-.086-.092-.002.004zM23.3 0h-.045.045z" transform="translate(47.737962, 0.000000)"/>
                <path fill="#91CFC9" d="M2.659 9.992l-.006 2.82v.001c0 2.724 1.08 5.199 2.843 7.031l-.026-.026.002-.004 1.458-5.267L2.66 9.992z" transform="translate(47.737962, 0.000000)"/>
                <path fill="#FDF6B8" d="M5.804 3.365L2.653 0 8.053 0 8.053 1.896z" transform="translate(47.737962, 0.000000)"/>
                <path fill="#C08193" d="M14.961 22.854l-.18.032 2.668-7.106 3.44 3.666c-1.5 1.73-3.572 2.962-5.928 3.408" transform="translate(47.737962, 0.000000)"/>
                <path fill="#8698BD" d="M15.64 16.934c.476-.303.925-.725 1.27-1.166.08-.104.157-.21.229-.32l.31.332-1.808 1.154z" transform="translate(47.737962, 0.000000)"/>
                <path fill="#6EA6D2" d="M12.012 17.575c.318.063.645.096.981.096.766 0 1.596-.172 2.243-.478l-3.643 2.326L9.605 17.4l.78-.464c.492.302 1.04.521 1.627.638zm-.419 1.944l.42-1.944-.42 1.944z" transform="translate(47.737962, 0.000000)"/>
                <path fill="#D7E8C9" d="M8.053 5.759L9.058 6.831 8.053 10.491z" transform="translate(47.737962, 0.000000)"/>
                <path fill="#FFFAD8" d="M8.053 0L10.956 0 8.053 1.896z" transform="translate(47.737962, 0.000000)"/>
                <path fill="#EDF0C3" d="M8.053 1.896L10.956 0 9.058 6.831 8.053 5.759z" transform="translate(47.737962, 0.000000)"/>
                <path fill="#ACD9D5" d="M2.656 5.422L2.659 9.992 0 7.157z" transform="translate(47.737962, 0.000000)"/>
                <path fill="#CAE6E5" d="M0 7.157l2.659 2.835-.006 2.82v.001c0 1.149.192 2.253.546 3.284L0 7.157z" transform="translate(47.737962, 0.000000)"/>
                <path fill="#817EB0" d="M17.441 15.801l.008-.021-9.404 6.004c1.48.799 3.181 1.25 4.986 1.25.6 0 1.166-.05 1.75-.148l2.66-7.085zm-2.65 7.083l.155-.027-.155.027z" transform="translate(47.737962, 0.000000)"/>
                <path fill="#8698BD" d="M11.593 19.519l-6.123.299c.58.607 1.233 1.143 1.946 1.596.205.13.415.254.63.37l3.547-2.265z" transform="translate(47.737962, 0.000000)"/>
                <path fill="#BDD9DE" d="M8.053 8.708L8.394 9.253 8.053 10.491z" transform="translate(47.737962, 0.000000)"/>
                <path fill="#68C5D4" d="M9.605 17.401L6.93 14.547l1.123-4.056V12.797c0 1.743.938 3.278 2.332 4.14l-.78.464z" transform="translate(47.737962, 0.000000)"/>
                <path fill="#FAD4CC" d="M23.374 5.802L27.008 9.677 23.374 11.997z" transform="translate(47.737962, 0.000000)"/>
                <path fill="#FDE8E3" d="M23.374 0L27.008 9.677 23.374 5.802z" transform="translate(47.737962, 0.000000)"/>
                <path fill="#F8C3C2" d="M27.008 9.677l-4.894 8.015c.083-.15.02-.038.02-.039.791-1.445 1.24-3.099 1.24-4.856v-.8l3.634-2.32z" transform="translate(47.737962, 0.000000)"/>
                <path fill="#FBD1BF" d="M17.934 3.39L15.309 5.026 17.934 12.476z" transform="translate(47.737962, 0.000000)"/>
                <path fill="#FDEAE1" d="M15.309 5.026L16.741 13.18 17.934 12.476z" transform="translate(47.737962, 0.000000)"/>
                <path fill="#FACAB6" d="M17.139 15.449c.382-.58.644-1.244.745-1.958.033-.226.05-.459.05-.694v-.32l-1.193.703.111.636.287 1.633z" transform="translate(47.737962, 0.000000)"/>
                <path fill="#C8DFF1" d="M12.41 15.732l-2.025 1.205c.492.302 1.04.521 1.627.638.318.063.645.096.981.096.766 0 1.596-.172 2.243-.478l.405-.259.022-.014c.468-.302.908-.718 1.247-1.152.08-.104.157-.21.229-.32.382-.579.644-1.243.745-1.957.033-.226.05-.459.05-.694v-.32l-5.524 3.255z" transform="translate(47.737962, 0.000000)"/>
                <path fill="#87CBD8" d="M9.605 17.401L5.47 19.818 6.93 14.547z" transform="translate(47.737962, 0.000000)"/>
                <path fill="#EE7474" d="M20.888 19.446c.467-.54.879-1.127 1.226-1.754.083-.15.02-.038.02-.039.791-1.445 1.24-3.099 1.24-4.856v-.8l-5.925 3.783 3.44 3.666z" transform="translate(47.737962, 0.000000)"/>
                <path fill="#F08470" d="M21.842 4.168L23.374 5.802 23.374 11.997 17.449 15.78z" transform="translate(47.737962, 0.000000)"/>
                <path fill="#F2BF70" d="M17.934 0L19.94 2.14 17.934 3.39z" transform="translate(47.737962, 0.000000)"/>
                <path fill="#62B9C1" d="M2.656 5.422L2.653 0 5.047 3.86z" transform="translate(47.737962, 0.000000)"/>
                <path fill="#A7D0BF" d="M2.653 0L5.047 3.86 5.804 3.365z" transform="translate(47.737962, 0.000000)"/>
                <path fill="#AAD29D" d="M5.047 3.86L8.053 8.708 8.053 5.759 5.804 3.366z" transform="translate(47.737962, 0.000000)"/>
                <path fill="#F7AE7B" d="M19.94 2.14L23.374 0 21.842 4.168z" transform="translate(47.737962, 0.000000)"/>
                <path fill="#85B3D7" d="M5.47 19.818L11.593 19.519 9.605 17.401z" transform="translate(47.737962, 0.000000)"/>
                <path fill="#C7DEA6" d="M5.804 3.366L8.053 5.759 8.053 1.896z" transform="translate(47.737962, 0.000000)"/>
                <path fill="#FDD08A" d="M19.94 2.14L17.934 0 23.374 0z" transform="translate(47.737962, 0.000000)"/>
                <path fill="#63BFB8" d="M2.657 7.414l.001 2.048.002 2.808v.921c.095 2.562 1.145 4.882 2.81 6.627l.002-.004 1.458-5.267 1.123-4.056V8.708L5.047 3.86 2.656 5.422l.001 1.992z" transform="translate(47.737962, 0.000000)"/>
                <path fill="#F39471" d="M21.842 4.168L19.94 2.14l-2.006 1.25v9.407c0 .235-.017.468-.05.694-.101.714-.363 1.378-.745 1.958l.31.33 4.393-11.611z" transform="translate(47.737962, 0.000000)"/>
                <path fill="#F5A47F" d="M21.754 4.08l1.62 1.722V0l-1.532 4.168-.086-.092-.002.004zM23.3 0h-.045.045z" transform="translate(47.737962, 0.000000)"/>
                <path fill="#91CFC9" d="M2.659 9.992l-.006 2.82v.001c0 2.724 1.08 5.199 2.843 7.031l-.026-.026.002-.004 1.458-5.267L2.66 9.992z" transform="translate(47.737962, 0.000000)"/>
                <path fill="#FDF6B8" d="M5.804 3.365L2.653 0 8.053 0 8.053 1.896z" transform="translate(47.737962, 0.000000)"/>
                <path fill="#C08193" d="M14.961 22.854l-.18.032 2.668-7.106 3.44 3.666c-1.5 1.73-3.572 2.962-5.928 3.408" transform="translate(47.737962, 0.000000)"/>
                <path fill="#8698BD" d="M15.64 16.934c.476-.303.925-.725 1.27-1.166.08-.104.157-.21.229-.32l.31.332-1.808 1.154z" transform="translate(47.737962, 0.000000)"/>
                <path fill="#6EA6D2" d="M12.012 17.575c.318.063.645.096.981.096.766 0 1.596-.172 2.243-.478l-3.643 2.326L9.605 17.4l.78-.464c.492.302 1.04.521 1.627.638zm-.419 1.944l.42-1.944-.42 1.944z" transform="translate(47.737962, 0.000000)"/>
                <path fill="#D7E8C9" d="M8.053 5.759L9.058 6.831 8.053 10.491z" transform="translate(47.737962, 0.000000)"/>
                <path fill="#FFFAD8" d="M8.053 0L10.956 0 8.053 1.896z" transform="translate(47.737962, 0.000000)"/>
                <path fill="#EDF0C3" d="M8.053 1.896L10.956 0 9.058 6.831 8.053 5.759z" transform="translate(47.737962, 0.000000)"/>
                <path fill="#ACD9D5" d="M2.656 5.422L2.659 9.992 0 7.157z" transform="translate(47.737962, 0.000000)"/>
                <path fill="#CAE6E5" d="M0 7.157l2.659 2.835-.006 2.82v.001c0 1.149.192 2.253.546 3.284L0 7.157z" transform="translate(47.737962, 0.000000)"/>
                <path fill="#817EB0" d="M17.441 15.801l.008-.021-9.404 6.004c1.48.799 3.181 1.25 4.986 1.25.6 0 1.166-.05 1.75-.148l2.66-7.085zm-2.65 7.083l.155-.027-.155.027z" transform="translate(47.737962, 0.000000)"/>
                <path fill="#8698BD" d="M11.593 19.519l-6.123.299c.58.607 1.233 1.143 1.946 1.596.205.13.415.254.63.37l3.547-2.265z" transform="translate(47.737962, 0.000000)"/>
                <path fill="#BDD9DE" d="M8.053 8.708L8.394 9.253 8.053 10.491z" transform="translate(47.737962, 0.000000)"/>
                <path fill="#68C5D4" d="M9.605 17.401L6.93 14.547l1.123-4.056V12.797c0 1.743.938 3.278 2.332 4.14l-.78.464z" transform="translate(47.737962, 0.000000)"/>
                <path fill="#FAD4CC" d="M23.374 5.802L27.008 9.677 23.374 11.997z" transform="translate(47.737962, 0.000000)"/>
                <path fill="#FDE8E3" d="M23.374 0L27.008 9.677 23.374 5.802z" transform="translate(47.737962, 0.000000)"/>
                <path fill="#F8C3C2" d="M27.008 9.677l-4.894 8.015c.083-.15.02-.038.02-.039.791-1.445 1.24-3.099 1.24-4.856v-.8l3.634-2.32z" transform="translate(47.737962, 0.000000)"/>
                <path fill="#FBD1BF" d="M17.934 3.39L15.309 5.026 17.934 12.476z" transform="translate(47.737962, 0.000000)"/>
                <path fill="#FDEAE1" d="M15.309 5.026L16.741 13.18 17.934 12.476z" transform="translate(47.737962, 0.000000)"/>
                <path fill="#FACAB6" d="M17.139 15.449c.382-.58.644-1.244.745-1.958.033-.226.05-.459.05-.694v-.32l-1.193.703.111.636.287 1.633z" transform="translate(47.737962, 0.000000)"/>
                <path fill="#C8DFF1" d="M12.41 15.732l-2.025 1.205c.492.302 1.04.521 1.627.638.318.063.645.096.981.096.766 0 1.596-.172 2.243-.478l.405-.259.022-.014c.468-.302.908-.718 1.247-1.152.08-.104.157-.21.229-.32.382-.579.644-1.243.745-1.957.033-.226.05-.459.05-.694v-.32l-5.524 3.255z" transform="translate(47.737962, 0.000000)"/>
                <path fill="#87CBD8" d="M9.605 17.401L5.47 19.818 6.93 14.547z" transform="translate(47.737962, 0.000000)"/>
                <path fill="#EE7474" d="M20.888 19.446c.467-.54.879-1.127 1.226-1.754.083-.15.02-.038.02-.039.791-1.445 1.24-3.099 1.24-4.856v-.8l-5.925 3.783 3.44 3.666z" transform="translate(47.737962, 0.000000)"/>
                <path fill="#F08470" d="M21.842 4.168L23.374 5.802 23.374 11.997 17.449 15.78z" transform="translate(47.737962, 0.000000)"/>
                <path fill="#F2BF70" d="M17.934 0L19.94 2.14 17.934 3.39z" transform="translate(47.737962, 0.000000)"/>
                <path fill="#62B9C1" d="M2.656 5.422L2.653 0 5.047 3.86z" transform="translate(47.737962, 0.000000)"/>
                <path fill="#A7D0BF" d="M2.653 0L5.047 3.86 5.804 3.365z" transform="translate(47.737962, 0.000000)"/>
                <path fill="#AAD29D" d="M5.047 3.86L8.053 8.708 8.053 5.759 5.804 3.366z" transform="translate(47.737962, 0.000000)"/>
                <path fill="#F7AE7B" d="M19.94 2.14L23.374 0 21.842 4.168z" transform="translate(47.737962, 0.000000)"/>
                <path fill="#85B3D7" d="M5.47 19.818L11.593 19.519 9.605 17.401z" transform="translate(47.737962, 0.000000)"/>
                <path fill="#C7DEA6" d="M5.804 3.366L8.053 5.759 8.053 1.896z" transform="translate(47.737962, 0.000000)"/>
                <path fill="#FDD08A" d="M19.94 2.14L17.934 0 23.374 0z" transform="translate(47.737962, 0.000000)"/>
                <path fill="#63BFB8" d="M2.657 7.414l.001 2.048.002 2.808v.921c.095 2.562 1.145 4.882 2.81 6.627l.002-.004 1.458-5.267 1.123-4.056V8.708L5.047 3.86 2.656 5.422l.001 1.992z" transform="translate(47.737962, 0.000000)"/>
                <path fill="#F39471" d="M21.842 4.168L19.94 2.14l-2.006 1.25v9.407c0 .235-.017.468-.05.694-.101.714-.363 1.378-.745 1.958l.31.33 4.393-11.611z" transform="translate(47.737962, 0.000000)"/>
                <path fill="#F5A47F" d="M21.754 4.08l1.62 1.722V0l-1.532 4.168-.086-.092-.002.004zM23.3 0h-.045.045z" transform="translate(47.737962, 0.000000)"/>
                <path fill="#91CFC9" d="M2.659 9.992l-.006 2.82v.001c0 2.724 1.08 5.199 2.843 7.031l-.026-.026.002-.004 1.458-5.267L2.66 9.992z" transform="translate(47.737962, 0.000000)"/>
                <path fill="#FDF6B8" d="M5.804 3.365L2.653 0 8.053 0 8.053 1.896z" transform="translate(47.737962, 0.000000)"/>
                <path fill="#C08193" d="M14.961 22.854l-.18.032 2.668-7.106 3.44 3.666c-1.5 1.73-3.572 2.962-5.928 3.408" transform="translate(47.737962, 0.000000)"/>
                <path fill="#8698BD" d="M15.64 16.934c.476-.303.925-.725 1.27-1.166.08-.104.157-.21.229-.32l.31.332-1.808 1.154z" transform="translate(47.737962, 0.000000)"/>
                <path fill="#6EA6D2" d="M12.012 17.575c.318.063.645.096.981.096.766 0 1.596-.172 2.243-.478l-3.643 2.326L9.605 17.4l.78-.464c.492.302 1.04.521 1.627.638zm-.419 1.944l.42-1.944-.42 1.944z" transform="translate(47.737962, 0.000000)"/>
                <path fill="#D7E8C9" d="M8.053 5.759L9.058 6.831 8.053 10.491z" transform="translate(47.737962, 0.000000)"/>
                <path fill="#FFFAD8" d="M8.053 0L10.956 0 8.053 1.896z" transform="translate(47.737962, 0.000000)"/>
                <path fill="#EDF0C3" d="M8.053 1.896L10.956 0 9.058 6.831 8.053 5.759z" transform="translate(47.737962, 0.000000)"/>
                <path fill="#ACD9D5" d="M2.656 5.422L2.659 9.992 0 7.157z" transform="translate(47.737962, 0.000000)"/>
                <path fill="#CAE6E5" d="M0 7.157l2.659 2.835-.006 2.82v.001c0 1.149.192 2.253.546 3.284L0 7.157z" transform="translate(47.737962, 0.000000)"/>
                <path fill="#817EB0" d="M17.441 15.801l.008-.021-9.404 6.004c1.48.799 3.181 1.25 4.986 1.25.6 0 1.166-.05 1.75-.148l2.66-7.085zm-2.65 7.083l.155-.027-.155.027z" transform="translate(47.737962, 0.000000)"/>
                <path fill="#8698BD" d="M11.593 19.519l-6.123.299c.58.607 1.233 1.143 1.946 1.596.205.13.415.254.63.37l3.547-2.265z" transform="translate(47.737962, 0.000000)"/>
                <path fill="#BDD9DE" d="M8.053 8.708L8.394 9.253 8.053 10.491z" transform="translate(47.737962, 0.000000)"/>
                <path fill="#68C5D4" d="M9.605 17.401L6.93 14.547l1.123-4.056V12.797c0 1.743.938 3.278 2.332 4.14l-.78.464z" transform="translate(47.737962, 0.000000)"/>
                <path fill="#FAD4CC" d="M23.374 5.802L27.008 9.677 23.374 11.997z" transform="translate(47.737962, 0.000000)"/>
                <path fill="#FDE8E3" d="M23.374 0L27.008 9.677 23.374 5.802z" transform="translate(47.737962, 0.000000)"/>
                <path fill="#F8C3C2" d="M27.008 9.677l-4.894 8.015c.083-.15.02-.038.02-.039.791-1.445 1.24-3.099 1.24-4.856v-.8l3.634-2.32z" transform="translate(47.737962, 0.000000)"/>
                <path fill="#FBD1BF" d="M17.934 3.39L15.309 5.026 17.934 12.476z" transform="translate(47.737962, 0.000000)"/>
                <path fill="#FDEAE1" d="M15.309 5.026L16.741 13.18 17.934 12.476z" transform="translate(47.737962, 0.000000)"/>
                <path fill="#FACAB6" d="M17.139 15.449c.382-.58.644-1.244.745-1.958.033-.226.05-.459.05-.694v-.32l-1.193.703.111.636.287 1.633z" transform="translate(47.737962, 0.000000)"/>
            </g>
        </g>
    </g>
</svg>
