<svg xmlns="http://www.w3.org/2000/svg" width="60" height="24" viewBox="0 0 60 24">
    <g fill="none" fill-rule="evenodd">
        <g>
            <path stroke="#FFF" stroke-width=".7" d="M9.102 23.791L9.102 9.875M23.541 23.791L23.541 9.875M36.334 23.791L36.334 9.875"/>
            <path fill="#FFF" fill-rule="nonzero" d="M1.024 19.11c.651 0 1.195-.093 1.683-.564.438-.42.665-.993.665-1.601 0-.623-.234-1.224-.693-1.637-.488-.441-1.025-.529-1.655-.529h-.43v4.332h.43zM0 14.215h1.003c.8 0 1.45.11 2.079.66.607.535.883 1.267.883 2.079 0 .796-.283 1.499-.87 2.035-.635.58-1.272.688-2.106.688H0v-5.462zM16.214 15.345l-.912 2.202h1.805l-.893-2.202zm-1.153 2.77l-.644 1.56h-.651l2.463-5.76 2.4 5.76h-.659l-.63-1.56h-2.28zM30.106 19.676L29.505 19.676 29.505 14.779 28.204 14.779 28.204 14.214 31.421 14.214 31.421 14.779 30.106 14.779zM43.447 15.345l-.914 2.202h1.805l-.89-2.202zm-1.154 2.77l-.644 1.56h-.651l2.463-5.76 2.4 5.76h-.66l-.629-1.56h-2.28zM53.26 9.762c-1.603-1.168-3.252-2.204-4.93-3.104 2.454 4.097 4.278 8.93 5.15 14.29.377-3.742.3-7.502-.22-11.186"/>
            <path fill="#FFF" fill-rule="nonzero" d="M51.247 0C54.659 3.456 57.673 7.722 60 12.69c-1.733 3.825-3.873 7.27-6.303 10.278 1.123-7.964.2-15.864-2.45-22.968"/>
        </g>
    </g>
</svg>
