<?xml version="1.0" encoding="UTF-8"?>
<svg width="160px" height="54px" viewBox="0 0 160 54" version="1.1" xmlns="http://www.w3.org/2000/svg" xmlns:xlink="http://www.w3.org/1999/xlink">
    <title>29C6ED34-46E5-42AB-A81F-9AEEC96B74FF</title>
    <g id="Symbols" stroke="none" stroke-width="1" fill="none" fill-rule="evenodd">
        <g id="logo_udelar" fill="#FFFFFF">
            <path d="M150.260081,22.8335547 L150.260081,24.4160648 C149.485992,23.769587 148.685992,23.4457004 147.858138,23.4457004 C146.946721,23.4457004 146.179109,23.7728259 145.554656,24.4283725 C144.926316,25.0793846 144.612146,25.8761457 144.612146,26.8186559 C144.612146,27.7488583 144.926316,28.5346073 145.554656,29.1739595 C146.182996,29.8139595 146.952551,30.1333117 147.863968,30.1333117 C148.334899,30.1333117 148.735223,30.0568745 149.064939,29.904 C149.248907,29.8275628 149.439352,29.723919 149.636275,29.5930688 C149.833846,29.4635142 150.041134,29.3061053 150.260081,29.1221377 L150.260081,30.7396275 C149.493765,31.1742834 148.689879,31.3912874 147.847126,31.3912874 C146.579433,31.3912874 145.497004,30.9495061 144.601134,30.0646478 C143.707854,29.1720162 143.262186,28.0960648 143.262186,26.835498 C143.262186,25.7051336 143.635304,24.6984939 144.382186,23.8136356 C145.302024,22.7292632 146.490688,22.1877247 147.950121,22.1877247 C148.746883,22.1877247 149.516437,22.4021377 150.260081,22.8335547" id="Fill-1"></path>
            <path d="M156.826559,27.8177814 L155.510931,24.8011012 L154.131822,27.8177814 L156.826559,27.8177814 Z M157.372632,29.0764049 L153.574737,29.0764049 L152.586883,31.2308988 L151.144291,31.2308988 L155.533603,21.8019109 L159.768097,31.2308988 L158.302834,31.2308988 L157.372632,29.0764049 Z" id="Fill-2"></path>
            <path d="M66.3578947,8.82519838 L66.3578947,14.1654413 C66.3578947,14.9265749 66.4816194,15.4836599 66.7310121,15.8354008 C67.102834,16.3445506 67.625587,16.5984777 68.299919,16.5984777 C68.9774899,16.5984777 69.5021862,16.3445506 69.8740081,15.8354008 C70.122753,15.4946721 70.2471255,14.937587 70.2471255,14.1654413 L70.2471255,8.82519838 L71.5860729,8.82519838 L71.5860729,14.5359676 C71.5860729,15.4713522 71.2945749,16.2409069 70.7122267,16.8459271 C70.0573279,17.5196113 69.2534413,17.8571012 68.299919,17.8571012 C67.345749,17.8571012 66.5431579,17.5196113 65.8921457,16.8459271 C65.3097976,16.2409069 65.0189474,15.4713522 65.0189474,14.5359676 L65.0189474,8.82519838 L66.3578947,8.82519838 Z" id="Fill-3"></path>
            <polygon id="Fill-4" points="73.8882591 17.6965182 73.8882591 8.22218623 80.3575709 14.9901215 80.3575709 8.82526316 81.6958704 8.82526316 81.6958704 18.2367611 75.2265587 11.4850202 75.2265587 17.6965182"></polygon>
            <polygon id="Fill-5" points="83.9993522 17.6967773 85.3376518 17.6967773 85.3376518 8.82552227 83.9993522 8.82552227"></polygon>
            <polygon id="Fill-6" points="88.0932794 8.82519838 90.5463968 14.9732146 93.0338462 8.82519838 94.4991093 8.82519838 90.5178947 18.3630121 86.6280162 8.82519838"></polygon>
            <polygon id="Fill-7" points="100.674332 10.0835628 97.1180567 10.0835628 97.1180567 12.2153846 100.570688 12.2153846 100.570688 13.4740081 97.1180567 13.4740081 97.1180567 16.4382186 100.674332 16.4382186 100.674332 17.6968421 95.7791093 17.6968421 95.7791093 8.82493927 100.674332 8.82493927"></polygon>
            <path d="M103.94753,12.8991741 L104.37247,12.8991741 C105.640162,12.8991741 106.274332,12.4146397 106.274332,11.4455709 C106.274332,10.5380405 105.657652,10.0833036 104.424291,10.0833036 L103.94753,10.0833036 L103.94753,12.8991741 Z M105.613603,13.9161781 L108.359514,17.696583 L106.722591,17.696583 L104.188502,14.065166 L103.94753,14.065166 L103.94753,17.696583 L102.609231,17.696583 L102.609231,8.82532794 L104.17749,8.82532794 C105.349312,8.82532794 106.195951,9.04621862 106.716761,9.48670445 C107.291336,9.97642105 107.578947,10.6235466 107.578947,11.4287287 C107.578947,12.0570688 107.398219,12.596664 107.038057,13.0488097 C106.678543,13.5003077 106.203725,13.7898623 105.613603,13.9161781 L105.613603,13.9161781 Z" id="Fill-8"></path>
            <path d="M114.885182,10.1412794 L113.799514,10.785166 C113.596113,10.4327773 113.402429,10.20217 113.219109,10.0952874 C113.027368,9.9728583 112.780567,9.91131984 112.478057,9.91131984 C112.106235,9.91131984 111.797895,10.0175547 111.553036,10.228081 C111.30753,10.4353684 111.185101,10.6957733 111.185101,11.0099433 C111.185101,11.4426559 111.506397,11.7918057 112.150283,12.0560972 L113.035142,12.4188502 C113.754818,12.7097004 114.282105,13.0646802 114.615061,13.485085 C114.948664,13.9041943 115.115142,14.4191741 115.115142,15.0287287 C115.115142,15.8449231 114.843077,16.5199028 114.298947,17.0523725 C113.750931,17.5887287 113.071417,17.8569069 112.259109,17.8569069 C111.489555,17.8569069 110.853441,17.6288907 110.352065,17.1702672 C109.857814,16.713587 109.549474,16.0703482 109.427045,15.2437895 L110.782834,14.9445182 C110.844372,15.4653279 110.951255,15.8248421 111.104777,16.025004 C111.380729,16.4078381 111.782348,16.5989312 112.310931,16.5989312 C112.728745,16.5989312 113.075304,16.4596599 113.351255,16.1798219 C113.626559,15.9006316 113.764534,15.5462996 113.764534,15.1181215 C113.764534,14.945166 113.740567,14.7877571 113.693279,14.6439514 C113.645344,14.5007935 113.570202,14.3686478 113.46915,14.2481619 C113.367449,14.1276761 113.235951,14.0149636 113.075304,13.9093765 C112.914656,13.8044372 112.722915,13.7033846 112.500729,13.6081619 L111.644372,13.2512389 C110.430445,12.7388502 109.823482,11.9887287 109.823482,11.0015223 C109.823482,10.3356113 110.078057,9.77852632 110.587206,9.33026721 C111.097004,8.87876923 111.730526,8.65269636 112.489717,8.65269636 C113.511903,8.65269636 114.310607,9.14953846 114.885182,10.1412794" id="Fill-9"></path>
            <polygon id="Fill-10" points="116.906235 17.6967773 118.244534 17.6967773 118.244534 8.82552227 116.906235 8.82552227"></polygon>
            <path d="M121.891498,16.4381538 L122.494575,16.4381538 C123.095709,16.4381538 123.595789,16.3753198 123.99417,16.249004 C124.392551,16.114915 124.752713,15.9024453 125.074656,15.6109474 C125.733441,15.009166 126.06251,14.2260081 126.06251,13.2608259 C126.06251,12.2878704 125.737328,11.4988826 125.085668,10.8938623 C124.500081,10.3536194 123.635951,10.083498 122.494575,10.083498 L121.891498,10.083498 L121.891498,16.4381538 Z M120.553198,17.6967773 L120.553198,8.82487449 L122.414251,8.82487449 C123.306235,8.82487449 124.011012,8.91361943 124.528583,9.08981377 C125.083725,9.26276923 125.587692,9.55556275 126.039838,9.96884211 C126.955142,10.8038219 127.41247,11.9011498 127.41247,13.2608259 C127.41247,14.6243887 126.935709,15.7275466 125.982186,16.5709474 C125.502834,16.992 125.001457,17.2847935 124.476761,17.4493279 C123.986397,17.6138623 123.291336,17.6967773 122.390931,17.6967773 L120.553198,17.6967773 Z" id="Fill-11"></path>
            <path d="M133.500243,14.2839838 L132.184615,11.2673036 L130.805506,14.2839838 L133.500243,14.2839838 Z M134.046964,15.5413117 L130.249069,15.5413117 L129.260567,17.6964534 L127.818623,17.6964534 L132.207935,8.26811336 L136.441781,17.6964534 L134.976518,17.6964534 L134.046964,15.5413117 Z" id="Fill-12"></path>
            <path d="M139.066559,16.4381538 L139.669636,16.4381538 C140.270769,16.4381538 140.77085,16.3753198 141.169231,16.249004 C141.567611,16.114915 141.927773,15.9024453 142.249069,15.6109474 C142.908502,15.009166 143.237571,14.2260081 143.237571,13.2608259 C143.237571,12.2878704 142.912389,11.4988826 142.260729,10.8938623 C141.675142,10.3536194 140.811012,10.083498 139.669636,10.083498 L139.066559,10.083498 L139.066559,16.4381538 Z M137.728259,17.6967773 L137.728259,8.82487449 L139.589312,8.82487449 C140.481296,8.82487449 141.186073,8.91361943 141.703644,9.08981377 C142.258785,9.26276923 142.762753,9.55556275 143.214899,9.96884211 C144.130202,10.8038219 144.58753,11.9011498 144.58753,13.2608259 C144.58753,14.6243887 144.110769,15.7275466 143.157247,16.5709474 C142.677895,16.992 142.176518,17.2847935 141.651822,17.4493279 C141.161457,17.6138623 140.466397,17.6967773 139.565992,17.6967773 L137.728259,17.6967773 Z" id="Fill-13"></path>
            <path d="M66.3578947,29.7741215 L66.9609717,29.7741215 C67.5621053,29.7741215 68.0621862,29.7106397 68.4605668,29.5849717 C68.8582996,29.4508826 69.2184615,29.2377652 69.5404049,28.946915 C70.1991903,28.3451336 70.5289069,27.5619757 70.5289069,26.5961457 C70.5289069,25.6238381 70.2037247,24.8342024 69.5520648,24.2291822 C68.96583,23.689587 68.1017004,23.4194656 66.9609717,23.4194656 L66.3578947,23.4194656 L66.3578947,29.7741215 Z M65.0189474,31.0327449 L65.0189474,22.1608421 L66.8806478,22.1608421 C67.7726316,22.1608421 68.4774089,22.249587 68.9949798,22.4251336 C69.5501215,22.5974413 70.0540891,22.8902348 70.505587,23.3041619 C71.4208907,24.1397895 71.8788664,25.2364696 71.8788664,26.5961457 C71.8788664,27.9603563 71.4021053,29.0635142 70.4479352,29.9062672 C69.9692308,30.3279676 69.4678543,30.6207611 68.9431579,30.7852955 C68.4527935,30.94983 67.757085,31.0327449 66.8573279,31.0327449 L65.0189474,31.0327449 Z" id="Fill-14"></path>
            <polygon id="Fill-15" points="78.4576518 23.4194656 74.9013765 23.4194656 74.9013765 25.5506397 78.3540081 25.5506397 78.3540081 26.8092632 74.9013765 26.8092632 74.9013765 29.7741215 78.4576518 29.7741215 78.4576518 31.0327449 73.5624291 31.0327449 73.5624291 22.1608421 78.4576518 22.1608421"></polygon>
            <polygon id="Fill-16" points="84.1483401 22.1611012 84.1483401 29.7743806 86.7569231 29.7743806 86.7569231 31.0323563 82.8100405 31.0323563 82.8100405 22.1611012"></polygon>
            <path d="M93.1854251,27.6191093 L91.8697976,24.6024291 L90.4906883,27.6191093 L93.1854251,27.6191093 Z M93.731498,28.8777328 L89.9336032,28.8777328 L88.945749,31.0322267 L87.5031579,31.0322267 L91.8924696,21.6032389 L96.1269636,31.0322267 L94.6617004,31.0322267 L93.731498,28.8777328 Z" id="Fill-17"></path>
            <path d="M100.614089,26.23417 L101.039028,26.23417 C102.306721,26.23417 102.940891,25.7502834 102.940891,24.7805668 C102.940891,23.8730364 102.324211,23.4195951 101.09085,23.4195951 L100.614089,23.4195951 L100.614089,26.23417 Z M102.280162,27.2511741 L105.026073,31.0322267 L103.38915,31.0322267 L100.855061,27.4008097 L100.614089,27.4008097 L100.614089,31.0322267 L99.2757895,31.0322267 L99.2757895,22.1609717 L100.844049,22.1609717 C102.01587,22.1609717 102.86251,22.3812146 103.38332,22.8217004 C103.957895,23.311417 104.245506,23.9591903 104.245506,24.7637247 C104.245506,25.3920648 104.064777,25.9316599 103.704615,26.3838057 C103.345101,26.8353036 102.870283,27.1248583 102.280162,27.2511741 L102.280162,27.2511741 Z" id="Fill-18"></path>
            <polygon id="Fill-19" points="111.254413 23.4194656 107.698138 23.4194656 107.698138 25.5506397 111.150769 25.5506397 111.150769 26.8092632 107.698138 26.8092632 107.698138 29.7741215 111.254413 29.7741215 111.254413 31.0327449 106.35919 31.0327449 106.35919 22.1608421 111.254413 22.1608421"></polygon>
            <path d="M114.350769,26.1883725 L114.850202,26.1883725 C116.079676,26.1883725 116.694413,25.715498 116.694413,24.769749 C116.694413,23.8544453 116.060891,23.3958219 114.793198,23.3958219 L114.350769,23.3958219 L114.350769,26.1883725 Z M114.350769,27.4295061 L114.350769,31.0324211 L113.01247,31.0324211 L113.01247,22.161166 L114.528907,22.161166 C115.271903,22.161166 115.832874,22.2129879 116.211822,22.315336 C116.595304,22.4189798 116.932146,22.6146073 117.222996,22.9022186 C117.732794,23.3997085 117.987368,24.0280486 117.987368,24.7865911 C117.987368,25.598251 117.715304,26.2421377 117.171174,26.7176032 C116.627692,27.1930688 115.893765,27.4295061 114.971336,27.4295061 L114.350769,27.4295061 Z" id="Fill-20"></path>
            <path d="M124.681457,19.7768421 L122.337166,21.3619433 L121.699757,20.8281781 L123.543968,18.9781377 L124.681457,19.7768421 Z M120.705425,22.1612955 L120.705425,27.5002429 C120.705425,28.2626721 120.829798,28.8191093 121.078543,29.171498 C121.450364,29.6806478 121.973117,29.9345749 122.647449,29.9345749 C123.325668,29.9345749 123.850364,29.6806478 124.221538,29.171498 C124.470283,28.8307692 124.595304,28.2736842 124.595304,27.5002429 L124.595304,22.1612955 L125.933603,22.1612955 L125.933603,27.8720648 C125.933603,28.8068016 125.642753,29.577004 125.060405,30.1813765 C124.405506,30.8557085 123.600972,31.1931984 122.647449,31.1931984 C121.693279,31.1931984 120.891336,30.8557085 120.240324,30.1813765 C119.657976,29.577004 119.367126,28.8068016 119.367126,27.8720648 L119.367126,22.1612955 L120.705425,22.1612955 Z" id="Fill-21"></path>
            <path d="M129.398543,29.7741215 L130.225749,29.7741215 C130.830769,29.7741215 131.275142,29.6549312 131.558866,29.4171984 C131.85749,29.1613279 132.007126,28.8361457 132.007126,28.441004 C132.007126,28.05817 131.86332,27.7362267 131.576356,27.4758219 C131.296518,27.2193036 130.796437,27.0903968 130.076761,27.0903968 L129.398543,27.0903968 L129.398543,29.7741215 Z M129.398543,25.9703968 L129.8183,25.9703968 C130.315789,25.9703968 130.680486,25.8596275 130.912389,25.6400324 C131.143644,25.4191417 131.259595,25.0946073 131.259595,24.6657814 C131.259595,24.2479676 131.141053,23.9312065 130.90332,23.7148502 C130.666235,23.4984939 130.321619,23.3903158 129.869474,23.3903158 L129.398543,23.3903158 L129.398543,25.9703968 Z M128.060243,31.0327449 L128.060243,22.1608421 L129.392713,22.1608421 C129.986721,22.1608421 130.459595,22.206834 130.811984,22.2988178 C131.168259,22.3901538 131.468826,22.5456194 131.714332,22.763919 C131.963077,22.9899919 132.16,23.2717733 132.305749,23.6086154 C132.454737,23.9493441 132.529879,24.2939595 132.529879,24.6431093 C132.529879,25.2792227 132.286316,25.8162267 131.800486,26.2573603 C132.270769,26.4186559 132.642591,26.6997895 132.914656,27.1020567 C133.190607,27.501085 133.327935,27.9635951 133.327935,28.4928259 C133.327935,29.1859433 133.083077,29.7721781 132.592713,30.2515304 C132.297976,30.5456194 131.966964,30.7503158 131.599028,30.8662672 C131.196761,30.9763887 130.692794,31.0327449 130.087773,31.0327449 L128.060243,31.0327449 Z" id="Fill-22"></path>
            <polygon id="Fill-23" points="136.355628 22.1611012 136.355628 29.7743806 138.964211 29.7743806 138.964211 31.0323563 135.017328 31.0323563 135.017328 22.1611012"></polygon>
            <polygon id="Fill-24" points="140.234494 31.0324858 141.572794 31.0324858 141.572794 22.1612308 140.234494 22.1612308"></polygon>
            <path d="M66.3578947,35.497004 L66.3578947,40.8359514 C66.3578947,41.5977328 66.4816194,42.1548178 66.7310121,42.5072065 C67.102834,43.0157085 67.625587,43.2702834 68.299919,43.2702834 C68.9774899,43.2702834 69.5021862,43.0157085 69.8740081,42.5072065 C70.122753,42.16583 70.2471255,41.6087449 70.2471255,40.8359514 L70.2471255,35.497004 L71.5860729,35.497004 L71.5860729,41.2077733 C71.5860729,42.1418623 71.2945749,42.9120648 70.7122267,43.5177328 C70.0573279,44.1920648 69.2534413,44.5289069 68.299919,44.5289069 C67.345749,44.5289069 66.5431579,44.1920648 65.8921457,43.5177328 C65.3097976,42.9120648 65.0189474,42.1418623 65.0189474,41.2077733 L65.0189474,35.497004 L66.3578947,35.497004 Z" id="Fill-25"></path>
            <path d="M75.4034008,39.5700729 L75.8289879,39.5700729 C77.0966802,39.5700729 77.7302024,39.0861862 77.7302024,38.1164696 C77.7302024,37.2089393 77.1135223,36.755498 75.8808097,36.755498 L75.4034008,36.755498 L75.4034008,39.5700729 Z M77.0694737,40.5870769 L79.8160324,44.3674818 L78.1784615,44.3674818 L75.6443725,40.7367126 L75.4034008,40.7367126 L75.4034008,44.3674818 L74.0651012,44.3674818 L74.0651012,35.4968745 L75.6333603,35.4968745 C76.8051822,35.4968745 77.6518219,35.7171174 78.1726316,36.1576032 C78.7472065,36.6473198 79.0348178,37.2950931 79.0348178,38.0996275 C79.0348178,38.7279676 78.8547368,39.2675628 78.4945749,39.7197085 C78.134413,40.1718543 77.6595951,40.4607611 77.0694737,40.5870769 L77.0694737,40.5870769 Z" id="Fill-26"></path>
            <path d="M82.7083401,35.497004 L82.7083401,40.8359514 C82.7083401,41.5977328 82.8333603,42.1548178 83.0821053,42.5072065 C83.4532794,43.0157085 83.9760324,43.2702834 84.6503644,43.2702834 C85.328583,43.2702834 85.8532794,43.0157085 86.2244534,42.5072065 C86.4731984,42.16583 86.5982186,41.6087449 86.5982186,40.8359514 L86.5982186,35.497004 L87.937166,35.497004 L87.937166,41.2077733 C87.937166,42.1418623 87.645668,42.9120648 87.0633198,43.5177328 C86.4084211,44.1920648 85.6038866,44.5289069 84.6503644,44.5289069 C83.6968421,44.5289069 82.894251,44.1920648 82.2432389,43.5177328 C81.6602429,42.9120648 81.3700405,42.1418623 81.3700405,41.2077733 L81.3700405,35.497004 L82.7083401,35.497004 Z" id="Fill-27"></path>
            <path d="M94.977166,39.7484049 L98.642915,39.7484049 L98.642915,40.0411984 C98.642915,40.7077571 98.5638866,41.2978785 98.4071255,41.810915 C98.2536032,42.2863806 97.9951417,42.7301053 97.6317409,43.1440324 C96.8077733,44.070996 95.7603239,44.5341538 94.4887449,44.5341538 C93.2476113,44.5341538 92.1846154,44.0865425 91.3004049,43.1900243 C90.4155466,42.2896194 89.9731174,41.2097814 89.9731174,39.9498623 C89.9731174,38.6620891 90.4233198,37.5712389 91.3230769,36.6747206 C92.222834,35.7743158 93.3182186,35.3247611 94.6092308,35.3247611 C95.3023482,35.3247611 95.9494737,35.4653279 96.5512551,35.7471093 C97.12583,36.0301862 97.6906883,36.4881619 98.2464777,37.1229798 L97.2929555,38.0363401 C96.5648583,37.0666235 95.6780567,36.5827368 94.6325506,36.5827368 C93.6939271,36.5827368 92.9068826,36.9066235 92.271417,37.553749 C91.6353036,38.1892146 91.317247,38.9859757 91.317247,39.9433846 C91.317247,40.9318866 91.6715789,41.7461377 92.3802429,42.3854899 C93.042915,42.9788502 93.7606478,43.2761781 94.5347368,43.2761781 C95.1935223,43.2761781 95.7849393,43.0546397 96.3096356,42.6115628 C96.834332,42.1639514 97.1277733,41.6288907 97.1893117,41.0070283 L94.977166,41.0070283 L94.977166,39.7484049 Z" id="Fill-28"></path>
            <path d="M102.017814,35.497004 L102.017814,40.8359514 C102.017814,41.5977328 102.142186,42.1548178 102.390931,42.5072065 C102.762753,43.0157085 103.285506,43.2702834 103.959838,43.2702834 C104.637409,43.2702834 105.162753,43.0157085 105.533927,42.5072065 C105.782672,42.16583 105.907692,41.6087449 105.907692,40.8359514 L105.907692,35.497004 L107.245992,35.497004 L107.245992,41.2077733 C107.245992,42.1418623 106.955142,42.9120648 106.372794,43.5177328 C105.717895,44.1920648 104.91336,44.5289069 103.959838,44.5289069 C103.005668,44.5289069 102.203077,44.1920648 101.552713,43.5177328 C100.969717,42.9120648 100.679514,42.1418623 100.679514,41.2077733 L100.679514,35.497004 L102.017814,35.497004 Z" id="Fill-29"></path>
            <path d="M114.010688,40.9550121 L112.695061,37.9389798 L111.315951,40.9550121 L114.010688,40.9550121 Z M114.556761,42.2136356 L110.758866,42.2136356 L109.771012,44.3674818 L108.328421,44.3674818 L112.717733,34.9391417 L116.952227,44.3674818 L115.486964,44.3674818 L114.556761,42.2136356 Z" id="Fill-30"></path>
            <polygon id="Fill-31" points="119.431255 40.5355142 116.535709 35.4971336 118.075466 35.4971336 120.102996 39.041749 122.137004 35.4971336 123.677409 35.4971336 120.769555 40.5355142 120.769555 44.3677409 119.431255 44.3677409"></polygon>
            <path d="M47.588664,29.5410526 L47.574413,0 L0.0239676113,0 L0.0239676113,30.0016194 C0.0239676113,30.2121457 0.0129554656,30.365668 0,30.5049393 L0.0492307692,30.5412146 C0.482591093,43.2893927 10.9434818,53.4950607 23.7985425,53.4950607 C36.8187854,53.4950607 47.388502,43.0251012 47.5634008,30.0476113 L47.6003239,30.0333603 C47.5944939,29.8649393 47.588664,29.6991093 47.588664,29.5410526 L47.588664,29.5410526 Z M1.14785425,32.1178947 L7.74024291,32.1178947 L7.74024291,32.5525506 L1.19902834,32.5525506 C1.19060729,32.48 1.15562753,32.1904453 1.14785425,32.1178947 L1.14785425,32.1178947 Z M1.77295547,35.4830769 L7.41376518,35.4830769 L7.41376518,34.7232389 L1.58639676,34.7232389 L1.53781377,34.5049393 C1.45165992,34.1117409 1.37522267,33.7140081 1.30979757,33.3123887 L7.74024291,33.3123887 L7.74024291,34.5049393 L7.74024291,34.7232389 L7.74024291,34.9389474 L7.74024291,35.4830769 L7.74024291,35.8082591 L7.74024291,41.9931984 L7.41376518,41.9931984 L7.41376518,35.8082591 L1.86234818,35.8082591 C1.83190283,35.6994332 1.80275304,35.5912551 1.77295547,35.4830769 L1.77295547,35.4830769 Z M3.50834008,40.0025911 C2.99789474,39.005668 2.55870445,37.9666397 2.19659919,36.8932794 L3.50834008,36.8932794 L3.50834008,40.0025911 Z M4.37635628,41.5436437 L4.37635628,36.8932794 L6.32939271,36.8932794 L6.32939271,41.9931984 L4.6594332,41.9931984 C4.56356275,41.8448583 4.46898785,41.6945749 4.37635628,41.5436437 L4.37635628,41.5436437 Z M14.9013765,48.8323887 L11.5608097,48.8323887 C11.2116599,48.6231579 10.5768421,48.1781377 10.5768421,48.1781377 L14.9013765,48.1781377 L14.9013765,48.8323887 Z M15.9863968,50.0217004 L15.9863968,50.3475304 L15.3353846,50.3475304 L15.3353846,49.9135223 L15.9863968,49.9135223 L15.9863968,50.0217004 Z M15.9863968,49.0461538 L15.3353846,49.0461538 L15.3353846,48.6121457 L15.9863968,48.6121457 L15.9863968,49.0461538 Z M16.0952227,48.1781377 L15.9863968,48.1781377 L15.7693927,48.1781377 L15.6605668,48.1781377 L15.3353846,48.1781377 C15.3353846,46.7763563 16.32,45.6045344 17.6349798,45.3156275 L17.7289069,45.739919 L17.7768421,45.9510931 L17.8234818,46.162915 C16.8965182,46.3663158 16.2034008,47.1902834 16.2034008,48.1781377 L16.0952227,48.1781377 Z M17.7444534,45.0306073 L18.7860729,45.0306073 L18.5250202,46.2030769 L18.2652632,46.3332794 L18.0042105,46.2030769 L17.7444534,45.0306073 Z M20.0012955,52.0945749 C18.8100405,51.894413 17.6498785,51.6022672 16.5292308,51.2252632 L16.5292308,48.1781377 C16.5292308,47.2187854 17.3059109,46.4414575 18.2652632,46.4414575 C19.2239676,46.4414575 20.0012955,47.2187854 20.0012955,48.1781377 L20.0012955,52.0945749 Z M20.4353036,50.9447773 C20.4055061,50.9447773 20.3808907,50.9208097 20.3808907,50.8903644 C20.3808907,50.8605668 20.4055061,50.8359514 20.4353036,50.8359514 C20.4651012,50.8359514 20.4890688,50.8605668 20.4890688,50.8903644 C20.4890688,50.9208097 20.4651012,50.9447773 20.4353036,50.9447773 L20.4353036,50.9447773 Z M21.5203239,51.7583806 L20.5441296,51.7583806 L20.5441296,51.3243725 L21.5203239,51.3243725 L21.5203239,51.7583806 Z M20.6516599,50.9447773 C20.6516599,50.914332 20.6769231,50.8903644 20.7067206,50.8903644 C20.7365182,50.8903644 20.7604858,50.914332 20.7604858,50.9447773 C20.7604858,50.9739271 20.7365182,50.9991903 20.7067206,50.9991903 C20.6769231,50.9991903 20.6516599,50.9739271 20.6516599,50.9447773 L20.6516599,50.9447773 Z M20.9774899,50.7277733 C20.9774899,50.6979757 21.0014575,50.6733603 21.0325506,50.6733603 C21.0617004,50.6733603 21.085668,50.6979757 21.085668,50.7277733 C21.085668,50.7575709 21.0617004,50.7815385 21.0325506,50.7815385 C21.0014575,50.7815385 20.9774899,50.7575709 20.9774899,50.7277733 L20.9774899,50.7277733 Z M21.5203239,50.3475304 L20.5441296,50.3475304 L20.5441296,49.9135223 L21.5203239,49.9135223 L21.5203239,50.3475304 Z M21.5203239,49.0461538 L20.5441296,49.0461538 L20.5441296,48.6121457 L21.5203239,48.6121457 L21.5203239,49.0461538 Z M21.6291498,48.1781377 L21.5203239,48.1781377 L21.3033198,48.1781377 L21.1951417,48.1781377 L20.868664,48.1781377 L20.7604858,48.1781377 L20.5441296,48.1781377 L20.4353036,48.1781377 L20.3264777,48.1781377 C20.3264777,47.1902834 19.6327126,46.3663158 18.7070445,46.162915 L18.851498,45.5119028 L18.8948988,45.3156275 C19.8924696,45.5352227 20.7008907,46.2626721 21.0325506,47.2123077 C21.3635628,46.2626721 22.1706883,45.5352227 23.1689069,45.3156275 L23.2123077,45.5125506 L23.2129555,45.5119028 L23.3580567,46.162915 L23.3574089,46.162915 C22.4304453,46.3663158 21.7373279,47.1902834 21.7373279,48.1781377 L21.6291498,48.1781377 Z M23.2783806,45.0306073 L24.32,45.0306073 L24.0595951,46.2030769 L23.7985425,46.3332794 L23.5381377,46.2030769 L23.2783806,45.0306073 Z M25.5345749,52.3439676 C24.9625911,52.3880162 24.382834,52.4087449 23.7985425,52.4087449 C23.2148988,52.4087449 22.6357895,52.3880162 22.0625101,52.3439676 L22.0625101,48.1781377 C22.0625101,47.2187854 22.8398381,46.4414575 23.7985425,46.4414575 C24.7578947,46.4414575 25.5345749,47.2187854 25.5345749,48.1781377 L25.5345749,52.3439676 Z M27.054251,51.7583806 L26.0774089,51.7583806 L26.0774089,51.3243725 L27.054251,51.3243725 L27.054251,51.7583806 Z M27.054251,50.3475304 L26.0774089,50.3475304 L26.0774089,49.9135223 L27.054251,49.9135223 L27.054251,50.3475304 Z M27.054251,49.0461538 L26.0774089,49.0461538 L26.0774089,48.6121457 L27.054251,48.6121457 L27.054251,49.0461538 Z M27.1624291,48.1781377 L27.054251,48.1781377 L26.837247,48.1781377 L26.7284211,48.1781377 L26.4025911,48.1781377 L26.294413,48.1781377 L26.0774089,48.1781377 L25.9692308,48.1781377 L25.8604049,48.1781377 C25.8604049,47.1902834 25.1666397,46.3663158 24.2409717,46.162915 L24.3847773,45.5119028 L24.4288259,45.3156275 C25.4270445,45.5352227 26.2348178,46.2626721 26.56583,47.2123077 C26.8968421,46.2626721 27.7046154,45.5352227 28.702834,45.3156275 L28.7468826,45.5119028 L28.8906883,46.162915 C27.9643725,46.3663158 27.2712551,47.1902834 27.2712551,48.1781377 L27.1624291,48.1781377 Z M28.8116599,45.0306073 L29.8532794,45.0306073 L29.5935223,46.2030769 L29.3324696,46.3332794 L29.0720648,46.2030769 L28.8116599,45.0306073 Z M31.068502,51.2252632 C29.948502,51.6022672 28.7876923,51.894413 27.5964372,52.0945749 L27.5964372,48.1781377 C27.5964372,47.2187854 28.3737652,46.4414575 29.3324696,46.4414575 C30.2918219,46.4414575 31.068502,47.2187854 31.068502,48.1781377 L31.068502,51.2252632 Z M32.262996,50.0217004 L32.262996,50.3475304 L31.611336,50.3475304 L31.611336,49.9135223 L32.262996,49.9135223 L32.262996,50.0217004 Z M32.262996,49.0461538 L31.6119838,49.0461538 L31.6119838,48.6121457 L32.262996,48.6121457 L32.262996,49.0461538 Z M31.937166,48.1781377 L31.8283401,48.1781377 L31.611336,48.1781377 L31.5025101,48.1781377 L31.394332,48.1781377 C31.394332,47.1902834 30.7005668,46.3663158 29.7736032,46.162915 L29.9187045,45.5119028 L29.9621053,45.3156275 C31.2777328,45.6045344 32.262996,46.7763563 32.262996,48.1781377 L31.937166,48.1781377 Z M36.0291498,48.8323887 L32.6892308,48.8323887 L32.6892308,48.1781377 L37.0124696,48.1781377 C37.0124696,48.1781377 36.3789474,48.6231579 36.0291498,48.8323887 L36.0291498,48.8323887 Z M41.7023482,43.728583 C41.3642105,44.1451012 40.7779757,44.9204858 39.9131984,45.7379757 C39.6527935,46.0119838 39.462996,46.1732794 39.2965182,46.3332794 L32.6892308,46.3332794 L32.6892308,45.6816194 L39.8581377,45.6816194 L39.8581377,43.945587 L32.6963563,43.945587 L32.262996,43.945587 L32.262996,44.271417 L15.3353846,44.271417 L15.3353846,43.945587 L14.9013765,43.945587 L14.5755466,43.945587 L7.74024291,43.945587 L7.74024291,45.6816194 L14.9013765,45.6816194 L14.9013765,45.7904453 L14.9013765,46.3332794 L8.2934413,46.3332794 C8.11595142,46.1622672 7.91190283,45.9906073 7.62364372,45.6816194 L7.62558704,45.6816194 C6.79319838,44.8848583 6.22574899,44.1360324 5.89538462,43.728583 L5.90315789,43.728583 C5.87465587,43.6923077 5.84615385,43.6566802 5.81765182,43.6210526 L7.74024291,43.6210526 L7.74024291,42.9693927 L14.9013765,42.9693927 L14.9013765,43.1054251 L14.9013765,43.2952227 L14.9013765,43.4034008 L32.6963563,43.4034008 L32.6963563,42.9693927 L39.8581377,42.9693927 L39.8581377,43.6210526 L41.7807287,43.6210526 C41.7515789,43.6566802 41.7230769,43.6923077 41.6952227,43.728583 L41.7023482,43.728583 Z M23.7985425,25.2819433 L32.262996,25.2819433 L32.262996,25.9232389 L23.7985425,25.9232389 L15.3353846,25.9232389 L15.3353846,25.2819433 L23.7985425,25.2819433 Z M17.017004,22.5697166 C17.017004,21.9102834 17.551417,21.3765182 18.2108502,21.3765182 C18.8696356,21.3765182 19.4046964,21.9102834 19.4046964,22.5697166 C19.4046964,23.2291498 18.8696356,23.7622672 18.2108502,23.7622672 C17.551417,23.7622672 17.017004,23.2291498 17.017004,22.5697166 L17.017004,22.5697166 Z M22.6053441,22.5697166 C22.6053441,21.9102834 23.1397571,21.3765182 23.7985425,21.3765182 C24.4579757,21.3765182 24.9923887,21.9102834 24.9923887,22.5697166 C24.9923887,23.2291498 24.4579757,23.7622672 23.7985425,23.7622672 C23.1397571,23.7622672 22.6053441,23.2291498 22.6053441,22.5697166 L22.6053441,22.5697166 Z M28.1936842,22.5697166 C28.1936842,21.9102834 28.7274494,21.3765182 29.3868826,21.3765182 C30.0463158,21.3765182 30.5807287,21.9102834 30.5807287,22.5697166 C30.5807287,23.2291498 30.0463158,23.7622672 29.3868826,23.7622672 C28.7274494,23.7622672 28.1936842,23.2291498 28.1936842,22.5697166 L28.1936842,22.5697166 Z M32.262996,26.6927935 L32.262996,27.2356275 L31.068502,27.2356275 L31.068502,27.7784615 L23.7985425,27.7784615 L16.5292308,27.7784615 L16.5292308,27.2356275 L15.3353846,27.2356275 L15.3353846,26.6927935 L32.262996,26.6927935 Z M31.068502,28.9716599 L16.5292308,28.9716599 L16.5292308,28.5376518 L31.068502,28.5376518 L31.068502,28.9716599 Z M33.1303644,29.8396761 L33.1303644,29.2974899 L39.2071255,29.2974899 L39.2071255,29.8396761 L39.2071255,30.2736842 L39.2071255,30.5995142 L32.262996,30.5995142 L32.262996,31.3593522 L15.3353846,31.3593522 L15.3353846,30.5995142 L8.39125506,30.5995142 L8.39125506,29.2974899 L14.4673684,29.2974899 L14.4673684,29.8396761 L33.1303644,29.8396761 Z M32.3705263,28.9716599 L32.3705263,28.5382996 L32.4353036,28.5382996 C33.3305263,27.4759514 34.671417,26.8016194 36.1690688,26.8016194 C37.6660729,26.8016194 39.0063158,27.4759514 39.9015385,28.5382996 L39.9663158,28.5382996 L39.9663158,28.7546559 L39.9663158,28.9716599 L32.3705263,28.9716599 Z M37.7956275,39.931336 L39.2064777,39.931336 L39.2064777,40.1489879 L37.7956275,40.1489879 L37.7956275,39.931336 Z M39.2071255,41.5585425 L37.7962753,41.5585425 L37.7962753,41.3408907 L39.2071255,41.3408907 L39.2071255,41.5585425 Z M37.7956275,38.5204858 L39.2064777,38.5204858 L39.2064777,38.7381377 L37.7956275,38.7381377 L37.7956275,38.5204858 Z M37.7956275,37.1096356 L39.2064777,37.1096356 L39.2064777,37.3279352 L37.7956275,37.3279352 L37.7956275,37.1096356 Z M37.7956275,35.6994332 L39.2064777,35.6994332 L39.2064777,35.9157895 L37.7956275,35.9157895 L37.7956275,35.6994332 Z M37.7956275,34.288583 L39.2064777,34.288583 L39.2064777,34.5049393 L37.7956275,34.5049393 L37.7956275,34.288583 Z M37.4710931,32.5525506 L37.4710931,33.5287449 L37.2262348,33.5287449 C36.9891498,33.8578138 36.6037247,34.0715789 36.1690688,34.0715789 C35.7331174,34.0715789 35.3476923,33.8578138 35.1112551,33.5287449 L34.8663968,33.5287449 L34.8663968,32.5525506 L33.1303644,32.5525506 L33.1303644,31.6851822 L39.2071255,31.6851822 L39.2071255,32.5525506 L37.4710931,32.5525506 Z M37.2534413,41.5585425 L35.0840486,41.5585425 L35.0840486,35.6994332 L37.2534413,35.6994332 L37.2534413,41.5585425 Z M33.1303644,39.931336 L34.5405668,39.931336 L34.5405668,40.1489879 L33.1303644,40.1489879 L33.1303644,39.931336 Z M34.5412146,41.5585425 L33.1310121,41.5585425 L33.1310121,41.3408907 L34.5412146,41.3408907 L34.5412146,41.5585425 Z M33.1303644,38.5204858 L34.5405668,38.5204858 L34.5405668,38.7381377 L33.1303644,38.7381377 L33.1303644,38.5204858 Z M33.1303644,37.1096356 L34.5405668,37.1096356 L34.5405668,37.3279352 L33.1303644,37.3279352 L33.1303644,37.1096356 Z M33.1303644,35.6994332 L34.5405668,35.6994332 L34.5405668,35.9157895 L33.1303644,35.9157895 L33.1303644,35.6994332 Z M33.1303644,34.288583 L34.5405668,34.288583 L34.5405668,34.5049393 L33.1303644,34.5049393 L33.1303644,34.288583 Z M30.2717409,33.5287449 L31.068502,33.5287449 L31.068502,34.7232389 L30.2011336,34.7232389 C30.002915,34.9862348 29.6874494,35.157247 29.3324696,35.157247 C28.9774899,35.157247 28.6626721,34.9862348 28.4644534,34.7232389 L27.5964372,34.7232389 L27.5964372,33.5287449 L28.3931984,33.5287449 C28.4391903,33.4490688 28.4948988,33.3778138 28.5583806,33.3123887 L25.3596761,33.3123887 C25.0785425,32.7345749 24.4851822,32.3355466 23.7985425,32.3355466 C23.1125506,32.3355466 22.5198381,32.7345749 22.2374089,33.3123887 L19.04,33.3123887 C19.102834,33.3778138 19.1585425,33.4490688 19.2045344,33.5287449 L20.0012955,33.5287449 L20.0012955,34.7232389 L19.1332794,34.7232389 C18.9350607,34.9862348 18.6202429,35.157247 18.2652632,35.157247 C17.9096356,35.157247 17.5948178,34.9862348 17.3965992,34.7232389 L16.5292308,34.7232389 L16.5292308,33.5287449 L17.3253441,33.5287449 C17.371336,33.4490688 17.4270445,33.3778138 17.4905263,33.3123887 L15.3353846,33.3123887 L15.3353846,32.3355466 L32.262996,32.3355466 L32.262996,33.3123887 L30.1072065,33.3123887 C30.1706883,33.3778138 30.2263968,33.4490688 30.2717409,33.5287449 L30.2717409,33.5287449 Z M31.068502,42.9693927 L27.5964372,42.9693927 L27.5964372,42.3183806 L31.068502,42.3183806 L31.068502,42.9693927 Z M28.2474494,36.3504453 L30.4181377,36.3504453 L30.4181377,41.9931984 L28.2474494,41.9931984 L28.2474494,36.3504453 Z M27.5964372,35.3736032 L31.068502,35.3736032 L31.068502,35.9157895 L27.5964372,35.9157895 L27.5964372,35.3736032 Z M22.1894737,34.7232389 L21.6291498,34.7232389 L21.6291498,33.5287449 L22.1493117,33.5287449 C22.0936032,33.7004049 22.0625101,33.8824291 22.0625101,34.0715789 C22.0625101,34.3021862 22.108502,34.5217814 22.1894737,34.7232389 L22.1894737,34.7232389 Z M22.0625101,42.3183806 L25.5345749,42.3183806 L25.5345749,42.9693927 L22.0625101,42.9693927 L22.0625101,42.3183806 Z M22.7135223,41.9931984 L22.7135223,36.3504453 L24.8842105,36.3504453 L24.8842105,41.9931984 L23.7985425,41.9931984 L22.7135223,41.9931984 Z M23.7985425,35.9157895 L22.0625101,35.9157895 L22.0625101,35.3736032 L22.6506883,35.3736032 C22.957085,35.6443725 23.3587045,35.8082591 23.7985425,35.8082591 C24.2390283,35.8082591 24.6406478,35.6443725 24.9470445,35.3736032 L25.5345749,35.3736032 L25.5345749,35.9157895 L23.7985425,35.9157895 Z M22.7135223,34.0715789 C22.7135223,33.4723887 23.2,32.9865587 23.7985425,32.9865587 C24.0984615,32.9865587 24.3698785,33.1076923 24.5668016,33.3046154 C24.7630769,33.5008907 24.8842105,33.7716599 24.8842105,34.0715789 C24.8842105,34.671417 24.3983806,35.157247 23.7985425,35.157247 C23.2,35.157247 22.7135223,34.671417 22.7135223,34.0715789 L22.7135223,34.0715789 Z M25.4082591,34.7232389 C25.4892308,34.5217814 25.5345749,34.3021862 25.5345749,34.0715789 C25.5345749,33.8824291 25.5041296,33.7004049 25.4484211,33.5287449 L25.9692308,33.5287449 L25.9692308,34.7232389 L25.4082591,34.7232389 Z M20.0012955,42.9693927 L16.5292308,42.9693927 L16.5292308,42.3183806 L20.0012955,42.3183806 L20.0012955,42.9693927 Z M17.1802429,36.3504453 L19.3496356,36.3504453 L19.3496356,41.9931984 L17.1802429,41.9931984 L17.1802429,36.3504453 Z M16.5292308,35.9157895 L16.5292308,35.3736032 L20.0012955,35.3736032 L20.0012955,35.5912551 L20.0012955,35.9157895 L16.5292308,35.9157895 Z M13.057166,39.931336 L14.4680162,39.931336 L14.4680162,40.1489879 L13.057166,40.1489879 L13.057166,39.931336 Z M14.4673684,41.5585425 L13.0565182,41.5585425 L13.0565182,41.3408907 L14.4673684,41.3408907 L14.4673684,41.5585425 Z M13.057166,38.5204858 L14.4680162,38.5204858 L14.4680162,38.7381377 L13.057166,38.7381377 L13.057166,38.5204858 Z M13.057166,37.1096356 L14.4680162,37.1096356 L14.4680162,37.3279352 L13.057166,37.3279352 L13.057166,37.1096356 Z M13.057166,35.6994332 L14.4680162,35.6994332 L14.4680162,35.9157895 L13.057166,35.9157895 L13.057166,35.6994332 Z M13.057166,34.288583 L14.4680162,34.288583 L14.4680162,34.5049393 L13.057166,34.5049393 L13.057166,34.288583 Z M12.731336,32.5525506 L12.731336,33.5287449 L12.48583,33.5287449 C12.2500405,33.8578138 11.8646154,34.0715789 11.4293117,34.0715789 C10.9933603,34.0715789 10.6079352,33.8578138 10.371498,33.5287449 L10.1266397,33.5287449 L10.1266397,32.5525506 L8.39125506,32.5525506 L8.39125506,31.6851822 L14.4673684,31.6851822 L14.4673684,32.5525506 L12.731336,32.5525506 Z M12.514332,41.5585425 L10.3442915,41.5585425 L10.3442915,35.6994332 L12.514332,35.6994332 L12.514332,41.5585425 Z M8.39125506,38.5204858 L9.80145749,38.5204858 L9.80145749,38.7381377 L8.39125506,38.7381377 L8.39125506,38.5204858 Z M9.80210526,40.1489879 L8.39190283,40.1489879 L8.39190283,39.931336 L9.80210526,39.931336 L9.80210526,40.1489879 Z M8.39125506,37.1096356 L9.80145749,37.1096356 L9.80145749,37.3279352 L8.39125506,37.3279352 L8.39125506,37.1096356 Z M8.39125506,35.6994332 L9.80145749,35.6994332 L9.80145749,35.9157895 L8.39125506,35.9157895 L8.39125506,35.6994332 Z M8.39125506,34.288583 L9.80145749,34.288583 L9.80145749,34.5049393 L8.39125506,34.5049393 L8.39125506,34.288583 Z M15.2272065,28.9716599 L7.631417,28.9716599 L7.631417,28.5382996 L7.69554656,28.5382996 C8.591417,27.4759514 9.93101215,26.8016194 11.4293117,26.8016194 C12.9263158,26.8016194 14.2665587,27.4759514 15.1624291,28.5382996 L15.2272065,28.5382996 L15.2272065,28.9716599 Z M8.39125506,41.3415385 L9.80145749,41.3415385 L9.80145749,41.5591903 L8.39125506,41.5591903 L8.39125506,41.3415385 Z M43.2213765,41.5436437 C43.1287449,41.6945749 43.0348178,41.8448583 42.9382996,41.9931984 L41.2683401,41.9931984 L41.2683401,36.8932794 L43.2213765,36.8932794 L43.2213765,41.5436437 Z M44.0900405,40.0025911 L44.0900405,36.8932794 L45.4011336,36.8932794 C45.0396761,37.9666397 44.6004858,39.005668 44.0900405,40.0025911 L44.0900405,40.0025911 Z M46.0605668,34.5049393 L46.011336,34.7232389 L40.1833198,34.7232389 L40.1833198,35.4830769 L45.8241296,35.4830769 C45.7962753,35.5912551 45.76583,35.6994332 45.7353846,35.8082591 L40.1833198,35.8082591 L40.1833198,41.9931984 L39.8581377,41.9931984 L39.8581377,33.3123887 L46.2872874,33.3123887 C46.2225101,33.7140081 46.1467206,34.1117409 46.0605668,34.5049393 L46.0605668,34.5049393 Z M46.4110121,32.5525506 L39.8581377,32.5525506 L39.8581377,32.1178947 L46.4498785,32.1178947 C46.4414575,32.1904453 46.4194332,32.48 46.4110121,32.5525506 L46.4110121,32.5525506 Z M46.4887449,31.2505263 L39.8581377,31.2505263 L39.8581377,29.2974899 L40.7261538,29.2974899 L40.7261538,28.3212955 L40.1451012,28.3212955 C39.8691498,27.9961134 39.5536842,27.7039676 39.2071255,27.4545749 L39.2071255,25.9336032 L37.4678543,25.9336032 C37.0863158,26.1557895 36.6419433,26.2821053 36.1690688,26.2821053 C35.6955466,26.2821053 35.2511741,26.1557895 34.8696356,25.9336032 L32.4793522,25.9336032 L32.4793522,25.2819433 L34.1072065,25.2819433 L34.1072065,24.9561134 L38.2296356,24.9561134 L38.2296356,25.2819433 L39.8581377,25.2819433 L39.8581377,24.0880972 L39.2051822,24.0880972 C39.1280972,21.3214575 36.1217814,19.097004 32.4249393,19.097004 C32.4009717,19.097004 32.3763563,19.0976518 32.3517409,19.0976518 C32.3219433,19.097004 32.2921457,19.097004 32.262996,19.097004 L23.7985425,19.097004 L15.3353846,19.097004 C15.305587,19.097004 15.2757895,19.097004 15.2459919,19.0976518 C15.2213765,19.0976518 15.1974089,19.097004 15.1721457,19.097004 C11.4759514,19.097004 8.46963563,21.3214575 8.39255061,24.0880972 L7.74024291,24.0880972 L7.74024291,24.1969231 L7.74024291,25.2819433 L9.36744939,25.2819433 L9.36744939,24.9561134 L13.4905263,24.9561134 L13.4905263,25.2819433 L15.1183806,25.2819433 L15.1183806,25.9336032 L14.4673684,25.9336032 L12.7280972,25.9336032 C12.3465587,26.1557895 11.902834,26.2821053 11.4293117,26.2821053 C10.9551417,26.2821053 10.5120648,26.1557895 10.1298785,25.9336032 L8.39125506,25.9336032 L8.39125506,27.4545749 C8.04404858,27.7039676 7.728583,27.9961134 7.45327935,28.3212955 L6.87157895,28.3212955 L6.87157895,29.2974899 L7.74024291,29.2974899 L7.74024291,31.2505263 L1.10834008,31.2505263 L1.10834008,1.08502024 L46.4887449,1.08502024 L46.4887449,31.2505263 Z" id="Fill-32"></path>
            <path d="M32.2625425,17.794915 L31.7197085,17.2527287 L31.7197085,15.5166964 L31.5027045,15.5166964 L31.5027045,16.3847126 L23.7987368,16.3847126 L16.0947692,16.3847126 L16.0947692,15.5166964 L15.8777652,15.5166964 L15.8777652,17.2527287 L15.3349312,17.794915 L15.3349312,18.4459271 L32.2625425,18.4459271 L32.2625425,17.794915 Z M16.8584939,17.3609069 L16.095417,17.3609069 L16.095417,16.59783 L16.8584939,16.59783 L16.8584939,17.3609069 Z M17.8340405,17.3609069 L17.0709636,17.3609069 L17.0709636,16.59783 L17.8340405,16.59783 L17.8340405,17.3609069 Z M18.8108826,17.3609069 L18.0478057,17.3609069 L18.0478057,16.59783 L18.8108826,16.59783 L18.8108826,17.3609069 Z M19.7877247,17.3609069 L19.0246478,17.3609069 L19.0246478,16.59783 L19.7877247,16.59783 L19.7877247,17.3609069 Z M20.7645668,17.3609069 L20.0014899,17.3609069 L20.0014899,16.59783 L20.7645668,16.59783 L20.7645668,17.3609069 Z M21.7407611,17.3609069 L20.9776842,17.3609069 L20.9776842,16.59783 L21.7407611,16.59783 L21.7407611,17.3609069 Z M22.7169555,17.3609069 L21.9538785,17.3609069 L21.9538785,16.59783 L22.7169555,16.59783 L22.7169555,17.3609069 Z M23.6944453,17.3609069 L22.9307206,17.3609069 L22.9307206,16.59783 L23.6944453,16.59783 L23.6944453,17.3609069 Z M24.666753,17.3609069 L23.9036761,17.3609069 L23.9036761,16.59783 L24.666753,16.59783 L24.666753,17.3609069 Z M25.6429474,17.3609069 L24.8798704,17.3609069 L24.8798704,16.59783 L25.6429474,16.59783 L25.6429474,17.3609069 Z M26.6204372,17.3609069 L25.8567126,17.3609069 L25.8567126,16.59783 L26.6204372,16.59783 L26.6204372,17.3609069 Z M27.5966316,17.3609069 L26.8335547,17.3609069 L26.8335547,16.59783 L27.5966316,16.59783 L27.5966316,17.3609069 Z M28.5734737,17.3609069 L27.809749,17.3609069 L27.809749,16.59783 L28.5734737,16.59783 L28.5734737,17.3609069 Z M29.549668,17.3609069 L28.7865911,17.3609069 L28.7865911,16.59783 L29.549668,16.59783 L29.549668,17.3609069 Z M30.5258623,17.3609069 L29.7627854,17.3609069 L29.7627854,16.59783 L30.5258623,16.59783 L30.5258623,17.3609069 Z M31.5027045,17.3609069 L30.7389798,17.3609069 L30.7389798,16.59783 L31.5027045,16.59783 L31.5027045,17.3609069 Z" id="Fill-33"></path>
            <path d="M29.3051984,33.2842105 C28.8698947,33.2842105 28.5175061,33.6365992 28.5175061,34.0712551 C28.5175061,34.5072065 28.8698947,34.8582996 29.3051984,34.8582996 C29.7398543,34.8582996 30.0922429,34.5072065 30.0922429,34.0712551 C30.0922429,33.6365992 29.7398543,33.2842105 29.3051984,33.2842105" id="Fill-34"></path>
            <path d="M18.2646802,34.8585587 C18.6999838,34.8585587 19.0523725,34.5068178 19.0523725,34.0715142 C19.0523725,33.6368583 18.6999838,33.2844696 18.2646802,33.2844696 C17.8300243,33.2844696 17.4776356,33.6368583 17.4776356,34.0715142 C17.4776356,34.5068178 17.8300243,34.8585587 18.2646802,34.8585587" id="Fill-35"></path>
            <path d="M23.3212632,33.5931336 L23.6762429,34.1294899 C23.6827206,34.1443887 23.6917895,34.1566964 23.7028016,34.169004 C23.7494413,34.214996 23.8213441,34.2201781 23.8738138,34.1871417 C23.881587,34.180664 23.8893603,34.174834 23.8958381,34.1677085 C23.8984291,34.1657652 23.9003725,34.1625263 23.9029636,34.1599352 L23.9062024,34.1560486 C23.9107368,34.1502186 23.9139757,34.1450364 23.9172146,34.1398543 L24.5669312,33.3048745 L23.7941377,33.9060081 L23.3212632,33.5931336 Z" id="Fill-36"></path>
        </g>
    </g>
</svg>