<?xml version="1.0" encoding="UTF-8"?>
<svg width="142px" height="50px" viewBox="0 0 142 50" version="1.1" xmlns="http://www.w3.org/2000/svg" xmlns:xlink="http://www.w3.org/1999/xlink">
    <title>logo_caeg</title>
    <defs>
        <filter color-interpolation-filters="auto" id="filter-1">
            <feColorMatrix in="SourceGraphic" type="matrix" values="0 0 0 0 1.000000 0 0 0 0 1.000000 0 0 0 0 1.000000 0 0 0 1.000000 0"></feColorMatrix>
        </filter>
    </defs>
    <g id="logo_caeg" stroke="none" stroke-width="1" fill="none" fill-rule="evenodd">
        <g filter="url(#filter-1)" id="Group-38">
            <g transform="translate(0.000000, 16.000000)">
                <line x1="71.0453478" y1="0.776919761" x2="71.0453478" y2="17.9591776" id="Stroke-1" stroke="#443170" stroke-width="0.538613348"></line>
                <path d="M77.7705971,8.58795194 C77.0395793,8.58795194 76.475028,8.37782318 76.0766563,7.95759376 C75.6785716,7.53736435 75.4793857,6.94229003 75.4793857,6.17239893 C75.4793857,5.40456019 75.6823027,4.8089517 76.0878497,4.38560156 C76.4936837,3.96225142 77.0651233,3.75060446 77.8021684,3.75060446 C78.223788,3.75060446 78.7174475,3.81802335 79.2831468,3.95291736 L79.2831468,4.56615373 C78.6390934,4.34826533 78.1422768,4.23932113 77.792697,4.23932113 C77.2821038,4.23932113 76.8871763,4.40843064 76.6073402,4.7467059 C76.3277912,5.08495305 76.1880167,5.56225517 76.1880167,6.17861226 C76.1880167,6.76589882 76.3372626,7.22919986 76.6360413,7.56848725 C76.9348201,7.90780275 77.3426632,8.07744644 77.8595706,8.07744644 C78.3044382,8.07744644 78.781164,7.94359268 79.289461,7.67588514 L79.289461,8.23620977 C78.8256507,8.47071392 78.3190757,8.58795194 77.7705971,8.58795194 Z" id="Fill-2" fill="#443170"></path>
                <path d="M81.621715,8.5505876 C81.1280556,8.5505876 80.733989,8.39027796 80.4395154,8.06965869 C80.1450418,7.74903942 79.997805,7.31998201 79.997805,6.78251457 C79.997805,6.23880569 80.1456158,5.80870804 80.4412375,5.49222162 C80.7368591,5.17576331 81.1375269,5.01750604 81.6441019,5.01750604 C82.1503899,5.01750604 82.5513447,5.17576331 82.8466794,5.49222162 C83.142301,5.80870804 83.2901119,6.23672521 83.2901119,6.77627312 C83.2901119,7.32827582 83.141727,7.76200026 82.8452443,8.07744644 C82.5484746,8.39289262 82.1406315,8.5505876 81.621715,8.5505876 Z M81.6311864,8.08990122 C82.2944696,8.08990122 82.6259677,7.65201582 82.6259677,6.77627312 C82.6259677,5.91090473 82.2984877,5.47822053 81.6441019,5.47822053 C80.9914382,5.47822053 80.6651063,5.91298521 80.6651063,6.78251457 C80.6651063,7.6540963 80.987133,8.08990122 81.6311864,8.08990122 Z" id="Fill-3" fill="#443170"></path>
                <path d="M84.2622192,8.47276629 L84.2622192,5.09223474 L84.8881909,5.09223474 L84.8881909,5.72725995 C85.1932839,5.25409068 85.5853414,5.01750604 86.0640763,5.01750604 C86.5258775,5.01750604 86.8404419,5.25409068 87.0077695,5.72725995 C87.3045392,5.2520102 87.6899954,5.01441344 88.1644251,5.01441344 C88.4695182,5.01441344 88.7057285,5.10207486 88.8730561,5.27745394 C89.0406707,5.4528049 89.124191,5.69818942 89.124191,6.0136356 L89.124191,8.47276629 L88.4950622,8.47276629 L88.4950622,6.11012502 C88.4950622,5.72413922 88.339215,5.53113227 88.0278078,5.53113227 C87.703772,5.53113227 87.3636636,5.75630236 87.0077695,6.20661444 L87.0077695,8.47276629 L86.3786407,8.47276629 L86.3786407,6.11012502 C86.3786407,5.72205874 86.2196364,5.52803966 85.9019149,5.52803966 C85.5862024,5.52803966 85.2483901,5.75422188 84.8881909,6.20661444 L84.8881909,8.47276629 L84.2622192,8.47276629 Z" id="Fill-4" fill="#443170"></path>
                <path d="M90.3316476,8.47276629 L90.3316476,5.09223474 L90.9576193,5.09223474 L90.9576193,8.47276629 L90.3316476,8.47276629 Z M90.3316476,4.47899837 L90.3316476,3.865762 L90.9576193,3.865762 L90.9576193,4.47899837 L90.3316476,4.47899837 Z" id="Fill-5" fill="#443170"></path>
                <path d="M93.1213977,8.5505876 C92.8352474,8.5505876 92.4879637,8.48522107 92.0789726,8.35448803 L92.0789726,7.79107079 C92.4879637,7.99029108 92.8438578,8.08990122 93.1466547,8.08990122 C93.3268978,8.08990122 93.4761437,8.04216258 93.5949664,7.9467134 C93.7135021,7.85123611 93.7729134,7.73191761 93.7729134,7.58872978 C93.7729134,7.37913519 93.6064468,7.2058366 93.2738007,7.06889022 L92.9084353,6.91636834 C92.36828,6.69637134 92.0982023,6.37991303 92.0982023,5.96693719 C92.0982023,5.67226773 92.2046835,5.44035012 92.4173589,5.27121249 C92.6303213,5.10207486 92.9222118,5.01750604 93.2930305,5.01750604 C93.4856151,5.01750604 93.7241215,5.04345585 94.0079757,5.09532735 L94.1382788,5.12023691 L94.1382788,5.63074241 C93.788699,5.52905179 93.5111591,5.47822053 93.305659,5.47822053 C92.9032691,5.47822053 92.7017872,5.62140836 92.7017872,5.907784 C92.7017872,6.09249714 92.8544772,6.24813975 93.1595702,6.37471183 L93.4615061,6.49923153 C93.8024756,6.64033888 94.0438521,6.78923397 94.1859227,6.94591682 C94.3277063,7.10259967 94.3988851,7.29819317 94.3988851,7.53269732 C94.3988851,7.82944727 94.2792014,8.07328548 94.0398339,8.26421195 C93.8004665,8.45513842 93.4942254,8.5505876 93.1213977,8.5505876 Z" id="Fill-6" fill="#443170"></path>
                <path d="M95.5170812,8.47276629 L95.5170812,5.09223474 L96.1430529,5.09223474 L96.1430529,8.47276629 L95.5170812,8.47276629 Z M95.5170812,4.47899837 L95.5170812,3.865762 L96.1430529,3.865762 L96.1430529,4.47899837 L95.5170812,4.47899837 Z" id="Fill-7" fill="#443170"></path>
                <path d="M98.7422275,8.5505876 C98.248568,8.5505876 97.8547884,8.39027796 97.5603148,8.06965869 C97.2658412,7.74903942 97.1186044,7.31998201 97.1186044,6.78251457 C97.1186044,6.23880569 97.2661282,5.80870804 97.5617499,5.49222162 C97.8573715,5.17576331 98.2583264,5.01750604 98.7646143,5.01750604 C99.2709023,5.01750604 99.6718571,5.17576331 99.9674788,5.49222162 C100.262813,5.80870804 100.410624,6.23672521 100.410624,6.77627312 C100.410624,7.32827582 100.262239,7.76200026 99.9657567,8.07744644 C99.669274,8.39289262 99.2614309,8.5505876 98.7422275,8.5505876 Z M98.7519858,8.08990122 C99.414982,8.08990122 99.7464801,7.65201582 99.7464801,6.77627312 C99.7464801,5.91090473 99.4192872,5.47822053 98.7646143,5.47822053 C98.1119506,5.47822053 97.7859057,5.91298521 97.7859057,6.78251457 C97.7859057,7.6540963 98.1079324,8.08990122 98.7519858,8.08990122 Z M98.2942028,4.47899837 L99.060236,3.47977621 L99.7846526,3.47977621 L98.7646143,4.47899837 L98.2942028,4.47899837 Z" id="Fill-8" fill="#443170"></path>
                <path d="M101.382732,8.47276629 L101.382732,5.09223474 L102.008703,5.09223474 L102.008703,5.72725995 C102.33934,5.25409068 102.744026,5.01750604 103.222761,5.01750604 C103.52154,5.01750604 103.759759,5.11039679 103.937706,5.29612205 C104.115653,5.48184732 104.204627,5.7313928 104.204627,6.0447585 L104.204627,8.47276629 L103.578655,8.47276629 L103.578655,6.24397878 C103.578655,5.992887 103.541057,5.81388113 103.46586,5.70701741 C103.390663,5.60015369 103.2661,5.54670778 103.092458,5.54670778 C102.709011,5.54670778 102.347664,5.79262647 102.008703,6.28443574 L102.008703,8.47276629 L101.382732,8.47276629 Z" id="Fill-9" fill="#443170"></path>
                <path d="M109.195754,6.7109066 L108.394992,4.72491706 L107.591074,6.7109066 L109.195754,6.7109066 Z M109.901228,8.47276629 L109.389486,7.19650254 L107.397054,7.19650254 L106.879285,8.47276629 L106.259628,8.47276629 L108.124915,3.865762 L108.785902,3.865762 L110.622487,8.47276629 L109.901228,8.47276629 Z" id="Fill-10" fill="#443170"></path>
                <path d="M111.315045,8.51013064 L111.315045,3.55759751 L111.941017,3.55759751 L111.941017,5.72725995 C112.197605,5.25409068 112.581913,5.01750604 113.094803,5.01750604 C113.509821,5.01750604 113.836727,5.16589508 114.074946,5.46264502 C114.313453,5.75942309 114.432562,6.16511724 114.432562,6.6797837 C114.432562,7.24008022 114.29738,7.69196671 114.027302,8.03541507 C113.757225,8.37886342 113.401905,8.5505876 112.961055,8.5505876 C112.552351,8.5505876 112.212243,8.39702547 111.941017,8.08990122 L111.864959,8.51013064 L111.315045,8.51013064 Z M111.941017,7.66655108 C112.263044,7.94879388 112.570433,8.08990122 112.862611,8.08990122 C113.464473,8.08990122 113.765261,7.64060128 113.765261,6.7420295 C113.765261,5.94930932 113.498341,5.55292111 112.9645,5.55292111 C112.61492,5.55292111 112.273663,5.73867449 111.941017,6.11012502 L111.941017,7.66655108 Z" id="Fill-11" fill="#443170"></path>
                <path d="M115.40467,8.47276629 L115.40467,5.09223474 L116.030641,5.09223474 L116.030641,8.47276629 L115.40467,8.47276629 Z M115.40467,4.47899837 L115.40467,3.865762 L116.030641,3.865762 L116.030641,4.47899837 L115.40467,4.47899837 Z" id="Fill-12" fill="#443170"></path>
                <path d="M119.808859,8.36382209 C119.389248,8.4883418 119.030197,8.5505876 118.731418,8.5505876 C118.223121,8.5505876 117.80839,8.38510487 117.487511,8.0541113 C117.166345,7.72308961 117.005906,7.29406032 117.005906,6.76693907 C117.005906,6.25435308 117.147403,5.83412367 117.430109,5.50622271 C117.713102,5.17834986 118.074736,5.01441344 118.515299,5.01441344 C118.9329,5.01441344 119.255214,5.15968174 119.483101,5.45021836 C119.710701,5.74072686 119.824644,6.1537027 119.824644,6.68911776 L119.821487,6.87900399 L117.644793,6.87900399 C117.735776,7.68212659 118.137305,8.08365978 118.849093,8.08365978 C119.109699,8.08365978 119.429717,8.01520064 119.808859,7.87822615 L119.808859,8.36382209 Z M117.673207,6.41828951 L119.195515,6.41828951 C119.195515,5.78950574 118.956148,5.47509981 118.477413,5.47509981 C117.996382,5.47509981 117.728313,5.78950574 117.673207,6.41828951 Z" id="Fill-13" fill="#443170"></path>
                <path d="M120.898641,8.47276629 L120.898641,5.09223474 L121.524612,5.09223474 L121.524612,5.72725995 C121.772303,5.25409068 122.132502,5.01750604 122.604923,5.01750604 C122.668639,5.01750604 122.735226,5.02270725 122.805257,5.03308155 L122.805257,5.60586096 C122.697053,5.5705771 122.601766,5.55292111 122.519106,5.55292111 C122.123031,5.55292111 121.791533,5.78329241 121.524612,6.24397878 L121.524612,8.47276629 L120.898641,8.47276629 Z" id="Fill-14" fill="#443170"></path>
                <path d="M124.590754,8.5505876 C124.273033,8.5505876 124.025055,8.46135175 123.847108,8.28288006 C123.669161,8.10443649 123.580187,7.85643731 123.580187,7.53891065 L123.580187,5.55292111 L123.148235,5.55292111 L123.148235,5.09223474 L123.580187,5.09223474 L123.580187,4.47899837 L124.206446,4.41984518 L124.206446,5.09223474 L125.10881,5.09223474 L125.10881,5.55292111 L124.206446,5.55292111 L124.206446,7.42687384 C124.206446,7.8688921 124.401327,8.08990122 124.791088,8.08990122 C124.873747,8.08990122 124.974201,8.0764062 125.093024,8.04941615 L125.093024,8.47276629 C124.900152,8.5246659 124.732825,8.5505876 124.590754,8.5505876 Z" id="Fill-15" fill="#443170"></path>
                <path d="M127.761942,8.04320282 C127.387106,8.38147808 127.025758,8.5505876 126.678475,8.5505876 C126.392324,8.5505876 126.154966,8.46292617 125.966686,8.28757521 C125.77812,8.11219613 125.683693,7.89068094 125.683693,7.6229734 C125.683693,7.25357524 125.842124,6.96978614 126.158697,6.7716061 C126.475558,6.57342605 126.929322,6.47432197 127.520566,6.47432197 L127.669812,6.47432197 L127.669812,6.06654734 C127.669812,5.67432009 127.464312,5.47822053 127.053311,5.47822053 C126.722961,5.47822053 126.365919,5.57783067 125.982472,5.77705096 L125.982472,5.26966619 C126.404092,5.1015688 126.799019,5.01750604 127.167829,5.01750604 C127.553285,5.01750604 127.837713,5.10260904 128.021114,5.27278691 C128.204227,5.44293667 128.295783,5.70752348 128.295783,6.06654734 L128.295783,7.59806384 C128.295783,7.94879388 128.405996,8.12414485 128.62642,8.12414485 C128.653973,8.12414485 128.694155,8.11998388 128.747252,8.11169006 L128.791739,8.45097745 C128.649668,8.51738421 128.49296,8.5505876 128.321327,8.5505876 C128.028863,8.5505876 127.842592,8.38147808 127.761942,8.04320282 Z M127.669812,7.71012877 L127.669812,6.83542631 L127.460006,6.82918486 C127.117028,6.82918486 126.839488,6.89300508 126.627674,7.02064551 C126.415572,7.14825783 126.309665,7.31584916 126.309665,7.52336326 C126.309665,7.67071205 126.362762,7.79520364 126.468669,7.89689427 C126.574576,7.9985849 126.703732,8.04941615 126.856422,8.04941615 C127.117028,8.04941615 127.387967,7.9363391 127.669812,7.71012877 Z" id="Fill-16" fill="#443170"></path>
                <path d="M77.9898738,16.124276 L77.9898738,15.489279 C77.7355817,15.9645006 77.3521346,16.2020974 76.8395324,16.2020974 C76.424227,16.2020974 76.0973211,16.0537364 75.8591017,15.7569584 C75.6208823,15.4602084 75.5014856,15.0545143 75.5014856,14.5398478 C75.5014856,13.9774708 75.6366679,13.5250501 75.9067456,13.182642 C76.1768232,12.8402339 76.5321432,12.6690158 76.9729926,12.6690158 C77.3816968,12.6690158 77.7206571,12.822606 77.9898738,13.1297303 L77.9898738,11.2091073 L78.6190026,11.2091073 L78.6190026,16.124276 L77.9898738,16.124276 Z M77.9898738,13.5499597 C77.665551,13.2697974 77.3584488,13.1297303 77.0682804,13.1297303 C76.4687137,13.1297303 76.1687869,13.5790302 76.1687869,14.477602 C76.1687869,15.2682417 76.4359945,15.6635897 76.9698355,15.6635897 C77.3171192,15.6635897 77.6572276,15.4778644 77.9898738,15.1063858 L77.9898738,13.5499597 Z" id="Fill-17" fill="#443170"></path>
                <path d="M82.1076252,16.0153318 C81.6883017,16.1398516 81.3289635,16.2020974 81.0304717,16.2020974 C80.5218876,16.2020974 80.1071563,16.0366146 79.7862776,15.7056211 C79.465399,15.3745994 79.3049596,14.9455701 79.3049596,14.4184488 C79.3049596,13.9058628 79.4461692,13.4856334 79.7291624,13.1577325 C80.0118685,12.8298596 80.3737898,12.6659232 80.8143522,12.6659232 C81.2316666,12.6659232 81.5542674,12.8111915 81.7818674,13.1017281 C82.0097543,13.3922366 82.1234108,13.8052125 82.1234108,14.3406275 L82.1202537,14.5305137 L79.9435598,14.5305137 C80.0345424,15.3336363 80.4360713,15.7351695 81.1478593,15.7351695 C81.4084656,15.7351695 81.7284832,15.6667104 82.1076252,15.5297359 L82.1076252,16.0153318 Z M79.972261,14.0697993 L81.494282,14.0697993 C81.494282,13.4410155 81.2549146,13.1266096 80.7761797,13.1266096 C80.2951487,13.1266096 80.0273671,13.4410155 79.972261,14.0697993 Z" id="Fill-18" fill="#443170"></path>
                <polygon id="Fill-19" fill="#443170" points="84.6393521 16.124276 84.6393521 11.5172718 87.578635 11.5172718 87.578635 12.1491762 85.6180607 12.1491762 85.6180607 13.4348022 87.2258981 13.4348022 87.2258981 14.0511311 85.6180607 14.0511311 85.6180607 15.4705827 87.7281679 15.4705827 87.7281679 16.124276"></polygon>
                <path d="M90.4507573,17.3538695 L90.4507573,15.4799168 C90.2093808,15.9613799 89.8290908,16.2020974 89.3101743,16.2020974 C88.8905638,16.2020974 88.5610748,16.051656 88.3217074,15.750745 C88.0823399,15.4498341 87.9626562,15.035818 87.9626562,14.5087249 C87.9626562,13.9359455 88.0978385,13.4794201 88.3679162,13.1390643 C88.6379938,12.7987367 89.0007761,12.6285588 89.4562631,12.6285588 C89.8207675,12.6285588 90.1522656,12.7696662 90.4507573,13.051909 L90.568432,12.7063801 L91.3947376,12.7063801 L91.3947376,17.3538695 L90.4507573,17.3538695 Z M90.4507573,13.5997788 C90.2243054,13.3507394 89.9817808,13.2262197 89.7231836,13.2262197 C89.4921395,13.2262197 89.3078783,13.335192 89.1701128,13.5530804 C89.0326344,13.7709688 88.9637517,14.0635859 88.9637517,14.4309036 C88.9637517,15.1302551 89.1924997,15.4799168 89.6499958,15.4799168 C89.9298318,15.4799168 90.1967523,15.3045658 90.4507573,14.9538639 L90.4507573,13.5997788 Z" id="Fill-20" fill="#443170"></path>
                <path d="M94.4321784,16.124276 L94.4321784,15.4799168 C94.1270854,15.9613799 93.7310098,16.2020974 93.2436645,16.2020974 C92.9322572,16.2020974 92.6865756,16.1056079 92.5063324,15.912601 C92.3263763,15.7196221 92.2362548,15.4560756 92.2362548,15.1219613 L92.2362548,12.7063801 L93.1767909,12.7063801 L93.1767909,14.8947107 C93.1767909,15.282777 93.3093901,15.4768242 93.5740146,15.4768242 C93.8707843,15.4768242 94.1566475,15.2703222 94.4321784,14.8573464 L94.4321784,12.7063801 L95.3727145,12.7063801 L95.3727145,16.124276 L94.4321784,16.124276 Z" id="Fill-21" fill="#443170"></path>
                <path d="M96.2555613,16.124276 L96.2555613,12.7063801 L97.1963845,12.7063801 L97.1963845,16.124276 L96.2555613,16.124276 Z M96.2555613,12.1305081 L96.2555613,11.3616291 L97.1963845,11.3616291 L97.1963845,12.1305081 L96.2555613,12.1305081 Z" id="Fill-22" fill="#443170"></path>
                <path d="M100.274868,16.124276 L100.274868,15.4799168 C100.033491,15.9613799 99.6532014,16.2020974 99.1342849,16.2020974 C98.7146744,16.2020974 98.3851854,16.051656 98.1458179,15.750745 C97.9064505,15.4498341 97.7867668,15.035818 97.7867668,14.5087249 C97.7867668,13.9359455 97.9219491,13.4794201 98.1920267,13.1390643 C98.4621044,12.7987367 98.8248867,12.6285588 99.2803737,12.6285588 C99.644591,12.6285588 99.9763761,12.7696662 100.274868,13.051909 L100.274868,11.2091073 L101.218848,11.2091073 L101.218848,16.124276 L100.274868,16.124276 Z M100.274868,13.5997788 C100.048416,13.3507394 99.8056044,13.2262197 99.5472942,13.2262197 C99.3162501,13.2262197 99.1319888,13.335192 98.9942234,13.5530804 C98.856745,13.7709688 98.7878623,14.0635859 98.7878623,14.4309036 C98.7878623,15.1302551 99.0166103,15.4799168 99.4741063,15.4799168 C99.7539424,15.4799168 100.020863,15.3045658 100.274868,14.9538639 L100.274868,13.5997788 Z" id="Fill-23" fill="#443170"></path>
                <path d="M103.808264,15.7569584 C103.494561,16.0537364 103.158758,16.2020974 102.800855,16.2020974 C102.495762,16.2020974 102.247784,16.1108091 102.057208,15.9281765 C101.866633,15.7455438 101.771058,15.5089873 101.771058,15.2184507 C101.771058,14.8407587 101.925183,14.549716 102.233433,14.3452945 C102.541683,14.1408731 102.983107,14.0386764 103.557129,14.0386764 L103.808264,14.0386764 L103.808264,13.7273911 C103.808264,13.3725283 103.601616,13.1950968 103.188607,13.1950968 C102.822093,13.1950968 102.451275,13.2967874 102.076151,13.5001687 L102.076151,12.8651435 C102.502076,12.7074204 102.923695,12.6285588 103.34101,12.6285588 C104.253993,12.6285588 104.710628,12.984462 104.710628,13.6962683 L104.710628,15.2091166 C104.710628,15.4768242 104.798453,15.6106779 104.974391,15.6106779 C105.00625,15.6106779 105.047579,15.606517 105.09838,15.5982232 L105.12048,16.114942 C104.921294,16.1730549 104.745643,16.2020974 104.592953,16.2020974 C104.207497,16.2020974 103.959519,16.0537364 103.849594,15.7569584 L103.808264,15.7569584 Z M103.808264,15.2620284 L103.808264,14.5678781 L103.585831,14.5678781 C102.977654,14.5678781 102.673709,14.7546436 102.673709,15.1281746 C102.673709,15.2547748 102.717621,15.3611325 102.805447,15.4472476 C102.893559,15.5333627 103.00205,15.5764343 103.131205,15.5764343 C103.351629,15.5764343 103.57722,15.471623 103.808264,15.2620284 Z" id="Fill-24" fill="#443170"></path>
                <path d="M107.827571,16.124276 L107.827571,15.4799168 C107.585907,15.9613799 107.205617,16.2020974 106.686701,16.2020974 C106.26709,16.2020974 105.937888,16.051656 105.698521,15.750745 C105.458866,15.4498341 105.339183,15.035818 105.339183,14.5087249 C105.339183,13.9359455 105.474365,13.4794201 105.744443,13.1390643 C106.01452,12.7987367 106.377303,12.6285588 106.83279,12.6285588 C107.197294,12.6285588 107.528792,12.7696662 107.827571,13.051909 L107.827571,11.2091073 L108.771264,11.2091073 L108.771264,16.124276 L107.827571,16.124276 Z M107.827571,13.5997788 C107.600832,13.3507394 107.358307,13.2262197 107.09971,13.2262197 C106.868953,13.2262197 106.684692,13.335192 106.546926,13.5530804 C106.409161,13.7709688 106.340278,14.0635859 106.340278,14.4309036 C106.340278,15.1302551 106.569026,15.4799168 107.026809,15.4799168 C107.306358,15.4799168 107.573279,15.3045658 107.827571,14.9538639 L107.827571,13.5997788 Z" id="Fill-25" fill="#443170"></path>
                <path d="M113.698962,16.124276 L113.698962,15.4799168 C113.457585,15.9613799 113.077295,16.2020974 112.558091,16.2020974 C112.138768,16.2020974 111.809279,16.051656 111.569912,15.750745 C111.330544,15.4498341 111.21086,15.035818 111.21086,14.5087249 C111.21086,13.9359455 111.345756,13.4794201 111.615833,13.1390643 C111.885911,12.7987367 112.24898,12.6285588 112.70418,12.6285588 C113.068685,12.6285588 113.400183,12.7696662 113.698962,13.051909 L113.698962,11.2091073 L114.642655,11.2091073 L114.642655,16.124276 L113.698962,16.124276 Z M113.698962,13.5997788 C113.472223,13.3507394 113.229698,13.2262197 112.971388,13.2262197 C112.740344,13.2262197 112.556082,13.335192 112.418317,13.5530804 C112.280552,13.7709688 112.211669,14.0635859 112.211669,14.4309036 C112.211669,15.1302551 112.440704,15.4799168 112.8982,15.4799168 C113.177749,15.4799168 113.444669,15.3045658 113.698962,14.9538639 L113.698962,13.5997788 Z" id="Fill-26" fill="#443170"></path>
                <path d="M118.36347,16.0091185 C117.916306,16.1377711 117.492677,16.2020974 117.092296,16.2020974 C116.509663,16.2020974 116.049871,16.0402414 115.713207,15.7165014 C115.376256,15.3927614 115.20778,14.9507432 115.20778,14.3904185 C115.20778,13.8612449 115.361905,13.4353082 115.670155,13.1126085 C115.978405,12.7899087 116.385674,12.6285588 116.891962,12.6285588 C117.402556,12.6285588 117.775383,12.7862819 118.010733,13.1017281 C118.245795,13.4171462 118.36347,13.9162371 118.36347,14.599001 L116.199404,14.599001 C116.262834,15.2506138 116.628486,15.5764343 117.295787,15.5764343 C117.611213,15.5764343 117.967394,15.5048263 118.36347,15.3616385 L118.36347,16.0091185 Z M116.186776,14.0791614 L117.438719,14.0791614 C117.438719,13.4960077 117.246995,13.2044309 116.863548,13.2044309 C116.473787,13.2044309 116.248196,13.4960077 116.186776,14.0791614 Z" id="Fill-27" fill="#443170"></path>
                <path d="M124.216491,16.0153318 C123.627544,16.1647611 123.119247,16.2394617 122.691313,16.2394617 C121.879932,16.2394617 121.256544,16.0303732 120.821147,15.6122242 C120.385751,15.1940753 120.16791,14.59484 120.16791,13.8145465 C120.16791,13.0404944 120.385751,12.4449141 120.821147,12.0277773 C121.256544,11.6106686 121.876488,11.4021142 122.681555,11.4021142 C123.196453,11.4021142 123.707046,11.4612393 124.213334,11.5795457 L124.213334,12.3297284 C123.626396,12.1325886 123.144504,12.0340187 122.767371,12.0340187 C122.269694,12.0340187 121.885098,12.1896613 121.613873,12.5009465 C121.342647,12.8122317 121.207178,13.2532098 121.207178,13.8239087 C121.207178,14.3759114 121.352405,14.8091016 121.642574,15.1235076 C121.932742,15.4379135 122.333123,15.5951024 122.843716,15.5951024 C122.955938,15.5951024 123.087389,15.5795269 123.237783,15.548404 L123.237783,14.032463 L124.216491,14.032463 L124.216491,16.0153318 Z" id="Fill-28" fill="#443170"></path>
                <path d="M127.860961,16.0091185 C127.413798,16.1377711 126.990169,16.2020974 126.589788,16.2020974 C126.007155,16.2020974 125.547363,16.0402414 125.210699,15.7165014 C124.873747,15.3927614 124.705272,14.9507432 124.705272,14.3904185 C124.705272,13.8612449 124.859397,13.4353082 125.167647,13.1126085 C125.475897,12.7899087 125.883166,12.6285588 126.389454,12.6285588 C126.900047,12.6285588 127.272875,12.7862819 127.508224,13.1017281 C127.743287,13.4171462 127.860961,13.9162371 127.860961,14.599001 L125.696896,14.599001 C125.760325,15.2506138 126.125691,15.5764343 126.793279,15.5764343 C127.108705,15.5764343 127.464599,15.5048263 127.860961,15.3616385 L127.860961,16.0091185 Z M125.68398,14.0791614 L126.936211,14.0791614 C126.936211,13.4960077 126.744487,13.2044309 126.36104,13.2044309 C125.971279,13.2044309 125.745688,13.4960077 125.68398,14.0791614 Z M125.776398,12.1305081 L126.542144,11.131286 L127.403178,11.131286 L126.38314,12.1305081 L125.776398,12.1305081 Z" id="Fill-29" fill="#443170"></path>
                <path d="M128.540317,16.124276 L128.540317,12.7063801 L129.48114,12.7063801 L129.48114,13.3507394 C129.788242,12.8692763 130.184318,12.6285588 130.669654,12.6285588 C130.981061,12.6285588 131.226743,12.7250483 131.406699,12.9180552 C131.586942,13.1110622 131.676777,13.3746087 131.676777,13.708723 L131.676777,16.124276 L130.736241,16.124276 L130.736241,13.9359455 C130.736241,13.5478792 130.604789,13.3538601 130.342174,13.3538601 C130.043395,13.3538601 129.756384,13.560334 129.48114,13.9733098 L129.48114,16.124276 L128.540317,16.124276 Z" id="Fill-30" fill="#443170"></path>
                <path d="M135.362576,16.0091185 C134.9157,16.1377711 134.491784,16.2020974 134.091403,16.2020974 C133.50877,16.2020974 133.049265,16.0402414 132.712314,15.7165014 C132.375362,15.3927614 132.206887,14.9507432 132.206887,14.3904185 C132.206887,13.8612449 132.361012,13.4353082 132.669262,13.1126085 C132.977512,12.7899087 133.385068,12.6285588 133.891356,12.6285588 C134.401949,12.6285588 134.774777,12.7862819 135.009839,13.1017281 C135.244902,13.4171462 135.362576,13.9162371 135.362576,14.599001 L133.198511,14.599001 C133.26194,15.2506138 133.627593,15.5764343 134.294894,15.5764343 C134.610606,15.5764343 134.966501,15.5048263 135.362576,15.3616385 L135.362576,16.0091185 Z M133.185882,14.0791614 L134.437826,14.0791614 C134.437826,13.4960077 134.246102,13.2044309 133.862655,13.2044309 C133.472894,13.2044309 133.247303,13.4960077 133.185882,14.0791614 Z" id="Fill-31" fill="#443170"></path>
                <path d="M136.041932,16.124276 L136.041932,12.7063801 L136.982755,12.7063801 L136.982755,13.3507394 C137.226428,12.8692763 137.596959,12.6285588 138.094924,12.6285588 C138.154335,12.6285588 138.212599,12.6348003 138.269714,12.647227 L138.269714,13.4690177 C138.136254,13.4213071 138.012265,13.3974378 137.898034,13.3974378 C137.52291,13.3974378 137.217817,13.5831631 136.982755,13.9546417 L136.982755,16.124276 L136.041932,16.124276 Z" id="Fill-32" fill="#443170"></path>
                <path d="M140.172599,16.2020974 C139.628138,16.2020974 139.195612,16.0407475 138.874447,15.7180477 C138.553568,15.3953761 138.393129,14.9611175 138.393129,14.4153281 C138.393129,13.8633254 138.554716,13.4275205 138.877604,13.1079414 C139.200779,12.7883624 139.639906,12.6285588 140.194986,12.6285588 C140.752075,12.6285588 141.192063,12.7883624 141.515238,13.1079414 C141.838413,13.4275205 142,13.8612449 142,14.4091148 C142,14.9694113 141.837839,15.4083369 141.513803,15.7258355 C141.18948,16.0433621 140.742603,16.2020974 140.172599,16.2020974 Z M140.188672,15.6262253 C140.728827,15.6262253 140.998905,15.2205312 140.998905,14.4091148 C140.998905,14.0376361 140.927439,13.7440069 140.784507,13.5281709 C140.641288,13.3123629 140.444973,13.2044309 140.194986,13.2044309 C139.947008,13.2044309 139.751553,13.3123629 139.608622,13.5281709 C139.46569,13.7440069 139.394224,14.0397166 139.394224,14.4153281 C139.394224,14.7868067 139.465116,15.0814762 139.6069,15.2993927 C139.74897,15.5172811 139.942703,15.6262253 140.188672,15.6262253 Z" id="Fill-33" fill="#443170"></path>
                <path d="M14.4429838,17.105055 C12.4939473,17.61348 10.6879285,17.8677207 9.02487014,17.8677207 C6.23902343,17.8677207 4.03842152,17.0661444 2.42306439,15.463048 C0.807678563,13.8599235 0,11.6783405 0,8.91829888 C0,6.12710625 0.831529204,3.94293667 2.49455891,2.365762 C4.15758862,0.788587333 6.4561762,0 9.39032165,0 C10.8097362,0 12.4462747,0.223089611 14.2999947,0.669268832 L14.2999947,4 C12.3721397,3.38781324 10.8309176,3.08172924 9.67632844,3.08172924 C8.26750466,3.08172924 7.13409695,3.61090285 6.2761053,4.6692782 C5.41811365,5.72762544 4.98911782,7.13361011 4.98911782,8.88717598 C4.98911782,10.682239 5.45252631,12.1193185 6.37937197,13.1984424 C7.30624634,14.2775664 8.54292072,14.8171143 10.0894525,14.8171143 C11.4982476,14.8171143 12.9494343,14.5162034 14.4429838,13.9144097 L14.4429838,17.105055 Z" id="Fill-34" fill="#443170"></path>
                <path d="M26.0619484,15.6420258 C24.4942638,17.1258036 22.8153337,17.8677207 21.0251867,17.8677207 C19.4998363,17.8677207 18.2605214,17.4111671 17.3071846,16.4980601 C16.3538478,15.584953 15.8771794,14.4020861 15.8771794,12.9494311 C15.8771794,11.0609713 16.6478048,9.60570165 18.1890269,8.58367852 C19.730249,7.56162727 21.9361319,7.0505876 24.806733,7.0505876 L26.0619484,7.0505876 L26.0619484,5.49416153 C26.0619484,3.71984706 25.0291668,2.83268982 22.9636324,2.83268982 C21.1311225,2.83268982 19.2774025,3.34111484 17.4025297,4.35799299 L17.4025297,1.18289506 C19.5316371,0.394307724 21.6395631,0 23.7262789,0 C28.2917106,0 30.5744552,1.77951568 30.5744552,5.33851892 L30.5744552,12.9027327 C30.5744552,14.2412423 31.0138695,14.9105111 31.8932722,14.9105111 C32.0519895,14.9105111 32.2586376,14.8897625 32.5129297,14.8482653 L32.624003,17.4319157 C31.6283608,17.7224523 30.7492451,17.8677207 29.986369,17.8677207 C28.0586574,17.8677207 26.8193138,17.1258036 26.2685104,15.6420258 L26.0619484,15.6420258 Z M26.0619484,13.1673196 L26.0619484,9.69651191 L24.9497221,9.69651191 C21.9096695,9.69651191 20.3896288,10.6303676 20.3896288,12.4980507 C20.3896288,13.1309954 20.6094221,13.6627837 21.0490086,14.0933874 C21.4885951,14.5239912 22.0314771,14.739293 22.6776256,14.739293 C23.7792612,14.739293 24.9073592,14.2153206 26.0619484,13.1673196 Z" id="Fill-35" fill="#443170"></path>
                <path d="M49.4704196,16.902714 C47.2354625,17.5460611 45.1170319,17.8677207 43.1148409,17.8677207 C40.201963,17.8677207 37.9032893,17.0583566 36.2191069,15.4396847 C34.5349244,13.8210129 33.6928332,11.6108935 33.6928332,8.80935468 C33.6928332,6.16343036 34.4634586,4.03371882 36.0047094,2.42024816 C37.5459602,0.806749386 39.5823055,0 42.1140324,0 C44.6667111,0 46.5311367,0.788587333 47.7067351,2.365762 C48.8826205,3.94293667 49.4704196,6.43839147 49.4704196,9.85215452 L38.6500928,9.85215452 C38.9678143,13.1102468 40.7952154,14.739293 44.131722,14.739293 C45.7099973,14.739293 47.4897545,14.3813375 49.4704196,13.6653703 L49.4704196,16.902714 Z M38.5866633,7.25292861 L44.8466672,7.25292861 C44.8466672,4.33724439 43.8880494,2.87938823 41.9708138,2.87938823 C40.0220069,2.87938823 38.8937654,4.33724439 38.5866633,7.25292861 Z" id="Fill-36" fill="#443170"></path>
                <path d="M53.0813091,22.785982 L53.4627471,19.4396941 C55.4012216,20.3112758 57.2495745,20.7470808 59.0080929,20.7470808 C60.7450854,20.7470808 62.000473,20.3839241 62.7736815,19.6575825 C63.54689,18.9312691 63.9334942,17.7535752 63.9334942,16.1245291 L63.9334942,13.78989 C62.7894671,16.2490207 60.8986365,17.4786141 58.2612894,17.4786141 C56.1850495,17.4786141 54.5378916,16.7185632 53.3198155,15.1984612 C52.1017395,13.6783311 51.4924144,11.6212678 51.4924144,9.02724308 C51.4924144,6.29832437 52.1757884,4.11154012 53.5422493,2.46694656 C54.9087102,0.822324893 56.7252048,0 58.9920203,0 C60.7717775,0 62.4189355,0.705592938 63.9334942,2.1167507 L64.4260057,0.389106517 L68.6525344,0.389106517 L68.6525344,13.4319064 C68.6525344,16.0363335 68.490947,17.9143909 68.1680593,19.0661631 C67.8448845,20.2179071 67.2171908,21.1984331 66.284978,22.007769 C64.7173221,23.3359324 62.50877,24 59.6593216,24 C57.6361788,24 55.4436993,23.595318 53.0813091,22.785982 Z M63.9334942,11.1128428 L63.9334942,4.8093453 C62.8000865,3.55383015 61.6138687,2.92608663 60.3745538,2.92608663 C59.188049,2.92608663 58.2452168,3.45526025 57.5463442,4.5136356 C56.8471847,5.57198283 56.4976049,6.99351489 56.4976049,8.77820366 C56.4976049,12.1193185 57.5939881,13.78989 59.7864676,13.78989 C61.3013134,13.78989 62.6835599,12.8975315 63.9334942,11.1128428 Z" id="Fill-37" fill="#443170"></path>
            </g>
        </g>
    </g>
</svg>