<?xml version="1.0" encoding="UTF-8"?>
<svg width="82px" height="50px" viewBox="0 0 82 50" version="1.1" xmlns="http://www.w3.org/2000/svg" xmlns:xlink="http://www.w3.org/1999/xlink">
    <title>logo_mira_mama</title>
    <g id="logo_mira_mama" stroke="none" stroke-width="1" fill="none" fill-rule="evenodd">
        <g id="blog" fill="#FFFFFF" fill-rule="nonzero">
            <path d="M60.014546,22.9788307 C61.2963905,22.7404256 61.8524848,20.1342249 61.9703013,19.0559839 C62.0881179,17.9777429 61.8524848,17.0241227 61.3152411,17.0024495 C61.0120825,16.9866197 60.7096069,17.0476637 60.4292604,17.1812533 C59.5102911,17.9994161 59.5998317,18.8771801 59.2510946,20.0908786 C58.9023575,21.304577 58.7327016,23.222654 60.014546,22.9788307 Z" id="Path"></path>
            <path d="M45.1075701,27.0026686 C44.6076862,26.9392927 43.9356202,28.0166824 43.469062,28.962039 C42.358209,31.1801942 43.5690387,31.9829552 43.5690387,31.9829552 C43.5690387,31.9829552 45.3797291,32.3209598 45.90183,29.9866155 C46.2017603,28.682129 45.7796361,27.0977324 45.1075701,27.0026686 Z" id="Path"></path>
            <path d="M77.8056624,11.1647291 C74.4778365,6.59684141 67.6585209,0.970607589 54.058078,0.137091467 C52.6014722,0.0493529283 51.1503219,0 49.7428152,0 C37.0043338,0 28.6956797,3.72888791 23.9712579,6.86005703 C18.8485881,10.2489581 16.7100508,13.6817284 16.688229,13.7146304 L16.6118526,13.8407546 L16.4863772,13.769467 C11.805599,11.0879579 9.4706654,10.9179645 7.75765334,10.797324 C7.30237906,10.7744718 6.84881139,10.7250355 6.39924569,10.6492652 C4.94263989,10.3641149 1.64209118,8.69708269 0,7.84163194 C2.45495359,10.2270235 9.81981436,17.5586751 10.9709148,20.421145 C11.2337093,21.3027304 11.3786412,22.2155433 11.4018956,23.135556 C11.8819754,28.5863128 12.7712141,38.7420487 31.6907231,46.7646414 C36.5787995,48.8725232 41.8380842,49.972707 47.1569307,50 C55.5781382,49.9033036 63.7616851,47.1805119 70.577188,42.207721 C76.943701,37.6233823 80.6043095,32.3371353 81.406261,29.0853257 C82.8858087,22.8702146 81.5688486,16.3155518 77.8056624,11.1647291 L77.8056624,11.1647291 Z M73.1521615,21.6714192 C73.3109925,21.5875636 73.5006876,21.5875636 73.6595186,21.6714192 C74.2814402,21.8688309 72.9393989,23.7661768 72.6666263,24.0348761 C72.478255,24.1961574 72.2202881,24.2480176 71.9846947,24.1719675 C71.7501102,23.9635885 72.8793889,21.8085106 73.1521615,21.6714192 L73.1521615,21.6714192 Z M62.2412567,14.0820355 C62.4649302,13.5994736 63.9106251,11.4827813 64.0688332,11.4827813 C64.2270414,11.4827813 64.3907049,11.9434086 64.3470613,12.0859838 C64.3034177,12.2285589 63.2559708,14.7674929 62.7431583,14.6468524 C62.7213365,14.6413687 62.0012168,14.5645975 62.2194349,14.0930029 L62.2412567,14.0820355 Z M46.098573,14.3726694 C46.2208492,13.8455974 46.7073513,13.4869845 47.244218,13.528186 C47.5170331,13.5827802 47.7600109,13.7371362 47.9261495,13.961395 C47.9261495,13.961395 48.040714,14.0984865 47.9261495,14.4110551 C47.7307288,14.7926652 47.3577503,15.0501561 46.9332572,15.0965124 C46.8514254,15.0965124 45.8039785,15.3268261 46.0767512,14.3726694 L46.098573,14.3726694 Z M24.0858224,15.1897346 C24.0858224,15.1897346 26.4753106,12.7330555 28.1392236,15.0416758 C28.7993333,15.9903488 28.8266106,20.4321123 26.3880234,19.6095635 C26.0388744,19.4944067 25.9079435,18.8089493 25.9024881,18.5950866 C26.0912167,18.1049732 26.4660871,17.7104092 26.9444795,17.4983549 C26.311647,17.1474007 25.4933292,17.9260803 25.3078438,18.9241062 C25.1223584,19.922132 25.6133491,20.4924326 26.3989343,21.3643343 C26.5647898,21.5047167 26.7481924,21.6227012 26.9444795,21.7152884 C27.4073348,21.8036704 27.8837166,21.7905769 28.3410753,21.6769028 C28.971333,21.3564641 29.4974873,20.8618331 29.8576911,20.2511516 C30.2925562,19.6160187 30.6583479,18.9358053 30.9487816,18.2221979 L30.9487816,18.2605835 L33.0491308,12.2998465 C33.3000816,11.2853696 33.8401714,9.90897127 32.7763581,9.19609564 C31.3197524,8.70805001 30.1359192,10.7753893 30.9706034,12.146304 C31.1615442,12.0256635 30.9706034,10.5012064 32.0616939,11.4005264 C32.4926746,11.9488923 31.4615941,13.6652775 30.1413746,13.0017548 C29.5792949,12.4910893 29.3334639,11.716278 29.4976312,10.9728011 C29.9231565,9.38802369 30.5287118,8.81223953 31.7125449,8.31322658 C32.1780189,8.13028121 32.6913666,8.11095531 33.1691507,8.25839 C35.1658463,9.19061198 35.1713018,12.612415 35.3513317,15.3268261 C35.3513317,16.8787015 35.427708,16.0890546 35.4222526,16.9719237 C36.2078377,15.3268261 37.1952746,14.3288002 38.3027315,12.3382321 C39.333812,10.5176574 40.1684962,8.5764422 40.9268041,8.74095196 C41.3110772,8.70546705 41.6926657,8.8326584 41.9797064,9.09190612 C42.4052317,9.52511516 41.9797064,12.0859838 41.9797064,12.0859838 C41.9797064,12.0859838 40.479457,20.0537399 40.1684962,21.1669226 C39.8575354,22.2801053 39.5465746,23.5303795 40.6540314,23.6071507 C41.7614883,23.6839219 41.7451219,22.7516999 41.7451219,22.7516999 C41.3905175,22.6749287 40.2939716,22.3130072 41.4123393,21.5014258 C42.5307071,20.6898443 43.1035296,22.2801053 43.1035296,22.2801053 C44.1127883,22.044308 45.0293043,17.9864005 45.122047,16.8293485 C45.1984233,15.9409958 46.9496235,16.1438912 46.9496235,16.1438912 C46.9496235,16.1438912 47.4951688,16.3413029 46.3658901,18.8857206 C44.8056307,22.3788111 46.327702,22.2636543 46.327702,22.2636543 C48.2534767,22.1649485 49.1536263,18.4250932 49.4591317,17.7725378 C49.8682906,16.9116034 49.3991217,16.949989 49.3991217,16.949989 C49.0499727,16.8732178 48.1771003,15.4474665 49.0499727,15.0361921 C49.9228451,14.6249177 50.2338059,15.0361921 50.1410632,15.9958324 C50.0428651,16.774512 53.141562,16.308401 54.1835534,16.1329239 C54.3908606,16.0945383 54.4181379,16.4016232 54.4181379,16.4016232 C53.6380082,17.224172 53.2888593,18.0467208 53.4252456,20.3498574 C53.5616319,22.6529941 55.3510203,21.8523799 55.3510203,21.8523799 C57.7623302,21.0901513 58.1496674,18.589603 58.9679852,16.6374205 C59.7863031,14.685238 62.0557713,15.6393946 62.0557713,15.6393946 C64.270685,16.483878 63.2614263,19.6644001 63.1468618,20.8598377 C63.0322973,22.0552753 63.6160307,22.4391314 64.3688831,22.5378372 C65.1217356,22.6365431 65.6345481,21.7536741 65.6727362,20.8927396 C65.7109244,20.0318052 65.8691325,20.0756745 65.8691325,20.0756745 C67.0147775,20.0756745 67.1729857,20.7775828 66.8783912,21.8304453 C66.7256386,22.3788111 66.5074205,23.9032683 64.7234875,23.9197192 C62.5413066,23.9471375 62.1376031,22.4336477 62.1376031,22.4336477 C61.6436515,23.5128665 60.5337384,24.1691322 59.3553223,24.0787453 C58.4430646,23.9605286 57.6837128,23.3173168 57.4131813,22.4336477 C57.4131813,22.4336477 55.9947637,23.6674709 54.576346,23.393288 C53.1579284,23.1191051 52.7269477,22.8065365 52.3014224,22.044308 C51.7558771,21.0846677 52.4378087,18.0028515 52.4378087,18.0028515 C51.6993419,18.0283591 50.9678137,17.852112 50.3210931,17.4928712 C50.3592813,18.1015574 49.7755479,21.2820794 49.0936163,22.1265628 C48.4116848,22.9710463 47.3860597,23.8045624 46.0221966,23.6455363 C45.2117985,23.5728593 44.6094,22.8599165 44.6692444,22.044308 C44.6692444,22.044308 43.8127384,24.0348761 43.1144405,23.9032683 C42.8620437,23.8772867 42.6410981,23.7216176 42.5307071,23.4919939 C42.2579345,25.0548366 40.937715,25.1096732 40.1412189,25.032902 C39.4832777,24.9312076 38.9018597,24.5469287 38.5482268,23.9800395 C38.3556486,23.4680185 38.2882924,22.9169794 38.3518305,22.3733275 C38.6846131,20.0921255 40.588566,17.9425313 40.1193971,15.3816626 C40.128493,15.2223471 40.0549073,15.0696489 39.9249008,14.9780622 C39.7948943,14.8864754 39.6269902,14.8690493 39.4811092,14.9320026 C38.7908982,15.3125963 38.2231094,15.8833207 37.8444734,16.5771002 L35.7932233,18.9899101 C35.6186489,19.2092564 35.5586389,18.9350735 35.5422725,21.2985304 C35.4222526,22.0607589 34.7130438,22.1594648 34.3529839,22.2746216 C33.8074387,21.304014 34.3966275,19.6205308 34.740321,18.5621847 C34.1620431,17.0870805 33.5237551,16.8019302 33.0218535,15.5461724 C32.5100034,17.0048795 31.899383,18.4266446 31.1942769,19.8014916 C31.1942769,19.8014916 31.1942769,19.8398772 31.1942769,19.8014916 C31.1942769,19.7631059 31.1942769,19.8398772 31.1288115,19.9769686 C30.2504837,22.2088177 28.5702043,24.0951963 25.6733591,23.634569 C23.1420292,22.9710463 22.3018895,17.5148059 24.0858224,15.1897346 Z M75.0179262,32.8032463 C74.8651736,32.9019522 73.0430525,33.25839 72.4975072,31.7065146 C71.9525346,32.8678022 70.7852669,33.6043281 69.5079193,33.5928932 C67.3257383,33.5928932 67.1020648,30.3904365 67.1838966,30.2259267 C67.2657284,30.061417 66.2073706,31.0758938 65.29631,30.2259267 C64.3852495,29.3759596 64.5161803,27.5718359 63.7851497,27.1057249 C63.0541191,26.639614 62.5249402,27.3908752 62.3230885,27.6540908 C61.3803242,29.193668 60.7965477,30.927806 60.6155319,32.7264751 L59.4698868,32.9293705 C59.4698868,32.9293705 59.5844513,30.1381882 59.2844015,29.0908094 C58.9843516,28.0434306 58.3515191,27.1770125 57.0312996,27.8076333 C54.9364059,28.8056591 55.2528221,32.9622724 55.2528221,32.9622724 C55.2528221,32.9622724 54.1617316,33.1596841 53.9598799,33.0116254 C53.7580282,32.8635666 54.008979,27.6047379 53.261582,27.3744242 C53.261582,27.3744242 52.3832542,26.8260583 51.886808,27.538934 C51.3903618,28.2518096 49.7919143,33.4119324 47.9697931,33.3954815 C47.9697931,33.3954815 45.6130377,33.8286905 45.1329579,31.876508 C45.1329579,31.876508 44.1346101,33.5216056 42.9507769,33.3954815 C41.7669437,33.2693573 41.106834,31.7065146 41.106834,31.7065146 C39.4320101,35.314762 36.5788085,34.5141478 36.5788085,34.5141478 C35.0589134,33.808146 34.236021,32.1310026 34.6039347,30.4891424 C35.1003809,27.747313 34.3529839,26.7986401 34.3202512,26.7383198 C33.9460255,26.383224 33.3796597,26.3290055 32.9454772,26.606712 C32.2308129,26.9905681 31.8543867,27.506032 31.4834159,29.8256197 C31.1124452,32.1452073 30.2395728,33.6641807 29.7758593,33.8451415 C29.2323894,34.0441113 28.6243739,33.8365909 28.3137981,33.3461285 C27.8991837,32.7977627 28.5647489,31.6078087 28.5647489,31.6078087 C29.7267602,28.7563062 29.3939776,27.6540908 29.3939776,27.6540908 C29.3351423,27.3685913 29.1489691,27.1261428 28.8891063,26.9966102 C28.6292436,26.8670776 28.3245574,26.8648495 28.0628473,26.9905681 C27.3339854,27.4219856 26.8311043,28.1541309 26.6880732,28.9921035 C26.6062415,29.5733714 26.4698551,31.9916648 25.6406264,33.2090371 C24.8113976,34.4264093 24.3149514,34.0590042 24.3149514,34.0590042 C23.7694062,33.6806317 23.2675046,33.1267822 23.731218,32.326168 C23.9221589,32.0026322 24.5277141,29.8420706 24.2003869,28.9262996 C23.8730598,28.0105286 23.6548417,27.6047379 22.4546422,27.7747313 C21.2544426,27.9447247 19.1213607,31.5420048 18.57036,31.7065146 C18.0193593,31.8710243 17.773864,31.4926519 17.4792696,31.1581487 C17.1846751,30.8236455 17.3647051,29.8969072 17.3647051,29.8969072 C17.3647051,29.8969072 18.9249644,26.6834832 21.3362744,26.2722088 C22.7902419,25.8472928 24.3594157,26.2012509 25.4933292,27.2099145 C25.4933292,27.2099145 26.1261616,25.8719017 27.2008858,25.6361044 C27.7277439,25.4604105 28.2879205,25.409734 28.8375215,25.4880456 C29.5194531,25.5373986 30.615999,26.9905681 30.6978308,27.039921 C30.7796626,27.089274 31.5434259,24.9177451 32.6399718,24.6874315 C33.7365178,24.4571178 34.3311621,24.7367844 35.4113417,25.6854573 C36.4915212,26.6341303 34.8657964,31.5584558 36.753383,32.9458215 C36.753383,32.9458215 37.9863152,33.5270893 39.3938219,32.0081158 C40.3432507,30.9250428 41.1165408,29.6980378 41.685112,28.3724501 C41.685112,28.3724501 43.3217477,24.8519412 45.5693941,25.2686993 C47.8170405,25.6854573 47.0969208,27.7363457 46.8132372,28.5588945 C46.8132372,28.5588945 45.6512259,30.4726914 45.918543,31.3445931 C46.1858602,32.2164948 46.267692,32.1287563 46.267692,32.1287563 C46.6982735,32.1922729 47.1369061,32.1736695 47.5606342,32.0739197 C48.2284772,31.8043546 48.7609827,31.2769963 49.0390618,30.6097828 C49.3336562,29.9078745 50.5938658,26.140601 51.5594808,25.7183593 C52.322977,25.2490087 53.283671,25.2490087 54.0471671,25.7183593 C54.735532,26.3661885 55.1610987,27.247115 55.2419112,28.1914894 C55.2419112,28.1914894 55.4110302,27.4402281 56.6712398,26.3380127 C56.6712398,26.3380127 57.5823003,25.4551437 58.531549,25.8389998 C59.2800259,26.1730908 59.867843,26.7895508 60.1681848,27.555385 C60.2609107,28.0186826 60.2609107,28.4959039 60.1681848,28.9592016 C60.1681848,28.9592016 61.0465126,25.9596403 62.5904056,25.5044966 C63.2481418,25.2821167 63.9697592,25.360262 64.5652794,25.7183593 C65.0126265,25.9541566 65.1599237,26.7712218 65.6127263,28.4601886 C65.7557421,28.8626575 66.0636403,29.1841279 66.4583214,29.3430577 C67.0693321,29.5459531 67.2384511,29.145646 67.6039664,28.7453389 C67.9694817,28.3450318 68.1876998,27.0234701 68.5313933,26.5518754 C68.8750868,26.0802808 68.9460077,25.4551437 71.5864467,25.2467646 C71.5864467,25.2467646 72.7811908,24.8958105 72.8793889,28.0653652 C72.8793889,28.0653652 72.5957054,30.0833516 72.9612207,30.5165606 C73.3811973,31.2376069 74.2420447,31.5700636 75.0342926,31.3171748 C75.0342926,31.3171748 76.4636211,31.876508 75.0179262,32.775828 L75.0179262,32.8032463 Z" id="Shape"></path>
            <path d="M71.5838834,27.0866178 C71.5838834,27.0866178 70.6568491,26.8335453 70.3359526,27.1925551 C69.4866356,28.499728 69.0253874,30.0170046 69.0048265,31.571297 C69.0048265,31.571297 68.8740908,32.8955133 69.9734585,32.9955652 C69.9734585,32.9955652 71.0371709,33.1427004 71.4590904,31.7419738 C71.8810098,30.3412472 72.1543661,27.5868773 71.9047799,27.292607 C71.6551938,26.9983367 71.5838834,27.0866178 71.5838834,27.0866178 Z" id="Path"></path>
        </g>
    </g>
</svg>