<svg width="103" height="32" xmlns="http://www.w3.org/2000/svg">
    <g fill="#FEFEFE" fill-rule="evenodd">
        <path d="m83.13 21.745-2.798 1.664a6.84 6.84 0 0 0 3.604 1.015c1.058 0 2.206-.237 3.1-.66l.56-.358.03-.02a7.248 7.248 0 0 0 2.04-2.034l-.396-2.256-.154-.88-5.986 3.529z" fill-opacity=".09"/>
        <path fill-opacity=".24" d="m79.253 24.051-5.714 3.34 2.018-7.284z"/>
        <path fill-opacity=".89" d="m95.823 5.395 2.461 2.624v8.562l-8.188 5.23-.215-.23.214.229 6.071-16.05z"/>
        <path fill-opacity=".62" d="m90.764 0 2.774 2.958-2.774 1.728z"/>
        <path fill-opacity=".85" d="M69.648 7.586 69.644 0l3.309 5.335-3.305 2.16z"/>
        <path fill-opacity=".72" d="m69.644 0 3.309 5.335 1.046-.683z"/>
        <path fill-opacity=".57" d="m72.953 5.335 4.155 6.7V7.96L74 4.652z"/>
        <path fill-opacity=".34" d="M93.538 2.958 98.284 0l-2.118 5.76z"/>
        <path fill-opacity=".38" d="M73.539 27.392 82 26.977l-2.748-2.927z"/>
        <path fill-opacity=".32" d="m74 4.652 3.108 3.308V2.62z"/>
        <path fill-opacity=".47" d="M93.538 2.958 90.764 0h7.52z"/>
        <path fill-opacity=".7" d="m69.65 10.247.002 2.83v.734l2.643 2.817 3.262 3.479 1.551-5.607v-2.464l-4.155-6.7-3.305 2.158z"/>
        <path d="m96.166 5.76-2.628-2.802-2.774 1.728V17.687h.002c0 .326-.024.647-.07.96a6.597 6.597 0 0 1-1.03 2.705l.43.458 6.07-16.05z" fill-opacity=".85"/>
        <path fill-opacity=".28" d="m96.046 5.64 2.238 2.38V0l-2.118 5.76-.118-.126z"/>
        <path d="m69.653 13.811-.009 3.898c0 3.766 1.494 7.186 3.93 9.719l-.035-.037.001-.005 2.017-7.279-3.262-3.479-2.642-2.817z" fill-opacity=".74"/>
        <path fill-opacity=".4" d="M74 4.652 69.643 0h7.464v2.62z"/>
        <path d="m86.657 31.588-.25.043 3.689-9.82 4.752 5.067a14.378 14.378 0 0 1-8.191 4.71" fill-opacity=".62"/>
        <path d="M87.595 23.406a7.227 7.227 0 0 0 2.072-2.054l.161.173.268.285-2.5 1.596z" fill-opacity=".83"/>
        <path d="M82.58 24.291c.439.087.892.133 1.356.133 1.058 0 2.206-.237 3.1-.66L82 26.977l-2.748-2.927 1.079-.642a6.84 6.84 0 0 0 2.248.882zm-.579 2.687.58-2.687-.58 2.687zM77.108 7.96l1.39 1.482-.92 3.346-.47-.752z" fill-opacity=".26"/>
        <path fill-opacity=".32" d="M77.108 0h4.012l-4.012 2.62z"/>
        <path fill-opacity=".17" d="M77.108 2.62 81.12 0l-2.622 9.442-1.39-1.482z"/>
        <path fill-opacity=".26" d="m69.648 7.494.005 6.317-3.675-3.919z"/>
        <path d="m65.978 9.892 3.675 3.919-.009 3.898c0 1.588.266 3.115.756 4.54L65.978 9.891z" fill-opacity=".13"/>
        <path d="M90.096 21.81 77.098 30.11a14.467 14.467 0 0 0 6.891 1.727c.83 0 1.61-.07 2.418-.204l3.689-9.822zm-3.668 9.818c.06-.01.12-.02.18-.032l-.18.032z" fill-opacity=".51"/>
        <path d="m82.001 26.978-8.462.413c.8.839 1.703 1.581 2.69 2.207h-.001c.283.18.573.35.87.51L82 26.979z" fill-opacity=".48"/>
        <path fill-opacity=".19" d="m77.108 12.036.472.754-.472 1.71z"/>
        <path d="m79.253 24.051-3.696-3.944 1.551-5.607V17.687c0 2.41 1.296 4.531 3.224 5.722l-1.079.642z" fill-opacity=".32"/>
        <path fill-opacity=".28" d="m98.284 8.02 5.023 5.355-5.023 3.206z"/>
        <path fill-opacity=".1" d="m98.284 0 5.023 13.375-5.023-5.356z"/>
        <path d="m103.307 13.375-6.765 11.078c.115-.207.029-.052.03-.053a13.94 13.94 0 0 0 1.712-6.713v-1.106l5.023-3.206z" fill-opacity=".1"/>
        <path fill-opacity=".28" d="m90.764 4.686-3.627 2.26 3.627 10.299z"/>
        <path fill-opacity=".19" d="m87.137 6.947 1.979 11.27 1.648-.972z"/>
        <path d="M89.666 21.352c.528-.8.89-1.718 1.03-2.705.046-.313.07-.634.07-.96h-.002v-.442l-1.648.971.154.88.397 2.256z" fill-opacity=".4"/>
        <path d="M94.849 26.878a14.193 14.193 0 0 0 1.693-2.425c.115-.207.029-.052.03-.053a13.94 13.94 0 0 0 1.712-6.713v-1.106l-8.188 5.23 4.752 5.067z" fill-opacity=".74"/>
        <path d="m83.13 21.745-2.798 1.664a6.84 6.84 0 0 0 3.604 1.015c1.058 0 2.206-.237 3.1-.66l.56-.358.03-.02a7.248 7.248 0 0 0 2.04-2.034l-.396-2.256-.154-.88-5.986 3.529z" fill-opacity=".1"/>
        <path fill-opacity=".24" d="m79.253 24.051-5.714 3.34 2.018-7.284z"/>
        <path d="m90.764 0 5.403 5.76-6.072 16.05-2.5 1.596a7.227 7.227 0 0 0 2.072-2.053c.527-.801.889-1.72 1.029-2.706.046-.313.07-.634.07-.96h-.002V0" fill-opacity=".38"/>
        <path fill-opacity=".85" d="M69.648 7.586 69.644 0l3.309 5.335-3.305 2.16z"/>
        <path fill-opacity=".72" d="m69.644 0 3.309 5.335 1.046-.683z"/>
        <path fill-opacity=".57" d="m72.953 5.335 4.155 6.7V7.96L74 4.652z"/>
        <path fill-opacity=".34" d="M93.538 2.958 98.284 0l-2.118 5.76z"/>
        <path fill-opacity=".32" d="M73.539 27.392 82 26.977l-2.748-2.927zM74 4.652l3.108 3.308V2.62z"/>
        <path fill-opacity=".4" d="M93.538 2.958 90.764 0h7.52z"/>
        <path fill-opacity=".7" d="m69.65 10.247.002 2.83v.734l2.643 2.817 3.262 3.479 1.551-5.607v-2.464l-4.155-6.7-3.305 2.158z"/>
        <path fill-opacity=".28" d="m96.046 5.64 2.238 2.38V0l-2.118 5.76-.118-.126z"/>
        <path fill-opacity=".4" d="M74 4.652 69.643 0h7.464v2.62z"/>
        <path d="m86.657 31.588-.25.043 3.689-9.82 8.188-5.23v1.106c0 2.43-.62 4.715-1.713 6.713 0 0 .086-.154-.029.053-.48.867-1.048 1.68-1.694 2.425a14.377 14.377 0 0 1-8.191 4.71" fill-opacity=".43"/>
        <path d="M82.58 24.291c.439.087.892.133 1.356.133 1.058 0 2.206-.237 3.1-.66L82 26.977l-2.748-2.927 1.079-.642a6.84 6.84 0 0 0 2.248.882zm-.579 2.687.58-2.687-.58 2.687zM77.108 7.96l1.39 1.482-.92 3.346-.47-.752z" fill-opacity=".26"/>
        <path fill-opacity=".32" d="M77.108 0h4.012l-4.012 2.62z"/>
        <path fill-opacity=".17" d="M77.108 2.62 81.12 0l-2.622 9.442-1.39-1.482z"/>
        <path fill-opacity=".26" d="m69.648 7.494.005 6.317-3.675-3.919z"/>
        <path d="m65.978 9.892 3.675 3.919-.009 3.898c0 1.588.266 3.115.756 4.54L65.978 9.891z" fill-opacity=".13"/>
        <path d="m82.001 26.978-8.462.413c.8.839 1.703 1.581 2.69 2.207h-.001c.283.18.573.35.87.51L82 26.979z" fill-opacity=".32"/>
        <path fill-opacity=".19" d="m77.108 12.036.472.754-.472 1.71z"/>
        <path d="m79.253 24.051-3.696-3.944 1.551-5.607V17.687c0 2.41 1.296 4.531 3.224 5.722l-1.079.642z" fill-opacity=".14"/>
        <path fill-opacity=".28" d="m98.284 8.02 5.023 5.355-5.023 3.206z"/>
        <path fill-opacity=".1" d="m98.284 0 5.023 13.375-5.023-5.356z"/>
        <path d="m103.307 13.375-6.765 11.078c.115-.207.029-.052.03-.053a13.94 13.94 0 0 0 1.712-6.713v-1.106l5.023-3.206z" fill-opacity=".1"/>
        <path fill-opacity=".28" d="m90.764 4.686-3.627 2.26 3.627 10.299z"/>
        <path fill-opacity=".19" d="m87.137 6.947 1.979 11.27 1.648-.972z"/>
        <path fill-opacity=".85" d="M69.648 7.586 69.644 0l3.309 5.335-3.305 2.16z"/>
        <path fill-opacity=".16" d="M93.538 2.958 98.284 0l-2.118 5.76z"/>
        <path fill-opacity=".32" d="m74 4.652 3.108 3.308V2.62z"/>
        <path fill-opacity=".17" d="m96.046 5.64 2.238 2.38V0l-2.118 5.76-.118-.126z"/>
        <path fill-opacity=".4" d="M74 4.652 69.643 0h7.464v2.62z"/>
        <path fill-opacity=".19" d="m77.108 12.036.472.754-.472 1.71z"/>
        <path fill-opacity=".1" d="m98.284 0 5.023 13.375-5.023-5.356z"/>
        <path d="m103.307 13.375-6.765 11.078c.115-.207.029-.052.03-.053a13.94 13.94 0 0 0 1.712-6.713v-1.106l5.023-3.206z" fill-opacity=".1"/>
        <path fill-opacity=".89" d="m95.823 5.395 2.461 2.624v8.562l-8.188 5.23-.215-.23.214.229 6.071-16.05z"/>
        <path fill-opacity=".89" d="m95.823 5.395 2.461 2.624v8.562l-8.188 5.23-.215-.23.214.229 6.071-16.05z"/>
        <path d="m86.657 31.588-.25.043a14.4 14.4 0 0 1-2.418.206c-2.495 0-4.846-.624-6.891-1.729l12.998-8.298 8.188-5.229v1.106c0 2.43-.62 4.715-1.713 6.713 0 0 .086-.154-.029.053-.48.867-1.048 1.68-1.694 2.425a14.377 14.377 0 0 1-8.191 4.71zm-.23.04.18-.031-.18.03z" fill-opacity=".3"/>
        <path d="m86.657 31.588-.25.043a14.4 14.4 0 0 1-2.418.206c-2.495 0-4.846-.624-6.891-1.729L82 26.979l8.095-5.168 8.188-5.229v1.106c0 2.43-.62 4.715-1.713 6.713 0 0 .086-.154-.029.053-.48.867-1.048 1.68-1.694 2.425a14.377 14.377 0 0 1-8.191 4.71zm-.23.04.18-.031-.18.03z" fill-opacity=".17"/>
        <path d="m69.653 13.811-.009 3.898c0 3.766 1.494 7.186 3.93 9.719l-.035-.037.001-.005 2.017-7.279 1.551-5.607V0h-7.464l.008 13.811z" fill-opacity=".12"/>
        <path fill-opacity=".24" d="m79.253 24.051-5.714 3.34 2.018-7.284z"/>
        <path d="m79.253 24.051-5.714 3.34.035.037-.035-.037c-2.415-2.53-3.895-5.934-3.895-9.681l.008-3.899L69.645 0h7.464v14.5l-1.551 5.607 3.696 3.944z" fill-opacity=".13"/>
        <path d="M.77 11.054h.474c.516 0 .926-.014 1.265-.254.311-.226.509-.65.509-1.138 0-.488-.198-.905-.509-1.131-.34-.247-.75-.261-1.265-.261H0v5.053h.77v-2.269zm.05-.671V8.976h.212c.763 0 1.138.127 1.138.735 0 .587-.382.672-1.138.672H.82zM4.53 11.061h.092l1.683 2.262h.926l-1.74-2.297c.764-.092 1.16-.551 1.16-1.364 0-.474-.184-.87-.488-1.11-.31-.24-.714-.282-1.258-.282H3.76v5.053h.77v-2.262zm.05-.636V8.976h.149c.735 0 1.08.135 1.08.757 0 .607-.36.692-1.08.692H4.58zM12.9 10.807c0-.714-.277-1.371-.793-1.88a2.694 2.694 0 0 0-1.908-.77c-.728 0-1.4.268-1.915.77a2.585 2.585 0 0 0-.785 1.88c0 .72.269 1.371.785 1.873a2.717 2.717 0 0 0 1.915.777c.721 0 1.393-.275 1.909-.777a2.564 2.564 0 0 0 .791-1.873zm-.856 0c0 .509-.191.975-.544 1.336a1.79 1.79 0 0 1-1.3.551c-.496 0-.955-.19-1.308-.551a1.875 1.875 0 0 1-.538-1.336c0-.509.184-.983.538-1.343a1.818 1.818 0 0 1 2.608 0c.353.36.544.834.544 1.343zM14.61 11.061h.091l1.683 2.262h.925l-1.738-2.297c.763-.092 1.159-.551 1.159-1.364 0-.474-.184-.87-.488-1.11-.31-.24-.714-.282-1.258-.282H13.84v5.053h.77v-2.262zm.049-.636V8.976h.148c.736 0 1.082.135 1.082.757 0 .607-.36.692-1.082.692h-.148zM18.568 11.061h.091l1.683 2.262h.926l-1.74-2.297c.764-.092 1.16-.551 1.16-1.364 0-.474-.184-.87-.488-1.11-.31-.24-.713-.282-1.258-.282h-1.145v5.053h.77v-2.262zm.05-.636V8.976h.148c.735 0 1.08.135 1.08.757 0 .607-.36.692-1.08.692h-.149zM21.755 13.323h2.82v-.735h-2v-1.633h2v-.72h-2V8.968h2v-.7h-2.82zM29.573 9.5l.042-.828a2.757 2.757 0 0 0-1.633-.523c-.756 0-1.413.262-1.915.757-.502.494-.77 1.159-.77 1.9 0 .736.268 1.415.763 1.902.495.488 1.159.75 1.936.75.608 0 1.124-.156 1.57-.474v-.926c-.495.424-1.032.636-1.633.636-1.011 0-1.781-.77-1.781-1.88 0-1.124.756-1.908 1.866-1.908.572 0 1.088.197 1.555.593zM32.223 8.97h1.336v-.7H30.06v.7h1.343v4.353h.82zM39.119 10.807c0-.714-.276-1.371-.792-1.88a2.694 2.694 0 0 0-1.908-.77c-.728 0-1.4.268-1.916.77a2.585 2.585 0 0 0-.784 1.88c0 .72.268 1.371.784 1.873a2.717 2.717 0 0 0 1.916.777c.72 0 1.392-.275 1.908-.777a2.564 2.564 0 0 0 .792-1.873zm-.855 0c0 .509-.191.975-.545 1.336a1.79 1.79 0 0 1-1.3.551c-.495 0-.954-.19-1.308-.551a1.875 1.875 0 0 1-.537-1.336c0-.509.184-.983.537-1.343a1.818 1.818 0 0 1 2.608 0c.354.36.544.834.544 1.343zM40.83 11.061h.091l1.682 2.262h.926l-1.739-2.297c.764-.092 1.16-.551 1.16-1.364 0-.474-.184-.87-.488-1.11-.311-.24-.714-.282-1.258-.282h-1.145v5.053h.77v-2.262zm.049-.636V8.976h.148c.735 0 1.081.135 1.081.757 0 .607-.36.692-1.08.692h-.15z"/>
        <path d="M47.353 13.323h.87l-2.446-5.251-2.446 5.251h.863l.586-1.3h2l.573 1.3zm-2.269-1.986.516-1.152c.057-.134.12-.318.184-.573.07.255.134.439.19.573l.517 1.152h-1.407zM48.696 13.323h1.329c.82 0 1.484-.021 2.07-.473.58-.446.891-1.146.891-2.05 0-.905-.31-1.612-.89-2.057-.615-.473-1.343-.473-2.29-.473h-1.11v5.053zm.82-.742V9.005h.593c.608 0 1.075.02 1.45.332.381.325.572.813.572 1.456s-.19 1.13-.573 1.456c-.36.304-.791.332-1.35.332h-.692zM59.107 10.807c0-.714-.276-1.371-.792-1.88a2.694 2.694 0 0 0-1.908-.77c-.728 0-1.4.268-1.915.77a2.585 2.585 0 0 0-.785 1.88c0 .72.269 1.371.785 1.873a2.717 2.717 0 0 0 1.915.777c.721 0 1.393-.275 1.908-.777a2.564 2.564 0 0 0 .792-1.873zm-.855 0c0 .509-.191.975-.544 1.336a1.79 1.79 0 0 1-1.3.551c-.496 0-.955-.19-1.309-.551a1.875 1.875 0 0 1-.537-1.336c0-.509.184-.983.538-1.343a1.818 1.818 0 0 1 2.608 0c.353.36.544.834.544 1.343zM7.352 23.017h1.69c1.042 0 1.887-.027 2.633-.603.737-.566 1.133-1.456 1.133-2.607 0-1.15-.396-2.05-1.133-2.615-.782-.603-1.708-.603-2.912-.603H7.352v6.428zm1.042-.944v-4.549h.755c.774 0 1.367.027 1.843.423.486.413.728 1.033.728 1.851 0 .818-.242 1.439-.728 1.852-.458.387-1.007.423-1.717.423h-.88zM14.004 23.017h3.586v-.935h-2.544v-2.077h2.544v-.917h-2.544V17.48h2.544v-.89h-3.586zM25.06 19.727v.88h1.546v.09c0 .953-.72 1.555-1.924 1.555-1.393 0-2.373-.98-2.373-2.445 0-1.447.99-2.409 2.364-2.409.675 0 1.214.243 1.645.747l.764-.576c-.62-.755-1.41-1.123-2.427-1.123-.961 0-1.824.332-2.454.943-.647.63-.98 1.457-.98 2.427 0 .953.333 1.816.945 2.436.62.63 1.438.935 2.49.935 1.87 0 2.966-1.033 2.966-2.858 0-.144-.01-.342-.018-.602H25.06zM28.718 23.017h3.587v-.935h-2.544v-2.077h2.544v-.917h-2.544V17.48h2.544v-.89h-3.587zM33.132 21.731c.216.935.935 1.456 2.032 1.456 1.33 0 2.13-.79 2.13-1.986 0-.926-.53-1.385-1.663-1.906-.72-.333-1.223-.521-1.223-1.142 0-.485.351-.809.917-.809.405 0 .701.19.953.585l.818-.423c-.242-.674-.899-1.06-1.851-1.06-1.17 0-1.933.728-1.933 1.761 0 .971.63 1.403 1.77 1.96.666.324 1.142.476 1.142 1.106 0 .575-.386.953-1.015.953-.657 0-1.088-.306-1.24-.881l-.837.386zM40.512 17.48h1.699v-.89h-4.45v.89h1.708v5.537h1.043zM43.029 23.017h1.043v-6.428h-1.043zM52.162 19.816a3.31 3.31 0 0 0-1.007-2.39 3.426 3.426 0 0 0-2.427-.98c-.926 0-1.78.341-2.436.98a3.287 3.287 0 0 0-.998 2.39c0 .917.342 1.744.998 2.383.647.638 1.52.988 2.436.988.917 0 1.77-.35 2.427-.989a3.26 3.26 0 0 0 1.007-2.382zm-1.088 0c0 .648-.243 1.24-.692 1.7a2.278 2.278 0 0 1-1.654.7c-.63 0-1.214-.242-1.663-.7a2.384 2.384 0 0 1-.683-1.7c0-.647.234-1.25.683-1.707a2.313 2.313 0 0 1 1.663-.702c.62 0 1.213.243 1.654.701.45.459.692 1.061.692 1.708zm-2.966-3.856h.54l1.284-1.195h-.988l-.836 1.195zM53.357 23.017h.962v-4.468c.18.252.387.494.62.72l4.162 4v-6.68h-.962v4.459a8.1 8.1 0 0 0-.7-.782l-4.082-3.928v6.678z"/>
    </g>
</svg>
