<svg xmlns="http://www.w3.org/2000/svg" width="23" height="23" viewBox="0 0 23 23">
    <defs>
        <filter id="zhu3pj4fpa" color-interpolation-filters="auto">
            <feColorMatrix in="SourceGraphic" values="0 0 0 0 1.000000 0 0 0 0 1.000000 0 0 0 0 1.000000 0 0 0 1.000000 0"/>
        </filter>
    </defs>
    <g fill="none" fill-rule="evenodd">
        <g>
            <g>
                <g filter="url(#zhu3pj4fpa)" transform="translate(-284.000000, -1066.000000) translate(1.000000, 1060.000000) translate(283.000000, 6.000000)">
                    <path fill="#000" fill-rule="nonzero" d="M18.71 17.06L23 21.35 21.35 23l-4.29-4.29c-1.797 1.438-4.076 2.298-6.556 2.298C4.703 21.008 0 16.305 0 10.504 0 4.703 4.703 0 10.504 0c5.8 0 10.504 4.703 10.504 10.504 0 2.48-.86 4.76-2.297 6.556zm-2.322-.888c1.415-1.47 2.285-3.467 2.285-5.668 0-4.512-3.657-8.17-8.17-8.17-4.511 0-8.169 3.658-8.169 8.17 0 4.512 3.658 8.17 8.17 8.17 2.2 0 4.199-.871 5.668-2.286.03-.04.064-.079.1-.115.037-.037.076-.07.116-.101z"/>
                </g>
            </g>
        </g>
    </g>
</svg>
